<?xml version="1.0" standalone="no"?><!DOCTYPE svg PUBLIC "-//W3C//DTD SVG 1.1//EN" "http://www.w3.org/Graphics/SVG/1.1/DTD/svg11.dtd"><svg xmlns="http://www.w3.org/2000/svg" viewBox="0 0 650 400" version="1.1"><clipPath id="box"><rect x="0" y="0" width="650" height="400" style="fill:none;stroke:none;" /></clipPath><g clip-path="url(#box)"><rect x="0.00" y="0.00" width="650.00" height="400.00" style="fill:#FFFFFF;stroke:none;" /><path d="M0.00 389.00 L650.00 389.00 M0.00 341.00 L650.00 341.00 M0.00 294.00 L650.00 294.00 M0.00 247.00 L650.00 247.00 M0.00 200.00 L650.00 200.00 M0.00 152.00 L650.00 152.00 M0.00 105.00 L650.00 105.00 M0.00 58.00 L650.00 58.00 M0.00 11.00 L650.00 11.00 M22.00 0.00 L22.00 400.00 M61.00 0.00 L61.00 400.00 M100.00 0.00 L100.00 400.00 M139.00 0.00 L139.00 400.00 M179.00 0.00 L179.00 400.00 M218.00 0.00 L218.00 400.00 M257.00 0.00 L257.00 400.00 M296.00 0.00 L296.00 400.00 M336.00 0.00 L336.00 400.00 M375.00 0.00 L375.00 400.00 M414.00 0.00 L414.00 400.00 M454.00 0.00 L454.00 400.00 M493.00 0.00 L493.00 400.00 M532.00 0.00 L532.00 400.00 M571.00 0.00 L571.00 400.00 M611.00 0.00 L611.00 400.00 " style="fill:none;stroke:#D0D0D0;stroke-width:1;" /><path d="M61.41 0.00 L61.41 400.00 " style="fill:none;stroke:#000000;stroke-width:1;" /><path d="M54.91 436.37 L67.91 436.37 M54.91 389.14 L67.91 389.14 M54.91 341.91 L67.91 341.91 M54.91 294.67 L67.91 294.67 M54.91 247.44 L67.91 247.44 M54.91 200.21 L67.91 200.21 M54.91 152.97 L67.91 152.97 M54.91 105.74 L67.91 105.74 M54.91 58.51 L67.91 58.51 M54.91 11.27 L67.91 11.27 " style="fill:none;stroke:#000000;stroke-width:1;" /><path d="M0.00 105.74 L650.00 105.74 " style="fill:none;stroke:#000000;stroke-width:1;" /><path d="M-17.11 99.24 L-17.11 112.24 M22.15 99.24 L22.15 112.24 M61.41 99.24 L61.41 112.24 M100.67 99.24 L100.67 112.24 M139.93 99.24 L139.93 112.24 M179.19 99.24 L179.19 112.24 M218.45 99.24 L218.45 112.24 M257.72 99.24 L257.72 112.24 M296.98 99.24 L296.98 112.24 M336.24 99.24 L336.24 112.24 M375.50 99.24 L375.50 112.24 M414.76 99.24 L414.76 112.24 M454.02 99.24 L454.02 112.24 M493.28 99.24 L493.28 112.24 M532.54 99.24 L532.54 112.24 M571.81 99.24 L571.81 112.24 M611.07 99.24 L611.07 112.24 " style="fill:none;stroke:#000000;stroke-width:1;" /><text x="69.53459528110554" y="391.64019620901075" text-anchor="start" style="font:10px Droid Sans,Trebuchet MS,Arial,Helvetica,sans-serif;stroke:none;fill:#000000">-1.2</text><text x="69.53459528110554" y="344.4070430558573" text-anchor="start" style="font:10px Droid Sans,Trebuchet MS,Arial,Helvetica,sans-serif;stroke:none;fill:#000000">-1</text><text x="69.53459528110554" y="297.1738899027039" text-anchor="start" style="font:10px Droid Sans,Trebuchet MS,Arial,Helvetica,sans-serif;stroke:none;fill:#000000">-0.8</text><text x="69.53459528110554" y="249.94073674955035" text-anchor="start" style="font:10px Droid Sans,Trebuchet MS,Arial,Helvetica,sans-serif;stroke:none;fill:#000000">-0.6</text><text x="69.53459528110554" y="202.70758359639692" text-anchor="start" style="font:10px Droid Sans,Trebuchet MS,Arial,Helvetica,sans-serif;stroke:none;fill:#000000">-0.4</text><text x="69.53459528110554" y="155.47443044324345" text-anchor="start" style="font:10px Droid Sans,Trebuchet MS,Arial,Helvetica,sans-serif;stroke:none;fill:#000000">-0.2</text><text x="69.53459528110554" y="108.24127729009" text-anchor="start" style="font:10px Droid Sans,Trebuchet MS,Arial,Helvetica,sans-serif;stroke:none;fill:#000000">0</text><text x="69.53459528110554" y="61.00812413693654" text-anchor="start" style="font:10px Droid Sans,Trebuchet MS,Arial,Helvetica,sans-serif;stroke:none;fill:#000000">0.2</text><text x="69.53459528110554" y="13.774970983783067" text-anchor="start" style="font:10px Droid Sans,Trebuchet MS,Arial,Helvetica,sans-serif;stroke:none;fill:#000000">0.4</text><text x="22.14839712442323" y="121.86627729008993" text-anchor="middle" style="font:10px Droid Sans,Trebuchet MS,Arial,Helvetica,sans-serif;stroke:none;fill:#000000">-0.2</text><text x="61.40959528110553" y="121.86627729008993" text-anchor="middle" style="font:10px Droid Sans,Trebuchet MS,Arial,Helvetica,sans-serif;stroke:none;fill:#000000">0</text><text x="100.67079343778784" y="121.86627729008993" text-anchor="middle" style="font:10px Droid Sans,Trebuchet MS,Arial,Helvetica,sans-serif;stroke:none;fill:#000000">0.2</text><text x="139.9319915944701" y="121.86627729008993" text-anchor="middle" style="font:10px Droid Sans,Trebuchet MS,Arial,Helvetica,sans-serif;stroke:none;fill:#000000">0.4</text><text x="179.19318975115246" y="121.86627729008993" text-anchor="middle" style="font:10px Droid Sans,Trebuchet MS,Arial,Helvetica,sans-serif;stroke:none;fill:#000000">0.6</text><text x="218.45438790783476" y="121.86627729008993" text-anchor="middle" style="font:10px Droid Sans,Trebuchet MS,Arial,Helvetica,sans-serif;stroke:none;fill:#000000">0.8</text><text x="257.715586064517" y="121.86627729008993" text-anchor="middle" style="font:10px Droid Sans,Trebuchet MS,Arial,Helvetica,sans-serif;stroke:none;fill:#000000">1</text><text x="296.9767842211993" y="121.86627729008993" text-anchor="middle" style="font:10px Droid Sans,Trebuchet MS,Arial,Helvetica,sans-serif;stroke:none;fill:#000000">1.2</text><text x="336.23798237788156" y="121.86627729008993" text-anchor="middle" style="font:10px Droid Sans,Trebuchet MS,Arial,Helvetica,sans-serif;stroke:none;fill:#000000">1.4</text><text x="375.4991805345639" y="121.86627729008993" text-anchor="middle" style="font:10px Droid Sans,Trebuchet MS,Arial,Helvetica,sans-serif;stroke:none;fill:#000000">1.6</text><text x="414.7603786912461" y="121.86627729008993" text-anchor="middle" style="font:10px Droid Sans,Trebuchet MS,Arial,Helvetica,sans-serif;stroke:none;fill:#000000">1.8</text><text x="454.02157684792843" y="121.86627729008993" text-anchor="middle" style="font:10px Droid Sans,Trebuchet MS,Arial,Helvetica,sans-serif;stroke:none;fill:#000000">2</text><text x="493.2827750046107" y="121.86627729008993" text-anchor="middle" style="font:10px Droid Sans,Trebuchet MS,Arial,Helvetica,sans-serif;stroke:none;fill:#000000">2.2</text><text x="532.543973161293" y="121.86627729008993" text-anchor="middle" style="font:10px Droid Sans,Trebuchet MS,Arial,Helvetica,sans-serif;stroke:none;fill:#000000">2.4</text><text x="571.8051713179754" y="121.86627729008993" text-anchor="middle" style="font:10px Droid Sans,Trebuchet MS,Arial,Helvetica,sans-serif;stroke:none;fill:#000000">2.6</text><text x="611.0663694746577" y="121.86627729008993" text-anchor="middle" style="font:10px Droid Sans,Trebuchet MS,Arial,Helvetica,sans-serif;stroke:none;fill:#000000">2.8</text><path d="M-10.00 200.00 L-0.25 94.02 L0.75 93.93 L2.75 93.80 L4.75 93.74 L6.75 93.73 L8.75 93.78 L10.75 93.88 L12.75 94.03 L14.75 94.21 L16.75 94.44 L18.75 94.70 L20.75 95.00 L22.75 95.32 L24.75 95.68 L26.75 96.06 L28.75 96.47 L30.75 96.90 L32.75 97.36 L34.75 97.83 L36.75 98.33 L38.75 98.84 L40.75 99.37 L42.75 99.92 L44.75 100.49 L46.75 101.07 L48.75 101.67 L50.75 102.28 L52.75 102.90 L54.75 103.54 L56.75 104.19 L58.75 104.85 L60.75 105.52 L62.75 106.20 L64.75 106.89 L66.75 107.60 L68.75 108.31 L70.75 109.03 L72.75 109.76 L74.75 110.50 L76.75 111.25 L78.75 112.00 L80.75 112.76 L82.75 113.53 L84.75 114.31 L86.75 115.10 L88.75 115.89 L90.75 116.68 L92.75 117.49 L94.75 118.30 L96.75 119.11 L98.75 119.94 L100.75 120.76 L102.75 121.60 L104.75 122.43 L106.75 123.28 L108.75 124.13 L110.75 124.98 L112.75 125.84 L114.75 126.70 L116.75 127.56 L118.75 128.44 L120.75 129.31 L122.75 130.19 L124.75 131.07 L126.75 131.96 L128.75 132.85 L130.75 133.75 L132.75 134.65 L134.75 135.55 L136.75 136.45 L138.75 137.36 L140.75 138.28 L142.75 139.19 L144.75 140.11 L146.75 141.03 L148.75 141.96 L150.75 142.89 L152.75 143.82 L154.75 144.75 L156.75 145.69 L158.75 146.63 L160.75 147.57 L162.75 148.51 L164.75 149.46 L166.75 150.41 L168.75 151.36 L170.75 152.32 L172.75 153.28 L174.75 154.23 L176.75 155.20 L178.75 156.16 L180.75 157.13 L182.75 158.09 L184.75 159.07 L186.75 160.04 L188.75 161.01 L190.75 161.99 L192.75 162.97 L194.75 163.95 L196.75 164.93 L198.75 165.91 L200.75 166.90 L202.75 167.89 L204.75 168.88 L206.75 169.87 L208.75 170.86 L210.75 171.86 L212.75 172.86 L214.75 173.85 L216.75 174.85 L218.75 175.86 L220.75 176.86 L222.74 177.86 L224.73 178.86 L226.72 179.86 L228.70 180.86 L230.69 181.86 L232.67 182.87 L234.64 183.87 L236.62 184.87 L238.59 185.87 L240.55 186.87 L242.52 187.87 L244.48 188.87 L246.44 189.87 L248.40 190.88 L250.36 191.88 L252.31 192.88 L254.26 193.88 L256.21 194.88 L258.16 195.88 L260.10 196.88 L262.04 197.88 L263.98 198.89 L265.92 199.89 L267.86 200.89 L269.79 201.89 L271.72 202.89 L273.65 203.89 L275.58 204.89 L277.51 205.89 L279.43 206.89 L281.36 207.89 L283.28 208.90 L285.20 209.90 L287.11 210.90 L289.03 211.90 L290.94 212.90 L292.85 213.90 L294.76 214.90 L296.67 215.90 L298.58 216.90 L300.48 217.90 L302.39 218.90 L304.29 219.90 L306.19 220.91 L308.09 221.91 L309.99 222.91 L311.88 223.91 L313.78 224.91 L315.67 225.91 L317.56 226.91 L319.45 227.91 L321.34 228.91 L323.23 229.91 L325.12 230.91 L327.00 231.91 L328.89 232.91 L330.77 233.91 L332.65 234.92 L334.53 235.92 L336.41 236.92 L338.29 237.92 L340.16 238.92 L342.04 239.92 L343.91 240.92 L345.78 241.92 L347.66 242.92 L349.53 243.92 L351.39 244.92 L353.26 245.92 L355.13 246.92 L357.00 247.92 L358.86 248.92 L360.72 249.92 L362.59 250.93 L364.45 251.93 L366.31 252.93 L368.17 253.93 L370.03 254.93 L371.89 255.93 L373.74 256.93 L375.60 257.93 L377.45 258.93 L379.31 259.93 L381.16 260.93 L383.01 261.93 L384.86 262.93 L386.71 263.93 L388.56 264.93 L390.41 265.93 L392.25 266.93 L394.10 267.93 L395.95 268.93 L397.79 269.94 L399.63 270.94 L401.48 271.94 L403.32 272.94 L405.16 273.94 L407.00 274.94 L408.84 275.94 L410.68 276.94 L412.52 277.94 L414.35 278.94 L416.19 279.94 L418.03 280.94 L419.86 281.94 L421.69 282.94 L423.53 283.94 L425.36 284.94 L427.19 285.94 L429.02 286.94 L430.85 287.94 L432.68 288.94 L434.51 289.94 L436.34 290.94 L438.17 291.94 L439.99 292.94 L441.82 293.95 L443.65 294.95 L445.47 295.95 L447.29 296.95 L449.12 297.95 L450.94 298.95 L452.76 299.95 L454.58 300.95 L456.40 301.95 L458.22 302.95 L460.04 303.95 L461.86 304.95 L463.68 305.95 L465.50 306.95 L467.32 307.95 L469.13 308.95 L470.95 309.95 L472.76 310.95 L474.58 311.95 L476.39 312.95 L478.20 313.95 L480.02 314.95 L481.83 315.95 L483.64 316.95 L485.45 317.95 L487.26 318.95 L489.07 319.95 L490.88 320.95 L492.69 321.95 L494.50 322.95 L496.31 323.96 L498.11 324.96 L499.92 325.96 L501.73 326.96 L503.53 327.96 L505.34 328.96 L507.14 329.96 L508.95 330.96 L510.75 331.96 L512.55 332.96 L514.36 333.96 L516.16 334.96 L517.96 335.96 L519.76 336.96 L521.56 337.96 L523.36 338.96 L525.16 339.96 L526.96 340.96 L528.76 341.96 L530.56 342.96 L532.35 343.96 L534.15 344.96 L535.95 345.96 L537.74 346.96 L539.54 347.96 L541.34 348.96 L543.13 349.96 L544.93 350.96 L546.72 351.96 L548.51 352.96 L550.31 353.96 L552.10 354.96 L553.89 355.96 L555.68 356.96 L557.48 357.96 L559.27 358.96 L561.06 359.96 L562.85 360.96 L564.64 361.96 L566.43 362.97 L568.22 363.97 L570.00 364.97 L571.79 365.97 L573.58 366.97 L575.37 367.97 L577.16 368.97 L578.94 369.97 L580.73 370.97 L582.51 371.97 L584.30 372.97 L586.08 373.97 L587.87 374.97 L589.65 375.97 L591.44 376.97 L593.22 377.97 L595.00 378.97 L596.79 379.97 L598.57 380.97 L600.35 381.97 L602.13 382.97 L603.92 383.97 L605.70 384.97 L607.48 385.97 L609.26 386.97 L611.04 387.97 L612.82 388.97 L614.60 389.97 L616.38 390.97 L618.15 391.97 L619.93 392.97 L621.71 393.97 L623.49 394.97 L625.27 395.97 L627.04 396.97 L628.82 397.97 L630.60 398.97 L632.37 399.97 L634.15 400.97 " style="fill:none;stroke:#1A1919;stroke-width:1;" /><path d="M-10.00 200.00 L-0.25 81.15 L0.75 81.59 L2.75 82.47 L4.75 83.34 L6.75 84.21 L8.75 85.08 L10.75 85.94 L12.75 86.80 L14.75 87.65 L16.75 88.49 L18.75 89.33 L20.75 90.17 L22.75 91.00 L24.75 91.83 L26.75 92.65 L28.75 93.46 L30.75 94.27 L32.75 95.07 L34.75 95.87 L36.75 96.66 L38.75 97.44 L40.75 98.21 L42.75 98.98 L44.75 99.74 L46.75 100.49 L48.75 101.24 L50.75 101.97 L52.75 102.70 L54.75 103.42 L56.75 104.13 L58.75 104.83 L60.75 105.52 L62.75 106.20 L64.75 106.86 L66.75 107.52 L68.75 108.16 L70.75 108.80 L72.75 109.41 L74.75 110.02 L76.75 110.61 L78.75 111.19 L80.75 111.75 L82.75 112.29 L84.75 112.82 L86.75 113.33 L88.75 113.82 L90.75 114.28 L92.75 114.73 L94.75 115.15 L96.75 115.55 L98.75 115.93 L100.75 116.27 L102.75 116.59 L104.75 116.87 L106.75 117.12 L108.75 117.34 L110.75 117.51 L112.75 117.64 L114.75 117.72 L116.75 117.76 L118.75 117.73 L120.75 117.65 L122.75 117.49 L124.75 117.26 L126.75 116.95 L128.75 116.54 L130.75 116.02 L132.75 115.38 L134.75 114.60 L136.75 113.64 L138.75 112.49 L140.49 111.30 L141.95 110.14 L143.20 109.00 L144.30 107.88 L145.28 106.76 L146.16 105.66 L146.96 104.57 L147.69 103.48 L148.36 102.39 L148.98 101.31 L149.55 100.23 L150.08 99.16 L150.57 98.09 L151.03 97.02 L151.46 95.95 L151.86 94.88 L152.24 93.82 L152.60 92.76 L152.93 91.70 L153.25 90.64 L153.54 89.58 L153.83 88.52 L154.09 87.46 L154.34 86.41 L154.58 85.35 L154.81 84.30 L155.02 83.25 L155.22 82.19 L155.42 81.14 L155.60 80.09 L155.78 79.04 L155.94 77.99 L156.10 76.94 L156.25 75.89 L156.39 74.84 L156.53 73.79 L156.66 72.74 L156.79 71.69 L156.90 70.65 L157.02 69.60 L157.13 68.55 L157.23 67.50 L157.33 66.46 L157.42 65.41 L157.51 64.36 L157.60 63.32 L157.68 62.27 L157.76 61.23 L157.83 60.18 L157.91 59.14 L157.97 58.09 L158.04 57.05 L158.10 56.00 L158.16 54.96 L158.22 53.91 L158.28 52.87 L158.33 51.82 L158.38 50.78 L158.43 49.73 L158.47 48.69 L158.52 47.65 L158.56 46.60 L158.60 45.56 L158.64 44.52 L158.68 43.47 L158.71 42.43 L158.75 41.39 L158.78 40.34 L158.81 39.30 L158.84 38.26 L158.87 37.21 L158.90 36.17 L158.93 35.13 L158.95 34.08 L158.98 33.04 L159.00 32.00 L159.02 30.96 L159.05 29.91 L159.07 28.87 L159.09 27.83 L159.11 26.79 L159.12 25.74 L159.14 24.70 L159.16 23.66 L159.18 22.62 L159.19 21.58 L159.21 20.53 L159.22 19.49 L159.23 18.45 L159.25 17.41 L159.26 16.36 L159.27 15.32 L159.28 14.28 L159.29 13.24 L159.31 12.20 L159.32 11.15 L159.33 10.11 L159.34 9.07 L159.34 8.03 L159.35 6.99 L159.36 5.94 L159.37 4.90 L159.38 3.86 L159.38 2.82 L159.39 1.78 L159.40 0.74 L159.41 -0.31 " style="fill:none;stroke:#F70A0A;stroke-width:1;" /><path d="M160.54 -0.03 L160.54 0.00 L160.58 0.98 L160.62 1.95 L160.66 2.91 L160.70 3.88 L160.74 4.84 L160.78 5.81 L160.83 6.77 L160.88 7.74 L160.93 8.70 L160.98 9.67 L161.03 10.63 L161.08 11.60 L161.14 12.56 L161.20 13.53 L161.26 14.49 L161.32 15.46 L161.38 16.43 L161.45 17.39 L161.52 18.36 L161.59 19.32 L161.67 20.29 L161.74 21.26 L161.82 22.22 L161.91 23.19 L161.99 24.16 L162.08 25.12 L162.17 26.09 L162.26 27.06 L162.36 28.02 L162.46 28.99 L162.57 29.96 L162.67 30.93 L162.79 31.89 L162.90 32.86 L163.02 33.83 L163.14 34.80 L163.27 35.77 L163.40 36.74 L163.54 37.70 L163.67 38.67 L163.82 39.64 L163.97 40.61 L164.12 41.58 L164.28 42.55 L164.44 43.52 L164.61 44.49 L164.78 45.46 L164.96 46.43 L165.15 47.40 L165.34 48.37 L165.53 49.34 L165.73 50.31 L165.94 51.29 L166.15 52.26 L166.37 53.23 L166.60 54.20 L166.83 55.17 L167.07 56.15 L167.31 57.12 L167.57 58.09 L167.83 59.07 L168.09 60.04 L168.37 61.01 L168.65 61.99 L168.94 62.96 L169.23 63.94 L169.53 64.91 L169.85 65.89 L170.17 66.86 L170.49 67.84 L170.83 68.82 L171.17 69.79 L171.52 70.77 L171.88 71.75 L172.25 72.72 L172.63 73.70 L173.01 74.68 L173.41 75.66 L173.81 76.64 L174.22 77.61 L174.64 78.59 L175.07 79.57 L175.51 80.55 L175.96 81.53 L176.42 82.51 L176.88 83.49 L177.36 84.47 L177.85 85.46 L178.34 86.44 L178.84 87.42 L179.36 88.40 L179.88 89.38 L180.41 90.37 L180.95 91.35 L181.50 92.33 L182.06 93.31 L182.63 94.30 L183.21 95.28 L183.80 96.27 L184.40 97.25 L185.01 98.24 L185.62 99.22 L186.25 100.21 L186.88 101.19 L187.53 102.18 L188.18 103.16 L188.85 104.15 L189.52 105.14 L190.20 106.12 L190.89 107.11 L191.59 108.10 L192.30 109.09 L193.02 110.07 L193.74 111.06 L194.48 112.05 L195.22 113.04 L195.98 114.03 L196.74 115.02 L197.51 116.00 L198.29 116.99 L199.07 117.98 L199.87 118.97 L200.67 119.96 L201.48 120.95 L202.30 121.94 L203.13 122.93 L203.97 123.92 L204.81 124.91 L205.67 125.91 L206.53 126.90 L207.39 127.89 L208.27 128.88 L209.15 129.87 L210.04 130.86 L210.94 131.85 L211.84 132.85 L212.76 133.84 L213.68 134.83 L214.60 135.82 L215.54 136.82 L216.48 137.81 L217.42 138.80 L218.38 139.80 L219.34 140.79 L220.30 141.78 L221.28 142.78 L222.26 143.77 L223.24 144.76 L224.24 145.76 L225.24 146.75 L226.24 147.74 L227.25 148.74 L228.27 149.73 L229.29 150.73 L230.32 151.72 L231.36 152.72 L232.40 153.71 L233.44 154.71 L234.49 155.70 L235.55 156.70 L236.61 157.69 L237.68 158.69 L238.75 159.68 L239.83 160.68 L240.91 161.67 L242.00 162.67 L243.10 163.66 L244.19 164.66 L245.30 165.65 L246.41 166.65 L247.52 167.64 L248.64 168.64 L249.76 169.64 L250.88 170.63 L252.02 171.63 L253.15 172.62 L254.29 173.62 L255.44 174.62 L256.58 175.61 L257.74 176.61 L258.89 177.61 L260.06 178.60 L261.22 179.60 L262.39 180.60 L263.56 181.59 L264.74 182.59 L265.92 183.59 L267.11 184.58 L268.30 185.58 L269.49 186.58 L270.68 187.57 L271.88 188.57 L273.09 189.57 L274.29 190.56 L275.50 191.56 L276.72 192.56 L277.94 193.56 L279.16 194.55 L280.38 195.55 L281.61 196.55 L282.84 197.55 L284.07 198.54 L285.31 199.54 L286.55 200.54 L287.79 201.54 L289.04 202.53 L290.29 203.53 L291.54 204.53 L292.79 205.53 L294.05 206.52 L295.31 207.52 L296.58 208.52 L297.84 209.52 L299.11 210.52 L300.38 211.51 L301.66 212.51 L302.94 213.51 L304.22 214.51 L305.50 215.50 L306.78 216.50 L308.07 217.50 L309.36 218.50 L310.66 219.50 L311.95 220.50 L313.25 221.49 L314.55 222.49 L315.85 223.49 L317.16 224.49 L318.46 225.49 L319.77 226.48 L321.09 227.48 L322.40 228.48 L323.72 229.48 L325.04 230.48 L326.36 231.48 L327.68 232.47 L329.00 233.47 L330.33 234.47 L331.66 235.47 L332.99 236.47 L334.33 237.47 L335.66 238.47 L337.00 239.46 L338.34 240.46 L339.68 241.46 L341.02 242.46 L342.37 243.46 L343.72 244.46 L345.06 245.46 L346.42 246.45 L347.77 247.45 L349.12 248.45 L350.48 249.45 L351.84 250.45 L353.20 251.45 L354.56 252.45 L355.92 253.44 L357.29 254.44 L358.65 255.44 L360.02 256.44 L361.39 257.44 L362.76 258.44 L364.14 259.44 L365.51 260.44 L366.89 261.44 L368.27 262.43 L369.65 263.43 L371.03 264.43 L372.41 265.43 L373.79 266.43 L375.18 267.43 L376.57 268.43 L377.96 269.43 L379.35 270.43 L380.74 271.42 L382.13 272.42 L383.53 273.42 L384.92 274.42 L386.32 275.42 L387.72 276.42 L389.12 277.42 L390.52 278.42 L391.92 279.42 L393.33 280.42 L394.73 281.41 L396.14 282.41 L397.55 283.41 L398.96 284.41 L400.37 285.41 L401.78 286.41 L403.19 287.41 L404.61 288.41 L406.02 289.41 L407.44 290.41 L408.86 291.41 L410.27 292.41 L411.70 293.40 L413.12 294.40 L414.54 295.40 L415.96 296.40 L417.39 297.40 L418.81 298.40 L420.24 299.40 L421.67 300.40 L423.10 301.40 L424.53 302.40 L425.96 303.40 L427.39 304.40 L428.83 305.39 L430.26 306.39 L431.70 307.39 L433.13 308.39 L434.57 309.39 L436.01 310.39 L437.45 311.39 L438.89 312.39 L440.33 313.39 L441.78 314.39 L443.22 315.39 L444.66 316.39 L446.11 317.39 L447.56 318.39 L449.00 319.39 L450.45 320.38 L451.90 321.38 L453.35 322.38 L454.80 323.38 L456.26 324.38 L457.71 325.38 L459.16 326.38 L460.62 327.38 L462.07 328.38 L463.53 329.38 L464.99 330.38 L466.45 331.38 L467.91 332.38 L469.37 333.38 L470.83 334.38 L472.29 335.38 L473.75 336.38 L475.22 337.37 L476.68 338.37 L478.14 339.37 L479.61 340.37 L481.08 341.37 L482.54 342.37 L484.01 343.37 L485.48 344.37 L486.95 345.37 L488.42 346.37 L489.89 347.37 L491.37 348.37 L492.84 349.37 L494.31 350.37 L495.79 351.37 L497.26 352.37 L498.74 353.37 L500.21 354.37 L501.69 355.37 L503.17 356.36 L504.65 357.36 L506.13 358.36 L507.61 359.36 L509.09 360.36 L510.57 361.36 L512.05 362.36 L513.53 363.36 L515.02 364.36 L516.50 365.36 L517.99 366.36 L519.47 367.36 L520.96 368.36 L522.44 369.36 L523.93 370.36 L525.42 371.36 L526.91 372.36 L528.40 373.36 L529.89 374.36 L531.38 375.36 L532.87 376.36 L534.36 377.36 L535.85 378.36 L537.35 379.35 L538.84 380.35 L540.33 381.35 L541.83 382.35 L543.32 383.35 L544.82 384.35 L546.32 385.35 L547.81 386.35 L549.31 387.35 L550.81 388.35 L552.31 389.35 L553.81 390.35 L555.31 391.35 L556.81 392.35 L558.31 393.35 L559.81 394.35 L561.31 395.35 L562.82 396.35 L564.32 397.35 L565.82 398.35 L567.33 399.35 L568.83 400.35 " style="fill:none;stroke:#F21313;stroke-width:1;" /><path d="M-10.00 200.00 L-0.25 45.04 L0.75 45.64 L2.41 46.64 L4.08 47.64 L5.74 48.64 L7.40 49.64 L9.06 50.64 L10.72 51.64 L12.39 52.64 L14.05 53.64 L15.71 54.64 L17.37 55.64 L19.04 56.64 L20.70 57.64 L22.36 58.64 L24.02 59.64 L25.69 60.64 L27.35 61.64 L29.01 62.64 L30.67 63.64 L32.34 64.64 L34.00 65.64 L35.66 66.64 L37.32 67.64 L38.99 68.64 L40.65 69.64 L42.31 70.64 L43.97 71.64 L45.64 72.64 L47.30 73.64 L48.96 74.64 L50.62 75.64 L52.29 76.64 L53.95 77.64 L55.61 78.64 L57.27 79.64 L58.94 80.64 L60.60 81.64 L62.26 82.64 L63.92 83.64 L65.59 84.64 L67.25 85.64 L68.91 86.64 L70.57 87.64 L72.24 88.64 L73.90 89.64 L75.56 90.64 L77.22 91.64 L78.89 92.64 L80.55 93.64 L82.21 94.64 L83.87 95.64 L85.53 96.64 L87.20 97.64 L88.86 98.64 L90.52 99.64 L92.18 100.64 L93.85 101.64 L95.51 102.64 L97.17 103.64 L98.83 104.64 L100.50 105.64 L102.16 106.64 L103.82 107.64 L105.48 108.64 L107.15 109.64 L108.81 110.64 L110.47 111.64 L112.13 112.64 L113.80 113.64 L115.46 114.64 L117.12 115.64 L118.78 116.64 L120.45 117.64 L122.11 118.64 L123.77 119.64 L125.43 120.64 L127.10 121.64 L128.76 122.64 L130.42 123.64 L132.08 124.64 L133.75 125.64 L135.41 126.64 L137.07 127.64 L138.73 128.64 L140.40 129.64 L142.06 130.64 L143.72 131.64 L145.38 132.64 L147.05 133.64 L148.71 134.64 L150.37 135.64 L152.03 136.64 L153.69 137.64 L155.36 138.64 L157.02 139.64 L158.68 140.64 L160.34 141.64 L162.01 142.64 L163.67 143.64 L165.33 144.64 L166.99 145.64 L168.66 146.64 L170.32 147.64 L171.98 148.64 L173.64 149.64 L175.31 150.64 L176.97 151.64 L178.63 152.64 L180.29 153.64 L181.96 154.64 L183.62 155.64 L185.28 156.64 L186.94 157.64 L188.61 158.64 L190.27 159.64 L191.93 160.64 L193.59 161.64 L195.26 162.64 L196.92 163.64 L198.58 164.64 L200.24 165.64 L201.91 166.64 L203.57 167.64 L205.23 168.64 L206.89 169.64 L208.56 170.64 L210.22 171.64 L211.88 172.64 L213.54 173.64 L215.21 174.64 L216.87 175.64 L218.53 176.64 L220.19 177.64 L221.86 178.64 L223.52 179.64 L225.18 180.64 L226.84 181.64 L228.50 182.64 L230.17 183.64 L231.83 184.64 L233.49 185.64 L235.15 186.64 L236.82 187.64 L238.48 188.64 L240.14 189.64 L241.80 190.64 L243.47 191.64 L245.13 192.64 L246.79 193.64 L248.45 194.64 L250.12 195.64 L251.78 196.64 L253.44 197.64 L255.10 198.64 L256.77 199.64 L258.43 200.64 L260.09 201.64 L261.75 202.64 L263.42 203.64 L265.08 204.64 L266.74 205.64 L268.40 206.64 L270.07 207.64 L271.73 208.64 L273.39 209.64 L275.05 210.64 L276.72 211.64 L278.38 212.64 L280.04 213.64 L281.70 214.64 L283.37 215.64 L285.03 216.64 L286.69 217.64 L288.35 218.64 L290.02 219.64 L291.68 220.64 L293.34 221.64 L295.00 222.64 L296.66 223.64 L298.33 224.64 L299.99 225.64 L301.65 226.64 L303.31 227.64 L304.98 228.64 L306.64 229.64 L308.30 230.64 L309.96 231.64 L311.63 232.64 L313.29 233.64 L314.95 234.64 L316.61 235.64 L318.28 236.64 L319.94 237.64 L321.60 238.64 L323.26 239.64 L324.93 240.64 L326.59 241.64 L328.25 242.64 L329.91 243.64 L331.58 244.64 L333.24 245.64 L334.90 246.64 L336.56 247.64 L338.23 248.64 L339.89 249.64 L341.55 250.64 L343.21 251.64 L344.88 252.64 L346.54 253.64 L348.20 254.64 L349.86 255.64 L351.53 256.64 L353.19 257.64 L354.85 258.64 L356.51 259.64 L358.18 260.64 L359.84 261.64 L361.50 262.64 L363.16 263.64 L364.83 264.64 L366.49 265.64 L368.15 266.64 L369.81 267.64 L371.47 268.64 L373.14 269.64 L374.80 270.64 L376.46 271.64 L378.12 272.64 L379.79 273.64 L381.45 274.64 L383.11 275.64 L384.77 276.64 L386.44 277.64 L388.10 278.64 L389.76 279.64 L391.42 280.64 L393.09 281.64 L394.75 282.64 L396.41 283.64 L398.07 284.64 L399.74 285.64 L401.40 286.64 L403.06 287.64 L404.72 288.64 L406.39 289.64 L408.05 290.64 L409.71 291.64 L411.37 292.64 L413.04 293.64 L414.70 294.64 L416.36 295.64 L418.02 296.64 L419.69 297.64 L421.35 298.64 L423.01 299.64 L424.67 300.64 L426.34 301.64 L428.00 302.64 L429.66 303.64 L431.32 304.64 L432.99 305.64 L434.65 306.64 L436.31 307.64 L437.97 308.64 L439.64 309.64 L441.30 310.64 L442.96 311.64 L444.62 312.64 L446.28 313.64 L447.95 314.64 L449.61 315.64 L451.27 316.64 L452.93 317.64 L454.60 318.64 L456.26 319.64 L457.92 320.64 L459.58 321.64 L461.25 322.64 L462.91 323.64 L464.57 324.64 L466.23 325.64 L467.90 326.64 L469.56 327.64 L471.22 328.64 L472.88 329.64 L474.55 330.64 L476.21 331.64 L477.87 332.64 L479.53 333.64 L481.20 334.64 L482.86 335.64 L484.52 336.64 L486.18 337.64 L487.85 338.64 L489.51 339.64 L491.17 340.64 L492.83 341.64 L494.50 342.64 L496.16 343.64 L497.82 344.64 L499.48 345.64 L501.15 346.64 L502.81 347.64 L504.47 348.64 L506.13 349.64 L507.80 350.64 L509.46 351.64 L511.12 352.64 L512.78 353.64 L514.44 354.64 L516.11 355.64 L517.77 356.64 L519.43 357.64 L521.09 358.64 L522.76 359.64 L524.42 360.64 L526.08 361.64 L527.74 362.64 L529.41 363.64 L531.07 364.64 L532.73 365.64 L534.39 366.64 L536.06 367.64 L537.72 368.64 L539.38 369.64 L541.04 370.64 L542.71 371.64 L544.37 372.64 L546.03 373.64 L547.69 374.64 L549.36 375.64 L551.02 376.64 L552.68 377.64 L554.34 378.64 L556.01 379.64 L557.67 380.64 L559.33 381.64 L560.99 382.64 L562.66 383.64 L564.32 384.64 L565.98 385.64 L567.64 386.64 L569.31 387.64 L570.97 388.64 L572.63 389.64 L574.29 390.64 L575.96 391.64 L577.62 392.64 L579.28 393.64 L580.94 394.64 L582.61 395.64 L584.27 396.64 L585.93 397.64 L587.59 398.64 L589.25 399.64 L590.92 400.64 " style="fill:none;stroke:#0CEAF2;stroke-width:1;" /></g></svg>