<?xml version="1.0" encoding="UTF-8" standalone="no"?>
<svg
   xmlns:dc="http://purl.org/dc/elements/1.1/"
   xmlns:cc="http://creativecommons.org/ns#"
   xmlns:rdf="http://www.w3.org/1999/02/22-rdf-syntax-ns#"
   xmlns:svg="http://www.w3.org/2000/svg"
   xmlns="http://www.w3.org/2000/svg"
   xmlns:sodipodi="http://sodipodi.sourceforge.net/DTD/sodipodi-0.dtd"
   xmlns:inkscape="http://www.inkscape.org/namespaces/inkscape"
   viewBox="0 0 650 400"
   version="1.1"
   id="svg2"
   inkscape:version="0.48.3.1 r9886"
   width="100%"
   height="100%"
   sodipodi:docname="save (2).svg">
  <metadata
     id="metadata69">
    <rdf:RDF>
      <cc:Work
         rdf:about="">
        <dc:format>image/svg+xml</dc:format>
        <dc:type
           rdf:resource="http://purl.org/dc/dcmitype/StillImage" />
      </cc:Work>
    </rdf:RDF>
  </metadata>
  <defs
     id="defs67">
    <marker
       inkscape:stockid="Arrow1Lend"
       orient="auto"
       refY="0.0"
       refX="0.0"
       id="Arrow1Lend"
       style="overflow:visible;">
      <path
         id="path3851"
         d="M 0.0,0.0 L 5.0,-5.0 L -12.5,0.0 L 5.0,5.0 L 0.0,0.0 z "
         style="fill-rule:evenodd;stroke:#000000;stroke-width:1.0pt;"
         transform="scale(0.8) rotate(180) translate(12.5,0)" />
    </marker>
  </defs>
  <sodipodi:namedview
     pagecolor="#ffffff"
     bordercolor="#666666"
     borderopacity="1"
     objecttolerance="10"
     gridtolerance="10"
     guidetolerance="10"
     inkscape:pageopacity="0"
     inkscape:pageshadow="2"
     inkscape:window-width="1920"
     inkscape:window-height="1030"
     id="namedview65"
     showgrid="false"
     inkscape:zoom="2"
     inkscape:cx="377.14859"
     inkscape:cy="165.64549"
     inkscape:window-x="-5"
     inkscape:window-y="0"
     inkscape:window-maximized="1"
     inkscape:current-layer="g7" />
  <clipPath
     id="box">
    <rect
       x="0"
       y="0"
       width="650"
       height="400"
       style="fill:none;stroke:none;"
       id="rect5" />
  </clipPath>
  <g
     clip-path="url(#box)"
     id="g7">
    <rect
       x="0.00"
       y="0.00"
       width="650.00"
       height="400.00"
       style="fill:#FFFFFF;stroke:none;"
       id="rect9" />
    <path
       d="M0.00 368.00 L650.00 368.00 M0.00 309.00 L650.00 309.00 M0.00 250.00 L650.00 250.00 M0.00 191.00 L650.00 191.00 M0.00 132.00 L650.00 132.00 M0.00 73.00 L650.00 73.00 M0.00 14.00 L650.00 14.00 M47.00 0.00 L47.00 400.00 M96.00 0.00 L96.00 400.00 M145.00 0.00 L145.00 400.00 M194.00 0.00 L194.00 400.00 M243.00 0.00 L243.00 400.00 M292.00 0.00 L292.00 400.00 M341.00 0.00 L341.00 400.00 M390.00 0.00 L390.00 400.00 M439.00 0.00 L439.00 400.00 M488.00 0.00 L488.00 400.00 M538.00 0.00 L538.00 400.00 M587.00 0.00 L587.00 400.00 M636.00 0.00 L636.00 400.00 "
       style="fill:none;stroke:#D0D0D0;stroke-width:1;"
       id="path11" />
    <path
       d="M292.66 0.00 L292.66 400.00 "
       style="fill:none;stroke:#000000;stroke-width:1;"
       id="path13" />
    <path
       d="M286.16 427.40 L299.16 427.40 M286.16 368.36 L299.16 368.36 M286.16 309.32 L299.16 309.32 M286.16 250.28 L299.16 250.28 M286.16 191.23 L299.16 191.23 M286.16 132.19 L299.16 132.19 M286.16 73.15 L299.16 73.15 M286.16 14.11 L299.16 14.11 "
       style="fill:none;stroke:#000000;stroke-width:1;"
       id="path15" />
    <path
       d="M0.00 191.23 L650.00 191.23 "
       style="fill:none;stroke:#000000;stroke-width:1;"
       id="path17" />
    <path
       d="M-1.80 184.73 L-1.80 197.73 M47.28 184.73 L47.28 197.73 M96.35 184.73 L96.35 197.73 M145.43 184.73 L145.43 197.73 M194.51 184.73 L194.51 197.73 M243.58 184.73 L243.58 197.73 M292.66 184.73 L292.66 197.73 M341.73 184.73 L341.73 197.73 M390.81 184.73 L390.81 197.73 M439.89 184.73 L439.89 197.73 M488.96 184.73 L488.96 197.73 M538.04 184.73 L538.04 197.73 M587.12 184.73 L587.12 197.73 M636.19 184.73 L636.19 197.73 "
       style="fill:none;stroke:#000000;stroke-width:1;"
       id="path19" />
    <text
       x="300.78339410138227"
       y="370.8590009369381"
       text-anchor="start"
       style="font:10px Droid Sans,Trebuchet MS,Arial,Helvetica,sans-serif;stroke:none;fill:#000000"
       id="text21">-0.6</text>
    <text
       x="300.78339410138227"
       y="311.81755949549637"
       text-anchor="start"
       style="font:10px Droid Sans,Trebuchet MS,Arial,Helvetica,sans-serif;stroke:none;fill:#000000"
       id="text23">-0.4</text>
    <text
       x="300.78339410138227"
       y="252.7761180540545"
       text-anchor="start"
       style="font:10px Droid Sans,Trebuchet MS,Arial,Helvetica,sans-serif;stroke:none;fill:#000000"
       id="text25">-0.2</text>
    <text
       x="300.78339410138227"
       y="193.7346766126127"
       text-anchor="start"
       style="font:10px Droid Sans,Trebuchet MS,Arial,Helvetica,sans-serif;stroke:none;fill:#000000"
       id="text27">0</text>
    <text
       x="300.78339410138227"
       y="134.69323517117093"
       text-anchor="start"
       style="font:10px Droid Sans,Trebuchet MS,Arial,Helvetica,sans-serif;stroke:none;fill:#000000"
       id="text29">0.2</text>
    <text
       x="300.78339410138227"
       y="75.65179372972912"
       text-anchor="start"
       style="font:10px Droid Sans,Trebuchet MS,Arial,Helvetica,sans-serif;stroke:none;fill:#000000"
       id="text31">0.4</text>
    <text
       x="300.78339410138227"
       y="16.61035228828731"
       text-anchor="start"
       style="font:10px Droid Sans,Trebuchet MS,Arial,Helvetica,sans-serif;stroke:none;fill:#000000"
       id="text33">0.6</text>
    <text
       x="47.275905622118145"
       y="207.3596766126127"
       text-anchor="middle"
       style="font:10px Droid Sans,Trebuchet MS,Arial,Helvetica,sans-serif;stroke:none;fill:#000000"
       id="text35">-1</text>
    <text
       x="96.35240331797094"
       y="207.3596766126127"
       text-anchor="middle"
       style="font:10px Droid Sans,Trebuchet MS,Arial,Helvetica,sans-serif;stroke:none;fill:#000000"
       id="text37">-0.8</text>
    <text
       x="145.42890101382375"
       y="207.3596766126127"
       text-anchor="middle"
       style="font:10px Droid Sans,Trebuchet MS,Arial,Helvetica,sans-serif;stroke:none;fill:#000000"
       id="text39">-0.6</text>
    <text
       x="194.50539870967654"
       y="207.3596766126127"
       text-anchor="middle"
       style="font:10px Droid Sans,Trebuchet MS,Arial,Helvetica,sans-serif;stroke:none;fill:#000000"
       id="text41">-0.4</text>
    <text
       x="243.58189640552933"
       y="207.3596766126127"
       text-anchor="middle"
       style="font:10px Droid Sans,Trebuchet MS,Arial,Helvetica,sans-serif;stroke:none;fill:#000000"
       id="text43">-0.2</text>
    <text
       x="292.65839410138216"
       y="207.3596766126127"
       text-anchor="middle"
       style="font:10px Droid Sans,Trebuchet MS,Arial,Helvetica,sans-serif;stroke:none;fill:#000000"
       id="text45">0</text>
    <text
       x="341.734891797235"
       y="207.3596766126127"
       text-anchor="middle"
       style="font:10px Droid Sans,Trebuchet MS,Arial,Helvetica,sans-serif;stroke:none;fill:#000000"
       id="text47">0.2</text>
    <text
       x="390.81138949308774"
       y="207.3596766126127"
       text-anchor="middle"
       style="font:10px Droid Sans,Trebuchet MS,Arial,Helvetica,sans-serif;stroke:none;fill:#000000"
       id="text49">0.4</text>
    <text
       x="439.8878871889406"
       y="207.3596766126127"
       text-anchor="middle"
       style="font:10px Droid Sans,Trebuchet MS,Arial,Helvetica,sans-serif;stroke:none;fill:#000000"
       id="text51">0.6</text>
    <text
       x="488.96438488479345"
       y="207.3596766126127"
       text-anchor="middle"
       style="font:10px Droid Sans,Trebuchet MS,Arial,Helvetica,sans-serif;stroke:none;fill:#000000"
       id="text53">0.8</text>
    <text
       x="538.0408825806462"
       y="207.3596766126127"
       text-anchor="middle"
       style="font:10px Droid Sans,Trebuchet MS,Arial,Helvetica,sans-serif;stroke:none;fill:#000000"
       id="text55">1</text>
    <text
       x="587.117380276499"
       y="207.3596766126127"
       text-anchor="middle"
       style="font:10px Droid Sans,Trebuchet MS,Arial,Helvetica,sans-serif;stroke:none;fill:#000000"
       id="text57">1.2</text>
    <text
       x="636.1938779723519"
       y="207.3596766126127"
       text-anchor="middle"
       style="font:10px Droid Sans,Trebuchet MS,Arial,Helvetica,sans-serif;stroke:none;fill:#000000"
       id="text59">1.4</text>
    <path
       style="fill:none;stroke:#f70000;stroke-width:1"
       d="m 292.0657,191.03524 2.0743,0.70476 2,0.69 2,0.7 2,0.71 2,0.71 2,0.73 2,0.72 2,0.74 2,0.74 2,0.75 2,0.76 2,0.76 2,0.77 2,0.77 2,0.78 2,0.78 2,0.79 2,0.8 2,0.8 2,0.8 2,0.81 2,0.82 2,0.82 2,0.82 2,0.83 2,0.83 2,0.84 2,0.84 2,0.85 2,0.85 2,0.85 2,0.86 2,0.86 2,0.86 2,0.87 2,0.87 2,0.87 2,0.88 2,0.88 2,0.89 2,0.89 2,0.89 2,0.89 2,0.9 2,0.9 2,0.9 2,0.9 2,0.91 2,0.91 2,0.92 2,0.91 2,0.92 2,0.92 2,0.92 2,0.93 2,0.93 2,0.93 2,0.93 2,0.94 2,0.93 2,0.94 2,0.94 2,0.95 2,0.94 2,0.95 2,0.95 2,0.95 2,0.96 2,0.95 2,0.96 2,0.96 2,0.96 2,0.96 2,0.97 2,0.97 2,0.96 2,0.97 2,0.98 2,0.97 2,0.97 2,0.98 2,0.98 2,0.98 2,0.98 2,0.98 2,0.99 2,0.98 2,0.99 2,0.99 2,0.99 2,0.99 2,0.99 2,1 2,0.99 2,1 2,1 2,1 2,1 2,1 2,1 1.99,1 1.99,1.01 1.99,1 1.99,1 1.98,1 1.98,1 1.98,1 1.98,1 1.97,1 1.97,1 1.97,1.01 1.97,1 1.97,1 1.96,1 1.96,1 1.96,1 1.96,1 1.96,1 1.95,1 1.96,1 1.95,1.01 1.95,1 1.94,1 1.95,1 1.94,1 1.94,1 1.94,1 1.94,1 1.94,1 1.93,1 1.94,1 1.93,1.01 1.93,1 1.93,1 1.92,1 1.93,1 1.92,1 1.93,1 1.92,1 1.92,1 1.92,1 1.91,1 1.92,1 1.91,1 1.92,1.01 1.91,1 1.91,1 1.91,1 1.91,1 1.9,1 1.91,1 1.9,1 1.9,1 1.9,1 1.9,1 1.9,1 1.9,1 1.9,1 1.89,1 1.9,1 1.89,1.01 1.89,1 1.89,1 1.89,1 1.89,1 1.89,1 1.88,1 1.89,1 1.88,1 1.89,1 1.88,1 1.88,1 1.88,1 1.88,1 1.88,1 1.88,1 1.87,1 1.88,1 1.87,1.01 1.87,1 1.88,1 1.87,1"
       id="path61"
       inkscape:connector-curvature="0"
       sodipodi:nodetypes="ccccccccccccccccccccccccccccccccccccccccccccccccccccccccccccccccccccccccccccccccccccccccccccccccccccccccccccccccccccccccccccccccccccccccccccccccccccccccccccccccccccccccccccccccccccccc" />
    <path
       style="fill:none;stroke:#00fe0a;stroke-width:1;stroke-opacity:1;marker-mid:none;stroke-miterlimit:4;stroke-dasharray:none"
       d="m -10,200 9.75,-145.85 1,0.52 1.91,1 1.91,1 1.91,1 1.91,1 1.91,1 1.91,1 1.92,1 1.91,1 1.92,1 1.92,1 1.92,0.99 1.92,1 1.93,1 1.92,1 1.93,1 1.93,1 1.93,1 1.93,1 1.93,1 1.93,1 1.94,1 1.94,1 1.94,0.99 1.94,1 1.94,1 1.94,1 1.95,1 1.95,1 1.95,1 1.95,1 1.95,1 1.96,1 1.96,1 1.95,0.99 1.97,1 1.96,1 1.96,1 1.97,1 1.97,1 1.97,1 1.97,1 1.98,1 1.98,0.99 1.98,1 1.98,1 1.99,1 1.98,1 1.99,1 1.99,1 2,1 1.99,1 2,0.99 2,1 2,1 2,0.99 2,1 2,0.99 2,0.99 2,0.99 2,0.99 2,0.98 2,0.99 2,0.98 2,0.99 2,0.98 2,0.98 2,0.97 2,0.98 2,0.97 2,0.98 2,0.97 2,0.97 2,0.96 2,0.97 2,0.96 2,0.97 2,0.96 2,0.96 2,0.95 2,0.96 2,0.95 2,0.95 2,0.95 2,0.95 2,0.94 2,0.95 2,0.94 2,0.93 2,0.94 2,0.93 2,0.94 2,0.93 2,0.92 2,0.93 2,0.92 2,0.92 2,0.92 2,0.91 2,0.91 2,0.91 2,0.91 2,0.9 2,0.91 2,0.89 2,0.9 2,0.89 2,0.89 2,0.89 2,0.88 2,0.88 2,0.88 2,0.87 2,0.87 2,0.86 2,0.87 2,0.86 2,0.85 2,0.85 2,0.85 2,0.84 2,0.84 2,0.84 2,0.83 2,0.83 2,0.82 2,0.82 2,0.81 2,0.81 2,0.8 2,0.8 2,0.79 2,0.79 2,0.78 2,0.78 2,0.77 2,0.76 2,0.76 2,0.75 2,0.75 2,0.74 2,0.73 2,0.73 2,0.72 2,0.71 2,0.7 2,0.7 2.07429,0.66524"
       id="path3048"
       inkscape:connector-curvature="0"
       sodipodi:nodetypes="cccccccccccccccccccccccccccccccccccccccccccccccccccccccccccccccccccccccccccccccccccccccccccccccccccccccccccccccccccccccccccccccccccccccccccccccccccccc" />
    <text
       xml:space="preserve"
       style="font-size:20px;font-style:normal;font-variant:normal;font-weight:normal;font-stretch:normal;text-align:start;line-height:125%;letter-spacing:0px;word-spacing:0px;writing-mode:lr-tb;text-anchor:start;fill:#000000;fill-opacity:1;stroke:none;font-family:Times New Roman;-inkscape-font-specification:'Times New Roman,'"
       x="459.5"
       y="246.5"
       id="text4470"
       sodipodi:linespacing="125%"><tspan
         sodipodi:role="line"
         id="tspan4472"
         x="459.5"
         y="246.5">u = -1</tspan></text>
    <text
       xml:space="preserve"
       style="font-size:20px;font-style:normal;font-variant:normal;font-weight:normal;font-stretch:normal;text-align:start;line-height:125%;letter-spacing:0px;word-spacing:0px;writing-mode:lr-tb;text-anchor:start;fill:#000000;fill-opacity:1;stroke:none;font-family:Times New Roman;-inkscape-font-specification:'Times New Roman,'"
       x="127.5"
       y="96.5"
       id="text4474"
       sodipodi:linespacing="125%"><tspan
         sodipodi:role="line"
         id="tspan4476"
         x="127.5"
         y="96.5">u = 1</tspan></text>
  </g>
</svg>
