<?xml version="1.0" standalone="no"?><!DOCTYPE svg PUBLIC "-//W3C//DTD SVG 1.1//EN" "http://www.w3.org/Graphics/SVG/1.1/DTD/svg11.dtd"><svg xmlns="http://www.w3.org/2000/svg" viewBox="0 0 650 400" version="1.1"><clipPath id="box"><rect x="0" y="0" width="650" height="400" style="fill:none;stroke:none;" /></clipPath><g clip-path="url(#box)"><rect x="0.00" y="0.00" width="650.00" height="400.00" style="fill:#FFFFFF;stroke:none;" /><path d="M0.00 375.00 L650.00 375.00 M0.00 329.00 L650.00 329.00 M0.00 283.00 L650.00 283.00 M0.00 237.00 L650.00 237.00 M0.00 191.00 L650.00 191.00 M0.00 145.00 L650.00 145.00 M0.00 99.00 L650.00 99.00 M0.00 53.00 L650.00 53.00 M0.00 6.00 L650.00 6.00 M74.00 0.00 L74.00 400.00 M151.00 0.00 L151.00 400.00 M228.00 0.00 L228.00 400.00 M305.00 0.00 L305.00 400.00 M381.00 0.00 L381.00 400.00 M458.00 0.00 L458.00 400.00 M535.00 0.00 L535.00 400.00 M611.00 0.00 L611.00 400.00 " style="fill:none;stroke:#D0D0D0;stroke-width:1;" /><path d="M228.33 0.00 L228.33 400.00 " style="fill:none;stroke:#000000;stroke-width:1;" /><path d="M221.83 422.08 L234.83 422.08 M221.83 375.95 L234.83 375.95 M221.83 329.83 L234.83 329.83 M221.83 283.70 L234.83 283.70 M221.83 237.57 L234.83 237.57 M221.83 191.45 L234.83 191.45 M221.83 145.32 L234.83 145.32 M221.83 99.20 L234.83 99.20 M221.83 53.07 L234.83 53.07 M221.83 6.94 L234.83 6.94 " style="fill:none;stroke:#000000;stroke-width:1;" /><path d="M0.00 191.45 L650.00 191.45 " style="fill:none;stroke:#000000;stroke-width:1;" /><path d="M-1.71 184.95 L-1.71 197.95 M74.97 184.95 L74.97 197.95 M151.65 184.95 L151.65 197.95 M228.33 184.95 L228.33 197.95 M305.01 184.95 L305.01 197.95 M381.70 184.95 L381.70 197.95 M458.38 184.95 L458.38 197.95 M535.06 184.95 L535.06 197.95 M611.74 184.95 L611.74 197.95 " style="fill:none;stroke:#000000;stroke-width:1;" /><text x="236.4562407834093" y="378.4523117117127" text-anchor="start" style="font:10px Droid Sans,Trebuchet MS,Arial,Helvetica,sans-serif;stroke:none;fill:#000000">-0.4</text><text x="236.4562407834093" y="332.32618558558624" text-anchor="start" style="font:10px Droid Sans,Trebuchet MS,Arial,Helvetica,sans-serif;stroke:none;fill:#000000">-0.3</text><text x="236.4562407834093" y="286.20005945945985" text-anchor="start" style="font:10px Droid Sans,Trebuchet MS,Arial,Helvetica,sans-serif;stroke:none;fill:#000000">-0.2</text><text x="236.4562407834093" y="240.0739333333334" text-anchor="start" style="font:10px Droid Sans,Trebuchet MS,Arial,Helvetica,sans-serif;stroke:none;fill:#000000">-0.1</text><text x="236.4562407834093" y="193.94780720720695" text-anchor="start" style="font:10px Droid Sans,Trebuchet MS,Arial,Helvetica,sans-serif;stroke:none;fill:#000000">0</text><text x="236.4562407834093" y="147.82168108108053" text-anchor="start" style="font:10px Droid Sans,Trebuchet MS,Arial,Helvetica,sans-serif;stroke:none;fill:#000000">0.1</text><text x="236.4562407834093" y="101.69555495495409" text-anchor="start" style="font:10px Droid Sans,Trebuchet MS,Arial,Helvetica,sans-serif;stroke:none;fill:#000000">0.2</text><text x="236.4562407834093" y="55.56942882882766" text-anchor="start" style="font:10px Droid Sans,Trebuchet MS,Arial,Helvetica,sans-serif;stroke:none;fill:#000000">0.3</text><text x="74.967185483869" y="207.57280720720695" text-anchor="middle" style="font:10px Droid Sans,Trebuchet MS,Arial,Helvetica,sans-serif;stroke:none;fill:#000000">-0.4</text><text x="151.64921313363914" y="207.57280720720695" text-anchor="middle" style="font:10px Droid Sans,Trebuchet MS,Arial,Helvetica,sans-serif;stroke:none;fill:#000000">-0.2</text><text x="228.3312407834093" y="207.57280720720695" text-anchor="middle" style="font:10px Droid Sans,Trebuchet MS,Arial,Helvetica,sans-serif;stroke:none;fill:#000000">0</text><text x="305.0132684331794" y="207.57280720720695" text-anchor="middle" style="font:10px Droid Sans,Trebuchet MS,Arial,Helvetica,sans-serif;stroke:none;fill:#000000">0.2</text><text x="381.6952960829495" y="207.57280720720695" text-anchor="middle" style="font:10px Droid Sans,Trebuchet MS,Arial,Helvetica,sans-serif;stroke:none;fill:#000000">0.4</text><text x="458.37732373271973" y="207.57280720720695" text-anchor="middle" style="font:10px Droid Sans,Trebuchet MS,Arial,Helvetica,sans-serif;stroke:none;fill:#000000">0.6</text><text x="535.0593513824898" y="207.57280720720695" text-anchor="middle" style="font:10px Droid Sans,Trebuchet MS,Arial,Helvetica,sans-serif;stroke:none;fill:#000000">0.8</text><text x="611.7413790322599" y="207.57280720720695" text-anchor="middle" style="font:10px Droid Sans,Trebuchet MS,Arial,Helvetica,sans-serif;stroke:none;fill:#000000">1</text><path d="M36.92 400.03 L36.93 399.86 L36.93 398.87 L36.94 397.89 L36.94 396.91 L36.95 395.93 L36.96 394.95 L36.96 393.97 L36.97 392.99 L36.98 392.01 L36.98 391.03 L36.99 390.05 L37.00 389.07 L37.01 388.09 L37.01 387.11 L37.02 386.13 L37.03 385.15 L37.04 384.16 L37.05 383.18 L37.05 382.20 L37.06 381.22 L37.07 380.24 L37.08 379.26 L37.09 378.28 L37.10 377.30 L37.11 376.32 L37.12 375.34 L37.13 374.36 L37.14 373.38 L37.15 372.40 L37.16 371.42 L37.17 370.44 L37.18 369.46 L37.19 368.48 L37.20 367.50 L37.21 366.52 L37.22 365.54 L37.24 364.56 L37.25 363.58 L37.26 362.60 L37.27 361.62 L37.29 360.64 L37.30 359.66 L37.31 358.68 L37.33 357.70 L37.34 356.71 L37.35 355.73 L37.37 354.75 L37.38 353.77 L37.40 352.79 L37.41 351.81 L37.43 350.83 L37.45 349.85 L37.46 348.87 L37.48 347.89 L37.50 346.91 L37.51 345.93 L37.53 344.95 L37.55 343.97 L37.57 342.99 L37.59 342.01 L37.60 341.03 L37.62 340.05 L37.64 339.07 L37.66 338.09 L37.69 337.11 L37.71 336.13 L37.73 335.15 L37.75 334.17 L37.77 333.19 L37.80 332.21 L37.82 331.23 L37.84 330.25 L37.87 329.27 L37.89 328.29 L37.92 327.31 L37.94 326.33 L37.97 325.35 L38.00 324.37 L38.02 323.39 L38.05 322.41 L38.08 321.43 L38.11 320.45 L38.14 319.47 L38.17 318.49 L38.20 317.51 L38.23 316.53 L38.27 315.55 L38.30 314.57 L38.33 313.59 L38.37 312.61 L38.40 311.63 L38.44 310.65 L38.48 309.67 L38.51 308.69 L38.55 307.71 L38.59 306.73 L38.63 305.75 L38.67 304.77 L38.71 303.79 L38.75 302.81 L38.80 301.83 L38.84 300.85 L38.89 299.88 L38.93 298.90 L38.98 297.92 L39.03 296.94 L39.08 295.96 L39.13 294.98 L39.18 294.00 L39.23 293.02 L39.28 292.04 L39.34 291.06 L39.39 290.08 L39.45 289.10 L39.51 288.12 L39.56 287.14 L39.62 286.16 L39.69 285.18 L39.75 284.21 L39.81 283.23 L39.88 282.25 L39.95 281.27 L40.01 280.29 L40.08 279.31 L40.15 278.33 L40.23 277.35 L40.30 276.37 L40.38 275.39 L40.46 274.42 L40.53 273.44 L40.62 272.46 L40.70 271.48 L40.78 270.50 L40.87 269.52 L40.96 268.54 L41.05 267.57 L41.14 266.59 L41.23 265.61 L41.33 264.63 L41.43 263.65 L41.53 262.67 L41.63 261.70 L41.74 260.72 L41.85 259.74 L41.96 258.76 L42.07 257.78 L42.18 256.81 L42.30 255.83 L42.42 254.85 L42.54 253.87 L42.67 252.89 L42.80 251.92 L42.93 250.94 L43.06 249.96 L43.20 248.98 L43.34 248.01 L43.49 247.03 L43.64 246.05 L43.79 245.08 L43.94 244.10 L44.10 243.12 L44.26 242.15 L44.43 241.17 L44.60 240.19 L44.77 239.22 L44.95 238.24 L45.13 237.26 L45.32 236.29 L45.51 235.31 L45.71 234.34 L45.91 233.36 L46.11 232.38 L46.32 231.41 L46.54 230.43 L46.76 229.46 L46.99 228.48 L47.22 227.51 L47.46 226.53 L47.71 225.56 L47.96 224.58 L48.22 223.61 L48.48 222.64 L48.76 221.66 L49.04 220.69 L49.32 219.71 L49.62 218.74 L49.92 217.77 L50.23 216.80 L50.55 215.82 L50.88 214.85 L51.22 213.88 L51.57 212.91 L51.93 211.94 L52.30 210.96 L52.68 209.99 L53.07 209.02 L53.47 208.05 L53.89 207.08 L54.32 206.11 L54.76 205.14 L55.21 204.17 L55.68 203.21 L56.17 202.24 L56.67 201.27 L57.19 200.30 L57.73 199.34 L58.28 198.37 L58.86 197.41 L59.45 196.44 L60.07 195.48 L60.71 194.51 L61.37 193.55 L62.06 192.59 L62.78 191.63 L63.52 190.67 L64.30 189.71 L65.11 188.75 L65.96 187.79 L66.84 186.84 L67.77 185.88 L68.74 184.93 L69.75 183.98 L70.83 183.03 L71.95 182.08 L73.14 181.14 L74.41 180.20 L75.75 179.26 L77.17 178.32 L78.70 177.39 L80.33 176.47 L82.10 175.54 L84.02 174.63 L86.02 173.76 L88.02 172.98 L90.02 172.27 L92.02 171.63 L94.02 171.06 L96.02 170.54 L98.02 170.09 L100.02 169.69 L102.02 169.33 L104.02 169.03 L106.02 168.77 L108.02 168.55 L110.02 168.36 L112.02 168.22 L114.02 168.11 L116.02 168.04 L118.02 168.00 L120.02 167.98 L122.02 168.00 L124.02 168.04 L126.02 168.11 L128.02 168.21 L130.02 168.33 L132.02 168.47 L134.02 168.63 L136.02 168.82 L138.02 169.02 L140.02 169.25 L142.02 169.49 L144.02 169.75 L146.02 170.03 L148.02 170.33 L150.02 170.64 L152.02 170.97 L154.02 171.31 L156.02 171.66 L158.02 172.04 L160.02 172.42 L162.02 172.82 L164.02 173.23 L166.02 173.65 L168.02 174.09 L170.02 174.53 L172.02 174.99 L174.02 175.46 L176.02 175.94 L178.02 176.43 L180.02 176.93 L182.02 177.44 L184.02 177.96 L186.02 178.48 L188.02 179.02 L190.02 179.57 L192.02 180.12 L194.02 180.68 L196.02 181.25 L198.02 181.83 L200.02 182.42 L202.02 183.01 L204.02 183.61 L206.02 184.22 L208.02 184.84 L210.02 185.46 L212.02 186.09 L214.02 186.72 L216.02 187.37 L218.02 188.01 L220.02 188.67 L222.02 189.33 L224.02 189.99 L226.02 190.66 L228.02 191.34 L230.02 192.02 L232.02 192.71 L234.02 193.40 L236.02 194.10 L238.02 194.81 L240.02 195.51 L242.02 196.23 L244.02 196.94 L246.02 197.67 L248.02 198.39 L250.02 199.12 L252.02 199.86 L254.02 200.60 L256.02 201.35 L258.02 202.09 L260.02 202.85 L262.02 203.60 L264.02 204.36 L266.02 205.13 L268.02 205.90 L270.02 206.67 L272.02 207.44 L274.02 208.22 L276.02 209.01 L278.02 209.79 L280.02 210.58 L282.02 211.38 L284.02 212.17 L286.02 212.97 L288.02 213.78 L290.02 214.58 L292.02 215.39 L294.02 216.20 L296.02 217.02 L298.02 217.84 L300.02 218.66 L302.02 219.48 L304.02 220.31 L306.02 221.14 L308.02 221.97 L310.02 222.81 L312.02 223.65 L314.02 224.49 L316.02 225.33 L318.02 226.18 L320.02 227.02 L322.02 227.87 L324.02 228.73 L326.02 229.58 L328.02 230.44 L330.02 231.30 L332.02 232.16 L334.02 233.03 L336.02 233.90 L338.02 234.77 L340.02 235.64 L342.02 236.51 L344.02 237.39 L346.02 238.27 L348.02 239.15 L350.02 240.03 L352.02 240.91 L354.02 241.80 L356.02 242.69 L358.02 243.58 L360.02 244.47 L362.02 245.37 L364.02 246.26 L366.02 247.16 L368.02 248.06 L370.02 248.96 L372.02 249.87 L374.02 250.77 L376.02 251.68 L378.02 252.59 L380.02 253.50 L382.02 254.41 L384.02 255.32 L386.02 256.24 L388.02 257.16 L390.02 258.07 L392.02 259.00 L394.02 259.92 L396.02 260.84 L398.02 261.77 L400.02 262.69 L402.02 263.62 L404.02 264.55 L406.02 265.48 L408.02 266.41 L410.02 267.35 L412.02 268.28 L414.02 269.22 L416.02 270.16 L418.02 271.10 L420.02 272.04 L422.02 272.98 L424.02 273.93 L426.02 274.87 L428.02 275.82 L430.02 276.77 L432.02 277.71 L434.02 278.67 L436.02 279.62 L438.02 280.57 L440.02 281.52 L442.02 282.48 L444.02 283.44 L446.02 284.39 L448.02 285.35 L450.02 286.31 L452.02 287.27 L454.02 288.24 L456.02 289.20 L458.02 290.17 L460.02 291.13 L462.02 292.10 L464.02 293.07 L466.02 294.04 L468.02 295.01 L470.02 295.98 L472.02 296.95 L474.02 297.92 L476.02 298.90 L478.02 299.87 L480.02 300.85 L482.02 301.83 L484.02 302.81 L486.02 303.79 L488.02 304.77 L490.02 305.75 L492.02 306.73 L494.02 307.71 L496.02 308.70 L498.02 309.68 L500.02 310.67 L502.02 311.66 L504.02 312.65 L506.02 313.64 L508.02 314.63 L510.02 315.62 L512.02 316.61 L514.02 317.60 L516.02 318.60 L518.02 319.59 L520.02 320.59 L522.02 321.58 L524.02 322.58 L526.02 323.58 L528.02 324.58 L530.02 325.58 L532.02 326.58 L534.01 327.58 L536.01 328.58 L538.01 329.58 L540.00 330.58 L542.00 331.58 L543.99 332.58 L545.98 333.58 L547.96 334.58 L549.95 335.58 L551.94 336.58 L553.92 337.58 L555.90 338.58 L557.88 339.59 L559.86 340.59 L561.84 341.59 L563.81 342.59 L565.79 343.59 L567.76 344.59 L569.74 345.59 L571.71 346.59 L573.68 347.59 L575.64 348.59 L577.61 349.59 L579.58 350.59 L581.54 351.59 L583.50 352.59 L585.46 353.60 L587.43 354.60 L589.38 355.60 L591.34 356.60 L593.30 357.60 L595.25 358.60 L597.21 359.60 L599.16 360.60 L601.11 361.60 L603.06 362.60 L605.01 363.60 L606.96 364.60 L608.91 365.60 L610.85 366.60 L612.80 367.60 L614.74 368.60 L616.69 369.60 L618.63 370.61 L620.57 371.61 L622.51 372.61 L624.45 373.61 L626.38 374.61 L628.32 375.61 L630.25 376.61 L632.19 377.61 L634.12 378.61 L636.05 379.61 L637.99 380.61 L639.92 381.61 L641.84 382.61 L643.77 383.61 L645.70 384.61 L647.63 385.61 L649.55 386.61 " style="fill:none;stroke:#1A1919;stroke-width:1;" /><path d="M-10.00 200.00 L-0.25 93.26 L0.75 93.75 L2.75 94.71 L4.75 95.67 L6.75 96.63 L8.75 97.59 L10.75 98.55 L12.75 99.51 L14.75 100.47 L16.75 101.42 L18.75 102.38 L20.75 103.33 L22.75 104.28 L24.75 105.23 L26.75 106.18 L28.75 107.13 L30.75 108.07 L32.75 109.02 L34.75 109.96 L36.75 110.90 L38.75 111.85 L40.75 112.78 L42.75 113.72 L44.75 114.66 L46.75 115.60 L48.75 116.53 L50.75 117.46 L52.75 118.39 L54.75 119.32 L56.75 120.25 L58.75 121.18 L60.75 122.10 L62.75 123.03 L64.75 123.95 L66.75 124.87 L68.75 125.79 L70.75 126.70 L72.75 127.62 L74.75 128.53 L76.75 129.45 L78.75 130.36 L80.75 131.26 L82.75 132.17 L84.75 133.08 L86.75 133.98 L88.75 134.88 L90.75 135.78 L92.75 136.68 L94.75 137.58 L96.75 138.47 L98.75 139.36 L100.75 140.25 L102.75 141.14 L104.75 142.03 L106.75 142.91 L108.75 143.79 L110.75 144.67 L112.75 145.55 L114.75 146.43 L116.75 147.30 L118.75 148.17 L120.75 149.04 L122.75 149.91 L124.75 150.78 L126.75 151.64 L128.75 152.50 L130.75 153.36 L132.75 154.21 L134.75 155.07 L136.75 155.92 L138.75 156.76 L140.75 157.61 L142.75 158.45 L144.75 159.29 L146.75 160.13 L148.75 160.97 L150.75 161.80 L152.75 162.63 L154.75 163.46 L156.75 164.28 L158.75 165.10 L160.75 165.92 L162.75 166.73 L164.75 167.55 L166.75 168.36 L168.75 169.16 L170.75 169.96 L172.75 170.76 L174.75 171.56 L176.75 172.35 L178.75 173.14 L180.75 173.93 L182.75 174.71 L184.75 175.49 L186.75 176.27 L188.75 177.04 L190.75 177.81 L192.75 178.57 L194.75 179.33 L196.75 180.09 L198.75 180.84 L200.75 181.59 L202.75 182.33 L204.75 183.07 L206.75 183.81 L208.75 184.54 L210.75 185.27 L212.75 185.99 L214.75 186.71 L216.75 187.42 L218.75 188.13 L220.75 188.83 L222.75 189.53 L224.75 190.22 L226.75 190.91 L228.75 191.59 L230.75 192.27 L232.75 192.94 L234.75 193.60 L236.75 194.26 L238.75 194.92 L240.75 195.56 L242.75 196.21 L244.75 196.84 L246.75 197.47 L248.75 198.09 L250.75 198.70 L252.75 199.31 L254.75 199.91 L256.75 200.51 L258.75 201.09 L260.75 201.67 L262.75 202.24 L264.75 202.80 L266.75 203.36 L268.75 203.90 L270.75 204.44 L272.75 204.97 L274.75 205.48 L276.75 205.99 L278.75 206.49 L280.75 206.98 L282.75 207.46 L284.75 207.93 L286.75 208.39 L288.75 208.83 L290.75 209.27 L292.75 209.69 L294.75 210.10 L296.75 210.50 L298.75 210.88 L300.75 211.25 L302.75 211.61 L304.75 211.95 L306.75 212.27 L308.75 212.59 L310.75 212.88 L312.75 213.16 L314.75 213.42 L316.75 213.66 L318.75 213.89 L320.75 214.09 L322.75 214.27 L324.75 214.44 L326.75 214.58 L328.75 214.69 L330.75 214.79 L332.75 214.86 L334.75 214.90 L336.75 214.91 L338.75 214.90 L340.75 214.85 L342.75 214.78 L344.75 214.67 L346.75 214.52 L348.75 214.34 L350.75 214.12 L352.75 213.85 L354.75 213.55 L356.75 213.19 L358.75 212.79 L360.75 212.33 L362.75 211.81 L364.75 211.23 L366.75 210.59 L368.75 209.88 L370.75 209.09 L372.75 208.22 L374.75 207.26 L376.75 206.20 L378.64 205.10 L380.36 204.01 L381.94 202.93 L383.39 201.85 L384.75 200.78 L386.01 199.71 L387.20 198.65 L388.31 197.59 L389.36 196.54 L390.36 195.48 L391.30 194.43 L392.20 193.38 L393.06 192.33 L393.87 191.28 L394.65 190.24 L395.40 189.19 L396.11 188.15 L396.80 187.11 L397.45 186.07 L398.08 185.03 L398.69 183.99 L399.28 182.95 L399.84 181.91 L400.38 180.88 L400.90 179.84 L401.41 178.81 L401.90 177.77 L402.37 176.74 L402.82 175.70 L403.26 174.67 L403.69 173.64 L404.10 172.60 L404.50 171.57 L404.89 170.54 L405.26 169.51 L405.63 168.48 L405.98 167.45 L406.32 166.42 L406.66 165.39 L406.98 164.36 L407.29 163.33 L407.60 162.30 L407.89 161.27 L408.18 160.24 L408.46 159.21 L408.73 158.19 L409.00 157.16 L409.26 156.13 L409.51 155.10 L409.75 154.07 L409.99 153.05 L410.22 152.02 L410.45 150.99 L410.66 149.97 L410.88 148.94 L411.09 147.92 L411.29 146.89 L411.49 145.86 L411.68 144.84 L411.87 143.81 L412.05 142.79 L412.23 141.76 L412.40 140.74 L412.57 139.71 L412.74 138.69 L412.90 137.66 L413.06 136.64 L413.21 135.61 L413.36 134.59 L413.51 133.56 L413.65 132.54 L413.79 131.51 L413.93 130.49 L414.06 129.47 L414.19 128.44 L414.32 127.42 L414.44 126.39 L414.56 125.37 L414.68 124.35 L414.80 123.32 L414.91 122.30 L415.02 121.28 L415.13 120.25 L415.23 119.23 L415.34 118.21 L415.44 117.18 L415.54 116.16 L415.63 115.14 L415.73 114.11 L415.82 113.09 L415.91 112.07 L416.00 111.04 L416.08 110.02 L416.17 109.00 L416.25 107.98 L416.33 106.95 L416.41 105.93 L416.48 104.91 L416.56 103.89 L416.63 102.86 L416.70 101.84 L416.77 100.82 L416.84 99.80 L416.91 98.77 L416.97 97.75 L417.04 96.73 L417.10 95.71 L417.16 94.68 L417.22 93.66 L417.28 92.64 L417.34 91.62 L417.39 90.60 L417.45 89.57 L417.50 88.55 L417.56 87.53 L417.61 86.51 L417.66 85.49 L417.71 84.46 L417.76 83.44 L417.80 82.42 L417.85 81.40 L417.90 80.38 L417.94 79.36 L417.98 78.33 L418.03 77.31 L418.07 76.29 L418.11 75.27 L418.15 74.25 L418.19 73.23 L418.22 72.20 L418.26 71.18 L418.30 70.16 L418.33 69.14 L418.37 68.12 L418.40 67.10 L418.44 66.08 L418.47 65.05 L418.50 64.03 L418.53 63.01 L418.57 61.99 L418.60 60.97 L418.62 59.95 L418.65 58.93 L418.68 57.90 L418.71 56.88 L418.74 55.86 L418.76 54.84 L418.79 53.82 L418.82 52.80 L418.84 51.78 L418.86 50.76 L418.89 49.73 L418.91 48.71 L418.94 47.69 L418.96 46.67 L418.98 45.65 L419.00 44.63 L419.02 43.61 L419.04 42.59 L419.06 41.57 L419.08 40.54 L419.10 39.52 L419.12 38.50 L419.14 37.48 L419.16 36.46 L419.18 35.44 L419.19 34.42 L419.21 33.40 L419.23 32.38 L419.24 31.35 L419.26 30.33 L419.28 29.31 L419.29 28.29 L419.31 27.27 L419.32 26.25 L419.34 25.23 L419.35 24.21 L419.36 23.19 L419.38 22.17 L419.39 21.14 L419.41 20.12 L419.42 19.10 L419.43 18.08 L419.44 17.06 L419.45 16.04 L419.47 15.02 L419.48 14.00 L419.49 12.98 L419.50 11.96 L419.51 10.94 L419.52 9.92 L419.53 8.89 L419.54 7.87 L419.55 6.85 L419.56 5.83 L419.57 4.81 L419.58 3.79 L419.59 2.77 L419.60 1.75 L419.61 0.73 L419.62 -0.29 " style="fill:none;stroke:#F70A0A;stroke-width:1;" /><path d="M36.64 402.66 L36.64 399.93 L36.65 397.34 L36.65 394.87 L36.65 392.53 L36.65 390.28 L36.65 388.14 L36.65 386.08 L36.65 384.10 L36.65 382.20 L36.65 380.37 L36.65 378.60 L36.66 376.89 L36.66 375.24 L36.66 373.64 L36.66 372.10 L36.66 370.59 L36.66 369.14 L36.66 367.72 L36.66 366.34 L36.66 365.00 L36.66 363.69 L36.67 362.42 L36.67 361.18 L36.67 359.97 L36.67 358.78 L36.67 357.63 L36.67 356.50 L36.67 355.40 L36.67 354.32 L36.67 353.26 L36.67 352.22 L36.68 351.21 L36.68 350.21 L36.68 349.23 L36.68 348.25 L36.68 347.27 L36.68 346.29 L36.68 345.31 L36.68 344.33 L36.68 343.35 L36.69 342.37 L36.69 341.39 L36.69 340.41 L36.69 339.43 L36.69 338.45 L36.69 337.47 L36.69 336.49 L36.69 335.50 L36.70 334.52 L36.70 333.54 L36.70 332.56 L36.70 331.58 L36.70 330.60 L36.70 329.62 L36.70 328.64 L36.71 327.66 L36.71 326.68 L36.71 325.70 L36.71 324.72 L36.71 323.74 L36.71 322.76 L36.72 321.78 L36.72 320.80 L36.72 319.82 L36.72 318.83 L36.72 317.85 L36.73 316.87 L36.73 315.89 L36.73 314.91 L36.73 313.93 L36.73 312.95 L36.74 311.97 L36.74 310.99 L36.74 310.01 L36.74 309.03 L36.74 308.05 L36.75 307.07 L36.75 306.09 L36.75 305.11 L36.75 304.13 L36.76 303.15 L36.76 302.17 L36.76 301.18 L36.76 300.20 L36.77 299.22 L36.77 298.24 L36.77 297.26 L36.78 296.28 L36.78 295.30 L36.78 294.32 L36.78 293.34 L36.79 292.36 L36.79 291.38 L36.79 290.40 L36.80 289.42 L36.80 288.44 L36.80 287.46 L36.81 286.48 L36.81 285.50 L36.82 284.52 L36.82 283.54 L36.82 282.55 L36.83 281.57 L36.83 280.59 L36.83 279.61 L36.84 278.63 L36.84 277.65 L36.85 276.67 L36.85 275.69 L36.86 274.71 L36.86 273.73 L36.87 272.75 L36.87 271.77 L36.88 270.79 L36.88 269.81 L36.88 268.83 L36.89 267.85 L36.90 266.87 L36.90 265.89 L36.91 264.91 L36.91 263.92 L36.92 262.94 L36.92 261.96 L36.93 260.98 L36.94 260.00 L36.94 259.02 L36.95 258.04 L36.95 257.06 L36.96 256.08 L36.97 255.10 L36.97 254.12 L36.98 253.14 L36.99 252.16 L36.99 251.18 L37.00 250.20 L37.01 249.22 L37.02 248.24 L37.02 247.26 L37.03 246.28 L37.04 245.30 L37.05 244.32 L37.06 243.34 L37.07 242.36 L37.07 241.37 L37.08 240.39 L37.09 239.41 L37.10 238.43 L37.11 237.45 L37.12 236.47 L37.13 235.49 L37.14 234.51 L37.15 233.53 L37.16 232.55 L37.17 231.57 L37.18 230.59 L37.19 229.61 L37.21 228.63 L37.22 227.65 L37.23 226.67 L37.24 225.69 L37.25 224.71 L37.27 223.73 L37.28 222.75 L37.29 221.77 L37.30 220.79 L37.32 219.81 L37.33 218.83 L37.35 217.85 L37.36 216.87 L37.38 215.89 L37.39 214.91 L37.41 213.93 L37.42 212.94 L37.44 211.96 L37.45 210.98 L37.47 210.00 L37.49 209.02 L37.50 208.04 L37.52 207.06 L37.54 206.08 L37.56 205.10 L37.58 204.12 L37.60 203.14 L37.61 202.16 L37.63 201.18 L37.65 200.20 L37.67 199.22 L37.70 198.24 L37.72 197.26 L37.74 196.28 L37.76 195.30 L37.78 194.32 L37.81 193.34 L37.83 192.36 L37.86 191.38 L37.88 190.40 L37.91 189.42 L37.93 188.44 L37.96 187.46 L37.98 186.48 L38.01 185.50 L38.04 184.52 L38.07 183.54 L38.10 182.56 L38.13 181.58 L38.16 180.60 L38.19 179.62 L38.22 178.64 L38.25 177.66 L38.28 176.68 L38.32 175.70 L38.35 174.72 L38.39 173.74 L38.42 172.76 L38.46 171.78 L38.49 170.80 L38.53 169.82 L38.57 168.84 L38.61 167.86 L38.65 166.88 L38.69 165.90 L38.73 164.93 L38.78 163.95 L38.82 162.97 L38.86 161.99 L38.91 161.01 L38.96 160.03 L39.00 159.05 L39.05 158.07 L39.10 157.09 L39.15 156.11 L39.20 155.13 L39.26 154.15 L39.31 153.17 L39.36 152.19 L39.42 151.21 L39.48 150.23 L39.53 149.25 L39.59 148.27 L39.66 147.30 L39.72 146.32 L39.78 145.34 L39.85 144.36 L39.91 143.38 L39.98 142.40 L40.05 141.42 L40.12 140.44 L40.19 139.46 L40.26 138.48 L40.34 137.51 L40.42 136.53 L40.49 135.55 L40.58 134.57 L40.66 133.59 L40.74 132.61 L40.83 131.63 L40.91 130.65 L41.00 129.68 L41.09 128.70 L41.19 127.72 L41.28 126.74 L41.38 125.76 L41.48 124.78 L41.58 123.81 L41.69 122.83 L41.79 121.85 L41.90 120.87 L42.01 119.89 L42.13 118.92 L42.24 117.94 L42.36 116.96 L42.48 115.98 L42.61 115.00 L42.73 114.03 L42.86 113.05 L43.00 112.07 L43.13 111.09 L43.27 110.12 L43.42 109.14 L43.56 108.16 L43.71 107.19 L43.86 106.21 L44.02 105.23 L44.18 104.26 L44.34 103.28 L44.51 102.30 L44.68 101.33 L44.86 100.35 L45.04 99.37 L45.22 98.40 L45.41 97.42 L45.61 96.45 L45.81 95.47 L46.01 94.49 L46.22 93.52 L46.43 92.54 L46.65 91.57 L46.88 90.59 L47.11 89.62 L47.34 88.64 L47.59 87.67 L47.83 86.69 L48.09 85.72 L48.35 84.74 L48.62 83.77 L48.90 82.80 L49.18 81.82 L49.47 80.85 L49.77 79.88 L50.08 78.90 L50.39 77.93 L50.72 76.96 L51.05 75.99 L51.40 75.01 L51.75 74.04 L52.11 73.07 L52.49 72.10 L52.87 71.13 L53.27 70.16 L53.68 69.19 L54.10 68.22 L54.54 67.25 L54.98 66.28 L55.45 65.31 L55.93 64.34 L56.42 63.38 L56.93 62.41 L57.46 61.44 L58.00 60.47 L58.57 59.51 L59.15 58.54 L59.76 57.58 L60.38 56.62 L61.04 55.65 L61.71 54.69 L62.42 53.73 L63.15 52.77 L63.91 51.81 L64.70 50.85 L65.53 49.89 L66.39 48.94 L67.30 47.98 L68.25 47.03 L69.24 46.08 L70.28 45.13 L71.38 44.18 L72.54 43.23 L73.77 42.29 L75.07 41.35 L76.45 40.41 L77.92 39.48 L79.50 38.55 L81.20 37.63 L83.04 36.71 L85.04 35.80 L87.04 34.97 L89.04 34.23 L91.04 33.56 L93.04 32.95 L95.04 32.41 L97.04 31.93 L99.04 31.50 L101.04 31.12 L103.04 30.79 L105.04 30.51 L107.04 30.27 L109.04 30.07 L111.04 29.91 L113.04 29.78 L115.04 29.69 L117.04 29.63 L119.04 29.61 L121.04 29.61 L123.04 29.64 L125.04 29.70 L127.04 29.78 L129.04 29.89 L131.04 30.02 L133.04 30.17 L135.04 30.34 L137.04 30.54 L139.04 30.76 L141.04 30.99 L143.04 31.24 L145.04 31.51 L147.04 31.80 L149.04 32.11 L151.04 32.42 L153.04 32.76 L155.04 33.11 L157.04 33.47 L159.04 33.85 L161.04 34.24 L163.04 34.65 L165.04 35.06 L167.04 35.49 L169.04 35.93 L171.04 36.39 L173.04 36.85 L175.04 37.32 L177.04 37.81 L179.04 38.30 L181.04 38.81 L183.04 39.32 L185.04 39.85 L187.04 40.38 L189.04 40.92 L191.04 41.47 L193.04 42.03 L195.04 42.60 L197.04 43.17 L199.04 43.75 L201.04 44.34 L203.04 44.94 L205.04 45.55 L207.04 46.16 L209.04 46.78 L211.04 47.40 L213.04 48.03 L215.04 48.67 L217.04 49.32 L219.04 49.97 L221.04 50.62 L223.04 51.29 L225.04 51.96 L227.04 52.63 L229.04 53.31 L231.04 54.00 L233.04 54.69 L235.04 55.38 L237.04 56.08 L239.04 56.79 L241.04 57.50 L243.04 58.21 L245.04 58.93 L247.04 59.66 L249.04 60.39 L251.04 61.12 L253.04 61.86 L255.04 62.60 L257.04 63.35 L259.04 64.10 L261.04 64.85 L263.04 65.61 L265.04 66.38 L267.04 67.14 L269.04 67.91 L271.04 68.69 L273.04 69.46 L275.04 70.24 L277.04 71.03 L279.04 71.82 L281.04 72.61 L283.04 73.40 L285.04 74.20 L287.04 75.00 L289.04 75.81 L291.04 76.62 L293.04 77.43 L295.04 78.24 L297.04 79.06 L299.04 79.88 L301.04 80.70 L303.04 81.53 L305.04 82.35 L307.04 83.19 L309.04 84.02 L311.04 84.86 L313.04 85.70 L315.04 86.54 L317.04 87.38 L319.04 88.23 L321.04 89.08 L323.04 89.93 L325.04 90.79 L327.04 91.64 L329.04 92.50 L331.04 93.36 L333.04 94.23 L335.04 95.09 L337.04 95.96 L339.04 96.83 L341.04 97.71 L343.04 98.58 L345.04 99.46 L347.04 100.34 L349.04 101.22 L351.04 102.10 L353.04 102.99 L355.04 103.88 L357.04 104.77 L359.04 105.66 L361.04 106.55 L363.04 107.45 L365.04 108.34 L367.04 109.24 L369.04 110.14 L371.04 111.04 L373.04 111.95 L375.04 112.86 L377.04 113.76 L379.04 114.67 L381.04 115.58 L383.04 116.50 L385.04 117.41 L387.04 118.33 L389.04 119.25 L391.04 120.17 L393.04 121.09 L395.04 122.01 L397.04 122.93 L399.04 123.86 L401.04 124.79 L403.04 125.72 L405.04 126.65 L407.04 127.58 L409.04 128.51 L411.04 129.45 L413.04 130.38 L415.04 131.32 L417.04 132.26 L419.04 133.20 L421.04 134.14 L423.04 135.09 L425.04 136.03 L427.04 136.98 L429.04 137.92 L431.04 138.87 L433.04 139.82 L435.04 140.77 L437.04 141.72 L439.04 142.68 L441.04 143.63 L443.04 144.59 L445.04 145.55 L447.04 146.50 L449.04 147.46 L451.04 148.43 L453.04 149.39 L455.04 150.35 L457.04 151.31 L459.04 152.28 L461.04 153.25 L463.04 154.21 L465.04 155.18 L467.04 156.15 L469.04 157.12 L471.04 158.10 L473.04 159.07 L475.04 160.04 L477.04 161.02 L479.04 161.99 L481.04 162.97 L483.04 163.95 L485.04 164.93 L487.04 165.91 L489.04 166.89 L491.04 167.87 L493.04 168.85 L495.04 169.84 L497.04 170.82 L499.04 171.81 L501.04 172.80 L503.04 173.78 L505.04 174.77 L507.04 175.76 L509.04 176.75 L511.04 177.74 L513.04 178.74 L515.04 179.73 L517.04 180.72 L519.04 181.72 L521.04 182.72 L523.04 183.71 L525.04 184.71 L527.04 185.71 L529.04 186.71 L531.04 187.71 L533.04 188.71 L535.04 189.71 L537.03 190.71 L539.03 191.71 L541.02 192.71 L543.01 193.71 L545.00 194.71 L546.99 195.71 L548.98 196.71 L550.96 197.72 L552.95 198.72 L554.93 199.72 L556.91 200.72 L558.89 201.72 L560.87 202.72 L562.85 203.72 L564.82 204.72 L566.80 205.72 L568.77 206.72 L570.74 207.72 L572.71 208.72 L574.68 209.72 L576.65 210.72 L578.61 211.73 L580.58 212.73 L582.54 213.73 L584.51 214.73 L586.47 215.73 L588.43 216.73 L590.38 217.73 L592.34 218.73 L594.30 219.73 L596.25 220.73 L598.21 221.73 L600.16 222.73 L602.11 223.73 L604.06 224.73 L606.01 225.73 L607.96 226.73 L609.90 227.74 L611.85 228.74 L613.79 229.74 L615.74 230.74 L617.68 231.74 L619.62 232.74 L621.56 233.74 L623.50 234.74 L625.44 235.74 L627.37 236.74 L629.31 237.74 L631.24 238.74 L633.18 239.74 L635.11 240.74 L637.04 241.74 L638.97 242.74 L640.90 243.74 L642.83 244.74 L644.76 245.74 L646.68 246.75 L648.61 247.75 " style="fill:none;stroke:#0A0A0A;stroke-width:1;" /><path d="M-10.00 200.00 L-0.25 77.01 L0.75 77.62 L2.41 78.62 L4.08 79.62 L5.74 80.62 L7.40 81.62 L9.06 82.62 L10.72 83.62 L12.39 84.62 L14.05 85.62 L15.71 86.62 L17.37 87.62 L19.04 88.62 L20.70 89.62 L22.36 90.62 L24.02 91.62 L25.69 92.62 L27.35 93.62 L29.01 94.62 L30.67 95.62 L32.34 96.62 L34.00 97.62 L35.66 98.62 L37.32 99.62 L38.99 100.62 L40.65 101.62 L42.31 102.62 L43.97 103.62 L45.64 104.62 L47.30 105.62 L48.96 106.62 L50.62 107.62 L52.29 108.62 L53.95 109.62 L55.61 110.62 L57.27 111.62 L58.94 112.62 L60.60 113.62 L62.26 114.62 L63.92 115.62 L65.59 116.62 L67.25 117.62 L68.91 118.62 L70.57 119.62 L72.24 120.62 L73.90 121.62 L75.56 122.62 L77.22 123.62 L78.89 124.62 L80.55 125.62 L82.21 126.62 L83.87 127.62 L85.53 128.62 L87.20 129.62 L88.86 130.62 L90.52 131.62 L92.18 132.62 L93.85 133.62 L95.51 134.62 L97.17 135.62 L98.83 136.62 L100.50 137.62 L102.16 138.62 L103.82 139.62 L105.48 140.62 L107.15 141.62 L108.81 142.62 L110.47 143.62 L112.13 144.62 L113.80 145.62 L115.46 146.62 L117.12 147.62 L118.78 148.62 L120.45 149.62 L122.11 150.62 L123.77 151.62 L125.43 152.62 L127.10 153.62 L128.76 154.62 L130.42 155.62 L132.08 156.62 L133.75 157.62 L135.41 158.62 L137.07 159.62 L138.73 160.62 L140.40 161.62 L142.06 162.62 L143.72 163.62 L145.38 164.62 L147.05 165.62 L148.71 166.62 L150.37 167.62 L152.03 168.62 L153.69 169.62 L155.36 170.62 L157.02 171.62 L158.68 172.62 L160.34 173.62 L162.01 174.62 L163.67 175.62 L165.33 176.62 L166.99 177.62 L168.66 178.62 L170.32 179.62 L171.98 180.62 L173.64 181.62 L175.31 182.62 L176.97 183.62 L178.63 184.62 L180.29 185.62 L181.96 186.62 L183.62 187.62 L185.28 188.62 L186.94 189.62 L188.61 190.62 L190.27 191.62 L191.93 192.62 L193.59 193.62 L195.26 194.62 L196.92 195.62 L198.58 196.62 L200.24 197.62 L201.91 198.62 L203.57 199.62 L205.23 200.62 L206.89 201.62 L208.56 202.62 L210.22 203.62 L211.88 204.62 L213.54 205.62 L215.21 206.62 L216.87 207.62 L218.53 208.62 L220.19 209.62 L221.86 210.62 L223.52 211.62 L225.18 212.62 L226.84 213.62 L228.50 214.62 L230.17 215.62 L231.83 216.62 L233.49 217.62 L235.15 218.62 L236.82 219.62 L238.48 220.62 L240.14 221.62 L241.80 222.62 L243.47 223.62 L245.13 224.62 L246.79 225.62 L248.45 226.62 L250.12 227.62 L251.78 228.62 L253.44 229.62 L255.10 230.62 L256.77 231.62 L258.43 232.62 L260.09 233.62 L261.75 234.62 L263.42 235.62 L265.08 236.62 L266.74 237.62 L268.40 238.62 L270.07 239.62 L271.73 240.62 L273.39 241.62 L275.05 242.62 L276.72 243.62 L278.38 244.62 L280.04 245.62 L281.70 246.62 L283.37 247.62 L285.03 248.62 L286.69 249.62 L288.35 250.62 L290.02 251.62 L291.68 252.62 L293.34 253.62 L295.00 254.62 L296.66 255.62 L298.33 256.62 L299.99 257.62 L301.65 258.62 L303.31 259.62 L304.98 260.62 L306.64 261.62 L308.30 262.62 L309.96 263.62 L311.63 264.62 L313.29 265.62 L314.95 266.62 L316.61 267.62 L318.28 268.62 L319.94 269.62 L321.60 270.62 L323.26 271.62 L324.93 272.62 L326.59 273.62 L328.25 274.62 L329.91 275.62 L331.58 276.62 L333.24 277.62 L334.90 278.62 L336.56 279.62 L338.23 280.62 L339.89 281.62 L341.55 282.62 L343.21 283.62 L344.88 284.62 L346.54 285.62 L348.20 286.62 L349.86 287.62 L351.53 288.62 L353.19 289.62 L354.85 290.62 L356.51 291.62 L358.18 292.62 L359.84 293.62 L361.50 294.62 L363.16 295.62 L364.83 296.62 L366.49 297.62 L368.15 298.62 L369.81 299.62 L371.47 300.62 L373.14 301.62 L374.80 302.62 L376.46 303.62 L378.12 304.62 L379.79 305.62 L381.45 306.62 L383.11 307.62 L384.77 308.62 L386.44 309.62 L388.10 310.62 L389.76 311.62 L391.42 312.62 L393.09 313.62 L394.75 314.62 L396.41 315.62 L398.07 316.62 L399.74 317.62 L401.40 318.62 L403.06 319.62 L404.72 320.62 L406.39 321.62 L408.05 322.62 L409.71 323.62 L411.37 324.62 L413.04 325.62 L414.70 326.62 L416.36 327.62 L418.02 328.62 L419.69 329.62 L421.35 330.62 L423.01 331.62 L424.67 332.62 L426.34 333.62 L428.00 334.62 L429.66 335.62 L431.32 336.62 L432.99 337.62 L434.65 338.62 L436.31 339.62 L437.97 340.62 L439.64 341.62 L441.30 342.62 L442.96 343.62 L444.62 344.62 L446.28 345.62 L447.95 346.62 L449.61 347.62 L451.27 348.62 L452.93 349.62 L454.60 350.62 L456.26 351.62 L457.92 352.62 L459.58 353.62 L461.25 354.62 L462.91 355.62 L464.57 356.62 L466.23 357.62 L467.90 358.62 L469.56 359.62 L471.22 360.62 L472.88 361.62 L474.55 362.62 L476.21 363.62 L477.87 364.62 L479.53 365.62 L481.20 366.62 L482.86 367.62 L484.52 368.62 L486.18 369.62 L487.85 370.62 L489.51 371.62 L491.17 372.62 L492.83 373.62 L494.50 374.62 L496.16 375.62 L497.82 376.62 L499.48 377.62 L501.15 378.62 L502.81 379.62 L504.47 380.62 L506.13 381.62 L507.80 382.62 L509.46 383.62 L511.12 384.62 L512.78 385.62 L514.44 386.62 L516.11 387.62 L517.77 388.62 L519.43 389.62 L521.09 390.62 L522.76 391.62 L524.42 392.62 L526.08 393.62 L527.74 394.62 L529.41 395.62 L531.07 396.62 L532.73 397.62 L534.39 398.62 L536.06 399.62 L537.72 400.62 " style="fill:none;stroke:#0CEAF2;stroke-width:1;" /></g></svg>