<?xml version="1.0" encoding="UTF-8" standalone="no"?>
<svg
   xmlns:dc="http://purl.org/dc/elements/1.1/"
   xmlns:cc="http://creativecommons.org/ns#"
   xmlns:rdf="http://www.w3.org/1999/02/22-rdf-syntax-ns#"
   xmlns:svg="http://www.w3.org/2000/svg"
   xmlns="http://www.w3.org/2000/svg"
   xmlns:sodipodi="http://sodipodi.sourceforge.net/DTD/sodipodi-0.dtd"
   xmlns:inkscape="http://www.inkscape.org/namespaces/inkscape"
   viewBox="0 0 650 400"
   version="1.1"
   id="svg4841"
   inkscape:version="0.48.3.1 r9886"
   width="100%"
   height="100%"
   sodipodi:docname="save (1).svg">
  <metadata
     id="metadata4920">
    <rdf:RDF>
      <cc:Work
         rdf:about="">
        <dc:format>image/svg+xml</dc:format>
        <dc:type
           rdf:resource="http://purl.org/dc/dcmitype/StillImage" />
      </cc:Work>
    </rdf:RDF>
  </metadata>
  <defs
     id="defs4918" />
  <sodipodi:namedview
     pagecolor="#ffffff"
     bordercolor="#666666"
     borderopacity="1"
     objecttolerance="10"
     gridtolerance="10"
     guidetolerance="10"
     inkscape:pageopacity="0"
     inkscape:pageshadow="2"
     inkscape:window-width="1920"
     inkscape:window-height="1030"
     id="namedview4916"
     showgrid="false"
     inkscape:zoom="2.7675072"
     inkscape:cx="310.35217"
     inkscape:cy="270.17073"
     inkscape:window-x="-5"
     inkscape:window-y="0"
     inkscape:window-maximized="1"
     inkscape:current-layer="g4846" />
  <clipPath
     id="box">
    <rect
       x="0"
       y="0"
       width="650"
       height="400"
       style="fill:none;stroke:none;"
       id="rect4844" />
  </clipPath>
  <g
     clip-path="url(#box)"
     id="g4846"
     style="stroke-width:2;stroke-miterlimit:4;stroke-dasharray:none">
    <rect
       x="0.00"
       y="0.00"
       width="650.00"
       height="400.00"
       style="fill:#FFFFFF;stroke:none;stroke-width:2;stroke-miterlimit:4;stroke-dasharray:none"
       id="rect4848" />
    <path
       d="M0.00 377.00 L650.00 377.00 M0.00 318.00 L650.00 318.00 M0.00 259.00 L650.00 259.00 M0.00 200.00 L650.00 200.00 M0.00 141.00 L650.00 141.00 M0.00 82.00 L650.00 82.00 M0.00 23.00 L650.00 23.00 M29.00 0.00 L29.00 400.00 M78.00 0.00 L78.00 400.00 M127.00 0.00 L127.00 400.00 M176.00 0.00 L176.00 400.00 M225.00 0.00 L225.00 400.00 M274.00 0.00 L274.00 400.00 M323.00 0.00 L323.00 400.00 M372.00 0.00 L372.00 400.00 M421.00 0.00 L421.00 400.00 M470.00 0.00 L470.00 400.00 M519.00 0.00 L519.00 400.00 M569.00 0.00 L569.00 400.00 M618.00 0.00 L618.00 400.00 "
       style="fill:none;stroke:#D0D0D0;stroke-width:2;stroke-miterlimit:4;stroke-dasharray:none"
       id="path4850" />
    <path
       d="M323.66 0.00 L323.66 400.00 "
       style="fill:none;stroke:#000000;stroke-width:2;stroke-miterlimit:4;stroke-dasharray:none"
       id="path4852" />
    <path
       d="M317.16 436.40 L330.16 436.40 M317.16 377.36 L330.16 377.36 M317.16 318.32 L330.16 318.32 M317.16 259.28 L330.16 259.28 M317.16 200.23 L330.16 200.23 M317.16 141.19 L330.16 141.19 M317.16 82.15 L330.16 82.15 M317.16 23.11 L330.16 23.11 "
       style="fill:none;stroke:#000000;stroke-width:2;stroke-miterlimit:4;stroke-dasharray:none"
       id="path4854" />
    <path
       d="M0.00 200.23 L650.00 200.23 "
       style="fill:none;stroke:#000000;stroke-width:2;stroke-miterlimit:4;stroke-dasharray:none"
       id="path4856" />
    <path
       d="M-19.88 193.73 L-19.88 206.73 M29.20 193.73 L29.20 206.73 M78.28 193.73 L78.28 206.73 M127.35 193.73 L127.35 206.73 M176.43 193.73 L176.43 206.73 M225.51 193.73 L225.51 206.73 M274.58 193.73 L274.58 206.73 M323.66 193.73 L323.66 206.73 M372.73 193.73 L372.73 206.73 M421.81 193.73 L421.81 206.73 M470.89 193.73 L470.89 206.73 M519.96 193.73 L519.96 206.73 M569.04 193.73 L569.04 206.73 M618.12 193.73 L618.12 206.73 "
       style="fill:none;stroke:#000000;stroke-width:2;stroke-miterlimit:4;stroke-dasharray:none"
       id="path4858" />
    <text
       x="331.7833941013822"
       y="379.8590009369381"
       text-anchor="start"
       style="font:10px Droid Sans, Trebuchet MS, Arial, Helvetica, sans-serif;stroke:none;fill:#000000;stroke-width:2;stroke-miterlimit:4;stroke-dasharray:none"
       id="text4860">-0.6</text>
    <text
       x="331.7833941013822"
       y="320.8175594954963"
       text-anchor="start"
       style="font:10px Droid Sans, Trebuchet MS, Arial, Helvetica, sans-serif;stroke:none;fill:#000000;stroke-width:2;stroke-miterlimit:4;stroke-dasharray:none"
       id="text4862">-0.4</text>
    <text
       x="331.7833941013822"
       y="261.7761180540545"
       text-anchor="start"
       style="font:10px Droid Sans, Trebuchet MS, Arial, Helvetica, sans-serif;stroke:none;fill:#000000;stroke-width:2;stroke-miterlimit:4;stroke-dasharray:none"
       id="text4864">-0.2</text>
    <text
       x="331.7833941013822"
       y="202.73467661261267"
       text-anchor="start"
       style="font:10px Droid Sans, Trebuchet MS, Arial, Helvetica, sans-serif;stroke:none;fill:#000000;stroke-width:2;stroke-miterlimit:4;stroke-dasharray:none"
       id="text4866">0</text>
    <text
       x="331.7833941013822"
       y="143.6932351711709"
       text-anchor="start"
       style="font:10px Droid Sans, Trebuchet MS, Arial, Helvetica, sans-serif;stroke:none;fill:#000000;stroke-width:2;stroke-miterlimit:4;stroke-dasharray:none"
       id="text4868">0.2</text>
    <text
       x="331.7833941013822"
       y="84.6517937297291"
       text-anchor="start"
       style="font:10px Droid Sans, Trebuchet MS, Arial, Helvetica, sans-serif;stroke:none;fill:#000000;stroke-width:2;stroke-miterlimit:4;stroke-dasharray:none"
       id="text4870">0.4</text>
    <text
       x="331.7833941013822"
       y="25.610352288287302"
       text-anchor="start"
       style="font:10px Droid Sans, Trebuchet MS, Arial, Helvetica, sans-serif;stroke:none;fill:#000000;stroke-width:2;stroke-miterlimit:4;stroke-dasharray:none"
       id="text4872">0.6</text>
    <text
       x="29.199407926265348"
       y="216.35967661261267"
       text-anchor="middle"
       style="font:10px Droid Sans, Trebuchet MS, Arial, Helvetica, sans-serif;stroke:none;fill:#000000;stroke-width:2;stroke-miterlimit:4;stroke-dasharray:none"
       id="text4874">-1.2</text>
    <text
       x="78.27590562211813"
       y="216.35967661261267"
       text-anchor="middle"
       style="font:10px Droid Sans, Trebuchet MS, Arial, Helvetica, sans-serif;stroke:none;fill:#000000;stroke-width:2;stroke-miterlimit:4;stroke-dasharray:none"
       id="text4876">-1</text>
    <text
       x="127.35240331797092"
       y="216.35967661261267"
       text-anchor="middle"
       style="font:10px Droid Sans, Trebuchet MS, Arial, Helvetica, sans-serif;stroke:none;fill:#000000;stroke-width:2;stroke-miterlimit:4;stroke-dasharray:none"
       id="text4878">-0.8</text>
    <text
       x="176.42890101382372"
       y="216.35967661261267"
       text-anchor="middle"
       style="font:10px Droid Sans, Trebuchet MS, Arial, Helvetica, sans-serif;stroke:none;fill:#000000;stroke-width:2;stroke-miterlimit:4;stroke-dasharray:none"
       id="text4880">-0.6</text>
    <text
       x="225.5053987096765"
       y="216.35967661261267"
       text-anchor="middle"
       style="font:10px Droid Sans, Trebuchet MS, Arial, Helvetica, sans-serif;stroke:none;fill:#000000;stroke-width:2;stroke-miterlimit:4;stroke-dasharray:none"
       id="text4882">-0.4</text>
    <text
       x="274.58189640552933"
       y="216.35967661261267"
       text-anchor="middle"
       style="font:10px Droid Sans, Trebuchet MS, Arial, Helvetica, sans-serif;stroke:none;fill:#000000;stroke-width:2;stroke-miterlimit:4;stroke-dasharray:none"
       id="text4884">-0.2</text>
    <text
       x="323.65839410138216"
       y="216.35967661261267"
       text-anchor="middle"
       style="font:10px Droid Sans, Trebuchet MS, Arial, Helvetica, sans-serif;stroke:none;fill:#000000;stroke-width:2;stroke-miterlimit:4;stroke-dasharray:none"
       id="text4886">0</text>
    <text
       x="372.734891797235"
       y="216.35967661261267"
       text-anchor="middle"
       style="font:10px Droid Sans, Trebuchet MS, Arial, Helvetica, sans-serif;stroke:none;fill:#000000;stroke-width:2;stroke-miterlimit:4;stroke-dasharray:none"
       id="text4888">0.2</text>
    <text
       x="421.81138949308774"
       y="216.35967661261267"
       text-anchor="middle"
       style="font:10px Droid Sans, Trebuchet MS, Arial, Helvetica, sans-serif;stroke:none;fill:#000000;stroke-width:2;stroke-miterlimit:4;stroke-dasharray:none"
       id="text4890">0.4</text>
    <text
       x="470.8878871889406"
       y="216.35967661261267"
       text-anchor="middle"
       style="font:10px Droid Sans, Trebuchet MS, Arial, Helvetica, sans-serif;stroke:none;fill:#000000;stroke-width:2;stroke-miterlimit:4;stroke-dasharray:none"
       id="text4892">0.6</text>
    <text
       x="519.9643848847934"
       y="216.35967661261267"
       text-anchor="middle"
       style="font:10px Droid Sans, Trebuchet MS, Arial, Helvetica, sans-serif;stroke:none;fill:#000000;stroke-width:2;stroke-miterlimit:4;stroke-dasharray:none"
       id="text4894">0.8</text>
    <text
       x="569.0408825806462"
       y="216.35967661261267"
       text-anchor="middle"
       style="font:10px Droid Sans, Trebuchet MS, Arial, Helvetica, sans-serif;stroke:none;fill:#000000;stroke-width:2;stroke-miterlimit:4;stroke-dasharray:none"
       id="text4896">1</text>
    <text
       x="618.117380276499"
       y="216.35967661261267"
       text-anchor="middle"
       style="font:10px Droid Sans, Trebuchet MS, Arial, Helvetica, sans-serif;stroke:none;fill:#000000;stroke-width:2;stroke-miterlimit:4;stroke-dasharray:none"
       id="text4898">1.2</text>
    <path
       d="M200.99 400.35 L200.99 399.03 L200.99 397.77 L200.99 396.55 L200.99 395.38 L201.00 394.25 L201.00 393.16 L201.00 392.11 L201.00 391.08 L201.00 390.09 L201.00 389.12 L201.00 388.15 L201.00 387.18 L201.00 386.21 L201.01 385.24 L201.01 384.27 L201.01 383.30 L201.01 382.33 L201.01 381.36 L201.01 380.39 L201.01 379.42 L201.01 378.45 L201.02 377.48 L201.02 376.51 L201.02 375.54 L201.02 374.57 L201.02 373.60 L201.02 372.63 L201.03 371.66 L201.03 370.69 L201.03 369.72 L201.03 368.75 L201.03 367.78 L201.04 366.81 L201.04 365.84 L201.04 364.87 L201.04 363.90 L201.04 362.93 L201.05 361.96 L201.05 360.99 L201.05 360.02 L201.05 359.05 L201.06 358.08 L201.06 357.11 L201.06 356.14 L201.06 355.17 L201.07 354.20 L201.07 353.23 L201.07 352.26 L201.08 351.29 L201.08 350.32 L201.08 349.35 L201.09 348.38 L201.09 347.41 L201.10 346.44 L201.10 345.47 L201.10 344.50 L201.11 343.53 L201.11 342.56 L201.12 341.59 L201.12 340.62 L201.13 339.65 L201.13 338.68 L201.14 337.71 L201.14 336.74 L201.15 335.77 L201.15 334.80 L201.16 333.83 L201.16 332.86 L201.17 331.89 L201.18 330.92 L201.18 329.95 L201.19 328.98 L201.20 328.01 L201.20 327.04 L201.21 326.07 L201.22 325.10 L201.23 324.13 L201.23 323.16 L201.24 322.19 L201.25 321.22 L201.26 320.25 L201.27 319.28 L201.28 318.31 L201.29 317.34 L201.30 316.37 L201.31 315.40 L201.32 314.43 L201.33 313.46 L201.34 312.49 L201.35 311.52 L201.36 310.55 L201.38 309.58 L201.39 308.61 L201.40 307.64 L201.41 306.67 L201.43 305.70 L201.44 304.73 L201.46 303.76 L201.47 302.79 L201.49 301.82 L201.50 300.85 L201.52 299.88 L201.54 298.91 L201.56 297.95 L201.57 296.98 L201.59 296.01 L201.61 295.04 L201.63 294.07 L201.65 293.10 L201.67 292.13 L201.70 291.16 L201.72 290.19 L201.74 289.22 L201.77 288.25 L201.79 287.28 L201.82 286.31 L201.84 285.34 L201.87 284.37 L201.90 283.40 L201.93 282.44 L201.96 281.47 L201.99 280.50 L202.02 279.53 L202.05 278.56 L202.09 277.59 L202.12 276.62 L202.16 275.65 L202.20 274.68 L202.24 273.71 L202.28 272.75 L202.32 271.78 L202.36 270.81 L202.40 269.84 L202.45 268.87 L202.50 267.90 L202.54 266.93 L202.59 265.97 L202.65 265.00 L202.70 264.03 L202.75 263.06 L202.81 262.09 L202.87 261.12 L202.93 260.16 L202.99 259.19 L203.06 258.22 L203.12 257.25 L203.19 256.29 L203.26 255.32 L203.34 254.35 L203.41 253.38 L203.49 252.41 L203.57 251.45 L203.66 250.48 L203.75 249.51 L203.84 248.55 L203.93 247.58 L204.02 246.61 L204.12 245.65 L204.23 244.68 L204.33 243.71 L204.44 242.75 L204.56 241.78 L204.68 240.82 L204.80 239.85 L204.92 238.88 L205.06 237.92 L205.19 236.95 L205.33 235.99 L205.48 235.02 L205.63 234.06 L205.78 233.09 L205.95 232.13 L206.12 231.17 L206.29 230.20 L206.47 229.24 L206.66 228.27 L206.85 227.31 L207.06 226.35 L207.27 225.39 L207.49 224.42 L207.71 223.46 L207.95 222.50 L208.20 221.54 L208.45 220.58 L208.72 219.62 L208.99 218.66 L209.28 217.70 L209.58 216.74 L209.90 215.78 L210.23 214.83 L210.57 213.87 L210.93 212.91 L211.30 211.96 L211.69 211.00 L212.10 210.05 L212.53 209.09 L212.98 208.14 L213.45 207.19 L213.95 206.24 L214.47 205.29 L215.02 204.34 L215.60 203.39 L216.21 202.45 L216.86 201.50 L217.54 200.56 L218.27 199.62 L219.05 198.68 L219.87 197.75 L220.76 196.82 L221.70 195.89 L222.72 194.96 L223.83 194.04 L225.02 193.13 L226.33 192.22 L227.77 191.31 L229.36 190.42 L231.14 189.54 L233.14 188.69 L235.14 187.96 L237.14 187.34 L239.14 186.82 L241.14 186.38 L243.14 186.03 L245.14 185.75 L247.14 185.53 L249.14 185.37 L251.14 185.27 L253.14 185.22 L255.14 185.22 L257.14 185.26 L259.14 185.34 L261.14 185.46 L263.14 185.62 L265.14 185.81 L267.14 186.03 L269.14 186.28 L271.14 186.55 L273.14 186.85 L275.14 187.18 L277.14 187.53 L279.14 187.90 L281.14 188.30 L283.14 188.71 L285.14 189.14 L287.14 189.59 L289.14 190.06 L291.14 190.55 L293.14 191.05 L295.14 191.56 L297.14 192.09 L299.14 192.63 L301.14 193.19 L303.14 193.76 L305.14 194.34 L307.14 194.93 L309.14 195.54 L311.14 196.16 L313.14 196.78 L315.14 197.42 L317.14 198.06 L319.14 198.72 L321.14 199.39 L323.14 200.06 L325.14 200.74 L327.14 201.43 L329.14 202.13 L331.14 202.84 L333.14 203.55 L335.14 204.28 L337.14 205.00 L339.14 205.74 L341.14 206.48 L343.14 207.23 L345.14 207.99 L347.14 208.75 L349.14 209.52 L351.14 210.29 L353.14 211.07 L355.14 211.85 L357.14 212.64 L359.14 213.44 L361.14 214.24 L363.14 215.04 L365.14 215.85 L367.14 216.67 L369.14 217.49 L371.14 218.31 L373.14 219.14 L375.14 219.97 L377.14 220.81 L379.14 221.65 L381.14 222.50 L383.14 223.35 L385.14 224.20 L387.14 225.06 L389.14 225.92 L391.14 226.78 L393.14 227.65 L395.14 228.52 L397.14 229.39 L399.14 230.27 L401.14 231.15 L403.14 232.04 L405.14 232.93 L407.14 233.82 L409.14 234.71 L411.14 235.61 L413.14 236.51 L415.14 237.41 L417.14 238.31 L419.14 239.22 L421.14 240.13 L423.14 241.05 L425.14 241.96 L427.14 242.88 L429.14 243.80 L431.14 244.72 L433.14 245.65 L435.14 246.58 L437.14 247.51 L439.14 248.44 L441.14 249.38 L443.14 250.31 L445.14 251.25 L447.14 252.19 L449.14 253.14 L451.14 254.08 L453.14 255.03 L455.14 255.98 L457.14 256.93 L459.14 257.89 L461.14 258.84 L463.14 259.80 L465.14 260.76 L467.14 261.72 L469.14 262.68 L471.14 263.65 L473.14 264.62 L475.14 265.58 L477.14 266.55 L479.14 267.53 L481.14 268.50 L483.14 269.47 L485.14 270.45 L487.14 271.43 L489.14 272.41 L491.14 273.39 L493.14 274.37 L495.14 275.36 L497.14 276.34 L499.14 277.33 L501.14 278.32 L503.14 279.31 L505.14 280.30 L507.14 281.29 L509.14 282.29 L511.14 283.28 L513.14 284.28 L515.14 285.28 L517.14 286.28 L519.14 287.28 L521.14 288.28 L523.14 289.28 L525.13 290.28 L527.12 291.29 L529.11 292.29 L531.10 293.29 L533.08 294.29 L535.06 295.29 L537.04 296.29 L539.02 297.29 L540.99 298.29 L542.96 299.29 L544.93 300.30 L546.90 301.30 L548.87 302.30 L550.83 303.30 L552.79 304.30 L554.75 305.30 L556.71 306.30 L558.67 307.30 L560.62 308.30 L562.58 309.30 L564.53 310.31 L566.48 311.31 L568.42 312.31 L570.37 313.31 L572.31 314.31 L574.25 315.31 L576.19 316.31 L578.13 317.31 L580.07 318.31 L582.00 319.31 L583.94 320.31 L585.87 321.32 L587.80 322.32 L589.73 323.32 L591.65 324.32 L593.58 325.32 L595.50 326.32 L597.43 327.32 L599.35 328.32 L601.27 329.32 L603.19 330.32 L605.10 331.32 L607.02 332.32 L608.93 333.32 L610.85 334.33 L612.76 335.33 L614.67 336.33 L616.58 337.33 L618.49 338.33 L620.39 339.33 L622.30 340.33 L624.20 341.33 L626.10 342.33 L628.00 343.33 L629.90 344.33 L631.80 345.33 L633.70 346.33 L635.60 347.33 L637.49 348.33 L639.39 349.33 L641.28 350.34 L643.17 351.34 L645.06 352.34 L646.95 353.34 L648.84 354.34 "
       style="fill:none;stroke:#000000;stroke-width:2;stroke-miterlimit:4;stroke-dasharray:none"
       id="path4900" />
    <path
       d="M-10.00 200.00 L-0.25 46.81 L0.75 47.34 L2.64 48.34 L4.53 49.34 L6.42 50.33 L8.31 51.33 L10.20 52.33 L12.09 53.33 L13.99 54.33 L15.88 55.33 L17.78 56.33 L19.68 57.33 L21.58 58.33 L23.48 59.33 L25.38 60.33 L27.28 61.33 L29.19 62.33 L31.09 63.33 L33.00 64.33 L34.90 65.33 L36.81 66.32 L38.72 67.32 L40.64 68.32 L42.55 69.32 L44.46 70.32 L46.38 71.32 L48.30 72.32 L50.22 73.32 L52.14 74.32 L54.06 75.32 L55.98 76.32 L57.90 77.32 L59.83 78.32 L61.76 79.31 L63.69 80.31 L65.62 81.31 L67.55 82.31 L69.48 83.31 L71.42 84.31 L73.36 85.31 L75.29 86.31 L77.24 87.31 L79.18 88.31 L81.12 89.31 L83.07 90.31 L85.01 91.30 L86.96 92.30 L88.91 93.30 L90.87 94.30 L92.82 95.30 L94.78 96.30 L96.74 97.30 L98.70 98.30 L100.66 99.30 L102.62 100.30 L104.59 101.29 L106.56 102.29 L108.53 103.29 L110.50 104.29 L112.48 105.29 L114.45 106.29 L116.43 107.29 L118.41 108.29 L120.40 109.29 L122.38 110.28 L124.37 111.28 L126.36 112.28 L128.36 113.28 L130.35 114.28 L132.35 115.28 L134.35 116.28 L136.35 117.27 L138.35 118.27 L140.35 119.26 L142.35 120.26 L144.35 121.25 L146.35 122.24 L148.35 123.23 L150.35 124.21 L152.35 125.20 L154.35 126.18 L156.35 127.17 L158.35 128.15 L160.35 129.13 L162.35 130.11 L164.35 131.08 L166.35 132.06 L168.35 133.03 L170.35 134.00 L172.35 134.97 L174.35 135.94 L176.35 136.91 L178.35 137.87 L180.35 138.83 L182.35 139.80 L184.35 140.75 L186.35 141.71 L188.35 142.67 L190.35 143.62 L192.35 144.57 L194.35 145.52 L196.35 146.47 L198.35 147.42 L200.35 148.36 L202.35 149.30 L204.35 150.24 L206.35 151.18 L208.35 152.11 L210.35 153.04 L212.35 153.97 L214.35 154.90 L216.35 155.83 L218.35 156.75 L220.35 157.67 L222.35 158.59 L224.35 159.51 L226.35 160.42 L228.35 161.33 L230.35 162.24 L232.35 163.14 L234.35 164.04 L236.35 164.94 L238.35 165.84 L240.35 166.73 L242.35 167.62 L244.35 168.51 L246.35 169.39 L248.35 170.27 L250.35 171.15 L252.35 172.03 L254.35 172.90 L256.35 173.77 L258.35 174.63 L260.35 175.49 L262.35 176.35 L264.35 177.20 L266.35 178.05 L268.35 178.89 L270.35 179.73 L272.35 180.57 L274.35 181.40 L276.35 182.23 L278.35 183.05 L280.35 183.87 L282.35 184.69 L284.35 185.50 L286.35 186.30 L288.35 187.10 L290.35 187.90 L292.35 188.69 L294.35 189.47 L296.35 190.25 L298.35 191.02 L300.35 191.79 L302.35 192.55 L304.35 193.31 L306.35 194.05 L308.35 194.80 L310.35 195.53 L312.35 196.26 L314.35 196.98 L316.35 197.69 L318.35 198.40 L320.35 199.10 L322.35 199.79 L324.35 200.47 L326.35 201.14 L328.35 201.81 L330.35 202.46 L332.35 203.11 L334.35 203.74 L336.35 204.37 L338.35 204.98 L340.35 205.59 L342.35 206.18 L344.35 206.76 L346.35 207.33 L348.35 207.89 L350.35 208.43 L352.35 208.96 L354.35 209.47 L356.35 209.97 L358.35 210.45 L360.35 210.92 L362.35 211.37 L364.35 211.80 L366.35 212.21 L368.35 212.60 L370.35 212.97 L372.35 213.32 L374.35 213.64 L376.35 213.94 L378.35 214.22 L380.35 214.46 L382.35 214.68 L384.35 214.87 L386.35 215.02 L388.35 215.13 L390.35 215.21 L392.35 215.25 L394.35 215.24 L396.35 215.19 L398.35 215.08 L400.35 214.92 L402.35 214.70 L404.35 214.41 L406.35 214.05 L408.35 213.61 L410.35 213.08 L412.35 212.45 L414.35 211.71 L416.35 210.85 L418.35 209.84 L420.33 208.68 L422.04 207.53 L423.53 206.40 L424.85 205.29 L426.03 204.18 L427.10 203.09 L428.08 202.00 L428.99 200.92 L429.82 199.84 L430.60 198.77 L431.32 197.70 L431.99 196.63 L432.63 195.57 L433.22 194.51 L433.78 193.45 L434.31 192.39 L434.81 191.33 L435.28 190.28 L435.73 189.22 L436.15 188.17 L436.56 187.12 L436.94 186.07 L437.31 185.02 L437.65 183.97 L437.99 182.92 L438.30 181.88 L438.60 180.83 L438.89 179.78 L439.17 178.74 L439.44 177.69 L439.69 176.65 L439.93 175.61 L440.16 174.56 L440.39 173.52 L440.60 172.48 L440.81 171.44 L441.00 170.40 L441.19 169.36 L441.37 168.32 L441.55 167.28 L441.72 166.24 L441.88 165.20 L442.03 164.16 L442.18 163.12 L442.33 162.08 L442.46 161.04 L442.60 160.00 L442.73 158.96 L442.85 157.92 L442.97 156.89 L443.08 155.85 L443.19 154.81 L443.30 153.77 L443.40 152.74 L443.50 151.70 L443.60 150.66 L443.69 149.63 L443.78 148.59 L443.87 147.55 L443.95 146.52 L444.03 145.48 L444.10 144.45 L444.18 143.41 L444.25 142.37 L444.32 141.34 L444.39 140.30 L444.45 139.27 L444.51 138.23 L444.57 137.20 L444.63 136.16 L444.69 135.13 L444.74 134.09 L444.80 133.06 L444.85 132.02 L444.90 130.99 L444.94 129.95 L444.99 128.92 L445.03 127.88 L445.08 126.85 L445.12 125.81 L445.16 124.78 L445.20 123.75 L445.23 122.71 L445.27 121.68 L445.31 120.64 L445.34 119.61 L445.37 118.57 L445.40 117.54 L445.43 116.51 L445.46 115.47 L445.49 114.44 L445.52 113.41 L445.55 112.37 L445.57 111.34 L445.60 110.30 L445.62 109.27 L445.64 108.24 L445.67 107.20 L445.69 106.17 L445.71 105.14 L445.73 104.10 L445.75 103.07 L445.77 102.03 L445.79 101.00 L445.81 99.97 L445.82 98.93 L445.84 97.90 L445.86 96.87 L445.87 95.83 L445.89 94.80 L445.90 93.77 L445.92 92.73 L445.93 91.70 L445.94 90.67 L445.96 89.63 L445.97 88.60 L445.98 87.57 L445.99 86.53 L446.01 85.50 L446.02 84.47 L446.03 83.43 L446.04 82.40 L446.05 81.37 L446.06 80.34 L446.07 79.30 L446.08 78.27 L446.08 77.24 L446.09 76.20 L446.10 75.17 L446.11 74.14 L446.12 73.10 L446.12 72.07 L446.13 71.04 L446.14 70.00 L446.14 68.97 L446.15 67.94 L446.16 66.91 L446.16 65.87 L446.17 64.84 L446.18 63.81 L446.18 62.77 L446.19 61.74 L446.19 60.71 L446.20 59.67 L446.20 58.64 L446.21 57.61 L446.21 56.58 L446.21 55.54 L446.22 54.51 L446.22 53.48 L446.23 52.44 L446.23 51.41 L446.24 50.38 L446.24 49.35 L446.24 48.31 L446.25 47.28 L446.25 46.25 L446.25 45.21 L446.26 44.18 L446.26 43.15 L446.26 42.12 L446.26 41.08 L446.27 40.05 L446.27 39.02 L446.27 37.98 L446.27 36.95 L446.28 35.92 L446.28 34.89 L446.28 33.85 L446.28 32.82 L446.29 31.79 L446.29 30.75 L446.29 29.72 L446.29 28.69 L446.29 27.66 L446.30 26.62 L446.30 25.59 L446.30 24.56 L446.30 23.52 L446.30 22.49 L446.30 21.46 L446.30 20.43 L446.31 19.39 L446.31 18.36 L446.31 17.33 L446.31 16.29 L446.31 15.26 L446.31 14.23 L446.31 13.20 L446.31 12.16 L446.32 11.13 L446.32 10.10 L446.32 9.07 L446.32 8.03 L446.32 6.97 L446.32 5.86 L446.32 4.72 L446.32 3.53 L446.32 2.30 L446.33 1.02 L446.33 -0.31 "
       style="fill:none;stroke:#F70A0A;stroke-width:2;stroke-miterlimit:4;stroke-dasharray:none"
       id="path4902" />
    <path
       d="M39.86 -0.00 L39.86 0.00 L41.52 1.00 L43.18 2.00 L44.84 3.00 L46.51 4.00 L48.17 5.00 L49.83 6.00 L51.49 7.00 L53.16 8.00 L54.82 9.00 L56.48 10.00 L58.14 11.00 L59.81 12.00 L61.47 13.00 L63.13 14.00 L64.79 15.00 L66.46 16.00 L68.12 17.00 L69.78 18.00 L71.44 19.00 L73.11 20.00 L74.77 21.00 L76.43 22.00 L78.09 23.00 L79.76 24.00 L81.42 25.00 L83.08 26.00 L84.74 27.00 L86.41 28.00 L88.07 29.00 L89.73 30.00 L91.39 31.00 L93.06 32.00 L94.72 33.00 L96.38 34.00 L98.04 35.00 L99.70 36.00 L101.37 37.00 L103.03 38.00 L104.69 39.00 L106.35 40.00 L108.02 41.00 L109.68 42.00 L111.34 43.00 L113.00 44.00 L114.67 45.00 L116.33 46.00 L117.99 47.00 L119.65 48.00 L121.32 49.00 L122.98 50.00 L124.64 51.00 L126.30 52.00 L127.97 53.00 L129.63 54.00 L131.29 55.00 L132.95 56.00 L134.62 57.00 L136.28 58.00 L137.94 59.00 L139.60 60.00 L141.27 61.00 L142.93 62.00 L144.59 63.00 L146.25 64.00 L147.92 65.00 L149.58 66.00 L151.24 67.00 L152.90 68.00 L154.57 69.00 L156.23 70.00 L157.89 71.00 L159.55 72.00 L161.22 73.00 L162.88 74.00 L164.54 75.00 L166.20 76.00 L167.87 77.00 L169.53 78.00 L171.19 79.00 L172.85 80.00 L174.51 81.00 L176.18 82.00 L177.84 83.00 L179.50 84.00 L181.16 85.00 L182.83 86.00 L184.49 87.00 L186.15 88.00 L187.81 89.00 L189.48 90.00 L191.14 91.00 L192.80 92.00 L194.46 93.00 L196.13 94.00 L197.79 95.00 L199.45 96.00 L201.11 97.00 L202.78 98.00 L204.44 99.00 L206.10 100.00 L207.76 101.00 L209.43 102.00 L211.09 103.00 L212.75 104.00 L214.41 105.00 L216.08 106.00 L217.74 107.00 L219.40 108.00 L221.06 109.00 L222.73 110.00 L224.39 111.00 L226.05 112.00 L227.71 113.00 L229.38 114.00 L231.04 115.00 L232.70 116.00 L234.36 117.00 L236.03 118.00 L237.69 119.00 L239.35 120.00 L241.01 121.00 L242.67 122.00 L244.34 123.00 L246.00 124.00 L247.66 125.00 L249.32 126.00 L250.99 127.00 L252.65 128.00 L254.31 129.00 L255.97 130.00 L257.64 131.00 L259.30 132.00 L260.96 133.00 L262.62 134.00 L264.29 135.00 L265.95 136.00 L267.61 137.00 L269.27 138.00 L270.94 139.00 L272.60 140.00 L274.26 141.00 L275.92 142.00 L277.59 143.00 L279.25 144.00 L280.91 145.00 L282.57 146.00 L284.24 147.00 L285.90 148.00 L287.56 149.00 L289.22 150.00 L290.89 151.00 L292.55 152.00 L294.21 153.00 L295.87 154.00 L297.54 155.00 L299.20 156.00 L300.86 157.00 L302.52 158.00 L304.19 159.00 L305.85 160.00 L307.51 161.00 L309.17 162.00 L310.84 163.00 L312.50 164.00 L314.16 165.00 L315.82 166.00 L317.48 167.00 L319.15 168.00 L320.81 169.00 L322.47 170.00 L324.13 171.00 L325.80 172.00 L327.46 173.00 L329.12 174.00 L330.78 175.00 L332.45 176.00 L334.11 177.00 L335.77 178.00 L337.43 179.00 L339.10 180.00 L340.76 181.00 L342.42 182.00 L344.08 183.00 L345.75 184.00 L347.41 185.00 L349.07 186.00 L350.73 187.00 L352.40 188.00 L354.06 189.00 L355.72 190.00 L357.38 191.00 L359.05 192.00 L360.71 193.00 L362.37 194.00 L364.03 195.00 L365.70 196.00 L367.36 197.00 L369.02 198.00 L370.68 199.00 L372.35 200.00 L374.01 201.00 L375.67 202.00 L377.33 203.00 L379.00 204.00 L380.66 205.00 L382.32 206.00 L383.98 207.00 L385.65 208.00 L387.31 209.00 L388.97 210.00 L390.63 211.00 L392.29 212.00 L393.96 213.00 L395.62 214.00 L397.28 215.00 L398.94 216.00 L400.61 217.00 L402.27 218.00 L403.93 219.00 L405.59 220.00 L407.26 221.00 L408.92 222.00 L410.58 223.00 L412.24 224.00 L413.91 225.00 L415.57 226.00 L417.23 227.00 L418.89 228.00 L420.56 229.00 L422.22 230.00 L423.88 231.00 L425.54 232.00 L427.21 233.00 L428.87 234.00 L430.53 235.00 L432.19 236.00 L433.86 237.00 L435.52 238.00 L437.18 239.00 L438.84 240.00 L440.51 241.00 L442.17 242.00 L443.83 243.00 L445.49 244.00 L447.16 245.00 L448.82 246.00 L450.48 247.00 L452.14 248.00 L453.81 249.00 L455.47 250.00 L457.13 251.00 L458.79 252.00 L460.45 253.00 L462.12 254.00 L463.78 255.00 L465.44 256.00 L467.10 257.00 L468.77 258.00 L470.43 259.00 L472.09 260.00 L473.75 261.00 L475.42 262.00 L477.08 263.00 L478.74 264.00 L480.40 265.00 L482.07 266.00 L483.73 267.00 L485.39 268.00 L487.05 269.00 L488.72 270.00 L490.38 271.00 L492.04 272.00 L493.70 273.00 L495.37 274.00 L497.03 275.00 L498.69 276.00 L500.35 277.00 L502.02 278.00 L503.68 279.00 L505.34 280.00 L507.00 281.00 L508.67 282.00 L510.33 283.00 L511.99 284.00 L513.65 285.00 L515.32 286.00 L516.98 287.00 L518.64 288.00 L520.30 289.00 L521.97 290.00 L523.63 291.00 L525.29 292.00 L526.95 293.00 L528.62 294.00 L530.28 295.00 L531.94 296.00 L533.60 297.00 L535.26 298.00 L536.93 299.00 L538.59 300.00 L540.25 301.00 L541.91 302.00 L543.58 303.00 L545.24 304.00 L546.90 305.00 L548.56 306.00 L550.23 307.00 L551.89 308.00 L553.55 309.00 L555.21 310.00 L556.88 311.00 L558.54 312.00 L560.20 313.00 L561.86 314.00 L563.53 315.00 L565.19 316.00 L566.85 317.00 L568.51 318.00 L570.18 319.00 L571.84 320.00 L573.50 321.00 L575.16 322.00 L576.83 323.00 L578.49 324.00 L580.15 325.00 L581.81 326.00 L583.48 327.00 L585.14 328.00 L586.80 329.00 L588.46 330.00 L590.13 331.00 L591.79 332.00 L593.45 333.00 L595.11 334.00 L596.78 335.00 L598.44 336.00 L600.10 337.00 L601.76 338.00 L603.42 339.00 L605.09 340.00 L606.75 341.00 L608.41 342.00 L610.07 343.00 L611.74 344.00 L613.40 345.00 L615.06 346.00 L616.72 347.00 L618.39 348.00 L620.05 349.00 L621.71 350.00 L623.37 351.00 L625.04 352.00 L626.70 353.00 L628.36 354.00 L630.02 355.00 L631.69 356.00 L633.35 357.00 L635.01 358.00 L636.67 359.00 L638.34 360.00 L640.00 361.00 L641.66 362.00 L643.32 363.00 L644.99 364.00 L646.65 365.00 L648.31 366.00 L649.97 367.00 "
       style="fill:none;stroke:#0EE8CF;stroke-width:2;stroke-miterlimit:4;stroke-dasharray:none"
       id="path4904" />
    <path
       d="M-10.00 200.00 L-0.25 19.06 L0.75 19.82 L2.06 20.82 L3.38 21.82 L4.69 22.83 L5.99 23.83 L7.30 24.83 L8.61 25.83 L9.91 26.83 L11.21 27.83 L12.51 28.83 L13.81 29.84 L15.10 30.84 L16.39 31.84 L17.68 32.84 L18.97 33.84 L20.26 34.84 L21.55 35.85 L22.83 36.85 L24.11 37.85 L25.39 38.85 L26.66 39.85 L27.94 40.85 L29.21 41.86 L30.48 42.86 L31.75 43.86 L33.01 44.86 L34.28 45.86 L35.54 46.86 L36.80 47.87 L38.05 48.87 L39.31 49.87 L40.56 50.87 L41.81 51.87 L43.05 52.88 L44.30 53.88 L45.54 54.88 L46.78 55.88 L48.02 56.88 L49.25 57.89 L50.48 58.89 L51.71 59.89 L52.94 60.89 L54.16 61.89 L55.38 62.90 L56.60 63.90 L57.82 64.90 L59.03 65.90 L60.24 66.91 L61.45 67.91 L62.65 68.91 L63.85 69.91 L65.05 70.92 L66.25 71.92 L67.44 72.92 L68.63 73.92 L69.82 74.93 L71.00 75.93 L72.18 76.93 L73.36 77.93 L74.53 78.94 L75.70 79.94 L76.87 80.94 L78.04 81.94 L79.20 82.95 L80.36 83.95 L81.51 84.95 L82.66 85.96 L83.81 86.96 L84.95 87.96 L86.09 88.97 L87.23 89.97 L88.37 90.97 L89.50 91.98 L90.62 92.98 L91.75 93.98 L92.87 94.99 L93.98 95.99 L95.09 96.99 L96.20 98.00 L97.30 99.00 L98.40 100.00 L99.50 101.01 L100.59 102.01 L101.68 103.01 L102.76 104.02 L103.84 105.02 L104.92 106.03 L105.99 107.03 L107.06 108.03 L108.12 109.04 L109.18 110.04 L110.23 111.05 L111.28 112.05 L112.33 113.05 L113.37 114.06 L114.40 115.06 L115.44 116.07 L116.46 117.07 L117.48 118.08 L118.50 119.08 L119.51 120.09 L120.52 121.09 L121.52 122.10 L122.52 123.10 L123.51 124.11 L124.50 125.11 L125.48 126.12 L126.46 127.12 L127.43 128.13 L128.40 129.13 L129.36 130.14 L130.32 131.15 L131.27 132.15 L132.21 133.16 L133.15 134.16 L134.09 135.17 L135.01 136.18 L135.94 137.18 L136.85 138.19 L137.76 139.19 L138.67 140.20 L139.57 141.21 L140.46 142.22 L141.35 143.22 L142.23 144.23 L143.10 145.24 L143.97 146.24 L144.83 147.25 L145.69 148.26 L146.54 149.27 L147.38 150.27 L148.22 151.28 L149.05 152.29 L149.87 153.30 L150.69 154.31 L151.50 155.31 L152.30 156.32 L153.10 157.33 L153.89 158.34 L154.68 159.35 L155.45 160.36 L156.22 161.37 L156.98 162.38 L157.74 163.39 L158.49 164.40 L159.23 165.41 L159.96 166.42 L160.69 167.43 L161.41 168.44 L162.12 169.45 L162.82 170.46 L163.52 171.47 L164.21 172.48 L164.89 173.49 L165.57 174.50 L166.24 175.51 L166.90 176.52 L167.55 177.54 L168.19 178.55 L168.83 179.56 L169.46 180.57 L170.08 181.58 L170.69 182.60 L171.30 183.61 L171.90 184.62 L172.49 185.64 L173.07 186.65 L173.65 187.66 L174.22 188.68 L174.77 189.69 L175.33 190.71 L175.87 191.72 L176.41 192.74 L176.93 193.75 L177.46 194.77 L177.97 195.78 L178.47 196.80 L178.97 197.81 L179.46 198.83 L179.94 199.84 L180.42 200.86 L180.88 201.88 L181.34 202.89 L181.79 203.91 L182.24 204.93 L182.67 205.95 L183.10 206.96 L183.52 207.98 L183.94 209.00 L184.34 210.02 L184.74 211.04 L185.13 212.06 L185.52 213.08 L185.90 214.09 L186.27 215.11 L186.63 216.13 L186.98 217.15 L187.33 218.17 L187.68 219.19 L188.01 220.22 L188.34 221.24 L188.66 222.26 L188.98 223.28 L189.29 224.30 L189.59 225.32 L189.88 226.34 L190.17 227.37 L190.46 228.39 L190.73 229.41 L191.00 230.43 L191.27 231.46 L191.53 232.48 L191.78 233.50 L192.03 234.53 L192.27 235.55 L192.51 236.57 L192.74 237.60 L192.96 238.62 L193.18 239.65 L193.40 240.67 L193.60 241.70 L193.81 242.72 L194.01 243.75 L194.20 244.77 L194.39 245.80 L194.58 246.82 L194.76 247.85 L194.93 248.87 L195.10 249.90 L195.27 250.93 L195.43 251.95 L195.59 252.98 L195.75 254.01 L195.90 255.03 L196.04 256.06 L196.19 257.09 L196.33 258.12 L196.46 259.14 L196.59 260.17 L196.72 261.20 L196.84 262.23 L196.96 263.25 L197.08 264.28 L197.20 265.31 L197.31 266.34 L197.42 267.37 L197.52 268.40 L197.62 269.42 L197.72 270.45 L197.82 271.48 L197.92 272.51 L198.01 273.54 L198.10 274.57 L198.18 275.60 L198.27 276.63 L198.35 277.66 L198.43 278.69 L198.50 279.72 L198.58 280.75 L198.65 281.78 L198.72 282.81 L198.79 283.84 L198.85 284.87 L198.92 285.90 L198.98 286.93 L199.04 287.96 L199.10 288.99 L199.16 290.02 L199.21 291.05 L199.27 292.08 L199.32 293.11 L199.37 294.14 L199.42 295.17 L199.47 296.20 L199.51 297.23 L199.56 298.26 L199.60 299.30 L199.64 300.33 L199.68 301.36 L199.72 302.39 L199.76 303.42 L199.80 304.45 L199.84 305.48 L199.87 306.51 L199.91 307.55 L199.94 308.58 L199.97 309.61 L200.00 310.64 L200.03 311.67 L200.06 312.70 L200.09 313.73 L200.12 314.77 L200.14 315.80 L200.17 316.83 L200.19 317.86 L200.22 318.89 L200.24 319.92 L200.26 320.96 L200.29 321.99 L200.31 323.02 L200.33 324.05 L200.35 325.08 L200.37 326.12 L200.39 327.15 L200.40 328.18 L200.42 329.21 L200.44 330.24 L200.46 331.28 L200.47 332.31 L200.49 333.34 L200.50 334.37 L200.52 335.40 L200.53 336.44 L200.54 337.47 L200.56 338.50 L200.57 339.53 L200.58 340.57 L200.60 341.60 L200.61 342.63 L200.62 343.66 L200.63 344.69 L200.64 345.73 L200.65 346.76 L200.66 347.79 L200.67 348.82 L200.68 349.86 L200.69 350.89 L200.70 351.92 L200.71 352.95 L200.71 353.99 L200.72 355.02 L200.73 356.05 L200.74 357.08 L200.74 358.12 L200.75 359.15 L200.76 360.18 L200.76 361.21 L200.77 362.25 L200.78 363.28 L200.78 364.31 L200.79 365.34 L200.79 366.38 L200.80 367.41 L200.81 368.44 L200.81 369.47 L200.82 370.51 L200.82 371.54 L200.83 372.57 L200.83 373.60 L200.83 374.64 L200.84 375.67 L200.84 376.70 L200.85 377.73 L200.85 378.77 L200.85 379.80 L200.86 380.83 L200.86 381.86 L200.86 382.90 L200.87 383.93 L200.87 384.96 L200.87 385.99 L200.88 387.03 L200.88 388.06 L200.88 389.09 L200.88 390.13 L200.89 391.16 L200.89 392.19 L200.89 393.22 L200.89 394.26 L200.90 395.29 L200.90 396.32 L200.90 397.35 L200.90 398.39 L200.91 399.42 L200.91 400.45 "
       style="fill:none;stroke:#050505;stroke-width:2;stroke-miterlimit:4;stroke-dasharray:none"
       id="path4906" />
    <path
       d="M446.50 -0.02 L446.50 0.20 L446.50 1.18 L446.51 2.15 L446.51 3.12 L446.52 4.09 L446.52 5.06 L446.53 6.03 L446.54 7.00 L446.54 7.97 L446.55 8.94 L446.55 9.91 L446.56 10.88 L446.57 11.85 L446.57 12.82 L446.58 13.79 L446.59 14.77 L446.59 15.74 L446.60 16.71 L446.61 17.68 L446.62 18.65 L446.62 19.62 L446.63 20.59 L446.64 21.56 L446.65 22.53 L446.66 23.50 L446.67 24.47 L446.68 25.44 L446.69 26.41 L446.70 27.38 L446.71 28.35 L446.72 29.32 L446.73 30.29 L446.74 31.26 L446.76 32.23 L446.77 33.21 L446.78 34.18 L446.79 35.15 L446.81 36.12 L446.82 37.09 L446.84 38.06 L446.85 39.03 L446.87 40.00 L446.88 40.97 L446.90 41.94 L446.92 42.91 L446.93 43.88 L446.95 44.85 L446.97 45.82 L446.99 46.80 L447.01 47.77 L447.03 48.74 L447.05 49.71 L447.07 50.68 L447.09 51.65 L447.11 52.62 L447.14 53.59 L447.16 54.56 L447.18 55.53 L447.21 56.50 L447.24 57.48 L447.26 58.45 L447.29 59.42 L447.32 60.39 L447.35 61.36 L447.38 62.33 L447.41 63.30 L447.44 64.27 L447.47 65.25 L447.51 66.22 L447.54 67.19 L447.58 68.16 L447.61 69.13 L447.65 70.10 L447.69 71.07 L447.73 72.05 L447.77 73.02 L447.82 73.99 L447.86 74.96 L447.91 75.93 L447.95 76.90 L448.00 77.88 L448.05 78.85 L448.10 79.82 L448.15 80.79 L448.21 81.76 L448.26 82.74 L448.32 83.71 L448.38 84.68 L448.44 85.65 L448.50 86.62 L448.56 87.60 L448.63 88.57 L448.69 89.54 L448.76 90.51 L448.83 91.49 L448.91 92.46 L448.98 93.43 L449.06 94.41 L449.14 95.38 L449.22 96.35 L449.30 97.32 L449.39 98.30 L449.48 99.27 L449.57 100.24 L449.66 101.22 L449.76 102.19 L449.86 103.16 L449.96 104.14 L450.06 105.11 L450.17 106.09 L450.28 107.06 L450.39 108.03 L450.51 109.01 L450.63 109.98 L450.75 110.96 L450.87 111.93 L451.00 112.90 L451.13 113.88 L451.27 114.85 L451.41 115.83 L451.55 116.80 L451.70 117.78 L451.84 118.75 L452.00 119.73 L452.16 120.70 L452.32 121.68 L452.48 122.66 L452.65 123.63 L452.83 124.61 L453.00 125.58 L453.19 126.56 L453.37 127.54 L453.56 128.51 L453.76 129.49 L453.96 130.47 L454.17 131.44 L454.38 132.42 L454.59 133.40 L454.81 134.38 L455.04 135.35 L455.27 136.33 L455.50 137.31 L455.74 138.29 L455.99 139.26 L456.24 140.24 L456.50 141.22 L456.76 142.20 L457.03 143.18 L457.31 144.16 L457.59 145.14 L457.87 146.12 L458.17 147.10 L458.46 148.08 L458.77 149.06 L459.08 150.04 L459.40 151.02 L459.72 152.00 L460.05 152.98 L460.39 153.96 L460.73 154.94 L461.08 155.92 L461.44 156.90 L461.80 157.88 L462.17 158.86 L462.55 159.85 L462.93 160.83 L463.33 161.81 L463.72 162.79 L464.13 163.78 L464.54 164.76 L464.96 165.74 L465.39 166.73 L465.82 167.71 L466.26 168.69 L466.71 169.68 L467.17 170.66 L467.63 171.65 L468.10 172.63 L468.58 173.61 L469.06 174.60 L469.56 175.58 L470.06 176.57 L470.57 177.55 L471.08 178.54 L471.61 179.53 L472.14 180.51 L472.67 181.50 L473.22 182.48 L473.77 183.47 L474.34 184.46 L474.90 185.44 L475.48 186.43 L476.06 187.42 L476.66 188.41 L477.25 189.39 L477.86 190.38 L478.48 191.37 L479.10 192.36 L479.73 193.35 L480.36 194.33 L481.01 195.32 L481.66 196.31 L482.32 197.30 L482.98 198.29 L483.66 199.28 L484.34 200.27 L485.03 201.26 L485.72 202.25 L486.42 203.24 L487.13 204.23 L487.85 205.22 L488.58 206.21 L489.31 207.20 L490.05 208.19 L490.79 209.18 L491.54 210.17 L492.30 211.16 L493.07 212.15 L493.84 213.14 L494.62 214.13 L495.41 215.13 L496.20 216.12 L497.00 217.11 L497.81 218.10 L498.62 219.09 L499.44 220.09 L500.27 221.08 L501.10 222.07 L501.94 223.06 L502.79 224.06 L503.64 225.05 L504.50 226.04 L505.36 227.03 L506.23 228.03 L507.11 229.02 L507.99 230.01 L508.88 231.01 L509.78 232.00 L510.68 232.99 L511.58 233.99 L512.50 234.98 L513.41 235.98 L514.34 236.97 L515.27 237.96 L516.20 238.96 L517.14 239.95 L518.09 240.95 L519.04 241.94 L519.99 242.93 L520.96 243.93 L521.92 244.92 L522.90 245.92 L523.87 246.91 L524.86 247.91 L525.84 248.90 L526.84 249.90 L527.83 250.89 L528.84 251.89 L529.84 252.88 L530.86 253.88 L531.87 254.87 L532.90 255.87 L533.92 256.87 L534.95 257.86 L535.99 258.86 L537.03 259.85 L538.08 260.85 L539.12 261.84 L540.18 262.84 L541.24 263.84 L542.30 264.83 L543.37 265.83 L544.44 266.82 L545.51 267.82 L546.59 268.82 L547.67 269.81 L548.76 270.81 L549.85 271.80 L550.95 272.80 L552.05 273.80 L553.15 274.79 L554.26 275.79 L555.37 276.79 L556.49 277.78 L557.60 278.78 L558.73 279.78 L559.85 280.77 L560.98 281.77 L562.11 282.77 L563.25 283.76 L564.39 284.76 L565.53 285.76 L566.68 286.76 L567.83 287.75 L568.99 288.75 L570.14 289.75 L571.30 290.74 L572.47 291.74 L573.64 292.74 L574.81 293.74 L575.98 294.73 L577.16 295.73 L578.34 296.73 L579.52 297.73 L580.70 298.72 L581.89 299.72 L583.08 300.72 L584.28 301.72 L585.48 302.71 L586.68 303.71 L587.88 304.71 L589.09 305.71 L590.30 306.70 L591.51 307.70 L592.72 308.70 L593.94 309.70 L595.16 310.69 L596.38 311.69 L597.61 312.69 L598.84 313.69 L600.07 314.69 L601.30 315.68 L602.54 316.68 L603.78 317.68 L605.02 318.68 L606.26 319.68 L607.51 320.67 L608.75 321.67 L610.00 322.67 L611.26 323.67 L612.51 324.67 L613.77 325.67 L615.03 326.66 L616.29 327.66 L617.56 328.66 L618.82 329.66 L620.09 330.66 L621.36 331.65 L622.64 332.65 L623.91 333.65 L625.19 334.65 L626.47 335.65 L627.75 336.65 L629.04 337.64 L630.32 338.64 L631.61 339.64 L632.90 340.64 L634.19 341.64 L635.49 342.64 L636.78 343.64 L638.08 344.63 L639.38 345.63 L640.68 346.63 L641.99 347.63 L643.29 348.63 L644.60 349.63 L645.91 350.63 L647.22 351.62 L648.53 352.62 L649.85 353.62 "
       style="fill:none;stroke:#F20909;stroke-width:2;stroke-miterlimit:4;stroke-dasharray:none"
       id="path4908" />
    <path
       d="M-10.00 200.00 L-0.25 34.92 L0.75 35.52 L2.41 36.52 L4.08 37.52 L5.74 38.52 L7.40 39.52 L9.06 40.52 L10.72 41.52 L12.39 42.52 L14.05 43.52 L15.71 44.52 L17.37 45.52 L19.04 46.52 L20.70 47.52 L22.36 48.52 L24.02 49.52 L25.69 50.52 L27.35 51.52 L29.01 52.52 L30.67 53.52 L32.34 54.52 L34.00 55.52 L35.66 56.52 L37.32 57.52 L38.99 58.52 L40.65 59.52 L42.31 60.52 L43.97 61.52 L45.64 62.52 L47.30 63.52 L48.96 64.52 L50.62 65.52 L52.29 66.52 L53.95 67.52 L55.61 68.52 L57.27 69.52 L58.94 70.52 L60.60 71.52 L62.26 72.52 L63.92 73.52 L65.59 74.52 L67.25 75.52 L68.91 76.52 L70.57 77.52 L72.24 78.52 L73.90 79.52 L75.56 80.52 L77.22 81.52 L78.89 82.52 L80.55 83.52 L82.21 84.52 L83.87 85.52 L85.53 86.52 L87.20 87.52 L88.86 88.52 L90.52 89.52 L92.18 90.52 L93.85 91.52 L95.51 92.52 L97.17 93.52 L98.83 94.52 L100.50 95.52 L102.16 96.52 L103.82 97.52 L105.48 98.52 L107.15 99.52 L108.81 100.52 L110.47 101.52 L112.13 102.52 L113.80 103.52 L115.46 104.52 L117.12 105.52 L118.78 106.52 L120.45 107.52 L122.11 108.52 L123.77 109.52 L125.43 110.52 L127.10 111.52 L128.76 112.52 L130.42 113.52 L132.08 114.52 L133.75 115.52 L135.41 116.52 L137.07 117.52 L138.73 118.52 L140.40 119.52 L142.06 120.52 L143.72 121.52 L145.38 122.52 L147.05 123.52 L148.71 124.52 L150.37 125.52 L152.03 126.52 L153.69 127.52 L155.36 128.52 L157.02 129.52 L158.68 130.52 L160.34 131.52 L162.01 132.52 L163.67 133.52 L165.33 134.52 L166.99 135.52 L168.66 136.52 L170.32 137.52 L171.98 138.52 L173.64 139.52 L175.31 140.52 L176.97 141.52 L178.63 142.52 L180.29 143.52 L181.96 144.52 L183.62 145.52 L185.28 146.52 L186.94 147.52 L188.61 148.52 L190.27 149.52 L191.93 150.52 L193.59 151.52 L195.26 152.52 L196.92 153.52 L198.58 154.52 L200.24 155.52 L201.91 156.52 L203.57 157.52 L205.23 158.52 L206.89 159.52 L208.56 160.52 L210.22 161.52 L211.88 162.52 L213.54 163.52 L215.21 164.52 L216.87 165.52 L218.53 166.52 L220.19 167.52 L221.86 168.52 L223.52 169.52 L225.18 170.52 L226.84 171.52 L228.50 172.52 L230.17 173.52 L231.83 174.52 L233.49 175.52 L235.15 176.52 L236.82 177.52 L238.48 178.52 L240.14 179.52 L241.80 180.52 L243.47 181.52 L245.13 182.52 L246.79 183.52 L248.45 184.52 L250.12 185.52 L251.78 186.52 L253.44 187.52 L255.10 188.52 L256.77 189.52 L258.43 190.52 L260.09 191.52 L261.75 192.52 L263.42 193.52 L265.08 194.52 L266.74 195.52 L268.40 196.52 L270.07 197.52 L271.73 198.52 L273.39 199.52 L275.05 200.52 L276.72 201.52 L278.38 202.52 L280.04 203.52 L281.70 204.52 L283.37 205.52 L285.03 206.52 L286.69 207.52 L288.35 208.52 L290.02 209.52 L291.68 210.52 L293.34 211.52 L295.00 212.52 L296.66 213.52 L298.33 214.52 L299.99 215.52 L301.65 216.52 L303.31 217.52 L304.98 218.52 L306.64 219.52 L308.30 220.52 L309.96 221.52 L311.63 222.52 L313.29 223.52 L314.95 224.52 L316.61 225.52 L318.28 226.52 L319.94 227.52 L321.60 228.52 L323.26 229.52 L324.93 230.52 L326.59 231.52 L328.25 232.52 L329.91 233.52 L331.58 234.52 L333.24 235.52 L334.90 236.52 L336.56 237.52 L338.23 238.52 L339.89 239.52 L341.55 240.52 L343.21 241.52 L344.88 242.52 L346.54 243.52 L348.20 244.52 L349.86 245.52 L351.53 246.52 L353.19 247.52 L354.85 248.52 L356.51 249.52 L358.18 250.52 L359.84 251.52 L361.50 252.52 L363.16 253.52 L364.83 254.52 L366.49 255.52 L368.15 256.52 L369.81 257.52 L371.47 258.52 L373.14 259.52 L374.80 260.52 L376.46 261.52 L378.12 262.52 L379.79 263.52 L381.45 264.52 L383.11 265.52 L384.77 266.52 L386.44 267.52 L388.10 268.52 L389.76 269.52 L391.42 270.52 L393.09 271.52 L394.75 272.52 L396.41 273.52 L398.07 274.52 L399.74 275.52 L401.40 276.52 L403.06 277.52 L404.72 278.52 L406.39 279.52 L408.05 280.52 L409.71 281.52 L411.37 282.52 L413.04 283.52 L414.70 284.52 L416.36 285.52 L418.02 286.52 L419.69 287.52 L421.35 288.52 L423.01 289.52 L424.67 290.52 L426.34 291.52 L428.00 292.52 L429.66 293.52 L431.32 294.52 L432.99 295.52 L434.65 296.52 L436.31 297.52 L437.97 298.52 L439.64 299.52 L441.30 300.52 L442.96 301.52 L444.62 302.52 L446.28 303.52 L447.95 304.52 L449.61 305.52 L451.27 306.52 L452.93 307.52 L454.60 308.52 L456.26 309.52 L457.92 310.52 L459.58 311.52 L461.25 312.52 L462.91 313.52 L464.57 314.52 L466.23 315.52 L467.90 316.52 L469.56 317.52 L471.22 318.52 L472.88 319.52 L474.55 320.52 L476.21 321.52 L477.87 322.52 L479.53 323.52 L481.20 324.52 L482.86 325.52 L484.52 326.52 L486.18 327.52 L487.85 328.52 L489.51 329.52 L491.17 330.52 L492.83 331.52 L494.50 332.52 L496.16 333.52 L497.82 334.52 L499.48 335.52 L501.15 336.52 L502.81 337.52 L504.47 338.52 L506.13 339.52 L507.80 340.52 L509.46 341.52 L511.12 342.52 L512.78 343.52 L514.44 344.52 L516.11 345.52 L517.77 346.52 L519.43 347.52 L521.09 348.52 L522.76 349.52 L524.42 350.52 L526.08 351.52 L527.74 352.52 L529.41 353.52 L531.07 354.52 L532.73 355.52 L534.39 356.52 L536.06 357.52 L537.72 358.52 L539.38 359.52 L541.04 360.52 L542.71 361.52 L544.37 362.52 L546.03 363.52 L547.69 364.52 L549.36 365.52 L551.02 366.52 L552.68 367.52 L554.34 368.52 L556.01 369.52 L557.67 370.52 L559.33 371.52 L560.99 372.52 L562.66 373.52 L564.32 374.52 L565.98 375.52 L567.64 376.52 L569.31 377.52 L570.97 378.52 L572.63 379.52 L574.29 380.52 L575.96 381.52 L577.62 382.52 L579.28 383.52 L580.94 384.52 L582.61 385.52 L584.27 386.52 L585.93 387.52 L587.59 388.52 L589.25 389.52 L590.92 390.52 L592.58 391.52 L594.24 392.52 L595.90 393.52 L597.57 394.52 L599.23 395.52 L600.89 396.52 L602.55 397.52 L604.22 398.52 L605.88 399.52 L607.54 400.52 "
       style="fill:none;stroke:#1FD9BA;stroke-width:2;stroke-miterlimit:4;stroke-dasharray:none"
       id="path4910" />
    <path
       d="M200.98 402.59 L200.98 399.16 L200.98 396.07 L200.98 393.24 L200.98 390.64 L200.98 388.24 L200.98 386.01 L200.98 383.92 L200.98 381.96 L200.98 380.11 L200.99 378.37 L200.99 376.71 L200.99 375.14 L200.99 373.63 L200.99 372.20 L200.99 370.83 L200.99 369.51 L200.99 368.25 L200.99 367.03 L201.00 365.86 L201.00 364.73 L201.00 363.64 L201.00 362.58 L201.00 361.56 L201.00 360.57 L201.00 359.60 L201.00 358.63 L201.00 357.66 L201.00 356.69 L201.01 355.72 L201.01 354.75 L201.01 353.78 L201.01 352.81 L201.01 351.84 L201.01 350.87 L201.01 349.90 L201.01 348.93 L201.02 347.96 L201.02 346.99 L201.02 346.02 L201.02 345.05 L201.02 344.08 L201.02 343.11 L201.03 342.14 L201.03 341.17 L201.03 340.20 L201.03 339.23 L201.03 338.26 L201.04 337.29 L201.04 336.32 L201.04 335.35 L201.04 334.38 L201.04 333.41 L201.05 332.44 L201.05 331.47 L201.05 330.50 L201.05 329.53 L201.06 328.56 L201.06 327.59 L201.06 326.62 L201.06 325.65 L201.07 324.68 L201.07 323.71 L201.07 322.74 L201.08 321.77 L201.08 320.80 L201.08 319.83 L201.09 318.86 L201.09 317.89 L201.10 316.92 L201.10 315.95 L201.10 314.98 L201.11 314.01 L201.11 313.04 L201.12 312.07 L201.12 311.10 L201.13 310.13 L201.13 309.16 L201.14 308.19 L201.14 307.22 L201.15 306.25 L201.15 305.28 L201.16 304.31 L201.16 303.34 L201.17 302.37 L201.18 301.40 L201.18 300.43 L201.19 299.46 L201.20 298.49 L201.20 297.52 L201.21 296.55 L201.22 295.58 L201.23 294.61 L201.23 293.64 L201.24 292.67 L201.25 291.70 L201.26 290.73 L201.27 289.76 L201.28 288.79 L201.29 287.82 L201.30 286.85 L201.31 285.88 L201.32 284.91 L201.33 283.94 L201.34 282.97 L201.35 282.00 L201.36 281.03 L201.38 280.06 L201.39 279.09 L201.40 278.12 L201.41 277.15 L201.43 276.18 L201.44 275.21 L201.46 274.24 L201.47 273.27 L201.49 272.30 L201.50 271.33 L201.52 270.36 L201.54 269.39 L201.56 268.42 L201.57 267.45 L201.59 266.49 L201.61 265.52 L201.63 264.55 L201.65 263.58 L201.67 262.61 L201.70 261.64 L201.72 260.67 L201.74 259.70 L201.77 258.73 L201.79 257.76 L201.82 256.79 L201.84 255.82 L201.87 254.85 L201.90 253.88 L201.93 252.91 L201.96 251.95 L201.99 250.98 L202.02 250.01 L202.05 249.04 L202.09 248.07 L202.12 247.10 L202.16 246.13 L202.20 245.16 L202.24 244.19 L202.28 243.23 L202.32 242.26 L202.36 241.29 L202.40 240.32 L202.45 239.35 L202.50 238.38 L202.54 237.41 L202.59 236.44 L202.65 235.48 L202.70 234.51 L202.75 233.54 L202.81 232.57 L202.87 231.60 L202.93 230.64 L202.99 229.67 L203.06 228.70 L203.12 227.73 L203.19 226.76 L203.26 225.80 L203.34 224.83 L203.41 223.86 L203.49 222.89 L203.57 221.93 L203.66 220.96 L203.75 219.99 L203.84 219.03 L203.93 218.06 L204.02 217.09 L204.12 216.13 L204.23 215.16 L204.33 214.19 L204.44 213.23 L204.56 212.26 L204.68 211.29 L204.80 210.33 L204.92 209.36 L205.06 208.40 L205.19 207.43 L205.33 206.47 L205.48 205.50 L205.63 204.54 L205.78 203.57 L205.95 202.61 L206.12 201.64 L206.29 200.68 L206.47 199.72 L206.66 198.75 L206.85 197.79 L207.06 196.83 L207.27 195.87 L207.49 194.90 L207.71 193.94 L207.95 192.98 L208.20 192.02 L208.45 191.06 L208.72 190.10 L208.99 189.14 L209.28 188.18 L209.58 187.22 L209.90 186.26 L210.23 185.30 L210.57 184.35 L210.93 183.39 L211.30 182.43 L211.69 181.48 L212.10 180.53 L212.53 179.57 L212.98 178.62 L213.45 177.67 L213.95 176.72 L214.47 175.77 L215.02 174.82 L215.60 173.87 L216.21 172.93 L216.86 171.98 L217.54 171.04 L218.27 170.10 L219.05 169.16 L219.87 168.23 L220.76 167.30 L221.70 166.37 L222.72 165.44 L223.83 164.52 L225.02 163.60 L226.33 162.69 L227.77 161.79 L229.36 160.90 L231.14 160.02 L233.14 159.17 L235.14 158.44 L237.14 157.82 L239.14 157.30 L241.14 156.86 L243.14 156.51 L245.14 156.23 L247.14 156.01 L249.14 155.85 L251.14 155.75 L253.14 155.70 L255.14 155.70 L257.14 155.74 L259.14 155.82 L261.14 155.94 L263.14 156.10 L265.14 156.29 L267.14 156.51 L269.14 156.75 L271.14 157.03 L273.14 157.33 L275.14 157.66 L277.14 158.01 L279.14 158.38 L281.14 158.78 L283.14 159.19 L285.14 159.62 L287.14 160.07 L289.14 160.54 L291.14 161.02 L293.14 161.52 L295.14 162.04 L297.14 162.57 L299.14 163.11 L301.14 163.67 L303.14 164.24 L305.14 164.82 L307.14 165.41 L309.14 166.02 L311.14 166.63 L313.14 167.26 L315.14 167.90 L317.14 168.54 L319.14 169.20 L321.14 169.87 L323.14 170.54 L325.14 171.22 L327.14 171.91 L329.14 172.61 L331.14 173.32 L333.14 174.03 L335.14 174.75 L337.14 175.48 L339.14 176.22 L341.14 176.96 L343.14 177.71 L345.14 178.47 L347.14 179.23 L349.14 179.99 L351.14 180.77 L353.14 181.55 L355.14 182.33 L357.14 183.12 L359.14 183.92 L361.14 184.72 L363.14 185.52 L365.14 186.33 L367.14 187.15 L369.14 187.97 L371.14 188.79 L373.14 189.62 L375.14 190.45 L377.14 191.29 L379.14 192.13 L381.14 192.98 L383.14 193.83 L385.14 194.68 L387.14 195.54 L389.14 196.40 L391.14 197.26 L393.14 198.13 L395.14 199.00 L397.14 199.87 L399.14 200.75 L401.14 201.63 L403.14 202.52 L405.14 203.41 L407.14 204.30 L409.14 205.19 L411.14 206.09 L413.14 206.99 L415.14 207.89 L417.14 208.79 L419.14 209.70 L421.14 210.61 L423.14 211.52 L425.14 212.44 L427.14 213.36 L429.14 214.28 L431.14 215.20 L433.14 216.13 L435.14 217.06 L437.14 217.99 L439.14 218.92 L441.14 219.86 L443.14 220.79 L445.14 221.73 L447.14 222.67 L449.14 223.62 L451.14 224.56 L453.14 225.51 L455.14 226.46 L457.14 227.41 L459.14 228.37 L461.14 229.32 L463.14 230.28 L465.14 231.24 L467.14 232.20 L469.14 233.16 L471.14 234.13 L473.14 235.09 L475.14 236.06 L477.14 237.03 L479.14 238.01 L481.14 238.98 L483.14 239.95 L485.14 240.93 L487.14 241.91 L489.14 242.89 L491.14 243.87 L493.14 244.85 L495.14 245.84 L497.14 246.82 L499.14 247.81 L501.14 248.80 L503.14 249.79 L505.14 250.78 L507.14 251.77 L509.14 252.77 L511.14 253.76 L513.14 254.76 L515.14 255.76 L517.14 256.76 L519.14 257.76 L521.14 258.76 L523.14 259.76 L525.13 260.76 L527.12 261.76 L529.11 262.77 L531.10 263.77 L533.08 264.77 L535.06 265.77 L537.04 266.77 L539.02 267.77 L540.99 268.77 L542.96 269.77 L544.93 270.78 L546.90 271.78 L548.87 272.78 L550.83 273.78 L552.79 274.78 L554.75 275.78 L556.71 276.78 L558.67 277.78 L560.62 278.78 L562.58 279.78 L564.53 280.79 L566.48 281.79 L568.42 282.79 L570.37 283.79 L572.31 284.79 L574.25 285.79 L576.19 286.79 L578.13 287.79 L580.07 288.79 L582.00 289.79 L583.94 290.79 L585.87 291.79 L587.80 292.80 L589.73 293.80 L591.65 294.80 L593.58 295.80 L595.50 296.80 L597.43 297.80 L599.35 298.80 L601.27 299.80 L603.19 300.80 L605.10 301.80 L607.02 302.80 L608.93 303.80 L610.85 304.80 L612.76 305.81 L614.67 306.81 L616.58 307.81 L618.49 308.81 L620.39 309.81 L622.30 310.81 L624.20 311.81 L626.10 312.81 L628.00 313.81 L629.90 314.81 L631.80 315.81 L633.70 316.81 L635.60 317.81 L637.49 318.81 L639.39 319.81 L641.28 320.81 L643.17 321.82 L645.06 322.82 L646.95 323.82 L648.84 324.82 "
       style="fill:none;stroke:#000000;stroke-width:2;stroke-miterlimit:4;stroke-dasharray:none"
       id="path4912" />
    <path
       d="M-10.00 200.00 L-0.25 76.33 L0.75 76.86 L2.64 77.86 L4.53 78.86 L6.42 79.86 L8.31 80.85 L10.20 81.85 L12.09 82.85 L13.99 83.85 L15.88 84.85 L17.78 85.85 L19.68 86.85 L21.58 87.85 L23.48 88.85 L25.38 89.85 L27.28 90.85 L29.19 91.85 L31.09 92.85 L33.00 93.85 L34.90 94.85 L36.81 95.85 L38.72 96.84 L40.64 97.84 L42.55 98.84 L44.46 99.84 L46.38 100.84 L48.30 101.84 L50.22 102.84 L52.14 103.84 L54.06 104.84 L55.98 105.84 L57.90 106.84 L59.83 107.84 L61.76 108.84 L63.69 109.83 L65.62 110.83 L67.55 111.83 L69.48 112.83 L71.42 113.83 L73.36 114.83 L75.29 115.83 L77.24 116.83 L79.18 117.83 L81.12 118.83 L83.07 119.83 L85.01 120.83 L86.96 121.82 L88.91 122.82 L90.87 123.82 L92.82 124.82 L94.78 125.82 L96.74 126.82 L98.70 127.82 L100.66 128.82 L102.62 129.82 L104.59 130.82 L106.56 131.81 L108.53 132.81 L110.50 133.81 L112.48 134.81 L114.45 135.81 L116.43 136.81 L118.41 137.81 L120.40 138.81 L122.38 139.81 L124.37 140.80 L126.36 141.80 L128.36 142.80 L130.35 143.80 L132.35 144.80 L134.35 145.80 L136.35 146.79 L138.35 147.79 L140.35 148.78 L142.35 149.78 L144.35 150.77 L146.35 151.76 L148.35 152.75 L150.35 153.73 L152.35 154.72 L154.35 155.70 L156.35 156.69 L158.35 157.67 L160.35 158.65 L162.35 159.63 L164.35 160.60 L166.35 161.58 L168.35 162.55 L170.35 163.52 L172.35 164.49 L174.35 165.46 L176.35 166.43 L178.35 167.39 L180.35 168.35 L182.35 169.32 L184.35 170.28 L186.35 171.23 L188.35 172.19 L190.35 173.14 L192.35 174.09 L194.35 175.04 L196.35 175.99 L198.35 176.94 L200.35 177.88 L202.35 178.82 L204.35 179.76 L206.35 180.70 L208.35 181.63 L210.35 182.56 L212.35 183.50 L214.35 184.42 L216.35 185.35 L218.35 186.27 L220.35 187.19 L222.35 188.11 L224.35 189.03 L226.35 189.94 L228.35 190.85 L230.35 191.76 L232.35 192.66 L234.35 193.56 L236.35 194.46 L238.35 195.36 L240.35 196.25 L242.35 197.14 L244.35 198.03 L246.35 198.91 L248.35 199.80 L250.35 200.67 L252.35 201.55 L254.35 202.42 L256.35 203.29 L258.35 204.15 L260.35 205.01 L262.35 205.87 L264.35 206.72 L266.35 207.57 L268.35 208.41 L270.35 209.25 L272.35 210.09 L274.35 210.92 L276.35 211.75 L278.35 212.58 L280.35 213.39 L282.35 214.21 L284.35 215.02 L286.35 215.82 L288.35 216.62 L290.35 217.42 L292.35 218.21 L294.35 218.99 L296.35 219.77 L298.35 220.54 L300.35 221.31 L302.35 222.07 L304.35 222.83 L306.35 223.57 L308.35 224.32 L310.35 225.05 L312.35 225.78 L314.35 226.50 L316.35 227.21 L318.35 227.92 L320.35 228.62 L322.35 229.31 L324.35 229.99 L326.35 230.66 L328.35 231.33 L330.35 231.98 L332.35 232.63 L334.35 233.26 L336.35 233.89 L338.35 234.51 L340.35 235.11 L342.35 235.70 L344.35 236.28 L346.35 236.85 L348.35 237.41 L350.35 237.95 L352.35 238.48 L354.35 238.99 L356.35 239.49 L358.35 239.97 L360.35 240.44 L362.35 240.89 L364.35 241.32 L366.35 241.73 L368.35 242.12 L370.35 242.49 L372.35 242.84 L374.35 243.16 L376.35 243.46 L378.35 243.74 L380.35 243.98 L382.35 244.20 L384.35 244.39 L386.35 244.54 L388.35 244.65 L390.35 244.73 L392.35 244.77 L394.35 244.76 L396.35 244.71 L398.35 244.60 L400.35 244.44 L402.35 244.22 L404.35 243.93 L406.35 243.57 L408.35 243.13 L410.35 242.60 L412.35 241.97 L414.35 241.23 L416.35 240.37 L418.35 239.36 L420.33 238.20 L422.04 237.05 L423.53 235.92 L424.85 234.81 L426.03 233.70 L427.10 232.61 L428.08 231.52 L428.99 230.44 L429.82 229.36 L430.60 228.29 L431.32 227.22 L431.99 226.16 L432.63 225.09 L433.22 224.03 L433.78 222.97 L434.31 221.91 L434.81 220.85 L435.28 219.80 L435.73 218.74 L436.15 217.69 L436.56 216.64 L436.94 215.59 L437.31 214.54 L437.65 213.49 L437.99 212.44 L438.30 211.40 L438.60 210.35 L438.89 209.31 L439.17 208.26 L439.44 207.22 L439.69 206.17 L439.93 205.13 L440.16 204.09 L440.39 203.04 L440.60 202.00 L440.81 200.96 L441.00 199.92 L441.19 198.88 L441.37 197.84 L441.55 196.80 L441.72 195.76 L441.88 194.72 L442.03 193.68 L442.18 192.64 L442.33 191.60 L442.46 190.56 L442.60 189.52 L442.73 188.48 L442.85 187.45 L442.97 186.41 L443.08 185.37 L443.19 184.33 L443.30 183.30 L443.40 182.26 L443.50 181.22 L443.60 180.18 L443.69 179.15 L443.78 178.11 L443.87 177.08 L443.95 176.04 L444.03 175.00 L444.10 173.97 L444.18 172.93 L444.25 171.90 L444.32 170.86 L444.39 169.82 L444.45 168.79 L444.51 167.75 L444.57 166.72 L444.63 165.68 L444.69 164.65 L444.74 163.61 L444.80 162.58 L444.85 161.54 L444.90 160.51 L444.94 159.47 L444.99 158.44 L445.03 157.40 L445.08 156.37 L445.12 155.34 L445.16 154.30 L445.20 153.27 L445.23 152.23 L445.27 151.20 L445.31 150.16 L445.34 149.13 L445.37 148.10 L445.40 147.06 L445.43 146.03 L445.46 144.99 L445.49 143.96 L445.52 142.93 L445.55 141.89 L445.57 140.86 L445.60 139.82 L445.62 138.79 L445.64 137.76 L445.67 136.72 L445.69 135.69 L445.71 134.66 L445.73 133.62 L445.75 132.59 L445.77 131.56 L445.79 130.52 L445.81 129.49 L445.82 128.45 L445.84 127.42 L445.86 126.39 L445.87 125.35 L445.89 124.32 L445.90 123.29 L445.92 122.25 L445.93 121.22 L445.94 120.19 L445.96 119.15 L445.97 118.12 L445.98 117.09 L445.99 116.06 L446.01 115.02 L446.02 113.99 L446.03 112.96 L446.04 111.92 L446.05 110.89 L446.06 109.86 L446.07 108.82 L446.08 107.79 L446.08 106.76 L446.09 105.72 L446.10 104.69 L446.11 103.66 L446.12 102.62 L446.12 101.59 L446.13 100.56 L446.14 99.53 L446.14 98.49 L446.15 97.46 L446.16 96.43 L446.16 95.39 L446.17 94.36 L446.18 93.33 L446.18 92.29 L446.19 91.26 L446.19 90.23 L446.20 89.20 L446.20 88.16 L446.21 87.13 L446.21 86.10 L446.21 85.06 L446.22 84.03 L446.22 83.00 L446.23 81.96 L446.23 80.93 L446.24 79.90 L446.24 78.87 L446.24 77.83 L446.25 76.80 L446.25 75.77 L446.25 74.73 L446.26 73.70 L446.26 72.67 L446.26 71.64 L446.26 70.60 L446.27 69.57 L446.27 68.54 L446.27 67.50 L446.27 66.47 L446.28 65.44 L446.28 64.41 L446.28 63.37 L446.28 62.34 L446.29 61.31 L446.29 60.27 L446.29 59.24 L446.29 58.21 L446.29 57.18 L446.30 56.14 L446.30 55.11 L446.30 54.08 L446.30 53.04 L446.30 52.01 L446.30 50.98 L446.30 49.95 L446.31 48.91 L446.31 47.88 L446.31 46.85 L446.31 45.82 L446.31 44.78 L446.31 43.75 L446.31 42.72 L446.31 41.68 L446.32 40.65 L446.32 39.62 L446.32 38.59 L446.32 37.55 L446.32 36.49 L446.32 35.38 L446.32 34.24 L446.32 33.05 L446.32 31.82 L446.33 30.54 L446.33 29.21 L446.33 27.82 L446.33 26.36 L446.33 24.84 L446.33 23.24 L446.33 21.56 L446.33 19.78 L446.33 17.90 L446.33 15.90 L446.34 13.77 L446.34 11.48 L446.34 9.02 L446.34 6.36 L446.34 3.45 L446.34 0.25 L446.34 -3.30 "
       style="fill:none;stroke:#ED0E0E;stroke-width:2;stroke-miterlimit:4;stroke-dasharray:none"
       id="path4914" />
    <path
       style="fill:#040000;fill-opacity:1;stroke:#000000;stroke-width:3;stroke-linecap:square;stroke-linejoin:bevel;stroke-miterlimit:4;stroke-opacity:1;stroke-dasharray:none;stroke-dashoffset:0"
       d="m 474.07284,182.47572 1.08401,9.75608 6.14271,-2.89069 z"
       id="path3036"
       inkscape:connector-curvature="0" />
    <path
       style="fill:#040000;fill-opacity:1;stroke:#000000;stroke-width:3;stroke-linecap:square;stroke-linejoin:bevel;stroke-miterlimit:4;stroke-opacity:1;stroke-dasharray:none;stroke-dashoffset:0"
       d="m 443.14145,187.67987 -3.56187,9.14709 6.78285,0.28606 z"
       id="path3036-6"
       inkscape:connector-curvature="0" />
    <path
       style="fill:#040000;fill-opacity:1;stroke:#000000;stroke-width:3;stroke-linecap:square;stroke-linejoin:bevel;stroke-miterlimit:4;stroke-opacity:1;stroke-dasharray:none;stroke-dashoffset:0"
       d="m 353.49398,188.57194 5.03727,8.42509 4.38775,-5.18041 z"
       id="path3036-67"
       inkscape:connector-curvature="0" />
    <path
       style="fill:#040000;fill-opacity:1;stroke:#000000;stroke-width:3;stroke-linecap:square;stroke-linejoin:bevel;stroke-miterlimit:4;stroke-opacity:1;stroke-dasharray:none;stroke-dashoffset:0"
       d="m 291.25348,151.55496 -5.78109,-7.93317 -3.89951,5.55723 z"
       id="path3036-67-8"
       inkscape:connector-curvature="0" />
    <path
       style="fill:#040000;fill-opacity:1;stroke:#000000;stroke-width:3;stroke-linecap:square;stroke-linejoin:bevel;stroke-miterlimit:4;stroke-opacity:1;stroke-dasharray:none;stroke-dashoffset:0"
       d="m 189.64879,171.81078 -7.05696,-6.82316 -2.88778,6.14407 z"
       id="path3036-6-5"
       inkscape:connector-curvature="0" />
    <path
       style="fill:#040000;fill-opacity:1;stroke:#000000;stroke-width:3;stroke-linecap:square;stroke-linejoin:bevel;stroke-miterlimit:4;stroke-opacity:1;stroke-dasharray:none;stroke-dashoffset:0"
       d="m 259.69913,155.83921 8.8026,4.34402 0.87497,-6.73227 z"
       id="path3036-67-6"
       inkscape:connector-curvature="0" />
    <path
       style="fill:#040000;fill-opacity:1;stroke:#000000;stroke-width:3;stroke-linecap:square;stroke-linejoin:bevel;stroke-miterlimit:4;stroke-opacity:1;stroke-dasharray:none;stroke-dashoffset:0"
       d="m 166.65308,175.80092 -3.34161,-9.22983 -5.29354,4.25056 z"
       id="path3036-6-5-7"
       inkscape:connector-curvature="0" />
  </g>
</svg>
