<?xml version="1.0" encoding="utf-8" standalone="no"?><!DOCTYPE svg PUBLIC "-//W3C//DTD SVG 1.1//EN" "http://www.w3.org/Graphics/SVG/1.1/DTD/svg11.dtd">
<svg preserveAspectRatio="xMinYMin meet" width="100%" height="100%" viewBox="0 0 1489.655 732.414"  version="1.1" xmlns="http://www.w3.org/2000/svg" xmlns:xlink="http://www.w3.org/1999/xlink">
  <desc>Matlab Figure Converted by PLOT2SVG written by Juerg Schwizer</desc>
  <g id="topgroup">
  <rect x="0" y="0" width="1489.655" height="732.414" fill="#ffffff" stroke="none" />
  <g id ="ID000000">
  <clipPath id="ID000001">
    <rect x="193.655" y="54.931" width="1154.483" height="596.917"/>
  </clipPath>
      <polygon fill="#ffffff" fill-opacity="1.00" stroke="none" stroke-width="0.5pt" stroke-opacity="1.00" stroke-dasharray="none" points="193.655,651.848 1348.138,651.848 1348.138,54.931 193.655,54.931 "/>
      <polygon fill="#ffffff" fill-opacity="1.00" stroke="none" stroke-width="0.5pt" stroke-opacity="1.00" stroke-dasharray="none" points="193.655,54.931 1348.138,54.931 1348.138,54.931 193.655,54.931 "/>
      <polygon fill="#ffffff" fill-opacity="1.00" stroke="none" stroke-width="0.5pt" stroke-opacity="1.00" stroke-dasharray="none" points="193.655,651.848 193.655,651.848 193.655,54.931 193.655,54.931 "/>
    <g>
<g id="ID000002" clip-path="url(#ID000001)" >
      <polyline fill="none" stroke="#0000ff" stroke-width="2.0pt" stroke-dasharray="8.0,2.0" points="226.640,519.200 259.626,505.449 292.611,491.782 325.596,478.731 358.581,464.165 391.567,450.481 424.552,436.338 457.537,422.564 490.522,409.599 523.507,398.361 556.493,384.756 589.478,371.543 622.463,357.989 655.448,347.534 688.433,332.458 721.419,317.177 754.404,304.136 787.389,293.513 820.374,278.161 853.360,264.108 886.345,253.312 919.330,241.411 952.315,229.392 985.300,216.720 1018.286,204.272 1051.271,191.433 1084.256,178.519 1117.241,164.501 1150.227,150.788 1183.212,137.478 1216.197,123.322 "/>
<g>
      <polyline fill="#0000ff" fill-opacity="1.00" stroke="#0000ff" stroke-width="2.0pt" stroke-opacity="1.00" stroke-dasharray="none" points="223.840,522.000 229.440,516.400 "/>
      <polyline fill="#0000ff" fill-opacity="1.00" stroke="#0000ff" stroke-width="2.0pt" stroke-opacity="1.00" stroke-dasharray="none" points="223.840,516.400 229.440,522.000 "/>
      <polyline fill="#0000ff" fill-opacity="1.00" stroke="#0000ff" stroke-width="2.0pt" stroke-opacity="1.00" stroke-dasharray="none" points="256.826,508.249 262.426,502.649 "/>
      <polyline fill="#0000ff" fill-opacity="1.00" stroke="#0000ff" stroke-width="2.0pt" stroke-opacity="1.00" stroke-dasharray="none" points="256.826,502.649 262.426,508.249 "/>
      <polyline fill="#0000ff" fill-opacity="1.00" stroke="#0000ff" stroke-width="2.0pt" stroke-opacity="1.00" stroke-dasharray="none" points="289.811,494.582 295.411,488.982 "/>
      <polyline fill="#0000ff" fill-opacity="1.00" stroke="#0000ff" stroke-width="2.0pt" stroke-opacity="1.00" stroke-dasharray="none" points="289.811,488.982 295.411,494.582 "/>
      <polyline fill="#0000ff" fill-opacity="1.00" stroke="#0000ff" stroke-width="2.0pt" stroke-opacity="1.00" stroke-dasharray="none" points="322.796,481.531 328.396,475.931 "/>
      <polyline fill="#0000ff" fill-opacity="1.00" stroke="#0000ff" stroke-width="2.0pt" stroke-opacity="1.00" stroke-dasharray="none" points="322.796,475.931 328.396,481.531 "/>
      <polyline fill="#0000ff" fill-opacity="1.00" stroke="#0000ff" stroke-width="2.0pt" stroke-opacity="1.00" stroke-dasharray="none" points="355.781,466.965 361.381,461.365 "/>
      <polyline fill="#0000ff" fill-opacity="1.00" stroke="#0000ff" stroke-width="2.0pt" stroke-opacity="1.00" stroke-dasharray="none" points="355.781,461.365 361.381,466.965 "/>
      <polyline fill="#0000ff" fill-opacity="1.00" stroke="#0000ff" stroke-width="2.0pt" stroke-opacity="1.00" stroke-dasharray="none" points="388.767,453.281 394.367,447.681 "/>
      <polyline fill="#0000ff" fill-opacity="1.00" stroke="#0000ff" stroke-width="2.0pt" stroke-opacity="1.00" stroke-dasharray="none" points="388.767,447.681 394.367,453.281 "/>
      <polyline fill="#0000ff" fill-opacity="1.00" stroke="#0000ff" stroke-width="2.0pt" stroke-opacity="1.00" stroke-dasharray="none" points="421.752,439.138 427.352,433.538 "/>
      <polyline fill="#0000ff" fill-opacity="1.00" stroke="#0000ff" stroke-width="2.0pt" stroke-opacity="1.00" stroke-dasharray="none" points="421.752,433.538 427.352,439.138 "/>
      <polyline fill="#0000ff" fill-opacity="1.00" stroke="#0000ff" stroke-width="2.0pt" stroke-opacity="1.00" stroke-dasharray="none" points="454.737,425.364 460.337,419.764 "/>
      <polyline fill="#0000ff" fill-opacity="1.00" stroke="#0000ff" stroke-width="2.0pt" stroke-opacity="1.00" stroke-dasharray="none" points="454.737,419.764 460.337,425.364 "/>
      <polyline fill="#0000ff" fill-opacity="1.00" stroke="#0000ff" stroke-width="2.0pt" stroke-opacity="1.00" stroke-dasharray="none" points="487.722,412.399 493.322,406.799 "/>
      <polyline fill="#0000ff" fill-opacity="1.00" stroke="#0000ff" stroke-width="2.0pt" stroke-opacity="1.00" stroke-dasharray="none" points="487.722,406.799 493.322,412.399 "/>
      <polyline fill="#0000ff" fill-opacity="1.00" stroke="#0000ff" stroke-width="2.0pt" stroke-opacity="1.00" stroke-dasharray="none" points="520.707,401.161 526.307,395.561 "/>
      <polyline fill="#0000ff" fill-opacity="1.00" stroke="#0000ff" stroke-width="2.0pt" stroke-opacity="1.00" stroke-dasharray="none" points="520.707,395.561 526.307,401.161 "/>
      <polyline fill="#0000ff" fill-opacity="1.00" stroke="#0000ff" stroke-width="2.0pt" stroke-opacity="1.00" stroke-dasharray="none" points="553.693,387.556 559.293,381.956 "/>
      <polyline fill="#0000ff" fill-opacity="1.00" stroke="#0000ff" stroke-width="2.0pt" stroke-opacity="1.00" stroke-dasharray="none" points="553.693,381.956 559.293,387.556 "/>
      <polyline fill="#0000ff" fill-opacity="1.00" stroke="#0000ff" stroke-width="2.0pt" stroke-opacity="1.00" stroke-dasharray="none" points="586.678,374.343 592.278,368.743 "/>
      <polyline fill="#0000ff" fill-opacity="1.00" stroke="#0000ff" stroke-width="2.0pt" stroke-opacity="1.00" stroke-dasharray="none" points="586.678,368.743 592.278,374.343 "/>
      <polyline fill="#0000ff" fill-opacity="1.00" stroke="#0000ff" stroke-width="2.0pt" stroke-opacity="1.00" stroke-dasharray="none" points="619.663,360.789 625.263,355.189 "/>
      <polyline fill="#0000ff" fill-opacity="1.00" stroke="#0000ff" stroke-width="2.0pt" stroke-opacity="1.00" stroke-dasharray="none" points="619.663,355.189 625.263,360.789 "/>
      <polyline fill="#0000ff" fill-opacity="1.00" stroke="#0000ff" stroke-width="2.0pt" stroke-opacity="1.00" stroke-dasharray="none" points="652.648,350.334 658.248,344.734 "/>
      <polyline fill="#0000ff" fill-opacity="1.00" stroke="#0000ff" stroke-width="2.0pt" stroke-opacity="1.00" stroke-dasharray="none" points="652.648,344.734 658.248,350.334 "/>
      <polyline fill="#0000ff" fill-opacity="1.00" stroke="#0000ff" stroke-width="2.0pt" stroke-opacity="1.00" stroke-dasharray="none" points="685.633,335.258 691.233,329.658 "/>
      <polyline fill="#0000ff" fill-opacity="1.00" stroke="#0000ff" stroke-width="2.0pt" stroke-opacity="1.00" stroke-dasharray="none" points="685.633,329.658 691.233,335.258 "/>
      <polyline fill="#0000ff" fill-opacity="1.00" stroke="#0000ff" stroke-width="2.0pt" stroke-opacity="1.00" stroke-dasharray="none" points="718.619,319.977 724.219,314.377 "/>
      <polyline fill="#0000ff" fill-opacity="1.00" stroke="#0000ff" stroke-width="2.0pt" stroke-opacity="1.00" stroke-dasharray="none" points="718.619,314.377 724.219,319.977 "/>
      <polyline fill="#0000ff" fill-opacity="1.00" stroke="#0000ff" stroke-width="2.0pt" stroke-opacity="1.00" stroke-dasharray="none" points="751.604,306.936 757.204,301.336 "/>
      <polyline fill="#0000ff" fill-opacity="1.00" stroke="#0000ff" stroke-width="2.0pt" stroke-opacity="1.00" stroke-dasharray="none" points="751.604,301.336 757.204,306.936 "/>
      <polyline fill="#0000ff" fill-opacity="1.00" stroke="#0000ff" stroke-width="2.0pt" stroke-opacity="1.00" stroke-dasharray="none" points="784.589,296.313 790.189,290.713 "/>
      <polyline fill="#0000ff" fill-opacity="1.00" stroke="#0000ff" stroke-width="2.0pt" stroke-opacity="1.00" stroke-dasharray="none" points="784.589,290.713 790.189,296.313 "/>
      <polyline fill="#0000ff" fill-opacity="1.00" stroke="#0000ff" stroke-width="2.0pt" stroke-opacity="1.00" stroke-dasharray="none" points="817.574,280.961 823.174,275.361 "/>
      <polyline fill="#0000ff" fill-opacity="1.00" stroke="#0000ff" stroke-width="2.0pt" stroke-opacity="1.00" stroke-dasharray="none" points="817.574,275.361 823.174,280.961 "/>
      <polyline fill="#0000ff" fill-opacity="1.00" stroke="#0000ff" stroke-width="2.0pt" stroke-opacity="1.00" stroke-dasharray="none" points="850.560,266.908 856.160,261.308 "/>
      <polyline fill="#0000ff" fill-opacity="1.00" stroke="#0000ff" stroke-width="2.0pt" stroke-opacity="1.00" stroke-dasharray="none" points="850.560,261.308 856.160,266.908 "/>
      <polyline fill="#0000ff" fill-opacity="1.00" stroke="#0000ff" stroke-width="2.0pt" stroke-opacity="1.00" stroke-dasharray="none" points="883.545,256.112 889.145,250.512 "/>
      <polyline fill="#0000ff" fill-opacity="1.00" stroke="#0000ff" stroke-width="2.0pt" stroke-opacity="1.00" stroke-dasharray="none" points="883.545,250.512 889.145,256.112 "/>
      <polyline fill="#0000ff" fill-opacity="1.00" stroke="#0000ff" stroke-width="2.0pt" stroke-opacity="1.00" stroke-dasharray="none" points="916.530,244.211 922.130,238.611 "/>
      <polyline fill="#0000ff" fill-opacity="1.00" stroke="#0000ff" stroke-width="2.0pt" stroke-opacity="1.00" stroke-dasharray="none" points="916.530,238.611 922.130,244.211 "/>
      <polyline fill="#0000ff" fill-opacity="1.00" stroke="#0000ff" stroke-width="2.0pt" stroke-opacity="1.00" stroke-dasharray="none" points="949.515,232.192 955.115,226.592 "/>
      <polyline fill="#0000ff" fill-opacity="1.00" stroke="#0000ff" stroke-width="2.0pt" stroke-opacity="1.00" stroke-dasharray="none" points="949.515,226.592 955.115,232.192 "/>
      <polyline fill="#0000ff" fill-opacity="1.00" stroke="#0000ff" stroke-width="2.0pt" stroke-opacity="1.00" stroke-dasharray="none" points="982.500,219.520 988.100,213.920 "/>
      <polyline fill="#0000ff" fill-opacity="1.00" stroke="#0000ff" stroke-width="2.0pt" stroke-opacity="1.00" stroke-dasharray="none" points="982.500,213.920 988.100,219.520 "/>
      <polyline fill="#0000ff" fill-opacity="1.00" stroke="#0000ff" stroke-width="2.0pt" stroke-opacity="1.00" stroke-dasharray="none" points="1015.486,207.072 1021.086,201.472 "/>
      <polyline fill="#0000ff" fill-opacity="1.00" stroke="#0000ff" stroke-width="2.0pt" stroke-opacity="1.00" stroke-dasharray="none" points="1015.486,201.472 1021.086,207.072 "/>
      <polyline fill="#0000ff" fill-opacity="1.00" stroke="#0000ff" stroke-width="2.0pt" stroke-opacity="1.00" stroke-dasharray="none" points="1048.471,194.233 1054.071,188.633 "/>
      <polyline fill="#0000ff" fill-opacity="1.00" stroke="#0000ff" stroke-width="2.0pt" stroke-opacity="1.00" stroke-dasharray="none" points="1048.471,188.633 1054.071,194.233 "/>
      <polyline fill="#0000ff" fill-opacity="1.00" stroke="#0000ff" stroke-width="2.0pt" stroke-opacity="1.00" stroke-dasharray="none" points="1081.456,181.319 1087.056,175.719 "/>
      <polyline fill="#0000ff" fill-opacity="1.00" stroke="#0000ff" stroke-width="2.0pt" stroke-opacity="1.00" stroke-dasharray="none" points="1081.456,175.719 1087.056,181.319 "/>
      <polyline fill="#0000ff" fill-opacity="1.00" stroke="#0000ff" stroke-width="2.0pt" stroke-opacity="1.00" stroke-dasharray="none" points="1114.441,167.301 1120.041,161.701 "/>
      <polyline fill="#0000ff" fill-opacity="1.00" stroke="#0000ff" stroke-width="2.0pt" stroke-opacity="1.00" stroke-dasharray="none" points="1114.441,161.701 1120.041,167.301 "/>
      <polyline fill="#0000ff" fill-opacity="1.00" stroke="#0000ff" stroke-width="2.0pt" stroke-opacity="1.00" stroke-dasharray="none" points="1147.427,153.588 1153.027,147.988 "/>
      <polyline fill="#0000ff" fill-opacity="1.00" stroke="#0000ff" stroke-width="2.0pt" stroke-opacity="1.00" stroke-dasharray="none" points="1147.427,147.988 1153.027,153.588 "/>
      <polyline fill="#0000ff" fill-opacity="1.00" stroke="#0000ff" stroke-width="2.0pt" stroke-opacity="1.00" stroke-dasharray="none" points="1180.412,140.278 1186.012,134.678 "/>
      <polyline fill="#0000ff" fill-opacity="1.00" stroke="#0000ff" stroke-width="2.0pt" stroke-opacity="1.00" stroke-dasharray="none" points="1180.412,134.678 1186.012,140.278 "/>
      <polyline fill="#0000ff" fill-opacity="1.00" stroke="#0000ff" stroke-width="2.0pt" stroke-opacity="1.00" stroke-dasharray="none" points="1213.397,126.122 1218.997,120.522 "/>
      <polyline fill="#0000ff" fill-opacity="1.00" stroke="#0000ff" stroke-width="2.0pt" stroke-opacity="1.00" stroke-dasharray="none" points="1213.397,120.522 1218.997,126.122 "/>
</g>
</g>
<g id="ID000003" clip-path="url(#ID000001)" >
      <polyline fill="none" stroke="#00ff00" stroke-width="2.0pt" stroke-dasharray="none" points="226.640,519.200 259.626,503.789 292.611,489.094 325.596,475.805 358.581,463.830 391.567,449.988 424.552,436.065 457.537,423.041 490.522,409.279 523.507,396.014 556.493,383.247 589.478,370.877 622.463,356.973 655.448,344.982 688.433,330.676 721.419,318.345 754.404,304.606 787.389,292.011 820.374,279.341 853.360,265.295 886.345,252.775 919.330,239.766 952.315,227.947 985.300,216.320 1018.286,203.733 1051.271,190.509 1084.256,177.724 1117.241,163.194 1150.227,150.460 1183.212,138.106 1216.197,122.812 "/>
<g>
      <polyline fill="#00ff00" fill-opacity="1.00" stroke="#00ff00" stroke-width="2.0pt" stroke-opacity="1.00" stroke-dasharray="none" points="223.840,522.000 229.440,516.400 "/>
      <polyline fill="#00ff00" fill-opacity="1.00" stroke="#00ff00" stroke-width="2.0pt" stroke-opacity="1.00" stroke-dasharray="none" points="223.840,516.400 229.440,522.000 "/>
      <polyline fill="#00ff00" fill-opacity="1.00" stroke="#00ff00" stroke-width="2.0pt" stroke-opacity="1.00" stroke-dasharray="none" points="256.826,506.589 262.426,500.989 "/>
      <polyline fill="#00ff00" fill-opacity="1.00" stroke="#00ff00" stroke-width="2.0pt" stroke-opacity="1.00" stroke-dasharray="none" points="256.826,500.989 262.426,506.589 "/>
      <polyline fill="#00ff00" fill-opacity="1.00" stroke="#00ff00" stroke-width="2.0pt" stroke-opacity="1.00" stroke-dasharray="none" points="289.811,491.894 295.411,486.294 "/>
      <polyline fill="#00ff00" fill-opacity="1.00" stroke="#00ff00" stroke-width="2.0pt" stroke-opacity="1.00" stroke-dasharray="none" points="289.811,486.294 295.411,491.894 "/>
      <polyline fill="#00ff00" fill-opacity="1.00" stroke="#00ff00" stroke-width="2.0pt" stroke-opacity="1.00" stroke-dasharray="none" points="322.796,478.605 328.396,473.005 "/>
      <polyline fill="#00ff00" fill-opacity="1.00" stroke="#00ff00" stroke-width="2.0pt" stroke-opacity="1.00" stroke-dasharray="none" points="322.796,473.005 328.396,478.605 "/>
      <polyline fill="#00ff00" fill-opacity="1.00" stroke="#00ff00" stroke-width="2.0pt" stroke-opacity="1.00" stroke-dasharray="none" points="355.781,466.630 361.381,461.030 "/>
      <polyline fill="#00ff00" fill-opacity="1.00" stroke="#00ff00" stroke-width="2.0pt" stroke-opacity="1.00" stroke-dasharray="none" points="355.781,461.030 361.381,466.630 "/>
      <polyline fill="#00ff00" fill-opacity="1.00" stroke="#00ff00" stroke-width="2.0pt" stroke-opacity="1.00" stroke-dasharray="none" points="388.767,452.788 394.367,447.188 "/>
      <polyline fill="#00ff00" fill-opacity="1.00" stroke="#00ff00" stroke-width="2.0pt" stroke-opacity="1.00" stroke-dasharray="none" points="388.767,447.188 394.367,452.788 "/>
      <polyline fill="#00ff00" fill-opacity="1.00" stroke="#00ff00" stroke-width="2.0pt" stroke-opacity="1.00" stroke-dasharray="none" points="421.752,438.865 427.352,433.265 "/>
      <polyline fill="#00ff00" fill-opacity="1.00" stroke="#00ff00" stroke-width="2.0pt" stroke-opacity="1.00" stroke-dasharray="none" points="421.752,433.265 427.352,438.865 "/>
      <polyline fill="#00ff00" fill-opacity="1.00" stroke="#00ff00" stroke-width="2.0pt" stroke-opacity="1.00" stroke-dasharray="none" points="454.737,425.841 460.337,420.241 "/>
      <polyline fill="#00ff00" fill-opacity="1.00" stroke="#00ff00" stroke-width="2.0pt" stroke-opacity="1.00" stroke-dasharray="none" points="454.737,420.241 460.337,425.841 "/>
      <polyline fill="#00ff00" fill-opacity="1.00" stroke="#00ff00" stroke-width="2.0pt" stroke-opacity="1.00" stroke-dasharray="none" points="487.722,412.079 493.322,406.479 "/>
      <polyline fill="#00ff00" fill-opacity="1.00" stroke="#00ff00" stroke-width="2.0pt" stroke-opacity="1.00" stroke-dasharray="none" points="487.722,406.479 493.322,412.079 "/>
      <polyline fill="#00ff00" fill-opacity="1.00" stroke="#00ff00" stroke-width="2.0pt" stroke-opacity="1.00" stroke-dasharray="none" points="520.707,398.814 526.307,393.214 "/>
      <polyline fill="#00ff00" fill-opacity="1.00" stroke="#00ff00" stroke-width="2.0pt" stroke-opacity="1.00" stroke-dasharray="none" points="520.707,393.214 526.307,398.814 "/>
      <polyline fill="#00ff00" fill-opacity="1.00" stroke="#00ff00" stroke-width="2.0pt" stroke-opacity="1.00" stroke-dasharray="none" points="553.693,386.047 559.293,380.447 "/>
      <polyline fill="#00ff00" fill-opacity="1.00" stroke="#00ff00" stroke-width="2.0pt" stroke-opacity="1.00" stroke-dasharray="none" points="553.693,380.447 559.293,386.047 "/>
      <polyline fill="#00ff00" fill-opacity="1.00" stroke="#00ff00" stroke-width="2.0pt" stroke-opacity="1.00" stroke-dasharray="none" points="586.678,373.677 592.278,368.077 "/>
      <polyline fill="#00ff00" fill-opacity="1.00" stroke="#00ff00" stroke-width="2.0pt" stroke-opacity="1.00" stroke-dasharray="none" points="586.678,368.077 592.278,373.677 "/>
      <polyline fill="#00ff00" fill-opacity="1.00" stroke="#00ff00" stroke-width="2.0pt" stroke-opacity="1.00" stroke-dasharray="none" points="619.663,359.773 625.263,354.173 "/>
      <polyline fill="#00ff00" fill-opacity="1.00" stroke="#00ff00" stroke-width="2.0pt" stroke-opacity="1.00" stroke-dasharray="none" points="619.663,354.173 625.263,359.773 "/>
      <polyline fill="#00ff00" fill-opacity="1.00" stroke="#00ff00" stroke-width="2.0pt" stroke-opacity="1.00" stroke-dasharray="none" points="652.648,347.782 658.248,342.182 "/>
      <polyline fill="#00ff00" fill-opacity="1.00" stroke="#00ff00" stroke-width="2.0pt" stroke-opacity="1.00" stroke-dasharray="none" points="652.648,342.182 658.248,347.782 "/>
      <polyline fill="#00ff00" fill-opacity="1.00" stroke="#00ff00" stroke-width="2.0pt" stroke-opacity="1.00" stroke-dasharray="none" points="685.633,333.476 691.233,327.876 "/>
      <polyline fill="#00ff00" fill-opacity="1.00" stroke="#00ff00" stroke-width="2.0pt" stroke-opacity="1.00" stroke-dasharray="none" points="685.633,327.876 691.233,333.476 "/>
      <polyline fill="#00ff00" fill-opacity="1.00" stroke="#00ff00" stroke-width="2.0pt" stroke-opacity="1.00" stroke-dasharray="none" points="718.619,321.145 724.219,315.545 "/>
      <polyline fill="#00ff00" fill-opacity="1.00" stroke="#00ff00" stroke-width="2.0pt" stroke-opacity="1.00" stroke-dasharray="none" points="718.619,315.545 724.219,321.145 "/>
      <polyline fill="#00ff00" fill-opacity="1.00" stroke="#00ff00" stroke-width="2.0pt" stroke-opacity="1.00" stroke-dasharray="none" points="751.604,307.406 757.204,301.806 "/>
      <polyline fill="#00ff00" fill-opacity="1.00" stroke="#00ff00" stroke-width="2.0pt" stroke-opacity="1.00" stroke-dasharray="none" points="751.604,301.806 757.204,307.406 "/>
      <polyline fill="#00ff00" fill-opacity="1.00" stroke="#00ff00" stroke-width="2.0pt" stroke-opacity="1.00" stroke-dasharray="none" points="784.589,294.811 790.189,289.211 "/>
      <polyline fill="#00ff00" fill-opacity="1.00" stroke="#00ff00" stroke-width="2.0pt" stroke-opacity="1.00" stroke-dasharray="none" points="784.589,289.211 790.189,294.811 "/>
      <polyline fill="#00ff00" fill-opacity="1.00" stroke="#00ff00" stroke-width="2.0pt" stroke-opacity="1.00" stroke-dasharray="none" points="817.574,282.141 823.174,276.541 "/>
      <polyline fill="#00ff00" fill-opacity="1.00" stroke="#00ff00" stroke-width="2.0pt" stroke-opacity="1.00" stroke-dasharray="none" points="817.574,276.541 823.174,282.141 "/>
      <polyline fill="#00ff00" fill-opacity="1.00" stroke="#00ff00" stroke-width="2.0pt" stroke-opacity="1.00" stroke-dasharray="none" points="850.560,268.095 856.160,262.495 "/>
      <polyline fill="#00ff00" fill-opacity="1.00" stroke="#00ff00" stroke-width="2.0pt" stroke-opacity="1.00" stroke-dasharray="none" points="850.560,262.495 856.160,268.095 "/>
      <polyline fill="#00ff00" fill-opacity="1.00" stroke="#00ff00" stroke-width="2.0pt" stroke-opacity="1.00" stroke-dasharray="none" points="883.545,255.575 889.145,249.975 "/>
      <polyline fill="#00ff00" fill-opacity="1.00" stroke="#00ff00" stroke-width="2.0pt" stroke-opacity="1.00" stroke-dasharray="none" points="883.545,249.975 889.145,255.575 "/>
      <polyline fill="#00ff00" fill-opacity="1.00" stroke="#00ff00" stroke-width="2.0pt" stroke-opacity="1.00" stroke-dasharray="none" points="916.530,242.566 922.130,236.966 "/>
      <polyline fill="#00ff00" fill-opacity="1.00" stroke="#00ff00" stroke-width="2.0pt" stroke-opacity="1.00" stroke-dasharray="none" points="916.530,236.966 922.130,242.566 "/>
      <polyline fill="#00ff00" fill-opacity="1.00" stroke="#00ff00" stroke-width="2.0pt" stroke-opacity="1.00" stroke-dasharray="none" points="949.515,230.747 955.115,225.147 "/>
      <polyline fill="#00ff00" fill-opacity="1.00" stroke="#00ff00" stroke-width="2.0pt" stroke-opacity="1.00" stroke-dasharray="none" points="949.515,225.147 955.115,230.747 "/>
      <polyline fill="#00ff00" fill-opacity="1.00" stroke="#00ff00" stroke-width="2.0pt" stroke-opacity="1.00" stroke-dasharray="none" points="982.500,219.120 988.100,213.520 "/>
      <polyline fill="#00ff00" fill-opacity="1.00" stroke="#00ff00" stroke-width="2.0pt" stroke-opacity="1.00" stroke-dasharray="none" points="982.500,213.520 988.100,219.120 "/>
      <polyline fill="#00ff00" fill-opacity="1.00" stroke="#00ff00" stroke-width="2.0pt" stroke-opacity="1.00" stroke-dasharray="none" points="1015.486,206.533 1021.086,200.933 "/>
      <polyline fill="#00ff00" fill-opacity="1.00" stroke="#00ff00" stroke-width="2.0pt" stroke-opacity="1.00" stroke-dasharray="none" points="1015.486,200.933 1021.086,206.533 "/>
      <polyline fill="#00ff00" fill-opacity="1.00" stroke="#00ff00" stroke-width="2.0pt" stroke-opacity="1.00" stroke-dasharray="none" points="1048.471,193.309 1054.071,187.709 "/>
      <polyline fill="#00ff00" fill-opacity="1.00" stroke="#00ff00" stroke-width="2.0pt" stroke-opacity="1.00" stroke-dasharray="none" points="1048.471,187.709 1054.071,193.309 "/>
      <polyline fill="#00ff00" fill-opacity="1.00" stroke="#00ff00" stroke-width="2.0pt" stroke-opacity="1.00" stroke-dasharray="none" points="1081.456,180.524 1087.056,174.924 "/>
      <polyline fill="#00ff00" fill-opacity="1.00" stroke="#00ff00" stroke-width="2.0pt" stroke-opacity="1.00" stroke-dasharray="none" points="1081.456,174.924 1087.056,180.524 "/>
      <polyline fill="#00ff00" fill-opacity="1.00" stroke="#00ff00" stroke-width="2.0pt" stroke-opacity="1.00" stroke-dasharray="none" points="1114.441,165.994 1120.041,160.394 "/>
      <polyline fill="#00ff00" fill-opacity="1.00" stroke="#00ff00" stroke-width="2.0pt" stroke-opacity="1.00" stroke-dasharray="none" points="1114.441,160.394 1120.041,165.994 "/>
      <polyline fill="#00ff00" fill-opacity="1.00" stroke="#00ff00" stroke-width="2.0pt" stroke-opacity="1.00" stroke-dasharray="none" points="1147.427,153.260 1153.027,147.660 "/>
      <polyline fill="#00ff00" fill-opacity="1.00" stroke="#00ff00" stroke-width="2.0pt" stroke-opacity="1.00" stroke-dasharray="none" points="1147.427,147.660 1153.027,153.260 "/>
      <polyline fill="#00ff00" fill-opacity="1.00" stroke="#00ff00" stroke-width="2.0pt" stroke-opacity="1.00" stroke-dasharray="none" points="1180.412,140.906 1186.012,135.306 "/>
      <polyline fill="#00ff00" fill-opacity="1.00" stroke="#00ff00" stroke-width="2.0pt" stroke-opacity="1.00" stroke-dasharray="none" points="1180.412,135.306 1186.012,140.906 "/>
      <polyline fill="#00ff00" fill-opacity="1.00" stroke="#00ff00" stroke-width="2.0pt" stroke-opacity="1.00" stroke-dasharray="none" points="1213.397,125.612 1218.997,120.012 "/>
      <polyline fill="#00ff00" fill-opacity="1.00" stroke="#00ff00" stroke-width="2.0pt" stroke-opacity="1.00" stroke-dasharray="none" points="1213.397,120.012 1218.997,125.612 "/>
</g>
</g>
<g id="ID000004" clip-path="url(#ID000001)" >
      <polyline fill="none" stroke="#ff0000" stroke-width="2.0pt" stroke-dasharray="none" points="259.626,503.786 292.611,487.901 325.596,475.772 358.581,465.884 391.567,449.002 424.552,434.918 457.537,423.468 490.522,408.403 523.507,396.021 556.493,384.128 589.478,372.448 622.463,355.840 655.448,347.205 688.433,328.837 721.419,319.963 754.404,303.758 787.389,293.157 820.374,280.339 853.360,263.907 886.345,254.033 919.330,240.164 952.315,230.373 985.300,219.031 1018.286,204.753 1051.271,190.424 1084.256,178.387 1117.241,160.882 1150.227,151.241 1183.212,139.514 1216.197,119.219 "/>
<g>
<circle cx="259.626" cy="503.786" r="3.000" fill="none" stroke="#ff0000" stroke-width="2.0pt" />
<circle cx="292.611" cy="487.901" r="3.000" fill="none" stroke="#ff0000" stroke-width="2.0pt" />
<circle cx="325.596" cy="475.772" r="3.000" fill="none" stroke="#ff0000" stroke-width="2.0pt" />
<circle cx="358.581" cy="465.884" r="3.000" fill="none" stroke="#ff0000" stroke-width="2.0pt" />
<circle cx="391.567" cy="449.002" r="3.000" fill="none" stroke="#ff0000" stroke-width="2.0pt" />
<circle cx="424.552" cy="434.918" r="3.000" fill="none" stroke="#ff0000" stroke-width="2.0pt" />
<circle cx="457.537" cy="423.468" r="3.000" fill="none" stroke="#ff0000" stroke-width="2.0pt" />
<circle cx="490.522" cy="408.403" r="3.000" fill="none" stroke="#ff0000" stroke-width="2.0pt" />
<circle cx="523.507" cy="396.021" r="3.000" fill="none" stroke="#ff0000" stroke-width="2.0pt" />
<circle cx="556.493" cy="384.128" r="3.000" fill="none" stroke="#ff0000" stroke-width="2.0pt" />
<circle cx="589.478" cy="372.448" r="3.000" fill="none" stroke="#ff0000" stroke-width="2.0pt" />
<circle cx="622.463" cy="355.840" r="3.000" fill="none" stroke="#ff0000" stroke-width="2.0pt" />
<circle cx="655.448" cy="347.205" r="3.000" fill="none" stroke="#ff0000" stroke-width="2.0pt" />
<circle cx="688.433" cy="328.837" r="3.000" fill="none" stroke="#ff0000" stroke-width="2.0pt" />
<circle cx="721.419" cy="319.963" r="3.000" fill="none" stroke="#ff0000" stroke-width="2.0pt" />
<circle cx="754.404" cy="303.758" r="3.000" fill="none" stroke="#ff0000" stroke-width="2.0pt" />
<circle cx="787.389" cy="293.157" r="3.000" fill="none" stroke="#ff0000" stroke-width="2.0pt" />
<circle cx="820.374" cy="280.339" r="3.000" fill="none" stroke="#ff0000" stroke-width="2.0pt" />
<circle cx="853.360" cy="263.907" r="3.000" fill="none" stroke="#ff0000" stroke-width="2.0pt" />
<circle cx="886.345" cy="254.033" r="3.000" fill="none" stroke="#ff0000" stroke-width="2.0pt" />
<circle cx="919.330" cy="240.164" r="3.000" fill="none" stroke="#ff0000" stroke-width="2.0pt" />
<circle cx="952.315" cy="230.373" r="3.000" fill="none" stroke="#ff0000" stroke-width="2.0pt" />
<circle cx="985.300" cy="219.031" r="3.000" fill="none" stroke="#ff0000" stroke-width="2.0pt" />
<circle cx="1018.286" cy="204.753" r="3.000" fill="none" stroke="#ff0000" stroke-width="2.0pt" />
<circle cx="1051.271" cy="190.424" r="3.000" fill="none" stroke="#ff0000" stroke-width="2.0pt" />
<circle cx="1084.256" cy="178.387" r="3.000" fill="none" stroke="#ff0000" stroke-width="2.0pt" />
<circle cx="1117.241" cy="160.882" r="3.000" fill="none" stroke="#ff0000" stroke-width="2.0pt" />
<circle cx="1150.227" cy="151.241" r="3.000" fill="none" stroke="#ff0000" stroke-width="2.0pt" />
<circle cx="1183.212" cy="139.514" r="3.000" fill="none" stroke="#ff0000" stroke-width="2.0pt" />
<circle cx="1216.197" cy="119.219" r="3.000" fill="none" stroke="#ff0000" stroke-width="2.0pt" />
</g>
</g>
<g id="ID000005" >
</g>
<g id="ID000006" >
</g>
<g id="ID000007" >
</g>
<g id="ID000008" >
</g>
<g id="ID000009" >
</g>
<g id="ID000010" clip-path="url(#ID000001)" >
      <polyline fill="none" stroke="#00ff00" stroke-width="0.5pt" stroke-dasharray="none" points="226.640,389.205 259.626,498.758 292.611,485.377 325.596,472.514 358.581,460.702 391.567,446.924 424.552,433.026 457.537,420.010 490.522,406.250 523.507,392.985 556.493,380.216 589.478,367.844 622.463,353.937 655.448,341.944 688.433,327.635 721.419,315.302 754.404,301.561 787.389,288.964 820.374,276.292 853.360,262.244 886.345,249.722 919.330,236.711 952.315,224.889 985.300,213.261 1018.286,200.672 1051.271,187.446 1084.256,174.660 1117.241,160.128 1150.227,147.393 1183.212,135.038 1216.197,119.743 "/>
<g>
</g>
</g>
<g id="ID000011" clip-path="url(#ID000001)" >
      <polyline fill="none" stroke="#00ff00" stroke-width="0.5pt" stroke-dasharray="none" points="226.640,649.195 259.626,508.820 292.611,492.812 325.596,479.095 358.581,466.958 391.567,453.052 424.552,439.105 457.537,426.072 490.522,412.307 523.507,399.044 556.493,386.278 589.478,373.911 622.463,360.009 655.448,348.021 688.433,333.717 721.419,321.388 754.404,307.651 787.389,295.058 820.374,282.390 853.360,268.346 886.345,255.828 919.330,242.822 952.315,231.004 985.300,219.379 1018.286,206.794 1051.271,193.571 1084.256,180.788 1117.241,166.259 1150.227,153.527 1183.212,141.175 1216.197,125.882 "/>
<g>
</g>
</g>
    </g>
    <g>
      <polyline fill="none" stroke="#000000" stroke-width="0.5pt" stroke-dasharray="none" points="358.581,651.848 358.581,640.303 "/>
      <polyline fill="none" stroke="#000000" stroke-width="0.5pt" stroke-dasharray="none" points="523.507,651.848 523.507,640.303 "/>
      <polyline fill="none" stroke="#000000" stroke-width="0.5pt" stroke-dasharray="none" points="688.433,651.848 688.433,640.303 "/>
      <polyline fill="none" stroke="#000000" stroke-width="0.5pt" stroke-dasharray="none" points="853.360,651.848 853.360,640.303 "/>
      <polyline fill="none" stroke="#000000" stroke-width="0.5pt" stroke-dasharray="none" points="1018.286,651.848 1018.286,640.303 "/>
      <polyline fill="none" stroke="#000000" stroke-width="0.5pt" stroke-dasharray="none" points="1183.212,651.848 1183.212,640.303 "/>
      <polyline fill="none" stroke="#000000" stroke-width="0.5pt" stroke-dasharray="none" points="193.655,651.848 1348.138,651.848 "/>
      <polyline fill="none" stroke="#000000" stroke-width="0.5pt" stroke-dasharray="none" points="358.581,54.931 358.581,66.476 "/>
      <polyline fill="none" stroke="#000000" stroke-width="0.5pt" stroke-dasharray="none" points="523.507,54.931 523.507,66.476 "/>
      <polyline fill="none" stroke="#000000" stroke-width="0.5pt" stroke-dasharray="none" points="688.433,54.931 688.433,66.476 "/>
      <polyline fill="none" stroke="#000000" stroke-width="0.5pt" stroke-dasharray="none" points="853.360,54.931 853.360,66.476 "/>
      <polyline fill="none" stroke="#000000" stroke-width="0.5pt" stroke-dasharray="none" points="1018.286,54.931 1018.286,66.476 "/>
      <polyline fill="none" stroke="#000000" stroke-width="0.5pt" stroke-dasharray="none" points="1183.212,54.931 1183.212,66.476 "/>
      <polyline fill="none" stroke="#000000" stroke-width="0.5pt" stroke-dasharray="none" points="193.655,54.931 1348.138,54.931 "/>
  <g transform="translate(193.655,672.942)">
    <g transform="rotate(-0.0)">
      <text x="0.000" y="0.000" font-family="Helvetica" text-anchor="middle" font-size="8pt" fill="#000000" >0</text>
    </g>
  </g>
  <g transform="translate(358.581,672.942)">
    <g transform="rotate(-0.0)">
      <text x="0.000" y="0.000" font-family="Helvetica" text-anchor="middle" font-size="8pt" fill="#000000" >5</text>
    </g>
  </g>
  <g transform="translate(523.507,672.942)">
    <g transform="rotate(-0.0)">
      <text x="0.000" y="0.000" font-family="Helvetica" text-anchor="middle" font-size="8pt" fill="#000000" >10</text>
    </g>
  </g>
  <g transform="translate(688.433,672.942)">
    <g transform="rotate(-0.0)">
      <text x="0.000" y="0.000" font-family="Helvetica" text-anchor="middle" font-size="8pt" fill="#000000" >15</text>
    </g>
  </g>
  <g transform="translate(853.360,672.942)">
    <g transform="rotate(-0.0)">
      <text x="0.000" y="0.000" font-family="Helvetica" text-anchor="middle" font-size="8pt" fill="#000000" >20</text>
    </g>
  </g>
  <g transform="translate(1018.286,672.942)">
    <g transform="rotate(-0.0)">
      <text x="0.000" y="0.000" font-family="Helvetica" text-anchor="middle" font-size="8pt" fill="#000000" >25</text>
    </g>
  </g>
  <g transform="translate(1183.212,672.942)">
    <g transform="rotate(-0.0)">
      <text x="0.000" y="0.000" font-family="Helvetica" text-anchor="middle" font-size="8pt" fill="#000000" >30</text>
    </g>
  </g>
  <g transform="translate(1348.138,672.942)">
    <g transform="rotate(-0.0)">
      <text x="0.000" y="0.000" font-family="Helvetica" text-anchor="middle" font-size="8pt" fill="#000000" >35</text>
    </g>
  </g>
      <polyline fill="none" stroke="#000000" stroke-width="0.5pt" stroke-dasharray="none" points="193.655,585.524 205.200,585.524 "/>
      <polyline fill="none" stroke="#000000" stroke-width="0.5pt" stroke-dasharray="none" points="193.655,519.200 205.200,519.200 "/>
      <polyline fill="none" stroke="#000000" stroke-width="0.5pt" stroke-dasharray="none" points="193.655,452.876 205.200,452.876 "/>
      <polyline fill="none" stroke="#000000" stroke-width="0.5pt" stroke-dasharray="none" points="193.655,386.552 205.200,386.552 "/>
      <polyline fill="none" stroke="#000000" stroke-width="0.5pt" stroke-dasharray="none" points="193.655,320.228 205.200,320.228 "/>
      <polyline fill="none" stroke="#000000" stroke-width="0.5pt" stroke-dasharray="none" points="193.655,253.903 205.200,253.903 "/>
      <polyline fill="none" stroke="#000000" stroke-width="0.5pt" stroke-dasharray="none" points="193.655,187.579 205.200,187.579 "/>
      <polyline fill="none" stroke="#000000" stroke-width="0.5pt" stroke-dasharray="none" points="193.655,121.255 205.200,121.255 "/>
      <polyline fill="none" stroke="#000000" stroke-width="0.5pt" stroke-dasharray="none" points="193.655,651.848 193.655,54.931 "/>
      <polyline fill="none" stroke="#000000" stroke-width="0.5pt" stroke-dasharray="none" points="1348.138,585.524 1336.593,585.524 "/>
      <polyline fill="none" stroke="#000000" stroke-width="0.5pt" stroke-dasharray="none" points="1348.138,519.200 1336.593,519.200 "/>
      <polyline fill="none" stroke="#000000" stroke-width="0.5pt" stroke-dasharray="none" points="1348.138,452.876 1336.593,452.876 "/>
      <polyline fill="none" stroke="#000000" stroke-width="0.5pt" stroke-dasharray="none" points="1348.138,386.552 1336.593,386.552 "/>
      <polyline fill="none" stroke="#000000" stroke-width="0.5pt" stroke-dasharray="none" points="1348.138,320.228 1336.593,320.228 "/>
      <polyline fill="none" stroke="#000000" stroke-width="0.5pt" stroke-dasharray="none" points="1348.138,253.903 1336.593,253.903 "/>
      <polyline fill="none" stroke="#000000" stroke-width="0.5pt" stroke-dasharray="none" points="1348.138,187.579 1336.593,187.579 "/>
      <polyline fill="none" stroke="#000000" stroke-width="0.5pt" stroke-dasharray="none" points="1348.138,121.255 1336.593,121.255 "/>
      <polyline fill="none" stroke="#000000" stroke-width="0.5pt" stroke-dasharray="none" points="1348.138,651.848 1348.138,54.931 "/>
  <g transform="translate(170.566,655.340)">
    <g transform="rotate(-0.0)">
      <text x="0.000" y="0.000" font-family="Helvetica" text-anchor="end" font-size="8pt" fill="#000000" >-0.2</text>
    </g>
  </g>
  <g transform="translate(170.566,589.016)">
    <g transform="rotate(-0.0)">
      <text x="0.000" y="0.000" font-family="Helvetica" text-anchor="end" font-size="8pt" fill="#000000" >-0.1</text>
    </g>
  </g>
  <g transform="translate(170.566,522.691)">
    <g transform="rotate(-0.0)">
      <text x="0.000" y="0.000" font-family="Helvetica" text-anchor="end" font-size="8pt" fill="#000000" >0</text>
    </g>
  </g>
  <g transform="translate(170.566,456.367)">
    <g transform="rotate(-0.0)">
      <text x="0.000" y="0.000" font-family="Helvetica" text-anchor="end" font-size="8pt" fill="#000000" >0.1</text>
    </g>
  </g>
  <g transform="translate(170.566,390.043)">
    <g transform="rotate(-0.0)">
      <text x="0.000" y="0.000" font-family="Helvetica" text-anchor="end" font-size="8pt" fill="#000000" >0.2</text>
    </g>
  </g>
  <g transform="translate(170.566,323.719)">
    <g transform="rotate(-0.0)">
      <text x="0.000" y="0.000" font-family="Helvetica" text-anchor="end" font-size="8pt" fill="#000000" >0.3</text>
    </g>
  </g>
  <g transform="translate(170.566,257.395)">
    <g transform="rotate(-0.0)">
      <text x="0.000" y="0.000" font-family="Helvetica" text-anchor="end" font-size="8pt" fill="#000000" >0.4</text>
    </g>
  </g>
  <g transform="translate(170.566,191.071)">
    <g transform="rotate(-0.0)">
      <text x="0.000" y="0.000" font-family="Helvetica" text-anchor="end" font-size="8pt" fill="#000000" >0.5</text>
    </g>
  </g>
  <g transform="translate(170.566,124.747)">
    <g transform="rotate(-0.0)">
      <text x="0.000" y="0.000" font-family="Helvetica" text-anchor="end" font-size="8pt" fill="#000000" >0.6</text>
    </g>
  </g>
  <g transform="translate(170.566,58.422)">
    <g transform="rotate(-0.0)">
      <text x="0.000" y="0.000" font-family="Helvetica" text-anchor="end" font-size="8pt" fill="#000000" >0.7</text>
    </g>
  </g>
      <polyline fill="none" stroke="#000000" stroke-width="0.5pt" stroke-dasharray="none" points="193.655,651.848 193.655,645.879 "/>
      <polyline fill="none" stroke="#000000" stroke-width="0.5pt" stroke-dasharray="none" points="193.655,651.848 193.655,651.848 "/>
    </g>
  </g>
  <g id ="ID000012">
  <clipPath id="ID000013">
    <rect x="1234.612" y="61.336" width="108.362" height="52.802"/>
  </clipPath>
      <polygon fill="#ffffff" fill-opacity="1.00" stroke="none" stroke-width="0.5pt" stroke-opacity="1.00" stroke-dasharray="none" points="1234.612,114.138 1342.974,114.138 1342.974,61.336 1234.612,61.336 "/>
      <polygon fill="#ffffff" fill-opacity="1.00" stroke="none" stroke-width="0.5pt" stroke-opacity="1.00" stroke-dasharray="none" points="1234.612,61.336 1342.974,61.336 1342.974,61.336 1234.612,61.336 "/>
      <polygon fill="#ffffff" fill-opacity="1.00" stroke="none" stroke-width="0.5pt" stroke-opacity="1.00" stroke-dasharray="none" points="1234.612,114.138 1234.612,114.138 1234.612,61.336 1234.612,61.336 "/>
    <g>
<g id="ID000014" >
  <g transform="translate(1283.762,75.310)">
    <g transform="rotate(-0.0)">
      <text x="0.000" y="0.000" font-family="Helvetica" text-anchor="start" font-size="8pt" fill="#000000" >true</text>
    </g>
  </g>
</g>
<g id="ID000015" clip-path="url(#ID000013)" >
      <polyline fill="none" stroke="#0000ff" stroke-width="2.0pt" stroke-dasharray="8.0,2.0" points="1242.112,71.595 1279.612,71.595 "/>
<g>
</g>
</g>
<g id="ID000016" clip-path="url(#ID000013)" >
<g>
      <polyline fill="#0000ff" fill-opacity="1.00" stroke="#0000ff" stroke-width="2.0pt" stroke-opacity="1.00" stroke-dasharray="none" points="1258.062,74.395 1263.662,68.795 "/>
      <polyline fill="#0000ff" fill-opacity="1.00" stroke="#0000ff" stroke-width="2.0pt" stroke-opacity="1.00" stroke-dasharray="none" points="1258.062,68.795 1263.662,74.395 "/>
</g>
</g>
<g id="ID000017" >
  <g transform="translate(1283.762,92.393)">
    <g transform="rotate(-0.0)">
      <text x="0.000" y="0.000" font-family="Helvetica" text-anchor="start" font-size="8pt" fill="#000000" >estimated</text>
    </g>
  </g>
</g>
<g id="ID000018" clip-path="url(#ID000013)" >
      <polyline fill="none" stroke="#00ff00" stroke-width="2.0pt" stroke-dasharray="none" points="1242.112,87.737 1279.612,87.737 "/>
<g>
</g>
</g>
<g id="ID000019" clip-path="url(#ID000013)" >
<g>
      <polyline fill="#00ff00" fill-opacity="1.00" stroke="#00ff00" stroke-width="2.0pt" stroke-opacity="1.00" stroke-dasharray="none" points="1258.062,90.537 1263.662,84.937 "/>
      <polyline fill="#00ff00" fill-opacity="1.00" stroke="#00ff00" stroke-width="2.0pt" stroke-opacity="1.00" stroke-dasharray="none" points="1258.062,84.937 1263.662,90.537 "/>
</g>
</g>
<g id="ID000020" >
  <g transform="translate(1283.762,108.700)">
    <g transform="rotate(-0.0)">
      <text x="0.000" y="0.000" font-family="Helvetica" text-anchor="start" font-size="8pt" fill="#000000" >measured</text>
    </g>
  </g>
</g>
<g id="ID000021" clip-path="url(#ID000013)" >
      <polyline fill="none" stroke="#ff0000" stroke-width="2.0pt" stroke-dasharray="none" points="1242.112,103.879 1279.612,103.879 "/>
<g>
</g>
</g>
<g id="ID000022" clip-path="url(#ID000013)" >
<g>
<circle cx="1260.862" cy="103.879" r="3.000" fill="none" stroke="#ff0000" stroke-width="2.0pt" />
</g>
</g>
<g id="ID000023" >
</g>
<g id="ID000024" >
</g>
<g id="ID000025" >
</g>
    </g>
    <g>
      <polyline fill="none" stroke="#000000" stroke-width="0.5pt" stroke-dasharray="none" points="1234.612,114.138 1342.974,114.138 "/>
      <polyline fill="none" stroke="#000000" stroke-width="0.5pt" stroke-dasharray="none" points="1234.612,61.336 1342.974,61.336 "/>
      <polyline fill="none" stroke="#000000" stroke-width="0.5pt" stroke-dasharray="none" points="1234.612,114.138 1234.612,61.336 "/>
      <polyline fill="none" stroke="#000000" stroke-width="0.5pt" stroke-dasharray="none" points="1342.974,114.138 1342.974,61.336 "/>
      <polyline fill="none" stroke="#000000" stroke-width="0.5pt" stroke-dasharray="none" points="1234.612,114.138 1234.612,113.610 "/>
      <polyline fill="none" stroke="#000000" stroke-width="0.5pt" stroke-dasharray="none" points="1234.612,114.138 1234.612,114.138 "/>
    </g>
  </g>
  </g>
</svg>
