<?xml version="1.0" encoding="utf-8" standalone="no"?><!DOCTYPE svg PUBLIC "-//W3C//DTD SVG 1.1//EN" "http://www.w3.org/Graphics/SVG/1.1/DTD/svg11.dtd">
<svg preserveAspectRatio="xMinYMin meet" width="100%" height="100%" viewBox="0 0 1489.655 732.414"  version="1.1" xmlns="http://www.w3.org/2000/svg" xmlns:xlink="http://www.w3.org/1999/xlink">
  <desc>Matlab Figure Converted by PLOT2SVG written by Juerg Schwizer</desc>
  <g id="topgroup">
  <rect x="0" y="0" width="1489.655" height="732.414" fill="#ffffff" stroke="none" />
  <g id ="ID000000">
  <clipPath id="ID000001">
    <rect x="193.655" y="54.931" width="1154.483" height="596.917"/>
  </clipPath>
      <polygon fill="#ffffff" fill-opacity="1.00" stroke="none" stroke-width="0.5pt" stroke-opacity="1.00" stroke-dasharray="none" points="193.655,651.848 1348.138,651.848 1348.138,54.931 193.655,54.931 "/>
      <polygon fill="#ffffff" fill-opacity="1.00" stroke="none" stroke-width="0.5pt" stroke-opacity="1.00" stroke-dasharray="none" points="193.655,54.931 1348.138,54.931 1348.138,54.931 193.655,54.931 "/>
      <polygon fill="#ffffff" fill-opacity="1.00" stroke="none" stroke-width="0.5pt" stroke-opacity="1.00" stroke-dasharray="none" points="193.655,651.848 193.655,651.848 193.655,54.931 193.655,54.931 "/>
    <g>
<g id="ID000002" clip-path="url(#ID000001)" >
      <polyline fill="none" stroke="#0000ff" stroke-width="2.0pt" stroke-dasharray="8.0,2.0" points="-46752779.650,3571863.074 -45021171.622,3439581.021 -43289563.593,3307298.969 -41557955.565,3175016.916 -39826347.536,3042734.864 -38094739.507,2910452.812 -36363131.479,2778170.759 -34631523.450,2645888.707 -32899915.421,2513606.654 -31168307.393,2381324.602 -29436699.364,2249042.549 -27705091.336,2116760.497 -25973483.307,1984478.445 -24241875.278,1852196.392 -22510267.250,1719914.340 -20778659.221,1587632.287 -19047051.192,1455350.235 -17315443.164,1323068.183 -15583835.135,1190786.130 -13852227.106,1058504.078 -12120619.078,926222.025 -10389011.049,793939.973 -8657403.021,661657.920 -6925794.992,529375.868 -5194186.963,397093.816 -3462578.935,264811.763 -1730970.906,132529.711 637.123,247.658 1732245.151,-132034.394 3463853.180,-264316.446 5195461.208,-396598.499 "/>
<g>
      <polyline fill="#0000ff" fill-opacity="1.00" stroke="#0000ff" stroke-width="2.0pt" stroke-opacity="1.00" stroke-dasharray="none" points="-46752782.450,3571865.874 -46752776.850,3571860.274 "/>
      <polyline fill="#0000ff" fill-opacity="1.00" stroke="#0000ff" stroke-width="2.0pt" stroke-opacity="1.00" stroke-dasharray="none" points="-46752782.450,3571860.274 -46752776.850,3571865.874 "/>
      <polyline fill="#0000ff" fill-opacity="1.00" stroke="#0000ff" stroke-width="2.0pt" stroke-opacity="1.00" stroke-dasharray="none" points="-45021174.422,3439583.821 -45021168.822,3439578.221 "/>
      <polyline fill="#0000ff" fill-opacity="1.00" stroke="#0000ff" stroke-width="2.0pt" stroke-opacity="1.00" stroke-dasharray="none" points="-45021174.422,3439578.221 -45021168.822,3439583.821 "/>
      <polyline fill="#0000ff" fill-opacity="1.00" stroke="#0000ff" stroke-width="2.0pt" stroke-opacity="1.00" stroke-dasharray="none" points="-43289566.393,3307301.769 -43289560.793,3307296.169 "/>
      <polyline fill="#0000ff" fill-opacity="1.00" stroke="#0000ff" stroke-width="2.0pt" stroke-opacity="1.00" stroke-dasharray="none" points="-43289566.393,3307296.169 -43289560.793,3307301.769 "/>
      <polyline fill="#0000ff" fill-opacity="1.00" stroke="#0000ff" stroke-width="2.0pt" stroke-opacity="1.00" stroke-dasharray="none" points="-41557958.365,3175019.716 -41557952.765,3175014.116 "/>
      <polyline fill="#0000ff" fill-opacity="1.00" stroke="#0000ff" stroke-width="2.0pt" stroke-opacity="1.00" stroke-dasharray="none" points="-41557958.365,3175014.116 -41557952.765,3175019.716 "/>
      <polyline fill="#0000ff" fill-opacity="1.00" stroke="#0000ff" stroke-width="2.0pt" stroke-opacity="1.00" stroke-dasharray="none" points="-39826350.336,3042737.664 -39826344.736,3042732.064 "/>
      <polyline fill="#0000ff" fill-opacity="1.00" stroke="#0000ff" stroke-width="2.0pt" stroke-opacity="1.00" stroke-dasharray="none" points="-39826350.336,3042732.064 -39826344.736,3042737.664 "/>
      <polyline fill="#0000ff" fill-opacity="1.00" stroke="#0000ff" stroke-width="2.0pt" stroke-opacity="1.00" stroke-dasharray="none" points="-38094742.307,2910455.612 -38094736.707,2910450.012 "/>
      <polyline fill="#0000ff" fill-opacity="1.00" stroke="#0000ff" stroke-width="2.0pt" stroke-opacity="1.00" stroke-dasharray="none" points="-38094742.307,2910450.012 -38094736.707,2910455.612 "/>
      <polyline fill="#0000ff" fill-opacity="1.00" stroke="#0000ff" stroke-width="2.0pt" stroke-opacity="1.00" stroke-dasharray="none" points="-36363134.279,2778173.559 -36363128.679,2778167.959 "/>
      <polyline fill="#0000ff" fill-opacity="1.00" stroke="#0000ff" stroke-width="2.0pt" stroke-opacity="1.00" stroke-dasharray="none" points="-36363134.279,2778167.959 -36363128.679,2778173.559 "/>
      <polyline fill="#0000ff" fill-opacity="1.00" stroke="#0000ff" stroke-width="2.0pt" stroke-opacity="1.00" stroke-dasharray="none" points="-34631526.250,2645891.507 -34631520.650,2645885.907 "/>
      <polyline fill="#0000ff" fill-opacity="1.00" stroke="#0000ff" stroke-width="2.0pt" stroke-opacity="1.00" stroke-dasharray="none" points="-34631526.250,2645885.907 -34631520.650,2645891.507 "/>
      <polyline fill="#0000ff" fill-opacity="1.00" stroke="#0000ff" stroke-width="2.0pt" stroke-opacity="1.00" stroke-dasharray="none" points="-32899918.221,2513609.454 -32899912.621,2513603.854 "/>
      <polyline fill="#0000ff" fill-opacity="1.00" stroke="#0000ff" stroke-width="2.0pt" stroke-opacity="1.00" stroke-dasharray="none" points="-32899918.221,2513603.854 -32899912.621,2513609.454 "/>
      <polyline fill="#0000ff" fill-opacity="1.00" stroke="#0000ff" stroke-width="2.0pt" stroke-opacity="1.00" stroke-dasharray="none" points="-31168310.193,2381327.402 -31168304.593,2381321.802 "/>
      <polyline fill="#0000ff" fill-opacity="1.00" stroke="#0000ff" stroke-width="2.0pt" stroke-opacity="1.00" stroke-dasharray="none" points="-31168310.193,2381321.802 -31168304.593,2381327.402 "/>
      <polyline fill="#0000ff" fill-opacity="1.00" stroke="#0000ff" stroke-width="2.0pt" stroke-opacity="1.00" stroke-dasharray="none" points="-29436702.164,2249045.349 -29436696.564,2249039.749 "/>
      <polyline fill="#0000ff" fill-opacity="1.00" stroke="#0000ff" stroke-width="2.0pt" stroke-opacity="1.00" stroke-dasharray="none" points="-29436702.164,2249039.749 -29436696.564,2249045.349 "/>
      <polyline fill="#0000ff" fill-opacity="1.00" stroke="#0000ff" stroke-width="2.0pt" stroke-opacity="1.00" stroke-dasharray="none" points="-27705094.136,2116763.297 -27705088.536,2116757.697 "/>
      <polyline fill="#0000ff" fill-opacity="1.00" stroke="#0000ff" stroke-width="2.0pt" stroke-opacity="1.00" stroke-dasharray="none" points="-27705094.136,2116757.697 -27705088.536,2116763.297 "/>
      <polyline fill="#0000ff" fill-opacity="1.00" stroke="#0000ff" stroke-width="2.0pt" stroke-opacity="1.00" stroke-dasharray="none" points="-25973486.107,1984481.245 -25973480.507,1984475.645 "/>
      <polyline fill="#0000ff" fill-opacity="1.00" stroke="#0000ff" stroke-width="2.0pt" stroke-opacity="1.00" stroke-dasharray="none" points="-25973486.107,1984475.645 -25973480.507,1984481.245 "/>
      <polyline fill="#0000ff" fill-opacity="1.00" stroke="#0000ff" stroke-width="2.0pt" stroke-opacity="1.00" stroke-dasharray="none" points="-24241878.078,1852199.192 -24241872.478,1852193.592 "/>
      <polyline fill="#0000ff" fill-opacity="1.00" stroke="#0000ff" stroke-width="2.0pt" stroke-opacity="1.00" stroke-dasharray="none" points="-24241878.078,1852193.592 -24241872.478,1852199.192 "/>
      <polyline fill="#0000ff" fill-opacity="1.00" stroke="#0000ff" stroke-width="2.0pt" stroke-opacity="1.00" stroke-dasharray="none" points="-22510270.050,1719917.140 -22510264.450,1719911.540 "/>
      <polyline fill="#0000ff" fill-opacity="1.00" stroke="#0000ff" stroke-width="2.0pt" stroke-opacity="1.00" stroke-dasharray="none" points="-22510270.050,1719911.540 -22510264.450,1719917.140 "/>
      <polyline fill="#0000ff" fill-opacity="1.00" stroke="#0000ff" stroke-width="2.0pt" stroke-opacity="1.00" stroke-dasharray="none" points="-20778662.021,1587635.087 -20778656.421,1587629.487 "/>
      <polyline fill="#0000ff" fill-opacity="1.00" stroke="#0000ff" stroke-width="2.0pt" stroke-opacity="1.00" stroke-dasharray="none" points="-20778662.021,1587629.487 -20778656.421,1587635.087 "/>
      <polyline fill="#0000ff" fill-opacity="1.00" stroke="#0000ff" stroke-width="2.0pt" stroke-opacity="1.00" stroke-dasharray="none" points="-19047053.992,1455353.035 -19047048.392,1455347.435 "/>
      <polyline fill="#0000ff" fill-opacity="1.00" stroke="#0000ff" stroke-width="2.0pt" stroke-opacity="1.00" stroke-dasharray="none" points="-19047053.992,1455347.435 -19047048.392,1455353.035 "/>
      <polyline fill="#0000ff" fill-opacity="1.00" stroke="#0000ff" stroke-width="2.0pt" stroke-opacity="1.00" stroke-dasharray="none" points="-17315445.964,1323070.983 -17315440.364,1323065.383 "/>
      <polyline fill="#0000ff" fill-opacity="1.00" stroke="#0000ff" stroke-width="2.0pt" stroke-opacity="1.00" stroke-dasharray="none" points="-17315445.964,1323065.383 -17315440.364,1323070.983 "/>
      <polyline fill="#0000ff" fill-opacity="1.00" stroke="#0000ff" stroke-width="2.0pt" stroke-opacity="1.00" stroke-dasharray="none" points="-15583837.935,1190788.930 -15583832.335,1190783.330 "/>
      <polyline fill="#0000ff" fill-opacity="1.00" stroke="#0000ff" stroke-width="2.0pt" stroke-opacity="1.00" stroke-dasharray="none" points="-15583837.935,1190783.330 -15583832.335,1190788.930 "/>
      <polyline fill="#0000ff" fill-opacity="1.00" stroke="#0000ff" stroke-width="2.0pt" stroke-opacity="1.00" stroke-dasharray="none" points="-13852229.906,1058506.878 -13852224.306,1058501.278 "/>
      <polyline fill="#0000ff" fill-opacity="1.00" stroke="#0000ff" stroke-width="2.0pt" stroke-opacity="1.00" stroke-dasharray="none" points="-13852229.906,1058501.278 -13852224.306,1058506.878 "/>
      <polyline fill="#0000ff" fill-opacity="1.00" stroke="#0000ff" stroke-width="2.0pt" stroke-opacity="1.00" stroke-dasharray="none" points="-12120621.878,926224.825 -12120616.278,926219.225 "/>
      <polyline fill="#0000ff" fill-opacity="1.00" stroke="#0000ff" stroke-width="2.0pt" stroke-opacity="1.00" stroke-dasharray="none" points="-12120621.878,926219.225 -12120616.278,926224.825 "/>
      <polyline fill="#0000ff" fill-opacity="1.00" stroke="#0000ff" stroke-width="2.0pt" stroke-opacity="1.00" stroke-dasharray="none" points="-10389013.849,793942.773 -10389008.249,793937.173 "/>
      <polyline fill="#0000ff" fill-opacity="1.00" stroke="#0000ff" stroke-width="2.0pt" stroke-opacity="1.00" stroke-dasharray="none" points="-10389013.849,793937.173 -10389008.249,793942.773 "/>
      <polyline fill="#0000ff" fill-opacity="1.00" stroke="#0000ff" stroke-width="2.0pt" stroke-opacity="1.00" stroke-dasharray="none" points="-8657405.821,661660.720 -8657400.221,661655.120 "/>
      <polyline fill="#0000ff" fill-opacity="1.00" stroke="#0000ff" stroke-width="2.0pt" stroke-opacity="1.00" stroke-dasharray="none" points="-8657405.821,661655.120 -8657400.221,661660.720 "/>
      <polyline fill="#0000ff" fill-opacity="1.00" stroke="#0000ff" stroke-width="2.0pt" stroke-opacity="1.00" stroke-dasharray="none" points="-6925797.792,529378.668 -6925792.192,529373.068 "/>
      <polyline fill="#0000ff" fill-opacity="1.00" stroke="#0000ff" stroke-width="2.0pt" stroke-opacity="1.00" stroke-dasharray="none" points="-6925797.792,529373.068 -6925792.192,529378.668 "/>
      <polyline fill="#0000ff" fill-opacity="1.00" stroke="#0000ff" stroke-width="2.0pt" stroke-opacity="1.00" stroke-dasharray="none" points="-5194189.763,397096.616 -5194184.163,397091.016 "/>
      <polyline fill="#0000ff" fill-opacity="1.00" stroke="#0000ff" stroke-width="2.0pt" stroke-opacity="1.00" stroke-dasharray="none" points="-5194189.763,397091.016 -5194184.163,397096.616 "/>
      <polyline fill="#0000ff" fill-opacity="1.00" stroke="#0000ff" stroke-width="2.0pt" stroke-opacity="1.00" stroke-dasharray="none" points="-3462581.735,264814.563 -3462576.135,264808.963 "/>
      <polyline fill="#0000ff" fill-opacity="1.00" stroke="#0000ff" stroke-width="2.0pt" stroke-opacity="1.00" stroke-dasharray="none" points="-3462581.735,264808.963 -3462576.135,264814.563 "/>
      <polyline fill="#0000ff" fill-opacity="1.00" stroke="#0000ff" stroke-width="2.0pt" stroke-opacity="1.00" stroke-dasharray="none" points="-1730973.706,132532.511 -1730968.106,132526.911 "/>
      <polyline fill="#0000ff" fill-opacity="1.00" stroke="#0000ff" stroke-width="2.0pt" stroke-opacity="1.00" stroke-dasharray="none" points="-1730973.706,132526.911 -1730968.106,132532.511 "/>
      <polyline fill="#0000ff" fill-opacity="1.00" stroke="#0000ff" stroke-width="2.0pt" stroke-opacity="1.00" stroke-dasharray="none" points="634.323,250.458 639.923,244.858 "/>
      <polyline fill="#0000ff" fill-opacity="1.00" stroke="#0000ff" stroke-width="2.0pt" stroke-opacity="1.00" stroke-dasharray="none" points="634.323,244.858 639.923,250.458 "/>
      <polyline fill="#0000ff" fill-opacity="1.00" stroke="#0000ff" stroke-width="2.0pt" stroke-opacity="1.00" stroke-dasharray="none" points="1732242.351,-132031.594 1732247.951,-132037.194 "/>
      <polyline fill="#0000ff" fill-opacity="1.00" stroke="#0000ff" stroke-width="2.0pt" stroke-opacity="1.00" stroke-dasharray="none" points="1732242.351,-132037.194 1732247.951,-132031.594 "/>
      <polyline fill="#0000ff" fill-opacity="1.00" stroke="#0000ff" stroke-width="2.0pt" stroke-opacity="1.00" stroke-dasharray="none" points="3463850.380,-264313.646 3463855.980,-264319.246 "/>
      <polyline fill="#0000ff" fill-opacity="1.00" stroke="#0000ff" stroke-width="2.0pt" stroke-opacity="1.00" stroke-dasharray="none" points="3463850.380,-264319.246 3463855.980,-264313.646 "/>
      <polyline fill="#0000ff" fill-opacity="1.00" stroke="#0000ff" stroke-width="2.0pt" stroke-opacity="1.00" stroke-dasharray="none" points="5195458.408,-396595.699 5195464.008,-396601.299 "/>
      <polyline fill="#0000ff" fill-opacity="1.00" stroke="#0000ff" stroke-width="2.0pt" stroke-opacity="1.00" stroke-dasharray="none" points="5195458.408,-396601.299 5195464.008,-396595.699 "/>
</g>
</g>
<g id="ID000003" clip-path="url(#ID000001)" >
      <polyline fill="none" stroke="#00ff00" stroke-width="2.0pt" stroke-dasharray="none" points="-46752779.650,3571863.074 -45021171.622,3439696.158 -43289563.593,3307331.903 -41557955.565,3175017.097 -39826347.536,3042715.343 -38094739.507,2910411.157 -36363131.479,2778126.695 -34631523.450,2645817.118 -32899915.421,2513541.576 -31168307.393,2381309.980 -29436699.364,2249037.158 -27705091.336,2116742.655 -25973483.307,1984522.167 -24241875.278,1852234.565 -22510267.250,1719884.408 -20778659.221,1587587.953 -19047051.192,1455320.027 -17315443.164,1323042.892 -15583835.135,1190770.942 -13852227.106,1058494.306 -12120619.078,926244.228 -10389011.049,793921.101 -8657403.021,661634.132 -6925794.992,529376.755 -5194186.963,397083.459 -3462578.935,264820.264 -1730970.906,132484.870 637.123,202.650 1732245.151,-132091.220 3463853.180,-264408.158 5195461.208,-396647.984 "/>
<g>
      <polyline fill="#00ff00" fill-opacity="1.00" stroke="#00ff00" stroke-width="2.0pt" stroke-opacity="1.00" stroke-dasharray="none" points="-46752782.450,3571865.874 -46752776.850,3571860.274 "/>
      <polyline fill="#00ff00" fill-opacity="1.00" stroke="#00ff00" stroke-width="2.0pt" stroke-opacity="1.00" stroke-dasharray="none" points="-46752782.450,3571860.274 -46752776.850,3571865.874 "/>
      <polyline fill="#00ff00" fill-opacity="1.00" stroke="#00ff00" stroke-width="2.0pt" stroke-opacity="1.00" stroke-dasharray="none" points="-45021174.422,3439698.958 -45021168.822,3439693.358 "/>
      <polyline fill="#00ff00" fill-opacity="1.00" stroke="#00ff00" stroke-width="2.0pt" stroke-opacity="1.00" stroke-dasharray="none" points="-45021174.422,3439693.358 -45021168.822,3439698.958 "/>
      <polyline fill="#00ff00" fill-opacity="1.00" stroke="#00ff00" stroke-width="2.0pt" stroke-opacity="1.00" stroke-dasharray="none" points="-43289566.393,3307334.703 -43289560.793,3307329.103 "/>
      <polyline fill="#00ff00" fill-opacity="1.00" stroke="#00ff00" stroke-width="2.0pt" stroke-opacity="1.00" stroke-dasharray="none" points="-43289566.393,3307329.103 -43289560.793,3307334.703 "/>
      <polyline fill="#00ff00" fill-opacity="1.00" stroke="#00ff00" stroke-width="2.0pt" stroke-opacity="1.00" stroke-dasharray="none" points="-41557958.365,3175019.897 -41557952.765,3175014.297 "/>
      <polyline fill="#00ff00" fill-opacity="1.00" stroke="#00ff00" stroke-width="2.0pt" stroke-opacity="1.00" stroke-dasharray="none" points="-41557958.365,3175014.297 -41557952.765,3175019.897 "/>
      <polyline fill="#00ff00" fill-opacity="1.00" stroke="#00ff00" stroke-width="2.0pt" stroke-opacity="1.00" stroke-dasharray="none" points="-39826350.336,3042718.143 -39826344.736,3042712.543 "/>
      <polyline fill="#00ff00" fill-opacity="1.00" stroke="#00ff00" stroke-width="2.0pt" stroke-opacity="1.00" stroke-dasharray="none" points="-39826350.336,3042712.543 -39826344.736,3042718.143 "/>
      <polyline fill="#00ff00" fill-opacity="1.00" stroke="#00ff00" stroke-width="2.0pt" stroke-opacity="1.00" stroke-dasharray="none" points="-38094742.307,2910413.957 -38094736.707,2910408.357 "/>
      <polyline fill="#00ff00" fill-opacity="1.00" stroke="#00ff00" stroke-width="2.0pt" stroke-opacity="1.00" stroke-dasharray="none" points="-38094742.307,2910408.357 -38094736.707,2910413.957 "/>
      <polyline fill="#00ff00" fill-opacity="1.00" stroke="#00ff00" stroke-width="2.0pt" stroke-opacity="1.00" stroke-dasharray="none" points="-36363134.279,2778129.495 -36363128.679,2778123.895 "/>
      <polyline fill="#00ff00" fill-opacity="1.00" stroke="#00ff00" stroke-width="2.0pt" stroke-opacity="1.00" stroke-dasharray="none" points="-36363134.279,2778123.895 -36363128.679,2778129.495 "/>
      <polyline fill="#00ff00" fill-opacity="1.00" stroke="#00ff00" stroke-width="2.0pt" stroke-opacity="1.00" stroke-dasharray="none" points="-34631526.250,2645819.918 -34631520.650,2645814.318 "/>
      <polyline fill="#00ff00" fill-opacity="1.00" stroke="#00ff00" stroke-width="2.0pt" stroke-opacity="1.00" stroke-dasharray="none" points="-34631526.250,2645814.318 -34631520.650,2645819.918 "/>
      <polyline fill="#00ff00" fill-opacity="1.00" stroke="#00ff00" stroke-width="2.0pt" stroke-opacity="1.00" stroke-dasharray="none" points="-32899918.221,2513544.376 -32899912.621,2513538.776 "/>
      <polyline fill="#00ff00" fill-opacity="1.00" stroke="#00ff00" stroke-width="2.0pt" stroke-opacity="1.00" stroke-dasharray="none" points="-32899918.221,2513538.776 -32899912.621,2513544.376 "/>
      <polyline fill="#00ff00" fill-opacity="1.00" stroke="#00ff00" stroke-width="2.0pt" stroke-opacity="1.00" stroke-dasharray="none" points="-31168310.193,2381312.780 -31168304.593,2381307.180 "/>
      <polyline fill="#00ff00" fill-opacity="1.00" stroke="#00ff00" stroke-width="2.0pt" stroke-opacity="1.00" stroke-dasharray="none" points="-31168310.193,2381307.180 -31168304.593,2381312.780 "/>
      <polyline fill="#00ff00" fill-opacity="1.00" stroke="#00ff00" stroke-width="2.0pt" stroke-opacity="1.00" stroke-dasharray="none" points="-29436702.164,2249039.958 -29436696.564,2249034.358 "/>
      <polyline fill="#00ff00" fill-opacity="1.00" stroke="#00ff00" stroke-width="2.0pt" stroke-opacity="1.00" stroke-dasharray="none" points="-29436702.164,2249034.358 -29436696.564,2249039.958 "/>
      <polyline fill="#00ff00" fill-opacity="1.00" stroke="#00ff00" stroke-width="2.0pt" stroke-opacity="1.00" stroke-dasharray="none" points="-27705094.136,2116745.455 -27705088.536,2116739.855 "/>
      <polyline fill="#00ff00" fill-opacity="1.00" stroke="#00ff00" stroke-width="2.0pt" stroke-opacity="1.00" stroke-dasharray="none" points="-27705094.136,2116739.855 -27705088.536,2116745.455 "/>
      <polyline fill="#00ff00" fill-opacity="1.00" stroke="#00ff00" stroke-width="2.0pt" stroke-opacity="1.00" stroke-dasharray="none" points="-25973486.107,1984524.967 -25973480.507,1984519.367 "/>
      <polyline fill="#00ff00" fill-opacity="1.00" stroke="#00ff00" stroke-width="2.0pt" stroke-opacity="1.00" stroke-dasharray="none" points="-25973486.107,1984519.367 -25973480.507,1984524.967 "/>
      <polyline fill="#00ff00" fill-opacity="1.00" stroke="#00ff00" stroke-width="2.0pt" stroke-opacity="1.00" stroke-dasharray="none" points="-24241878.078,1852237.365 -24241872.478,1852231.765 "/>
      <polyline fill="#00ff00" fill-opacity="1.00" stroke="#00ff00" stroke-width="2.0pt" stroke-opacity="1.00" stroke-dasharray="none" points="-24241878.078,1852231.765 -24241872.478,1852237.365 "/>
      <polyline fill="#00ff00" fill-opacity="1.00" stroke="#00ff00" stroke-width="2.0pt" stroke-opacity="1.00" stroke-dasharray="none" points="-22510270.050,1719887.208 -22510264.450,1719881.608 "/>
      <polyline fill="#00ff00" fill-opacity="1.00" stroke="#00ff00" stroke-width="2.0pt" stroke-opacity="1.00" stroke-dasharray="none" points="-22510270.050,1719881.608 -22510264.450,1719887.208 "/>
      <polyline fill="#00ff00" fill-opacity="1.00" stroke="#00ff00" stroke-width="2.0pt" stroke-opacity="1.00" stroke-dasharray="none" points="-20778662.021,1587590.753 -20778656.421,1587585.153 "/>
      <polyline fill="#00ff00" fill-opacity="1.00" stroke="#00ff00" stroke-width="2.0pt" stroke-opacity="1.00" stroke-dasharray="none" points="-20778662.021,1587585.153 -20778656.421,1587590.753 "/>
      <polyline fill="#00ff00" fill-opacity="1.00" stroke="#00ff00" stroke-width="2.0pt" stroke-opacity="1.00" stroke-dasharray="none" points="-19047053.992,1455322.827 -19047048.392,1455317.227 "/>
      <polyline fill="#00ff00" fill-opacity="1.00" stroke="#00ff00" stroke-width="2.0pt" stroke-opacity="1.00" stroke-dasharray="none" points="-19047053.992,1455317.227 -19047048.392,1455322.827 "/>
      <polyline fill="#00ff00" fill-opacity="1.00" stroke="#00ff00" stroke-width="2.0pt" stroke-opacity="1.00" stroke-dasharray="none" points="-17315445.964,1323045.692 -17315440.364,1323040.092 "/>
      <polyline fill="#00ff00" fill-opacity="1.00" stroke="#00ff00" stroke-width="2.0pt" stroke-opacity="1.00" stroke-dasharray="none" points="-17315445.964,1323040.092 -17315440.364,1323045.692 "/>
      <polyline fill="#00ff00" fill-opacity="1.00" stroke="#00ff00" stroke-width="2.0pt" stroke-opacity="1.00" stroke-dasharray="none" points="-15583837.935,1190773.742 -15583832.335,1190768.142 "/>
      <polyline fill="#00ff00" fill-opacity="1.00" stroke="#00ff00" stroke-width="2.0pt" stroke-opacity="1.00" stroke-dasharray="none" points="-15583837.935,1190768.142 -15583832.335,1190773.742 "/>
      <polyline fill="#00ff00" fill-opacity="1.00" stroke="#00ff00" stroke-width="2.0pt" stroke-opacity="1.00" stroke-dasharray="none" points="-13852229.906,1058497.106 -13852224.306,1058491.506 "/>
      <polyline fill="#00ff00" fill-opacity="1.00" stroke="#00ff00" stroke-width="2.0pt" stroke-opacity="1.00" stroke-dasharray="none" points="-13852229.906,1058491.506 -13852224.306,1058497.106 "/>
      <polyline fill="#00ff00" fill-opacity="1.00" stroke="#00ff00" stroke-width="2.0pt" stroke-opacity="1.00" stroke-dasharray="none" points="-12120621.878,926247.028 -12120616.278,926241.428 "/>
      <polyline fill="#00ff00" fill-opacity="1.00" stroke="#00ff00" stroke-width="2.0pt" stroke-opacity="1.00" stroke-dasharray="none" points="-12120621.878,926241.428 -12120616.278,926247.028 "/>
      <polyline fill="#00ff00" fill-opacity="1.00" stroke="#00ff00" stroke-width="2.0pt" stroke-opacity="1.00" stroke-dasharray="none" points="-10389013.849,793923.901 -10389008.249,793918.301 "/>
      <polyline fill="#00ff00" fill-opacity="1.00" stroke="#00ff00" stroke-width="2.0pt" stroke-opacity="1.00" stroke-dasharray="none" points="-10389013.849,793918.301 -10389008.249,793923.901 "/>
      <polyline fill="#00ff00" fill-opacity="1.00" stroke="#00ff00" stroke-width="2.0pt" stroke-opacity="1.00" stroke-dasharray="none" points="-8657405.821,661636.932 -8657400.221,661631.332 "/>
      <polyline fill="#00ff00" fill-opacity="1.00" stroke="#00ff00" stroke-width="2.0pt" stroke-opacity="1.00" stroke-dasharray="none" points="-8657405.821,661631.332 -8657400.221,661636.932 "/>
      <polyline fill="#00ff00" fill-opacity="1.00" stroke="#00ff00" stroke-width="2.0pt" stroke-opacity="1.00" stroke-dasharray="none" points="-6925797.792,529379.555 -6925792.192,529373.955 "/>
      <polyline fill="#00ff00" fill-opacity="1.00" stroke="#00ff00" stroke-width="2.0pt" stroke-opacity="1.00" stroke-dasharray="none" points="-6925797.792,529373.955 -6925792.192,529379.555 "/>
      <polyline fill="#00ff00" fill-opacity="1.00" stroke="#00ff00" stroke-width="2.0pt" stroke-opacity="1.00" stroke-dasharray="none" points="-5194189.763,397086.259 -5194184.163,397080.659 "/>
      <polyline fill="#00ff00" fill-opacity="1.00" stroke="#00ff00" stroke-width="2.0pt" stroke-opacity="1.00" stroke-dasharray="none" points="-5194189.763,397080.659 -5194184.163,397086.259 "/>
      <polyline fill="#00ff00" fill-opacity="1.00" stroke="#00ff00" stroke-width="2.0pt" stroke-opacity="1.00" stroke-dasharray="none" points="-3462581.735,264823.064 -3462576.135,264817.464 "/>
      <polyline fill="#00ff00" fill-opacity="1.00" stroke="#00ff00" stroke-width="2.0pt" stroke-opacity="1.00" stroke-dasharray="none" points="-3462581.735,264817.464 -3462576.135,264823.064 "/>
      <polyline fill="#00ff00" fill-opacity="1.00" stroke="#00ff00" stroke-width="2.0pt" stroke-opacity="1.00" stroke-dasharray="none" points="-1730973.706,132487.670 -1730968.106,132482.070 "/>
      <polyline fill="#00ff00" fill-opacity="1.00" stroke="#00ff00" stroke-width="2.0pt" stroke-opacity="1.00" stroke-dasharray="none" points="-1730973.706,132482.070 -1730968.106,132487.670 "/>
      <polyline fill="#00ff00" fill-opacity="1.00" stroke="#00ff00" stroke-width="2.0pt" stroke-opacity="1.00" stroke-dasharray="none" points="634.323,205.450 639.923,199.850 "/>
      <polyline fill="#00ff00" fill-opacity="1.00" stroke="#00ff00" stroke-width="2.0pt" stroke-opacity="1.00" stroke-dasharray="none" points="634.323,199.850 639.923,205.450 "/>
      <polyline fill="#00ff00" fill-opacity="1.00" stroke="#00ff00" stroke-width="2.0pt" stroke-opacity="1.00" stroke-dasharray="none" points="1732242.351,-132088.420 1732247.951,-132094.020 "/>
      <polyline fill="#00ff00" fill-opacity="1.00" stroke="#00ff00" stroke-width="2.0pt" stroke-opacity="1.00" stroke-dasharray="none" points="1732242.351,-132094.020 1732247.951,-132088.420 "/>
      <polyline fill="#00ff00" fill-opacity="1.00" stroke="#00ff00" stroke-width="2.0pt" stroke-opacity="1.00" stroke-dasharray="none" points="3463850.380,-264405.358 3463855.980,-264410.958 "/>
      <polyline fill="#00ff00" fill-opacity="1.00" stroke="#00ff00" stroke-width="2.0pt" stroke-opacity="1.00" stroke-dasharray="none" points="3463850.380,-264410.958 3463855.980,-264405.358 "/>
      <polyline fill="#00ff00" fill-opacity="1.00" stroke="#00ff00" stroke-width="2.0pt" stroke-opacity="1.00" stroke-dasharray="none" points="5195458.408,-396645.184 5195464.008,-396650.784 "/>
      <polyline fill="#00ff00" fill-opacity="1.00" stroke="#00ff00" stroke-width="2.0pt" stroke-opacity="1.00" stroke-dasharray="none" points="5195458.408,-396650.784 5195464.008,-396645.184 "/>
</g>
</g>
<g id="ID000004" clip-path="url(#ID000001)" >
      <polyline fill="none" stroke="#ff0000" stroke-width="2.0pt" stroke-dasharray="none" points="-45021171.622,3439696.158 -43289563.593,3307282.251 -41557955.565,3174934.296 -39826347.536,3042647.199 -38094739.507,2910402.736 -36363131.479,2778091.750 -34631523.450,2645810.260 -32899915.421,2513570.381 -31168307.393,2381479.034 -29436699.364,2249106.830 -27705091.336,2116731.309 -25973483.307,1984653.892 -24241875.278,1852132.127 -22510267.250,1719764.473 -20778659.221,1587517.979 -19047051.192,1455416.619 -17315443.164,1323011.074 -15583835.135,1190731.268 -13852227.106,1058538.989 -12120619.078,926175.806 -10389011.049,793849.601 -8657403.021,661633.688 -6925794.992,529410.816 -5194186.963,397010.792 -3462578.935,264799.030 -1730970.906,132389.831 637.123,355.273 1732245.151,-132048.997 3463853.180,-264330.169 5195461.208,-396514.357 "/>
<g>
<circle cx="-45021171.622" cy="3439696.158" r="3.000" fill="none" stroke="#ff0000" stroke-width="2.0pt" />
<circle cx="-43289563.593" cy="3307282.251" r="3.000" fill="none" stroke="#ff0000" stroke-width="2.0pt" />
<circle cx="-41557955.565" cy="3174934.296" r="3.000" fill="none" stroke="#ff0000" stroke-width="2.0pt" />
<circle cx="-39826347.536" cy="3042647.199" r="3.000" fill="none" stroke="#ff0000" stroke-width="2.0pt" />
<circle cx="-38094739.507" cy="2910402.736" r="3.000" fill="none" stroke="#ff0000" stroke-width="2.0pt" />
<circle cx="-36363131.479" cy="2778091.750" r="3.000" fill="none" stroke="#ff0000" stroke-width="2.0pt" />
<circle cx="-34631523.450" cy="2645810.260" r="3.000" fill="none" stroke="#ff0000" stroke-width="2.0pt" />
<circle cx="-32899915.421" cy="2513570.381" r="3.000" fill="none" stroke="#ff0000" stroke-width="2.0pt" />
<circle cx="-31168307.393" cy="2381479.034" r="3.000" fill="none" stroke="#ff0000" stroke-width="2.0pt" />
<circle cx="-29436699.364" cy="2249106.830" r="3.000" fill="none" stroke="#ff0000" stroke-width="2.0pt" />
<circle cx="-27705091.336" cy="2116731.309" r="3.000" fill="none" stroke="#ff0000" stroke-width="2.0pt" />
<circle cx="-25973483.307" cy="1984653.892" r="3.000" fill="none" stroke="#ff0000" stroke-width="2.0pt" />
<circle cx="-24241875.278" cy="1852132.127" r="3.000" fill="none" stroke="#ff0000" stroke-width="2.0pt" />
<circle cx="-22510267.250" cy="1719764.473" r="3.000" fill="none" stroke="#ff0000" stroke-width="2.0pt" />
<circle cx="-20778659.221" cy="1587517.979" r="3.000" fill="none" stroke="#ff0000" stroke-width="2.0pt" />
<circle cx="-19047051.192" cy="1455416.619" r="3.000" fill="none" stroke="#ff0000" stroke-width="2.0pt" />
<circle cx="-17315443.164" cy="1323011.074" r="3.000" fill="none" stroke="#ff0000" stroke-width="2.0pt" />
<circle cx="-15583835.135" cy="1190731.268" r="3.000" fill="none" stroke="#ff0000" stroke-width="2.0pt" />
<circle cx="-13852227.106" cy="1058538.989" r="3.000" fill="none" stroke="#ff0000" stroke-width="2.0pt" />
<circle cx="-12120619.078" cy="926175.806" r="3.000" fill="none" stroke="#ff0000" stroke-width="2.0pt" />
<circle cx="-10389011.049" cy="793849.601" r="3.000" fill="none" stroke="#ff0000" stroke-width="2.0pt" />
<circle cx="-8657403.021" cy="661633.688" r="3.000" fill="none" stroke="#ff0000" stroke-width="2.0pt" />
<circle cx="-6925794.992" cy="529410.816" r="3.000" fill="none" stroke="#ff0000" stroke-width="2.0pt" />
<circle cx="-5194186.963" cy="397010.792" r="3.000" fill="none" stroke="#ff0000" stroke-width="2.0pt" />
<circle cx="-3462578.935" cy="264799.030" r="3.000" fill="none" stroke="#ff0000" stroke-width="2.0pt" />
<circle cx="-1730970.906" cy="132389.831" r="3.000" fill="none" stroke="#ff0000" stroke-width="2.0pt" />
<circle cx="637.123" cy="355.273" r="3.000" fill="none" stroke="#ff0000" stroke-width="2.0pt" />
<circle cx="1732245.151" cy="-132048.997" r="3.000" fill="none" stroke="#ff0000" stroke-width="2.0pt" />
<circle cx="3463853.180" cy="-264330.169" r="3.000" fill="none" stroke="#ff0000" stroke-width="2.0pt" />
<circle cx="5195461.208" cy="-396514.357" r="3.000" fill="none" stroke="#ff0000" stroke-width="2.0pt" />
</g>
</g>
<g id="ID000005" >
  <g transform="translate(769.733,680.565)">
    <g transform="rotate(-0.0)">
      <text x="0.000" y="0.000" font-family="Helvetica" text-anchor="middle" font-size="8pt" fill="#000000" >time(sec)</text>
    </g>
  </g>
</g>
<g id="ID000006" >
  <g transform="translate(144.000,354.166)">
    <g transform="rotate(-90.0)">
      <text x="0.000" y="0.000" font-family="Helvetica" text-anchor="middle" font-size="8pt" fill="#000000" ><tspan>&#952;</tspan><tspan>(rad)</tspan></text>
    </g>
  </g>
</g>
<g id="ID000007" >
</g>
<g id="ID000008" >
</g>
<g id="ID000009" >
</g>
<g id="ID000010" clip-path="url(#ID000001)" >
      <polyline fill="none" stroke="#00ff00" stroke-width="0.5pt" stroke-dasharray="none" points="-46752779.650,2275498.960 -45021171.622,3439501.704 -43289563.593,3307192.917 -41557955.565,3174900.614 -39826347.536,3042610.330 -38094739.507,2910312.330 -36363131.479,2778031.167 -34631523.450,2645723.255 -32899915.421,2513448.472 -31168307.393,2381217.164 -29436699.364,2248944.416 -27705091.336,2116649.916 -25973483.307,1984429.439 -24241875.278,1852141.887 -22510267.250,1719791.830 -20778659.221,1587495.524 -19047051.192,1455227.788 -17315443.164,1322950.874 -15583835.135,1190679.169 -13852227.106,1058402.791 -12120619.078,926152.979 -10389011.049,793830.119 -8657403.021,661543.416 -6925794.992,529286.300 -5194186.963,396993.257 -3462578.935,264730.306 -1730970.906,132395.147 637.123,113.152 1732245.151,-132180.503 3463853.180,-264497.237 5195461.208,-396736.868 "/>
<g>
</g>
</g>
<g id="ID000011" clip-path="url(#ID000001)" >
      <polyline fill="none" stroke="#00ff00" stroke-width="0.5pt" stroke-dasharray="none" points="-46752779.650,4868227.187 -45021171.622,3439890.613 -43289563.593,3307470.890 -41557955.565,3175133.580 -39826347.536,3042820.356 -38094739.507,2910509.983 -36363131.479,2778222.223 -34631523.450,2645910.980 -32899915.421,2513634.679 -31168307.393,2381402.795 -29436699.364,2249129.900 -27705091.336,2116835.393 -25973483.307,1984614.896 -24241875.278,1852327.244 -22510267.250,1719976.986 -20778659.221,1587680.382 -19047051.192,1455412.266 -17315443.164,1323134.909 -15583835.135,1190862.715 -13852227.106,1058585.821 -12120619.078,926335.477 -10389011.049,794012.082 -8657403.021,661724.848 -6925794.992,529467.211 -5194186.963,397173.662 -3462578.935,264910.222 -1730970.906,132574.593 637.123,292.148 1732245.151,-132001.937 3463853.180,-264319.079 5195461.208,-396559.100 "/>
<g>
</g>
</g>
    </g>
    <g>
      <polyline fill="none" stroke="#000000" stroke-width="0.5pt" stroke-dasharray="none" points="290.801,651.848 290.801,640.303 "/>
      <polyline fill="none" stroke="#000000" stroke-width="0.5pt" stroke-dasharray="none" points="463.962,651.848 463.962,640.303 "/>
      <polyline fill="none" stroke="#000000" stroke-width="0.5pt" stroke-dasharray="none" points="637.123,651.848 637.123,640.303 "/>
      <polyline fill="none" stroke="#000000" stroke-width="0.5pt" stroke-dasharray="none" points="810.283,651.848 810.283,640.303 "/>
      <polyline fill="none" stroke="#000000" stroke-width="0.5pt" stroke-dasharray="none" points="983.444,651.848 983.444,640.303 "/>
      <polyline fill="none" stroke="#000000" stroke-width="0.5pt" stroke-dasharray="none" points="1156.605,651.848 1156.605,640.303 "/>
      <polyline fill="none" stroke="#000000" stroke-width="0.5pt" stroke-dasharray="none" points="1329.766,651.848 1329.766,640.303 "/>
      <polyline fill="none" stroke="#000000" stroke-width="0.5pt" stroke-dasharray="none" points="193.655,651.848 1348.138,651.848 "/>
      <polyline fill="none" stroke="#000000" stroke-width="0.5pt" stroke-dasharray="none" points="290.801,54.931 290.801,66.476 "/>
      <polyline fill="none" stroke="#000000" stroke-width="0.5pt" stroke-dasharray="none" points="463.962,54.931 463.962,66.476 "/>
      <polyline fill="none" stroke="#000000" stroke-width="0.5pt" stroke-dasharray="none" points="637.123,54.931 637.123,66.476 "/>
      <polyline fill="none" stroke="#000000" stroke-width="0.5pt" stroke-dasharray="none" points="810.283,54.931 810.283,66.476 "/>
      <polyline fill="none" stroke="#000000" stroke-width="0.5pt" stroke-dasharray="none" points="983.444,54.931 983.444,66.476 "/>
      <polyline fill="none" stroke="#000000" stroke-width="0.5pt" stroke-dasharray="none" points="1156.605,54.931 1156.605,66.476 "/>
      <polyline fill="none" stroke="#000000" stroke-width="0.5pt" stroke-dasharray="none" points="1329.766,54.931 1329.766,66.476 "/>
      <polyline fill="none" stroke="#000000" stroke-width="0.5pt" stroke-dasharray="none" points="193.655,54.931 1348.138,54.931 "/>
  <g transform="translate(290.801,672.942)">
    <g transform="rotate(-0.0)">
      <text x="0.000" y="0.000" font-family="Helvetica" text-anchor="middle" font-size="8pt" fill="#000000" >27.9998</text>
    </g>
  </g>
  <g transform="translate(463.962,672.942)">
    <g transform="rotate(-0.0)">
      <text x="0.000" y="0.000" font-family="Helvetica" text-anchor="middle" font-size="8pt" fill="#000000" >27.9999</text>
    </g>
  </g>
  <g transform="translate(637.123,672.942)">
    <g transform="rotate(-0.0)">
      <text x="0.000" y="0.000" font-family="Helvetica" text-anchor="middle" font-size="8pt" fill="#000000" >28</text>
    </g>
  </g>
  <g transform="translate(810.283,672.942)">
    <g transform="rotate(-0.0)">
      <text x="0.000" y="0.000" font-family="Helvetica" text-anchor="middle" font-size="8pt" fill="#000000" >28.0001</text>
    </g>
  </g>
  <g transform="translate(983.444,672.942)">
    <g transform="rotate(-0.0)">
      <text x="0.000" y="0.000" font-family="Helvetica" text-anchor="middle" font-size="8pt" fill="#000000" >28.0002</text>
    </g>
  </g>
  <g transform="translate(1156.605,672.942)">
    <g transform="rotate(-0.0)">
      <text x="0.000" y="0.000" font-family="Helvetica" text-anchor="middle" font-size="8pt" fill="#000000" >28.0003</text>
    </g>
  </g>
  <g transform="translate(1329.766,672.942)">
    <g transform="rotate(-0.0)">
      <text x="0.000" y="0.000" font-family="Helvetica" text-anchor="middle" font-size="8pt" fill="#000000" >28.0004</text>
    </g>
  </g>
      <polyline fill="none" stroke="#000000" stroke-width="0.5pt" stroke-dasharray="none" points="193.655,644.505 205.200,644.505 "/>
      <polyline fill="none" stroke="#000000" stroke-width="0.5pt" stroke-dasharray="none" points="193.655,578.364 205.200,578.364 "/>
      <polyline fill="none" stroke="#000000" stroke-width="0.5pt" stroke-dasharray="none" points="193.655,512.222 205.200,512.222 "/>
      <polyline fill="none" stroke="#000000" stroke-width="0.5pt" stroke-dasharray="none" points="193.655,446.081 205.200,446.081 "/>
      <polyline fill="none" stroke="#000000" stroke-width="0.5pt" stroke-dasharray="none" points="193.655,379.940 205.200,379.940 "/>
      <polyline fill="none" stroke="#000000" stroke-width="0.5pt" stroke-dasharray="none" points="193.655,313.799 205.200,313.799 "/>
      <polyline fill="none" stroke="#000000" stroke-width="0.5pt" stroke-dasharray="none" points="193.655,247.658 205.200,247.658 "/>
      <polyline fill="none" stroke="#000000" stroke-width="0.5pt" stroke-dasharray="none" points="193.655,181.517 205.200,181.517 "/>
      <polyline fill="none" stroke="#000000" stroke-width="0.5pt" stroke-dasharray="none" points="193.655,115.376 205.200,115.376 "/>
      <polyline fill="none" stroke="#000000" stroke-width="0.5pt" stroke-dasharray="none" points="193.655,651.848 193.655,54.931 "/>
      <polyline fill="none" stroke="#000000" stroke-width="0.5pt" stroke-dasharray="none" points="1348.138,644.505 1336.593,644.505 "/>
      <polyline fill="none" stroke="#000000" stroke-width="0.5pt" stroke-dasharray="none" points="1348.138,578.364 1336.593,578.364 "/>
      <polyline fill="none" stroke="#000000" stroke-width="0.5pt" stroke-dasharray="none" points="1348.138,512.222 1336.593,512.222 "/>
      <polyline fill="none" stroke="#000000" stroke-width="0.5pt" stroke-dasharray="none" points="1348.138,446.081 1336.593,446.081 "/>
      <polyline fill="none" stroke="#000000" stroke-width="0.5pt" stroke-dasharray="none" points="1348.138,379.940 1336.593,379.940 "/>
      <polyline fill="none" stroke="#000000" stroke-width="0.5pt" stroke-dasharray="none" points="1348.138,313.799 1336.593,313.799 "/>
      <polyline fill="none" stroke="#000000" stroke-width="0.5pt" stroke-dasharray="none" points="1348.138,247.658 1336.593,247.658 "/>
      <polyline fill="none" stroke="#000000" stroke-width="0.5pt" stroke-dasharray="none" points="1348.138,181.517 1336.593,181.517 "/>
      <polyline fill="none" stroke="#000000" stroke-width="0.5pt" stroke-dasharray="none" points="1348.138,115.376 1336.593,115.376 "/>
      <polyline fill="none" stroke="#000000" stroke-width="0.5pt" stroke-dasharray="none" points="1348.138,651.848 1348.138,54.931 "/>
  <g transform="translate(170.566,647.996)">
    <g transform="rotate(-0.0)">
      <text x="0.000" y="0.000" font-family="Helvetica" text-anchor="end" font-size="8pt" fill="#000000" >0.5399</text>
    </g>
  </g>
  <g transform="translate(170.566,581.855)">
    <g transform="rotate(-0.0)">
      <text x="0.000" y="0.000" font-family="Helvetica" text-anchor="end" font-size="8pt" fill="#000000" >0.5399</text>
    </g>
  </g>
  <g transform="translate(170.566,515.714)">
    <g transform="rotate(-0.0)">
      <text x="0.000" y="0.000" font-family="Helvetica" text-anchor="end" font-size="8pt" fill="#000000" >0.54</text>
    </g>
  </g>
  <g transform="translate(170.566,449.573)">
    <g transform="rotate(-0.0)">
      <text x="0.000" y="0.000" font-family="Helvetica" text-anchor="end" font-size="8pt" fill="#000000" >0.54</text>
    </g>
  </g>
  <g transform="translate(170.566,383.432)">
    <g transform="rotate(-0.0)">
      <text x="0.000" y="0.000" font-family="Helvetica" text-anchor="end" font-size="8pt" fill="#000000" >0.54</text>
    </g>
  </g>
  <g transform="translate(170.566,317.291)">
    <g transform="rotate(-0.0)">
      <text x="0.000" y="0.000" font-family="Helvetica" text-anchor="end" font-size="8pt" fill="#000000" >0.54</text>
    </g>
  </g>
  <g transform="translate(170.566,251.150)">
    <g transform="rotate(-0.0)">
      <text x="0.000" y="0.000" font-family="Helvetica" text-anchor="end" font-size="8pt" fill="#000000" >0.54</text>
    </g>
  </g>
  <g transform="translate(170.566,185.009)">
    <g transform="rotate(-0.0)">
      <text x="0.000" y="0.000" font-family="Helvetica" text-anchor="end" font-size="8pt" fill="#000000" >0.54</text>
    </g>
  </g>
  <g transform="translate(170.566,118.868)">
    <g transform="rotate(-0.0)">
      <text x="0.000" y="0.000" font-family="Helvetica" text-anchor="end" font-size="8pt" fill="#000000" >0.54</text>
    </g>
  </g>
      <polyline fill="none" stroke="#000000" stroke-width="0.5pt" stroke-dasharray="none" points="193.655,651.848 193.655,645.879 "/>
      <polyline fill="none" stroke="#000000" stroke-width="0.5pt" stroke-dasharray="none" points="193.655,651.848 193.655,651.848 "/>
    </g>
  </g>
  <g id ="ID000012">
  <clipPath id="ID000013">
    <rect x="1234.612" y="61.336" width="108.362" height="52.802"/>
  </clipPath>
      <polygon fill="#ffffff" fill-opacity="1.00" stroke="none" stroke-width="0.5pt" stroke-opacity="1.00" stroke-dasharray="none" points="1234.612,114.138 1342.974,114.138 1342.974,61.336 1234.612,61.336 "/>
      <polygon fill="#ffffff" fill-opacity="1.00" stroke="none" stroke-width="0.5pt" stroke-opacity="1.00" stroke-dasharray="none" points="1234.612,61.336 1342.974,61.336 1342.974,61.336 1234.612,61.336 "/>
      <polygon fill="#ffffff" fill-opacity="1.00" stroke="none" stroke-width="0.5pt" stroke-opacity="1.00" stroke-dasharray="none" points="1234.612,114.138 1234.612,114.138 1234.612,61.336 1234.612,61.336 "/>
    <g>
<g id="ID000014" >
  <g transform="translate(1283.762,75.310)">
    <g transform="rotate(-0.0)">
      <text x="0.000" y="0.000" font-family="Helvetica" text-anchor="start" font-size="8pt" fill="#000000" >true</text>
    </g>
  </g>
</g>
<g id="ID000015" clip-path="url(#ID000013)" >
      <polyline fill="none" stroke="#0000ff" stroke-width="2.0pt" stroke-dasharray="8.0,2.0" points="1242.112,71.595 1279.612,71.595 "/>
<g>
</g>
</g>
<g id="ID000016" clip-path="url(#ID000013)" >
<g>
      <polyline fill="#0000ff" fill-opacity="1.00" stroke="#0000ff" stroke-width="2.0pt" stroke-opacity="1.00" stroke-dasharray="none" points="1258.062,74.395 1263.662,68.795 "/>
      <polyline fill="#0000ff" fill-opacity="1.00" stroke="#0000ff" stroke-width="2.0pt" stroke-opacity="1.00" stroke-dasharray="none" points="1258.062,68.795 1263.662,74.395 "/>
</g>
</g>
<g id="ID000017" >
  <g transform="translate(1283.762,92.393)">
    <g transform="rotate(-0.0)">
      <text x="0.000" y="0.000" font-family="Helvetica" text-anchor="start" font-size="8pt" fill="#000000" >estimated</text>
    </g>
  </g>
</g>
<g id="ID000018" clip-path="url(#ID000013)" >
      <polyline fill="none" stroke="#00ff00" stroke-width="2.0pt" stroke-dasharray="none" points="1242.112,87.737 1279.612,87.737 "/>
<g>
</g>
</g>
<g id="ID000019" clip-path="url(#ID000013)" >
<g>
      <polyline fill="#00ff00" fill-opacity="1.00" stroke="#00ff00" stroke-width="2.0pt" stroke-opacity="1.00" stroke-dasharray="none" points="1258.062,90.537 1263.662,84.937 "/>
      <polyline fill="#00ff00" fill-opacity="1.00" stroke="#00ff00" stroke-width="2.0pt" stroke-opacity="1.00" stroke-dasharray="none" points="1258.062,84.937 1263.662,90.537 "/>
</g>
</g>
<g id="ID000020" >
  <g transform="translate(1283.762,108.700)">
    <g transform="rotate(-0.0)">
      <text x="0.000" y="0.000" font-family="Helvetica" text-anchor="start" font-size="8pt" fill="#000000" >measured</text>
    </g>
  </g>
</g>
<g id="ID000021" clip-path="url(#ID000013)" >
      <polyline fill="none" stroke="#ff0000" stroke-width="2.0pt" stroke-dasharray="none" points="1242.112,103.879 1279.612,103.879 "/>
<g>
</g>
</g>
<g id="ID000022" clip-path="url(#ID000013)" >
<g>
<circle cx="1260.862" cy="103.879" r="3.000" fill="none" stroke="#ff0000" stroke-width="2.0pt" />
</g>
</g>
<g id="ID000023" >
</g>
<g id="ID000024" >
</g>
<g id="ID000025" >
</g>
    </g>
    <g>
      <polyline fill="none" stroke="#000000" stroke-width="0.5pt" stroke-dasharray="none" points="1234.612,114.138 1342.974,114.138 "/>
      <polyline fill="none" stroke="#000000" stroke-width="0.5pt" stroke-dasharray="none" points="1234.612,61.336 1342.974,61.336 "/>
      <polyline fill="none" stroke="#000000" stroke-width="0.5pt" stroke-dasharray="none" points="1234.612,114.138 1234.612,61.336 "/>
      <polyline fill="none" stroke="#000000" stroke-width="0.5pt" stroke-dasharray="none" points="1342.974,114.138 1342.974,61.336 "/>
      <polyline fill="none" stroke="#000000" stroke-width="0.5pt" stroke-dasharray="none" points="1234.612,114.138 1234.612,113.610 "/>
      <polyline fill="none" stroke="#000000" stroke-width="0.5pt" stroke-dasharray="none" points="1234.612,114.138 1234.612,114.138 "/>
    </g>
  </g>
  </g>
</svg>
