<?xml version="1.0" encoding="utf-8" standalone="no"?><!DOCTYPE svg PUBLIC "-//W3C//DTD SVG 1.1//EN" "http://www.w3.org/Graphics/SVG/1.1/DTD/svg11.dtd">
<svg preserveAspectRatio="xMinYMin meet" width="100%" height="100%" viewBox="0 0 521.379 391.034"  version="1.1" xmlns="http://www.w3.org/2000/svg" xmlns:xlink="http://www.w3.org/1999/xlink">
  <desc>Matlab Figure Converted by PLOT2SVG written by Juerg Schwizer</desc>
  <g id="topgroup">
  <rect x="0" y="0" width="521.379" height="391.034" fill="#ffffff" stroke="none" />
  <g id ="ID000000">
  <clipPath id="ID000001">
    <rect x="67.779" y="29.328" width="174.484" height="133.406"/>
  </clipPath>
      <polygon fill="#ffffff" fill-opacity="1.00" stroke="none" stroke-width="0.5pt" stroke-opacity="1.00" stroke-dasharray="none" points="67.779,162.734 242.264,162.734 242.264,29.328 67.779,29.328 "/>
      <polygon fill="#ffffff" fill-opacity="1.00" stroke="none" stroke-width="0.5pt" stroke-opacity="1.00" stroke-dasharray="none" points="67.779,29.328 242.264,29.328 242.264,29.328 67.779,29.328 "/>
      <polygon fill="#ffffff" fill-opacity="1.00" stroke="none" stroke-width="0.5pt" stroke-opacity="1.00" stroke-dasharray="none" points="67.779,162.734 67.779,162.734 67.779,29.328 67.779,29.328 "/>
    <g>
<g id="ID000002" clip-path="url(#ID000001)" >
      <polyline fill="none" stroke="#0000ff" stroke-width="0.5pt" stroke-dasharray="none" points="242.264,29.328 241.391,29.328 240.519,29.328 239.646,29.328 238.774,29.328 237.902,29.328 237.029,29.328 236.157,29.328 235.284,29.328 234.412,29.328 233.539,29.328 232.667,29.328 231.795,29.328 230.922,29.328 230.050,29.328 229.177,29.328 228.305,29.328 227.432,29.328 226.560,29.328 225.688,29.328 224.815,29.328 223.943,29.328 223.070,29.328 222.198,29.328 221.326,29.328 220.453,29.328 219.581,29.328 218.708,29.328 217.836,29.328 216.963,29.328 216.091,29.328 215.219,29.328 214.346,29.328 213.474,29.328 212.601,29.328 211.729,29.328 210.856,29.328 209.984,29.328 209.112,29.328 208.239,29.328 207.367,29.328 206.494,29.328 205.622,29.328 204.750,29.328 203.877,29.328 203.005,29.328 202.132,29.328 201.260,29.328 200.387,29.328 199.515,29.328 198.643,29.328 197.770,29.328 196.898,29.328 196.025,29.328 195.153,29.328 194.280,29.328 193.408,29.328 192.536,29.328 191.663,29.328 190.791,29.328 189.918,29.328 189.046,29.328 188.173,29.328 187.301,29.328 186.429,29.328 185.556,29.328 184.684,29.328 183.811,29.328 182.939,29.328 182.067,29.328 181.194,29.328 180.322,29.328 179.449,29.328 178.577,29.328 177.704,29.328 176.832,29.328 175.960,29.328 175.087,29.328 174.215,29.328 173.342,29.328 172.470,29.328 171.597,29.328 170.725,29.328 169.853,29.328 168.980,29.328 168.108,29.328 167.235,29.328 166.363,29.328 165.491,29.328 164.618,29.328 163.746,29.328 162.873,29.328 162.001,29.328 161.128,29.328 160.256,29.328 159.384,29.328 158.511,29.328 157.639,29.328 156.766,29.328 155.894,29.328 155.021,29.328 154.149,29.328 153.277,29.328 152.404,29.328 151.532,29.328 150.659,29.328 149.787,29.328 148.915,29.328 148.042,29.328 147.170,29.328 146.297,29.328 145.425,29.328 144.552,29.328 143.680,29.328 142.808,29.328 141.935,29.329 141.063,29.329 140.190,29.329 139.318,29.329 138.445,29.329 137.573,29.329 136.701,29.330 135.828,29.330 134.956,29.331 134.083,29.331 133.211,29.331 132.339,29.332 131.466,29.333 130.594,29.334 129.721,29.334 128.849,29.336 127.976,29.337 127.104,29.338 126.232,29.340 125.359,29.342 124.487,29.344 123.614,29.346 122.742,29.349 121.869,29.352 120.997,29.356 120.125,29.361 119.252,29.366 118.380,29.372 117.507,29.378 116.635,29.386 115.763,29.395 114.890,29.405 114.018,29.417 113.145,29.431 112.273,29.447 111.400,29.465 110.528,29.486 109.656,29.510 108.783,29.538 107.911,29.571 107.038,29.608 106.166,29.651 105.293,29.700 104.421,29.757 103.549,29.823 102.676,29.899 101.804,29.986 100.931,30.087 100.059,30.203 99.186,30.337 98.314,30.492 97.442,30.670 96.569,30.875 95.697,31.111 94.824,31.384 93.952,31.698 93.080,32.060 92.207,32.476 91.335,32.957 90.462,33.509 89.590,34.146 88.717,34.879 87.845,35.722 86.973,36.693 86.100,37.809 85.228,39.091 84.355,40.565 83.483,42.258 82.610,44.200 81.738,46.426 80.866,48.977 79.993,51.896 79.121,55.232 78.248,59.039 77.376,63.375 76.504,68.304 75.631,73.893 74.759,80.211 73.886,87.329 73.014,95.311 72.141,104.216 71.269,114.085 70.397,124.932 69.524,136.732 68.652,149.393 67.779,162.734 "/>
<g>
</g>
</g>
<g id="ID000003" >
  <g transform="translate(45.289,97.194)">
    <g transform="rotate(-90.0)">
      <text x="0.000" y="0.000" font-family="Helvetica" text-anchor="middle" font-size="8pt" fill="#000000" ><tspan>X</tspan><tspan dy="3.1pt" font-size="5pt">1</tspan><tspan dy="-3.1pt" font-size="8pt">(t)</tspan></text>
    </g>
  </g>
</g>
<g id="ID000004" >
  <g transform="translate(154.246,191.434)">
    <g transform="rotate(-0.0)">
      <text x="0.000" y="0.000" font-family="Helvetica" text-anchor="middle" font-size="8pt" fill="#000000" >time(t)</text>
    </g>
  </g>
</g>
<g id="ID000005" >
</g>
    </g>
    <g>
      <polyline fill="none" stroke="#000000" stroke-width="0.5pt" stroke-dasharray="none" points="111.400,162.734 111.400,160.989 "/>
      <polyline fill="none" stroke="#000000" stroke-width="0.5pt" stroke-dasharray="none" points="155.021,162.734 155.021,160.989 "/>
      <polyline fill="none" stroke="#000000" stroke-width="0.5pt" stroke-dasharray="none" points="198.643,162.734 198.643,160.989 "/>
      <polyline fill="none" stroke="#000000" stroke-width="0.5pt" stroke-dasharray="none" points="67.779,162.734 242.264,162.734 "/>
      <polyline fill="none" stroke="#000000" stroke-width="0.5pt" stroke-dasharray="none" points="111.400,29.328 111.400,31.072 "/>
      <polyline fill="none" stroke="#000000" stroke-width="0.5pt" stroke-dasharray="none" points="155.021,29.328 155.021,31.072 "/>
      <polyline fill="none" stroke="#000000" stroke-width="0.5pt" stroke-dasharray="none" points="198.643,29.328 198.643,31.072 "/>
      <polyline fill="none" stroke="#000000" stroke-width="0.5pt" stroke-dasharray="none" points="67.779,29.328 242.264,29.328 "/>
  <g transform="translate(67.779,174.557)">
    <g transform="rotate(-0.0)">
      <text x="0.000" y="0.000" font-family="Helvetica" text-anchor="middle" font-size="8pt" fill="#000000" >0</text>
    </g>
  </g>
  <g transform="translate(111.400,174.557)">
    <g transform="rotate(-0.0)">
      <text x="0.000" y="0.000" font-family="Helvetica" text-anchor="middle" font-size="8pt" fill="#000000" >5</text>
    </g>
  </g>
  <g transform="translate(155.021,174.557)">
    <g transform="rotate(-0.0)">
      <text x="0.000" y="0.000" font-family="Helvetica" text-anchor="middle" font-size="8pt" fill="#000000" >10</text>
    </g>
  </g>
  <g transform="translate(198.643,174.557)">
    <g transform="rotate(-0.0)">
      <text x="0.000" y="0.000" font-family="Helvetica" text-anchor="middle" font-size="8pt" fill="#000000" >15</text>
    </g>
  </g>
  <g transform="translate(242.264,174.557)">
    <g transform="rotate(-0.0)">
      <text x="0.000" y="0.000" font-family="Helvetica" text-anchor="middle" font-size="8pt" fill="#000000" >20</text>
    </g>
  </g>
      <polyline fill="none" stroke="#000000" stroke-width="0.5pt" stroke-dasharray="none" points="67.779,136.053 69.524,136.053 "/>
      <polyline fill="none" stroke="#000000" stroke-width="0.5pt" stroke-dasharray="none" points="67.779,109.371 69.524,109.371 "/>
      <polyline fill="none" stroke="#000000" stroke-width="0.5pt" stroke-dasharray="none" points="67.779,82.690 69.524,82.690 "/>
      <polyline fill="none" stroke="#000000" stroke-width="0.5pt" stroke-dasharray="none" points="67.779,56.009 69.524,56.009 "/>
      <polyline fill="none" stroke="#000000" stroke-width="0.5pt" stroke-dasharray="none" points="67.779,162.734 67.779,29.328 "/>
      <polyline fill="none" stroke="#000000" stroke-width="0.5pt" stroke-dasharray="none" points="242.264,136.053 240.519,136.053 "/>
      <polyline fill="none" stroke="#000000" stroke-width="0.5pt" stroke-dasharray="none" points="242.264,109.371 240.519,109.371 "/>
      <polyline fill="none" stroke="#000000" stroke-width="0.5pt" stroke-dasharray="none" points="242.264,82.690 240.519,82.690 "/>
      <polyline fill="none" stroke="#000000" stroke-width="0.5pt" stroke-dasharray="none" points="242.264,56.009 240.519,56.009 "/>
      <polyline fill="none" stroke="#000000" stroke-width="0.5pt" stroke-dasharray="none" points="242.264,162.734 242.264,29.328 "/>
  <g transform="translate(64.290,166.225)">
    <g transform="rotate(-0.0)">
      <text x="0.000" y="0.000" font-family="Helvetica" text-anchor="end" font-size="8pt" fill="#000000" >-5</text>
    </g>
  </g>
  <g transform="translate(64.290,139.544)">
    <g transform="rotate(-0.0)">
      <text x="0.000" y="0.000" font-family="Helvetica" text-anchor="end" font-size="8pt" fill="#000000" >-4</text>
    </g>
  </g>
  <g transform="translate(64.290,112.863)">
    <g transform="rotate(-0.0)">
      <text x="0.000" y="0.000" font-family="Helvetica" text-anchor="end" font-size="8pt" fill="#000000" >-3</text>
    </g>
  </g>
  <g transform="translate(64.290,86.182)">
    <g transform="rotate(-0.0)">
      <text x="0.000" y="0.000" font-family="Helvetica" text-anchor="end" font-size="8pt" fill="#000000" >-2</text>
    </g>
  </g>
  <g transform="translate(64.290,59.500)">
    <g transform="rotate(-0.0)">
      <text x="0.000" y="0.000" font-family="Helvetica" text-anchor="end" font-size="8pt" fill="#000000" >-1</text>
    </g>
  </g>
  <g transform="translate(64.290,32.819)">
    <g transform="rotate(-0.0)">
      <text x="0.000" y="0.000" font-family="Helvetica" text-anchor="end" font-size="8pt" fill="#000000" >0</text>
    </g>
  </g>
      <polyline fill="none" stroke="#000000" stroke-width="0.5pt" stroke-dasharray="none" points="67.779,162.734 67.779,161.400 "/>
      <polyline fill="none" stroke="#000000" stroke-width="0.5pt" stroke-dasharray="none" points="67.779,162.734 67.779,162.734 "/>
    </g>
  </g>
  <g id ="ID000006">
  <clipPath id="ID000007">
    <rect x="297.364" y="29.328" width="174.484" height="133.406"/>
  </clipPath>
      <polygon fill="#ffffff" fill-opacity="1.00" stroke="none" stroke-width="0.5pt" stroke-opacity="1.00" stroke-dasharray="none" points="297.364,162.734 471.848,162.734 471.848,29.328 297.364,29.328 "/>
      <polygon fill="#ffffff" fill-opacity="1.00" stroke="none" stroke-width="0.5pt" stroke-opacity="1.00" stroke-dasharray="none" points="297.364,162.734 471.848,162.734 471.848,162.734 297.364,162.734 "/>
      <polygon fill="#ffffff" fill-opacity="1.00" stroke="none" stroke-width="0.5pt" stroke-opacity="1.00" stroke-dasharray="none" points="297.364,162.734 297.364,162.734 297.364,29.328 297.364,29.328 "/>
    <g>
<g id="ID000008" clip-path="url(#ID000007)" >
      <polyline fill="none" stroke="#0000ff" stroke-width="0.5pt" stroke-dasharray="none" points="471.848,129.382 470.976,129.382 470.103,129.382 469.231,129.382 468.359,129.382 467.486,129.382 466.614,129.382 465.741,129.382 464.869,129.382 463.996,129.382 463.124,129.382 462.252,129.382 461.379,129.382 460.507,129.382 459.634,129.382 458.762,129.382 457.890,129.382 457.017,129.382 456.145,129.382 455.272,129.382 454.400,129.382 453.527,129.382 452.655,129.382 451.783,129.382 450.910,129.382 450.038,129.382 449.165,129.382 448.293,129.382 447.420,129.382 446.548,129.382 445.676,129.382 444.803,129.382 443.931,129.382 443.058,129.382 442.186,129.382 441.314,129.382 440.441,129.382 439.569,129.382 438.696,129.382 437.824,129.382 436.951,129.382 436.079,129.382 435.207,129.382 434.334,129.382 433.462,129.382 432.589,129.382 431.717,129.382 430.844,129.382 429.972,129.382 429.100,129.382 428.227,129.382 427.355,129.382 426.482,129.382 425.610,129.382 424.738,129.382 423.865,129.382 422.993,129.382 422.120,129.382 421.248,129.382 420.375,129.382 419.503,129.382 418.631,129.382 417.758,129.382 416.886,129.382 416.013,129.382 415.141,129.382 414.268,129.382 413.396,129.382 412.524,129.382 411.651,129.382 410.779,129.382 409.906,129.382 409.034,129.382 408.161,129.382 407.289,129.382 406.417,129.382 405.544,129.382 404.672,129.382 403.799,129.382 402.927,129.382 402.055,129.382 401.182,129.382 400.310,129.382 399.437,129.382 398.565,129.382 397.692,129.382 396.820,129.382 395.948,129.382 395.075,129.382 394.203,129.382 393.330,129.382 392.458,129.382 391.585,129.382 390.713,129.382 389.841,129.382 388.968,129.382 388.096,129.382 387.223,129.382 386.351,129.382 385.479,129.382 384.606,129.382 383.734,129.382 382.861,129.382 381.989,129.382 381.116,129.382 380.244,129.382 379.372,129.382 378.499,129.382 377.627,129.382 376.754,129.382 375.882,129.382 375.009,129.382 374.137,129.382 373.265,129.382 372.392,129.382 371.520,129.382 370.647,129.381 369.775,129.381 368.903,129.381 368.030,129.381 367.158,129.381 366.285,129.381 365.413,129.380 364.540,129.380 363.668,129.380 362.796,129.379 361.923,129.379 361.051,129.378 360.178,129.377 359.306,129.377 358.433,129.376 357.561,129.375 356.689,129.374 355.816,129.372 354.944,129.371 354.071,129.369 353.199,129.367 352.327,129.364 351.454,129.362 350.582,129.359 349.709,129.355 348.837,129.351 347.964,129.346 347.092,129.340 346.220,129.334 345.347,129.326 344.475,129.318 343.602,129.308 342.730,129.297 341.857,129.283 340.985,129.268 340.113,129.251 339.240,129.231 338.368,129.207 337.495,129.181 336.623,129.150 335.751,129.114 334.878,129.073 334.006,129.026 333.133,128.971 332.261,128.908 331.388,128.836 330.516,128.752 329.644,128.656 328.771,128.545 327.899,128.417 327.026,128.270 326.154,128.100 325.281,127.905 324.409,127.679 323.537,127.420 322.664,127.121 321.792,126.777 320.919,126.382 320.047,125.927 319.174,125.403 318.302,124.802 317.430,124.111 316.557,123.318 315.685,122.408 314.812,121.365 313.940,120.171 313.068,118.805 312.195,117.244 311.323,115.465 310.450,113.439 309.578,111.138 308.705,108.533 307.833,105.590 306.961,102.281 306.088,98.577 305.216,94.452 304.343,89.893 303.471,84.899 302.598,79.492 301.726,73.726 300.854,67.702 299.981,61.585 299.109,55.636 298.236,50.248 297.364,46.003 "/>
<g>
</g>
</g>
<g id="ID000009" >
  <g transform="translate(274.874,97.194)">
    <g transform="rotate(-90.0)">
      <text x="0.000" y="0.000" font-family="Helvetica" text-anchor="middle" font-size="8pt" fill="#000000" ><tspan>X</tspan><tspan dy="3.1pt" font-size="5pt">2</tspan><tspan dy="-3.1pt" font-size="8pt">(t)</tspan></text>
    </g>
  </g>
</g>
<g id="ID000010" >
  <g transform="translate(383.831,191.434)">
    <g transform="rotate(-0.0)">
      <text x="0.000" y="0.000" font-family="Helvetica" text-anchor="middle" font-size="8pt" fill="#000000" >time(t)</text>
    </g>
  </g>
</g>
<g id="ID000011" >
</g>
    </g>
    <g>
      <polyline fill="none" stroke="#000000" stroke-width="0.5pt" stroke-dasharray="none" points="340.985,162.734 340.985,160.989 "/>
      <polyline fill="none" stroke="#000000" stroke-width="0.5pt" stroke-dasharray="none" points="384.606,162.734 384.606,160.989 "/>
      <polyline fill="none" stroke="#000000" stroke-width="0.5pt" stroke-dasharray="none" points="428.227,162.734 428.227,160.989 "/>
      <polyline fill="none" stroke="#000000" stroke-width="0.5pt" stroke-dasharray="none" points="297.364,162.734 471.848,162.734 "/>
      <polyline fill="none" stroke="#000000" stroke-width="0.5pt" stroke-dasharray="none" points="340.985,29.328 340.985,31.072 "/>
      <polyline fill="none" stroke="#000000" stroke-width="0.5pt" stroke-dasharray="none" points="384.606,29.328 384.606,31.072 "/>
      <polyline fill="none" stroke="#000000" stroke-width="0.5pt" stroke-dasharray="none" points="428.227,29.328 428.227,31.072 "/>
      <polyline fill="none" stroke="#000000" stroke-width="0.5pt" stroke-dasharray="none" points="297.364,29.328 471.848,29.328 "/>
  <g transform="translate(297.364,174.557)">
    <g transform="rotate(-0.0)">
      <text x="0.000" y="0.000" font-family="Helvetica" text-anchor="middle" font-size="8pt" fill="#000000" >0</text>
    </g>
  </g>
  <g transform="translate(340.985,174.557)">
    <g transform="rotate(-0.0)">
      <text x="0.000" y="0.000" font-family="Helvetica" text-anchor="middle" font-size="8pt" fill="#000000" >5</text>
    </g>
  </g>
  <g transform="translate(384.606,174.557)">
    <g transform="rotate(-0.0)">
      <text x="0.000" y="0.000" font-family="Helvetica" text-anchor="middle" font-size="8pt" fill="#000000" >10</text>
    </g>
  </g>
  <g transform="translate(428.227,174.557)">
    <g transform="rotate(-0.0)">
      <text x="0.000" y="0.000" font-family="Helvetica" text-anchor="middle" font-size="8pt" fill="#000000" >15</text>
    </g>
  </g>
  <g transform="translate(471.848,174.557)">
    <g transform="rotate(-0.0)">
      <text x="0.000" y="0.000" font-family="Helvetica" text-anchor="middle" font-size="8pt" fill="#000000" >20</text>
    </g>
  </g>
      <polyline fill="none" stroke="#000000" stroke-width="0.5pt" stroke-dasharray="none" points="297.364,129.382 299.109,129.382 "/>
      <polyline fill="none" stroke="#000000" stroke-width="0.5pt" stroke-dasharray="none" points="297.364,96.031 299.109,96.031 "/>
      <polyline fill="none" stroke="#000000" stroke-width="0.5pt" stroke-dasharray="none" points="297.364,62.679 299.109,62.679 "/>
      <polyline fill="none" stroke="#000000" stroke-width="0.5pt" stroke-dasharray="none" points="297.364,162.734 297.364,29.328 "/>
      <polyline fill="none" stroke="#000000" stroke-width="0.5pt" stroke-dasharray="none" points="471.848,129.382 470.103,129.382 "/>
      <polyline fill="none" stroke="#000000" stroke-width="0.5pt" stroke-dasharray="none" points="471.848,96.031 470.103,96.031 "/>
      <polyline fill="none" stroke="#000000" stroke-width="0.5pt" stroke-dasharray="none" points="471.848,62.679 470.103,62.679 "/>
      <polyline fill="none" stroke="#000000" stroke-width="0.5pt" stroke-dasharray="none" points="471.848,162.734 471.848,29.328 "/>
  <g transform="translate(293.874,166.225)">
    <g transform="rotate(-0.0)">
      <text x="0.000" y="0.000" font-family="Helvetica" text-anchor="end" font-size="8pt" fill="#000000" >-2</text>
    </g>
  </g>
  <g transform="translate(293.874,132.874)">
    <g transform="rotate(-0.0)">
      <text x="0.000" y="0.000" font-family="Helvetica" text-anchor="end" font-size="8pt" fill="#000000" >0</text>
    </g>
  </g>
  <g transform="translate(293.874,99.522)">
    <g transform="rotate(-0.0)">
      <text x="0.000" y="0.000" font-family="Helvetica" text-anchor="end" font-size="8pt" fill="#000000" >2</text>
    </g>
  </g>
  <g transform="translate(293.874,66.171)">
    <g transform="rotate(-0.0)">
      <text x="0.000" y="0.000" font-family="Helvetica" text-anchor="end" font-size="8pt" fill="#000000" >4</text>
    </g>
  </g>
  <g transform="translate(293.874,32.819)">
    <g transform="rotate(-0.0)">
      <text x="0.000" y="0.000" font-family="Helvetica" text-anchor="end" font-size="8pt" fill="#000000" >6</text>
    </g>
  </g>
      <polyline fill="none" stroke="#000000" stroke-width="0.5pt" stroke-dasharray="none" points="297.364,162.734 297.364,161.400 "/>
      <polyline fill="none" stroke="#000000" stroke-width="0.5pt" stroke-dasharray="none" points="297.364,162.734 297.364,162.734 "/>
    </g>
  </g>
  <g id ="ID000012">
  <clipPath id="ID000013">
    <rect x="67.779" y="214.614" width="404.069" height="133.406"/>
  </clipPath>
      <polygon fill="#ffffff" fill-opacity="1.00" stroke="none" stroke-width="0.5pt" stroke-opacity="1.00" stroke-dasharray="none" points="67.779,348.021 471.848,348.021 471.848,214.614 67.779,214.614 "/>
      <polygon fill="#ffffff" fill-opacity="1.00" stroke="none" stroke-width="0.5pt" stroke-opacity="1.00" stroke-dasharray="none" points="67.779,214.614 471.848,214.614 471.848,214.614 67.779,214.614 "/>
      <polygon fill="#ffffff" fill-opacity="1.00" stroke="none" stroke-width="0.5pt" stroke-opacity="1.00" stroke-dasharray="none" points="67.779,348.021 67.779,348.021 67.779,214.614 67.779,214.614 "/>
    <g>
<g id="ID000014" clip-path="url(#ID000013)" >
      <polyline fill="none" stroke="#0000ff" stroke-width="0.5pt" stroke-dasharray="none" points="471.848,348.021 469.828,348.021 467.808,348.021 465.787,348.021 463.767,348.021 461.747,348.021 459.726,348.021 457.706,348.021 455.686,348.021 453.665,348.021 451.645,348.021 449.624,348.021 447.604,348.021 445.584,348.021 443.563,348.021 441.543,348.021 439.523,348.021 437.502,348.021 435.482,348.021 433.462,348.021 431.441,348.021 429.421,348.021 427.401,348.021 425.380,348.021 423.360,348.021 421.340,348.021 419.319,348.021 417.299,348.021 415.279,348.021 413.258,348.021 411.238,348.021 409.218,348.021 407.197,348.021 405.177,348.021 403.157,348.021 401.136,348.021 399.116,348.021 397.096,348.021 395.075,348.021 393.055,348.021 391.034,348.021 389.014,348.021 386.994,348.021 384.973,348.021 382.953,348.021 380.933,348.021 378.912,348.021 376.892,348.021 374.872,348.021 372.851,348.021 370.831,348.021 368.811,348.021 366.790,348.021 364.770,348.021 362.750,348.021 360.729,348.021 358.709,348.021 356.689,348.021 354.668,348.021 352.648,348.021 350.628,348.021 348.607,348.021 346.587,348.021 344.567,348.021 342.546,348.021 340.526,348.021 338.506,348.021 336.485,348.021 334.465,348.021 332.444,348.021 330.424,348.021 328.404,348.021 326.383,348.021 324.363,348.021 322.343,348.021 320.322,348.021 318.302,348.021 316.282,348.021 314.261,348.021 312.241,348.021 310.221,348.021 308.200,348.021 306.180,348.021 304.160,348.021 302.139,348.021 300.119,348.021 298.099,348.021 296.078,348.021 294.058,348.021 292.038,348.021 290.017,348.021 287.997,348.021 285.977,348.021 283.956,348.021 281.936,348.021 279.916,348.021 277.895,348.021 275.875,348.021 273.854,348.021 271.834,348.021 269.814,348.021 267.793,348.021 265.773,348.021 263.753,348.021 261.732,348.021 259.712,348.021 257.692,348.021 255.671,348.020 253.651,348.020 251.631,348.020 249.610,348.020 247.590,348.020 245.570,348.020 243.549,348.020 241.529,348.020 239.509,348.020 237.488,348.020 235.468,348.020 233.448,348.020 231.427,348.020 229.407,348.019 227.387,348.019 225.366,348.019 223.346,348.019 221.326,348.019 219.305,348.018 217.285,348.018 215.264,348.017 213.244,348.017 211.224,348.016 209.203,348.016 207.183,348.015 205.163,348.014 203.142,348.013 201.122,348.012 199.102,348.010 197.081,348.009 195.061,348.007 193.041,348.005 191.020,348.002 189.000,347.999 186.980,347.996 184.959,347.993 182.939,347.988 180.919,347.983 178.898,347.977 176.878,347.971 174.858,347.963 172.837,347.954 170.817,347.944 168.797,347.933 166.776,347.919 164.756,347.903 162.736,347.886 160.715,347.865 158.695,347.841 156.674,347.813 154.654,347.782 152.634,347.745 150.613,347.703 148.593,347.654 146.573,347.598 144.552,347.533 142.532,347.459 140.512,347.372 138.491,347.273 136.471,347.159 134.451,347.026 132.430,346.874 130.410,346.698 128.390,346.496 126.369,346.262 124.349,345.992 122.329,345.681 120.308,345.322 118.288,344.908 116.268,344.431 114.247,343.880 112.227,343.244 110.207,342.510 108.186,341.663 106.166,340.685 104.146,339.556 102.125,338.253 100.105,336.748 98.084,335.009 96.064,332.999 94.044,330.676 92.023,327.989 90.003,324.881 87.983,321.285 85.962,317.122 83.942,312.299 81.922,306.703 79.901,300.205 77.881,292.655 75.861,283.878 73.840,273.665 71.820,261.767 69.800,247.867 67.779,231.594 "/>
<g>
</g>
</g>
<g id="ID000015" >
  <g transform="translate(42.185,282.481)">
    <g transform="rotate(-90.0)">
      <text x="0.000" y="0.000" font-family="Helvetica" text-anchor="middle" font-size="8pt" fill="#000000" >U(t)</text>
    </g>
  </g>
</g>
<g id="ID000016" >
  <g transform="translate(269.038,376.721)">
    <g transform="rotate(-0.0)">
      <text x="0.000" y="0.000" font-family="Helvetica" text-anchor="middle" font-size="8pt" fill="#000000" >time(t)</text>
    </g>
  </g>
</g>
<g id="ID000017" >
</g>
    </g>
    <g>
      <polyline fill="none" stroke="#000000" stroke-width="0.5pt" stroke-dasharray="none" points="168.797,348.021 168.797,343.980 "/>
      <polyline fill="none" stroke="#000000" stroke-width="0.5pt" stroke-dasharray="none" points="269.814,348.021 269.814,343.980 "/>
      <polyline fill="none" stroke="#000000" stroke-width="0.5pt" stroke-dasharray="none" points="370.831,348.021 370.831,343.980 "/>
      <polyline fill="none" stroke="#000000" stroke-width="0.5pt" stroke-dasharray="none" points="67.779,348.021 471.848,348.021 "/>
      <polyline fill="none" stroke="#000000" stroke-width="0.5pt" stroke-dasharray="none" points="168.797,214.614 168.797,218.655 "/>
      <polyline fill="none" stroke="#000000" stroke-width="0.5pt" stroke-dasharray="none" points="269.814,214.614 269.814,218.655 "/>
      <polyline fill="none" stroke="#000000" stroke-width="0.5pt" stroke-dasharray="none" points="370.831,214.614 370.831,218.655 "/>
      <polyline fill="none" stroke="#000000" stroke-width="0.5pt" stroke-dasharray="none" points="67.779,214.614 471.848,214.614 "/>
  <g transform="translate(67.779,359.844)">
    <g transform="rotate(-0.0)">
      <text x="0.000" y="0.000" font-family="Helvetica" text-anchor="middle" font-size="8pt" fill="#000000" >0</text>
    </g>
  </g>
  <g transform="translate(168.797,359.844)">
    <g transform="rotate(-0.0)">
      <text x="0.000" y="0.000" font-family="Helvetica" text-anchor="middle" font-size="8pt" fill="#000000" >5</text>
    </g>
  </g>
  <g transform="translate(269.814,359.844)">
    <g transform="rotate(-0.0)">
      <text x="0.000" y="0.000" font-family="Helvetica" text-anchor="middle" font-size="8pt" fill="#000000" >10</text>
    </g>
  </g>
  <g transform="translate(370.831,359.844)">
    <g transform="rotate(-0.0)">
      <text x="0.000" y="0.000" font-family="Helvetica" text-anchor="middle" font-size="8pt" fill="#000000" >15</text>
    </g>
  </g>
  <g transform="translate(471.848,359.844)">
    <g transform="rotate(-0.0)">
      <text x="0.000" y="0.000" font-family="Helvetica" text-anchor="middle" font-size="8pt" fill="#000000" >20</text>
    </g>
  </g>
      <polyline fill="none" stroke="#000000" stroke-width="0.5pt" stroke-dasharray="none" points="67.779,314.669 71.820,314.669 "/>
      <polyline fill="none" stroke="#000000" stroke-width="0.5pt" stroke-dasharray="none" points="67.779,281.317 71.820,281.317 "/>
      <polyline fill="none" stroke="#000000" stroke-width="0.5pt" stroke-dasharray="none" points="67.779,247.966 71.820,247.966 "/>
      <polyline fill="none" stroke="#000000" stroke-width="0.5pt" stroke-dasharray="none" points="67.779,348.021 67.779,214.614 "/>
      <polyline fill="none" stroke="#000000" stroke-width="0.5pt" stroke-dasharray="none" points="471.848,314.669 467.808,314.669 "/>
      <polyline fill="none" stroke="#000000" stroke-width="0.5pt" stroke-dasharray="none" points="471.848,281.317 467.808,281.317 "/>
      <polyline fill="none" stroke="#000000" stroke-width="0.5pt" stroke-dasharray="none" points="471.848,247.966 467.808,247.966 "/>
      <polyline fill="none" stroke="#000000" stroke-width="0.5pt" stroke-dasharray="none" points="471.848,348.021 471.848,214.614 "/>
  <g transform="translate(59.698,351.512)">
    <g transform="rotate(-0.0)">
      <text x="0.000" y="0.000" font-family="Helvetica" text-anchor="end" font-size="8pt" fill="#000000" >0</text>
    </g>
  </g>
  <g transform="translate(59.698,318.160)">
    <g transform="rotate(-0.0)">
      <text x="0.000" y="0.000" font-family="Helvetica" text-anchor="end" font-size="8pt" fill="#000000" >5</text>
    </g>
  </g>
  <g transform="translate(59.698,284.809)">
    <g transform="rotate(-0.0)">
      <text x="0.000" y="0.000" font-family="Helvetica" text-anchor="end" font-size="8pt" fill="#000000" >10</text>
    </g>
  </g>
  <g transform="translate(59.698,251.457)">
    <g transform="rotate(-0.0)">
      <text x="0.000" y="0.000" font-family="Helvetica" text-anchor="end" font-size="8pt" fill="#000000" >15</text>
    </g>
  </g>
  <g transform="translate(59.698,218.106)">
    <g transform="rotate(-0.0)">
      <text x="0.000" y="0.000" font-family="Helvetica" text-anchor="end" font-size="8pt" fill="#000000" >20</text>
    </g>
  </g>
      <polyline fill="none" stroke="#000000" stroke-width="0.5pt" stroke-dasharray="none" points="67.779,348.021 67.779,346.687 "/>
      <polyline fill="none" stroke="#000000" stroke-width="0.5pt" stroke-dasharray="none" points="67.779,348.021 67.779,348.021 "/>
    </g>
  </g>
  </g>
</svg>
