<?xml version="1.0" encoding="utf-8" standalone="no"?><!DOCTYPE svg PUBLIC "-//W3C//DTD SVG 1.1//EN" "http://www.w3.org/Graphics/SVG/1.1/DTD/svg11.dtd">
<svg preserveAspectRatio="xMinYMin meet" width="100%" height="100%" viewBox="0 0 521.379 391.034"  version="1.1" xmlns="http://www.w3.org/2000/svg" xmlns:xlink="http://www.w3.org/1999/xlink">
  <desc>Matlab Figure Converted by PLOT2SVG written by Juerg Schwizer</desc>
  <g id="topgroup">
  <rect x="0" y="0" width="521.379" height="391.034" fill="#ffffff" stroke="none" />
  <g id ="ID000000">
  <clipPath id="ID000001">
    <rect x="67.779" y="29.328" width="174.484" height="133.406"/>
  </clipPath>
      <polygon fill="#ffffff" fill-opacity="1.00" stroke="none" stroke-width="0.5pt" stroke-opacity="1.00" stroke-dasharray="none" points="67.779,162.734 242.264,162.734 242.264,29.328 67.779,29.328 "/>
      <polygon fill="#ffffff" fill-opacity="1.00" stroke="none" stroke-width="0.5pt" stroke-opacity="1.00" stroke-dasharray="none" points="67.779,29.328 242.264,29.328 242.264,29.328 67.779,29.328 "/>
      <polygon fill="#ffffff" fill-opacity="1.00" stroke="none" stroke-width="0.5pt" stroke-opacity="1.00" stroke-dasharray="none" points="67.779,162.734 67.779,162.734 67.779,29.328 67.779,29.328 "/>
    <g>
<g id="ID000002" clip-path="url(#ID000001)" >
      <polyline fill="none" stroke="#0000ff" stroke-width="0.5pt" stroke-dasharray="none" points="242.264,162.734 241.391,161.027 240.519,159.097 239.646,156.755 238.774,153.836 237.902,150.193 237.029,145.704 236.157,140.280 235.284,133.880 234.412,126.537 233.539,118.370 232.667,109.588 231.795,100.479 230.922,91.359 230.050,82.555 229.177,74.346 228.305,66.932 227.432,60.429 226.560,54.869 225.688,50.206 224.815,46.363 223.943,43.256 223.070,40.782 222.198,38.820 221.326,37.262 220.453,36.047 219.581,35.111 218.708,34.390 217.836,33.820 216.963,33.373 216.091,33.035 215.219,32.785 214.346,32.597 213.474,32.445 212.601,32.320 211.729,32.223 210.856,32.154 209.984,32.107 209.112,32.075 208.239,32.046 207.367,32.017 206.494,31.993 205.622,31.974 204.750,31.963 203.877,31.958 203.005,31.957 202.132,31.958 201.260,31.957 200.387,31.950 199.515,31.940 198.643,31.931 197.770,31.925 196.898,31.923 196.025,31.925 195.153,31.930 194.280,31.939 193.408,31.947 192.536,31.953 191.663,31.952 190.791,31.945 189.918,31.936 189.046,31.932 188.173,31.933 187.301,31.938 186.429,31.944 185.556,31.945 184.684,31.937 183.811,31.930 182.939,31.927 182.067,31.930 181.194,31.937 180.322,31.945 179.449,31.944 178.577,31.932 177.704,31.919 176.832,31.913 175.960,31.919 175.087,31.933 174.215,31.950 173.342,31.959 172.470,31.945 171.597,31.921 170.725,31.905 169.853,31.908 168.980,31.927 168.108,31.954 167.235,31.969 166.363,31.954 165.491,31.933 164.618,31.922 163.746,31.927 162.873,31.943 162.001,31.955 161.128,31.948 160.256,31.937 159.384,31.931 158.511,31.933 157.639,31.940 156.766,31.944 155.894,31.939 155.021,31.932 154.149,31.929 153.277,31.931 152.404,31.937 151.532,31.943 150.659,31.940 149.787,31.931 148.915,31.922 148.042,31.920 147.170,31.926 146.297,31.937 145.425,31.948 144.552,31.950 143.680,31.934 142.808,31.914 141.935,31.902 141.063,31.907 140.190,31.927 139.318,31.953 138.445,31.970 137.573,31.956 136.701,31.930 135.828,31.912 134.956,31.914 134.083,31.934 133.211,31.958 132.339,31.963 131.466,31.946 130.594,31.933 129.721,31.931 128.849,31.938 127.976,31.947 127.104,31.945 126.232,31.937 125.359,31.932 124.487,31.932 123.614,31.937 122.742,31.942 121.869,31.940 120.997,31.933 120.125,31.927 119.252,31.926 118.380,31.931 117.507,31.939 116.635,31.945 115.763,31.942 114.890,31.927 114.018,31.913 113.145,31.908 112.273,31.916 111.400,31.933 110.528,31.953 109.656,31.963 108.783,31.948 107.911,31.919 107.038,31.900 106.166,31.901 105.293,31.924 104.421,31.956 103.549,31.976 102.676,31.960 101.804,31.937 100.931,31.925 100.059,31.930 99.186,31.945 98.314,31.955 97.442,31.946 96.569,31.937 95.697,31.933 94.824,31.936 93.952,31.941 93.080,31.942 92.207,31.936 91.335,31.931 90.462,31.930 89.590,31.933 88.717,31.939 87.845,31.942 86.973,31.937 86.100,31.927 85.228,31.920 84.355,31.919 83.483,31.926 82.610,31.939 81.738,31.950 80.866,31.952 79.993,31.933 79.121,31.908 78.248,31.894 77.376,31.899 76.504,31.922 75.631,31.955 74.759,31.978 73.886,31.966 73.014,31.935 72.141,31.913 71.269,31.913 70.397,31.933 69.524,31.960 68.652,31.965 67.779,31.953 "/>
<g>
</g>
</g>
<g id="ID000003" >
  <g transform="translate(49.167,97.194)">
    <g transform="rotate(-90.0)">
      <text x="0.000" y="0.000" font-family="Helvetica" text-anchor="middle" font-size="8pt" fill="#000000" ><tspan>P</tspan><tspan dy="3.1pt" font-size="5pt">1</tspan><tspan dy="-3.1pt" font-size="8pt">(t)</tspan></text>
    </g>
  </g>
</g>
<g id="ID000004" >
  <g transform="translate(154.246,191.434)">
    <g transform="rotate(-0.0)">
      <text x="0.000" y="0.000" font-family="Helvetica" text-anchor="middle" font-size="8pt" fill="#000000" >time(t)</text>
    </g>
  </g>
</g>
<g id="ID000005" >
</g>
    </g>
    <g>
      <polyline fill="none" stroke="#000000" stroke-width="0.5pt" stroke-dasharray="none" points="111.400,162.734 111.400,160.989 "/>
      <polyline fill="none" stroke="#000000" stroke-width="0.5pt" stroke-dasharray="none" points="155.021,162.734 155.021,160.989 "/>
      <polyline fill="none" stroke="#000000" stroke-width="0.5pt" stroke-dasharray="none" points="198.643,162.734 198.643,160.989 "/>
      <polyline fill="none" stroke="#000000" stroke-width="0.5pt" stroke-dasharray="none" points="67.779,162.734 242.264,162.734 "/>
      <polyline fill="none" stroke="#000000" stroke-width="0.5pt" stroke-dasharray="none" points="111.400,29.328 111.400,31.072 "/>
      <polyline fill="none" stroke="#000000" stroke-width="0.5pt" stroke-dasharray="none" points="155.021,29.328 155.021,31.072 "/>
      <polyline fill="none" stroke="#000000" stroke-width="0.5pt" stroke-dasharray="none" points="198.643,29.328 198.643,31.072 "/>
      <polyline fill="none" stroke="#000000" stroke-width="0.5pt" stroke-dasharray="none" points="67.779,29.328 242.264,29.328 "/>
  <g transform="translate(67.779,174.557)">
    <g transform="rotate(-0.0)">
      <text x="0.000" y="0.000" font-family="Helvetica" text-anchor="middle" font-size="8pt" fill="#000000" >0</text>
    </g>
  </g>
  <g transform="translate(111.400,174.557)">
    <g transform="rotate(-0.0)">
      <text x="0.000" y="0.000" font-family="Helvetica" text-anchor="middle" font-size="8pt" fill="#000000" >5</text>
    </g>
  </g>
  <g transform="translate(155.021,174.557)">
    <g transform="rotate(-0.0)">
      <text x="0.000" y="0.000" font-family="Helvetica" text-anchor="middle" font-size="8pt" fill="#000000" >10</text>
    </g>
  </g>
  <g transform="translate(198.643,174.557)">
    <g transform="rotate(-0.0)">
      <text x="0.000" y="0.000" font-family="Helvetica" text-anchor="middle" font-size="8pt" fill="#000000" >15</text>
    </g>
  </g>
  <g transform="translate(242.264,174.557)">
    <g transform="rotate(-0.0)">
      <text x="0.000" y="0.000" font-family="Helvetica" text-anchor="middle" font-size="8pt" fill="#000000" >20</text>
    </g>
  </g>
      <polyline fill="none" stroke="#000000" stroke-width="0.5pt" stroke-dasharray="none" points="67.779,129.382 69.524,129.382 "/>
      <polyline fill="none" stroke="#000000" stroke-width="0.5pt" stroke-dasharray="none" points="67.779,96.031 69.524,96.031 "/>
      <polyline fill="none" stroke="#000000" stroke-width="0.5pt" stroke-dasharray="none" points="67.779,62.679 69.524,62.679 "/>
      <polyline fill="none" stroke="#000000" stroke-width="0.5pt" stroke-dasharray="none" points="67.779,162.734 67.779,29.328 "/>
      <polyline fill="none" stroke="#000000" stroke-width="0.5pt" stroke-dasharray="none" points="242.264,129.382 240.519,129.382 "/>
      <polyline fill="none" stroke="#000000" stroke-width="0.5pt" stroke-dasharray="none" points="242.264,96.031 240.519,96.031 "/>
      <polyline fill="none" stroke="#000000" stroke-width="0.5pt" stroke-dasharray="none" points="242.264,62.679 240.519,62.679 "/>
      <polyline fill="none" stroke="#000000" stroke-width="0.5pt" stroke-dasharray="none" points="242.264,162.734 242.264,29.328 "/>
  <g transform="translate(64.290,166.225)">
    <g transform="rotate(-0.0)">
      <text x="0.000" y="0.000" font-family="Helvetica" text-anchor="end" font-size="8pt" fill="#000000" >0</text>
    </g>
  </g>
  <g transform="translate(64.290,132.874)">
    <g transform="rotate(-0.0)">
      <text x="0.000" y="0.000" font-family="Helvetica" text-anchor="end" font-size="8pt" fill="#000000" >2</text>
    </g>
  </g>
  <g transform="translate(64.290,99.522)">
    <g transform="rotate(-0.0)">
      <text x="0.000" y="0.000" font-family="Helvetica" text-anchor="end" font-size="8pt" fill="#000000" >4</text>
    </g>
  </g>
  <g transform="translate(64.290,66.171)">
    <g transform="rotate(-0.0)">
      <text x="0.000" y="0.000" font-family="Helvetica" text-anchor="end" font-size="8pt" fill="#000000" >6</text>
    </g>
  </g>
  <g transform="translate(64.290,32.819)">
    <g transform="rotate(-0.0)">
      <text x="0.000" y="0.000" font-family="Helvetica" text-anchor="end" font-size="8pt" fill="#000000" >8</text>
    </g>
  </g>
      <polyline fill="none" stroke="#000000" stroke-width="0.5pt" stroke-dasharray="none" points="67.779,162.734 67.779,161.400 "/>
      <polyline fill="none" stroke="#000000" stroke-width="0.5pt" stroke-dasharray="none" points="67.779,162.734 67.779,162.734 "/>
    </g>
  </g>
  <g id ="ID000006">
  <clipPath id="ID000007">
    <rect x="297.364" y="29.328" width="174.484" height="133.406"/>
  </clipPath>
      <polygon fill="#ffffff" fill-opacity="1.00" stroke="none" stroke-width="0.5pt" stroke-opacity="1.00" stroke-dasharray="none" points="297.364,162.734 471.848,162.734 471.848,29.328 297.364,29.328 "/>
      <polygon fill="#ffffff" fill-opacity="1.00" stroke="none" stroke-width="0.5pt" stroke-opacity="1.00" stroke-dasharray="none" points="297.364,29.328 471.848,29.328 471.848,29.328 297.364,29.328 "/>
      <polygon fill="#ffffff" fill-opacity="1.00" stroke="none" stroke-width="0.5pt" stroke-opacity="1.00" stroke-dasharray="none" points="297.364,162.734 297.364,162.734 297.364,29.328 297.364,29.328 "/>
    <g>
<g id="ID000008" clip-path="url(#ID000007)" >
      <polyline fill="none" stroke="#0000ff" stroke-width="0.5pt" stroke-dasharray="none" points="471.848,162.734 470.976,162.344 470.103,161.248 469.231,159.506 468.359,157.116 467.486,154.048 466.614,150.250 465.741,145.683 464.869,140.335 463.996,134.241 463.124,127.505 462.252,120.296 461.379,112.851 460.507,105.421 459.634,98.265 458.762,91.605 457.890,85.602 457.017,80.347 456.145,75.862 455.272,72.099 454.400,69.000 453.527,66.497 452.655,64.508 451.783,62.929 450.910,61.676 450.038,60.699 449.165,59.948 448.293,59.369 447.420,58.911 446.548,58.552 445.676,58.281 444.803,58.080 443.931,57.930 443.058,57.807 442.186,57.707 441.314,57.630 440.441,57.574 439.569,57.537 438.696,57.511 437.824,57.488 436.951,57.465 436.079,57.445 435.207,57.430 434.334,57.421 433.462,57.417 432.589,57.417 431.717,57.418 430.844,57.416 429.972,57.410 429.100,57.401 428.227,57.392 427.355,57.386 426.482,57.384 425.610,57.387 424.738,57.393 423.865,57.403 422.993,57.412 422.120,57.418 421.248,57.418 420.375,57.408 419.503,57.397 418.631,57.391 417.758,57.394 416.886,57.402 416.013,57.411 415.141,57.412 414.268,57.401 413.396,57.390 412.524,57.386 411.651,57.390 410.779,57.402 409.906,57.413 409.034,57.412 408.161,57.394 407.289,57.374 406.417,57.366 405.544,57.374 404.672,57.396 403.799,57.422 402.927,57.434 402.055,57.413 401.182,57.377 400.310,57.354 399.437,57.358 398.565,57.387 397.692,57.427 396.820,57.450 395.948,57.427 395.075,57.395 394.203,57.379 393.330,57.386 392.458,57.410 391.585,57.429 390.713,57.418 389.841,57.401 388.968,57.393 388.096,57.396 387.223,57.407 386.351,57.413 385.479,57.404 384.606,57.394 383.734,57.390 382.861,57.393 381.989,57.402 381.116,57.410 380.244,57.407 379.372,57.392 378.499,57.380 377.627,57.376 376.754,57.385 375.882,57.402 375.009,57.419 374.137,57.421 373.265,57.398 372.392,57.366 371.520,57.349 370.647,57.357 369.775,57.387 368.903,57.426 368.030,57.451 367.158,57.431 366.285,57.391 365.413,57.364 364.540,57.367 363.668,57.397 362.796,57.434 361.923,57.440 361.051,57.415 360.178,57.396 359.306,57.392 358.433,57.403 357.561,57.416 356.689,57.413 355.816,57.401 354.944,57.394 354.071,57.394 353.199,57.401 352.327,57.409 351.454,57.406 350.582,57.395 349.709,57.387 348.837,57.386 347.964,57.392 347.092,57.404 346.220,57.414 345.347,57.409 344.475,57.387 343.602,57.366 342.730,57.359 341.857,57.369 340.985,57.396 340.113,57.426 339.240,57.441 338.368,57.418 337.495,57.375 336.623,57.345 335.751,57.348 334.878,57.381 334.006,57.430 333.133,57.460 332.261,57.436 331.388,57.401 330.516,57.383 329.644,57.390 328.771,57.413 327.899,57.429 327.026,57.415 326.154,57.401 325.281,57.395 324.409,57.400 323.537,57.408 322.664,57.409 321.792,57.400 320.919,57.393 320.047,57.391 319.174,57.396 318.302,57.404 317.430,57.409 316.557,57.402 315.685,57.387 314.812,57.375 313.940,57.374 313.068,57.385 312.195,57.404 311.323,57.422 310.450,57.424 309.578,57.395 308.705,57.358 307.833,57.337 306.961,57.344 306.088,57.380 305.216,57.428 304.343,57.463 303.471,57.445 302.598,57.399 301.726,57.366 300.854,57.365 299.981,57.396 299.109,57.436 298.236,57.444 297.364,57.426 "/>
<g>
</g>
</g>
<g id="ID000009" >
  <g transform="translate(278.751,97.194)">
    <g transform="rotate(-90.0)">
      <text x="0.000" y="0.000" font-family="Helvetica" text-anchor="middle" font-size="8pt" fill="#000000" ><tspan>P</tspan><tspan dy="3.1pt" font-size="5pt">2</tspan><tspan dy="-3.1pt" font-size="8pt">(t)</tspan></text>
    </g>
  </g>
</g>
<g id="ID000010" >
  <g transform="translate(383.831,191.434)">
    <g transform="rotate(-0.0)">
      <text x="0.000" y="0.000" font-family="Helvetica" text-anchor="middle" font-size="8pt" fill="#000000" >time(t)</text>
    </g>
  </g>
</g>
<g id="ID000011" >
</g>
    </g>
    <g>
      <polyline fill="none" stroke="#000000" stroke-width="0.5pt" stroke-dasharray="none" points="340.985,162.734 340.985,160.989 "/>
      <polyline fill="none" stroke="#000000" stroke-width="0.5pt" stroke-dasharray="none" points="384.606,162.734 384.606,160.989 "/>
      <polyline fill="none" stroke="#000000" stroke-width="0.5pt" stroke-dasharray="none" points="428.227,162.734 428.227,160.989 "/>
      <polyline fill="none" stroke="#000000" stroke-width="0.5pt" stroke-dasharray="none" points="297.364,162.734 471.848,162.734 "/>
      <polyline fill="none" stroke="#000000" stroke-width="0.5pt" stroke-dasharray="none" points="340.985,29.328 340.985,31.072 "/>
      <polyline fill="none" stroke="#000000" stroke-width="0.5pt" stroke-dasharray="none" points="384.606,29.328 384.606,31.072 "/>
      <polyline fill="none" stroke="#000000" stroke-width="0.5pt" stroke-dasharray="none" points="428.227,29.328 428.227,31.072 "/>
      <polyline fill="none" stroke="#000000" stroke-width="0.5pt" stroke-dasharray="none" points="297.364,29.328 471.848,29.328 "/>
  <g transform="translate(297.364,174.557)">
    <g transform="rotate(-0.0)">
      <text x="0.000" y="0.000" font-family="Helvetica" text-anchor="middle" font-size="8pt" fill="#000000" >0</text>
    </g>
  </g>
  <g transform="translate(340.985,174.557)">
    <g transform="rotate(-0.0)">
      <text x="0.000" y="0.000" font-family="Helvetica" text-anchor="middle" font-size="8pt" fill="#000000" >5</text>
    </g>
  </g>
  <g transform="translate(384.606,174.557)">
    <g transform="rotate(-0.0)">
      <text x="0.000" y="0.000" font-family="Helvetica" text-anchor="middle" font-size="8pt" fill="#000000" >10</text>
    </g>
  </g>
  <g transform="translate(428.227,174.557)">
    <g transform="rotate(-0.0)">
      <text x="0.000" y="0.000" font-family="Helvetica" text-anchor="middle" font-size="8pt" fill="#000000" >15</text>
    </g>
  </g>
  <g transform="translate(471.848,174.557)">
    <g transform="rotate(-0.0)">
      <text x="0.000" y="0.000" font-family="Helvetica" text-anchor="middle" font-size="8pt" fill="#000000" >20</text>
    </g>
  </g>
      <polyline fill="none" stroke="#000000" stroke-width="0.5pt" stroke-dasharray="none" points="297.364,129.382 299.109,129.382 "/>
      <polyline fill="none" stroke="#000000" stroke-width="0.5pt" stroke-dasharray="none" points="297.364,96.031 299.109,96.031 "/>
      <polyline fill="none" stroke="#000000" stroke-width="0.5pt" stroke-dasharray="none" points="297.364,62.679 299.109,62.679 "/>
      <polyline fill="none" stroke="#000000" stroke-width="0.5pt" stroke-dasharray="none" points="297.364,162.734 297.364,29.328 "/>
      <polyline fill="none" stroke="#000000" stroke-width="0.5pt" stroke-dasharray="none" points="471.848,129.382 470.103,129.382 "/>
      <polyline fill="none" stroke="#000000" stroke-width="0.5pt" stroke-dasharray="none" points="471.848,96.031 470.103,96.031 "/>
      <polyline fill="none" stroke="#000000" stroke-width="0.5pt" stroke-dasharray="none" points="471.848,62.679 470.103,62.679 "/>
      <polyline fill="none" stroke="#000000" stroke-width="0.5pt" stroke-dasharray="none" points="471.848,162.734 471.848,29.328 "/>
  <g transform="translate(293.874,166.225)">
    <g transform="rotate(-0.0)">
      <text x="0.000" y="0.000" font-family="Helvetica" text-anchor="end" font-size="8pt" fill="#000000" >0</text>
    </g>
  </g>
  <g transform="translate(293.874,132.874)">
    <g transform="rotate(-0.0)">
      <text x="0.000" y="0.000" font-family="Helvetica" text-anchor="end" font-size="8pt" fill="#000000" >1</text>
    </g>
  </g>
  <g transform="translate(293.874,99.522)">
    <g transform="rotate(-0.0)">
      <text x="0.000" y="0.000" font-family="Helvetica" text-anchor="end" font-size="8pt" fill="#000000" >2</text>
    </g>
  </g>
  <g transform="translate(293.874,66.171)">
    <g transform="rotate(-0.0)">
      <text x="0.000" y="0.000" font-family="Helvetica" text-anchor="end" font-size="8pt" fill="#000000" >3</text>
    </g>
  </g>
  <g transform="translate(293.874,32.819)">
    <g transform="rotate(-0.0)">
      <text x="0.000" y="0.000" font-family="Helvetica" text-anchor="end" font-size="8pt" fill="#000000" >4</text>
    </g>
  </g>
      <polyline fill="none" stroke="#000000" stroke-width="0.5pt" stroke-dasharray="none" points="297.364,162.734 297.364,161.400 "/>
      <polyline fill="none" stroke="#000000" stroke-width="0.5pt" stroke-dasharray="none" points="297.364,162.734 297.364,162.734 "/>
    </g>
  </g>
  <g id ="ID000012">
  <clipPath id="ID000013">
    <rect x="67.779" y="214.614" width="174.484" height="133.406"/>
  </clipPath>
      <polygon fill="#ffffff" fill-opacity="1.00" stroke="none" stroke-width="0.5pt" stroke-opacity="1.00" stroke-dasharray="none" points="67.779,348.021 242.264,348.021 242.264,214.614 67.779,214.614 "/>
      <polygon fill="#ffffff" fill-opacity="1.00" stroke="none" stroke-width="0.5pt" stroke-opacity="1.00" stroke-dasharray="none" points="67.779,214.614 242.264,214.614 242.264,214.614 67.779,214.614 "/>
      <polygon fill="#ffffff" fill-opacity="1.00" stroke="none" stroke-width="0.5pt" stroke-opacity="1.00" stroke-dasharray="none" points="67.779,348.021 67.779,348.021 67.779,214.614 67.779,214.614 "/>
    <g>
<g id="ID000014" clip-path="url(#ID000013)" >
      <polyline fill="none" stroke="#0000ff" stroke-width="0.5pt" stroke-dasharray="none" points="242.264,348.021 241.391,347.630 240.519,346.535 239.646,344.793 238.774,342.403 237.902,339.335 237.029,335.536 236.157,330.969 235.284,325.621 234.412,319.528 233.539,312.791 232.667,305.583 231.795,298.137 230.922,290.707 230.050,283.552 229.177,276.891 228.305,270.888 227.432,265.634 226.560,261.148 225.688,257.386 224.815,254.287 223.943,251.784 223.070,249.794 222.198,248.216 221.326,246.963 220.453,245.986 219.581,245.234 218.708,244.655 217.836,244.198 216.963,243.839 216.091,243.568 215.219,243.367 214.346,243.217 213.474,243.094 212.601,242.994 211.729,242.917 210.856,242.861 209.984,242.823 209.112,242.797 208.239,242.775 207.367,242.752 206.494,242.732 205.622,242.717 204.750,242.708 203.877,242.704 203.005,242.703 202.132,242.704 201.260,242.703 200.387,242.697 199.515,242.688 198.643,242.679 197.770,242.673 196.898,242.671 196.025,242.674 195.153,242.680 194.280,242.689 193.408,242.699 192.536,242.705 191.663,242.704 190.791,242.694 189.918,242.684 189.046,242.678 188.173,242.680 187.301,242.689 186.429,242.698 185.556,242.699 184.684,242.688 183.811,242.677 182.939,242.672 182.067,242.677 181.194,242.689 180.322,242.700 179.449,242.699 178.577,242.681 177.704,242.661 176.832,242.653 175.960,242.660 175.087,242.682 174.215,242.708 173.342,242.721 172.470,242.700 171.597,242.664 170.725,242.641 169.853,242.644 168.980,242.674 168.108,242.714 167.235,242.737 166.363,242.713 165.491,242.682 164.618,242.666 163.746,242.673 162.873,242.697 162.001,242.716 161.128,242.705 160.256,242.688 159.384,242.680 158.511,242.683 157.639,242.693 156.766,242.699 155.894,242.691 155.021,242.681 154.149,242.677 153.277,242.680 152.404,242.689 151.532,242.697 150.659,242.693 149.787,242.679 148.915,242.666 148.042,242.663 147.170,242.672 146.297,242.689 145.425,242.705 144.552,242.708 143.680,242.684 142.808,242.653 141.935,242.636 141.063,242.643 140.190,242.673 139.318,242.713 138.445,242.738 137.573,242.718 136.701,242.677 135.828,242.651 134.956,242.654 134.083,242.684 133.211,242.720 132.339,242.727 131.466,242.702 130.594,242.683 129.721,242.679 128.849,242.689 127.976,242.703 127.104,242.700 126.232,242.688 125.359,242.681 124.487,242.681 123.614,242.688 122.742,242.695 121.869,242.693 120.997,242.682 120.125,242.674 119.252,242.672 118.380,242.679 117.507,242.691 116.635,242.700 115.763,242.696 114.890,242.674 114.018,242.653 113.145,242.645 112.273,242.656 111.400,242.682 110.528,242.713 109.656,242.728 108.783,242.705 107.911,242.662 107.038,242.632 106.166,242.634 105.293,242.668 104.421,242.717 103.549,242.747 102.676,242.723 101.804,242.688 100.931,242.670 100.059,242.677 99.186,242.700 98.314,242.716 97.442,242.702 96.569,242.688 95.697,242.682 94.824,242.686 93.952,242.695 93.080,242.696 92.207,242.687 91.335,242.679 90.462,242.678 89.590,242.682 88.717,242.691 87.845,242.696 86.973,242.689 86.100,242.674 85.228,242.662 84.355,242.661 83.483,242.672 82.610,242.691 81.738,242.708 80.866,242.710 79.993,242.682 79.121,242.645 78.248,242.623 77.376,242.631 76.504,242.666 75.631,242.715 74.759,242.749 73.886,242.732 73.014,242.685 72.141,242.652 71.269,242.652 70.397,242.683 69.524,242.723 68.652,242.730 67.779,242.713 "/>
<g>
</g>
</g>
<g id="ID000015" >
  <g transform="translate(49.167,282.481)">
    <g transform="rotate(-90.0)">
      <text x="0.000" y="0.000" font-family="Helvetica" text-anchor="middle" font-size="8pt" fill="#000000" ><tspan>P</tspan><tspan dy="3.1pt" font-size="5pt">3</tspan><tspan dy="-3.1pt" font-size="8pt">(t)</tspan></text>
    </g>
  </g>
</g>
<g id="ID000016" >
  <g transform="translate(154.246,376.721)">
    <g transform="rotate(-0.0)">
      <text x="0.000" y="0.000" font-family="Helvetica" text-anchor="middle" font-size="8pt" fill="#000000" >time(t)</text>
    </g>
  </g>
</g>
<g id="ID000017" >
</g>
    </g>
    <g>
      <polyline fill="none" stroke="#000000" stroke-width="0.5pt" stroke-dasharray="none" points="111.400,348.021 111.400,346.276 "/>
      <polyline fill="none" stroke="#000000" stroke-width="0.5pt" stroke-dasharray="none" points="155.021,348.021 155.021,346.276 "/>
      <polyline fill="none" stroke="#000000" stroke-width="0.5pt" stroke-dasharray="none" points="198.643,348.021 198.643,346.276 "/>
      <polyline fill="none" stroke="#000000" stroke-width="0.5pt" stroke-dasharray="none" points="67.779,348.021 242.264,348.021 "/>
      <polyline fill="none" stroke="#000000" stroke-width="0.5pt" stroke-dasharray="none" points="111.400,214.614 111.400,216.359 "/>
      <polyline fill="none" stroke="#000000" stroke-width="0.5pt" stroke-dasharray="none" points="155.021,214.614 155.021,216.359 "/>
      <polyline fill="none" stroke="#000000" stroke-width="0.5pt" stroke-dasharray="none" points="198.643,214.614 198.643,216.359 "/>
      <polyline fill="none" stroke="#000000" stroke-width="0.5pt" stroke-dasharray="none" points="67.779,214.614 242.264,214.614 "/>
  <g transform="translate(67.779,359.844)">
    <g transform="rotate(-0.0)">
      <text x="0.000" y="0.000" font-family="Helvetica" text-anchor="middle" font-size="8pt" fill="#000000" >0</text>
    </g>
  </g>
  <g transform="translate(111.400,359.844)">
    <g transform="rotate(-0.0)">
      <text x="0.000" y="0.000" font-family="Helvetica" text-anchor="middle" font-size="8pt" fill="#000000" >5</text>
    </g>
  </g>
  <g transform="translate(155.021,359.844)">
    <g transform="rotate(-0.0)">
      <text x="0.000" y="0.000" font-family="Helvetica" text-anchor="middle" font-size="8pt" fill="#000000" >10</text>
    </g>
  </g>
  <g transform="translate(198.643,359.844)">
    <g transform="rotate(-0.0)">
      <text x="0.000" y="0.000" font-family="Helvetica" text-anchor="middle" font-size="8pt" fill="#000000" >15</text>
    </g>
  </g>
  <g transform="translate(242.264,359.844)">
    <g transform="rotate(-0.0)">
      <text x="0.000" y="0.000" font-family="Helvetica" text-anchor="middle" font-size="8pt" fill="#000000" >20</text>
    </g>
  </g>
      <polyline fill="none" stroke="#000000" stroke-width="0.5pt" stroke-dasharray="none" points="67.779,314.669 69.524,314.669 "/>
      <polyline fill="none" stroke="#000000" stroke-width="0.5pt" stroke-dasharray="none" points="67.779,281.317 69.524,281.317 "/>
      <polyline fill="none" stroke="#000000" stroke-width="0.5pt" stroke-dasharray="none" points="67.779,247.966 69.524,247.966 "/>
      <polyline fill="none" stroke="#000000" stroke-width="0.5pt" stroke-dasharray="none" points="67.779,348.021 67.779,214.614 "/>
      <polyline fill="none" stroke="#000000" stroke-width="0.5pt" stroke-dasharray="none" points="242.264,314.669 240.519,314.669 "/>
      <polyline fill="none" stroke="#000000" stroke-width="0.5pt" stroke-dasharray="none" points="242.264,281.317 240.519,281.317 "/>
      <polyline fill="none" stroke="#000000" stroke-width="0.5pt" stroke-dasharray="none" points="242.264,247.966 240.519,247.966 "/>
      <polyline fill="none" stroke="#000000" stroke-width="0.5pt" stroke-dasharray="none" points="242.264,348.021 242.264,214.614 "/>
  <g transform="translate(64.290,351.512)">
    <g transform="rotate(-0.0)">
      <text x="0.000" y="0.000" font-family="Helvetica" text-anchor="end" font-size="8pt" fill="#000000" >0</text>
    </g>
  </g>
  <g transform="translate(64.290,318.160)">
    <g transform="rotate(-0.0)">
      <text x="0.000" y="0.000" font-family="Helvetica" text-anchor="end" font-size="8pt" fill="#000000" >1</text>
    </g>
  </g>
  <g transform="translate(64.290,284.809)">
    <g transform="rotate(-0.0)">
      <text x="0.000" y="0.000" font-family="Helvetica" text-anchor="end" font-size="8pt" fill="#000000" >2</text>
    </g>
  </g>
  <g transform="translate(64.290,251.457)">
    <g transform="rotate(-0.0)">
      <text x="0.000" y="0.000" font-family="Helvetica" text-anchor="end" font-size="8pt" fill="#000000" >3</text>
    </g>
  </g>
  <g transform="translate(64.290,218.106)">
    <g transform="rotate(-0.0)">
      <text x="0.000" y="0.000" font-family="Helvetica" text-anchor="end" font-size="8pt" fill="#000000" >4</text>
    </g>
  </g>
      <polyline fill="none" stroke="#000000" stroke-width="0.5pt" stroke-dasharray="none" points="67.779,348.021 67.779,346.687 "/>
      <polyline fill="none" stroke="#000000" stroke-width="0.5pt" stroke-dasharray="none" points="67.779,348.021 67.779,348.021 "/>
    </g>
  </g>
  <g id ="ID000018">
  <clipPath id="ID000019">
    <rect x="297.364" y="214.614" width="174.484" height="133.406"/>
  </clipPath>
      <polygon fill="#ffffff" fill-opacity="1.00" stroke="none" stroke-width="0.5pt" stroke-opacity="1.00" stroke-dasharray="none" points="297.364,348.021 471.848,348.021 471.848,214.614 297.364,214.614 "/>
      <polygon fill="#ffffff" fill-opacity="1.00" stroke="none" stroke-width="0.5pt" stroke-opacity="1.00" stroke-dasharray="none" points="297.364,214.614 471.848,214.614 471.848,214.614 297.364,214.614 "/>
      <polygon fill="#ffffff" fill-opacity="1.00" stroke="none" stroke-width="0.5pt" stroke-opacity="1.00" stroke-dasharray="none" points="297.364,348.021 297.364,348.021 297.364,214.614 297.364,214.614 "/>
    <g>
<g id="ID000020" clip-path="url(#ID000019)" >
      <polyline fill="none" stroke="#0000ff" stroke-width="0.5pt" stroke-dasharray="none" points="471.848,348.021 470.976,343.936 470.103,340.285 469.231,336.717 468.359,332.965 467.486,328.811 466.614,324.100 465.741,318.714 464.869,312.593 463.996,305.758 463.124,298.292 462.252,290.362 461.379,282.227 460.507,274.148 459.634,266.384 458.762,259.170 457.890,252.686 457.017,247.027 456.145,242.203 455.272,238.153 454.400,234.819 453.527,232.131 452.655,229.997 451.783,228.305 450.910,226.961 450.038,225.913 449.165,225.108 448.293,224.488 447.420,223.998 446.548,223.614 445.676,223.324 444.803,223.109 443.931,222.949 443.058,222.818 442.186,222.710 441.314,222.627 440.441,222.568 439.569,222.528 438.696,222.500 437.824,222.476 436.951,222.451 436.079,222.430 435.207,222.414 434.334,222.404 433.462,222.400 432.589,222.400 431.717,222.401 430.844,222.400 429.972,222.392 429.100,222.379 428.227,222.366 427.355,222.358 426.482,222.356 425.610,222.361 424.738,222.372 423.865,222.387 422.993,222.402 422.120,222.412 421.248,222.410 420.375,222.392 419.503,222.372 418.631,222.362 417.758,222.367 416.886,222.385 416.013,222.403 415.141,222.405 414.268,222.384 413.396,222.362 412.524,222.353 411.651,222.363 410.779,222.386 409.906,222.409 409.034,222.407 408.161,222.371 407.289,222.331 406.417,222.314 405.544,222.330 404.672,222.374 403.799,222.426 402.927,222.451 402.055,222.408 401.182,222.336 400.310,222.290 399.437,222.297 398.565,222.357 397.692,222.438 396.820,222.483 395.948,222.436 395.075,222.373 394.203,222.341 393.330,222.355 392.458,222.403 391.585,222.441 390.713,222.419 389.841,222.385 388.968,222.368 388.096,222.375 387.223,222.396 386.351,222.408 385.479,222.392 384.606,222.371 383.734,222.362 382.861,222.369 381.989,222.387 381.116,222.403 380.244,222.396 379.372,222.367 378.499,222.342 377.627,222.335 376.754,222.352 375.882,222.386 375.009,222.420 374.137,222.426 373.265,222.378 372.392,222.315 371.520,222.281 370.647,222.296 369.775,222.356 368.903,222.436 368.030,222.485 367.158,222.445 366.285,222.364 365.413,222.311 364.540,222.317 363.668,222.376 362.796,222.450 361.923,222.464 361.051,222.413 360.178,222.374 359.306,222.366 358.433,222.388 357.561,222.415 356.689,222.409 355.816,222.385 354.944,222.370 354.071,222.371 353.199,222.385 352.327,222.400 351.454,222.394 350.582,222.373 349.709,222.356 348.837,222.354 347.964,222.368 347.092,222.391 346.220,222.410 345.347,222.401 344.475,222.357 343.602,222.314 342.730,222.299 341.857,222.321 340.985,222.374 340.113,222.435 339.240,222.465 338.368,222.419 337.495,222.332 336.623,222.273 335.751,222.277 334.878,222.345 334.006,222.443 333.133,222.504 332.261,222.455 331.388,222.385 330.516,222.349 329.644,222.363 328.771,222.410 327.899,222.441 327.026,222.413 326.154,222.385 325.281,222.373 324.409,222.382 323.537,222.399 322.664,222.401 321.792,222.383 320.919,222.368 320.047,222.364 319.174,222.374 318.302,222.391 317.430,222.402 316.557,222.387 315.685,222.357 314.812,222.333 313.940,222.331 313.068,222.353 312.195,222.390 311.323,222.426 310.450,222.430 309.578,222.373 308.705,222.298 307.833,222.256 306.961,222.271 306.088,222.342 305.216,222.440 304.343,222.509 303.471,222.474 302.598,222.380 301.726,222.314 300.854,222.313 299.981,222.375 299.109,222.455 298.236,222.470 297.364,222.435 "/>
<g>
</g>
</g>
<g id="ID000021" >
  <g transform="translate(268.670,282.481)">
    <g transform="rotate(-90.0)">
      <text x="0.000" y="0.000" font-family="Helvetica" text-anchor="middle" font-size="8pt" fill="#000000" ><tspan>P</tspan><tspan dy="3.1pt" font-size="5pt">4</tspan><tspan dy="-3.1pt" font-size="8pt">(t)</tspan></text>
    </g>
  </g>
</g>
<g id="ID000022" >
  <g transform="translate(383.831,376.721)">
    <g transform="rotate(-0.0)">
      <text x="0.000" y="0.000" font-family="Helvetica" text-anchor="middle" font-size="8pt" fill="#000000" >time(t)</text>
    </g>
  </g>
</g>
<g id="ID000023" >
</g>
    </g>
    <g>
      <polyline fill="none" stroke="#000000" stroke-width="0.5pt" stroke-dasharray="none" points="340.985,348.021 340.985,346.276 "/>
      <polyline fill="none" stroke="#000000" stroke-width="0.5pt" stroke-dasharray="none" points="384.606,348.021 384.606,346.276 "/>
      <polyline fill="none" stroke="#000000" stroke-width="0.5pt" stroke-dasharray="none" points="428.227,348.021 428.227,346.276 "/>
      <polyline fill="none" stroke="#000000" stroke-width="0.5pt" stroke-dasharray="none" points="297.364,348.021 471.848,348.021 "/>
      <polyline fill="none" stroke="#000000" stroke-width="0.5pt" stroke-dasharray="none" points="340.985,214.614 340.985,216.359 "/>
      <polyline fill="none" stroke="#000000" stroke-width="0.5pt" stroke-dasharray="none" points="384.606,214.614 384.606,216.359 "/>
      <polyline fill="none" stroke="#000000" stroke-width="0.5pt" stroke-dasharray="none" points="428.227,214.614 428.227,216.359 "/>
      <polyline fill="none" stroke="#000000" stroke-width="0.5pt" stroke-dasharray="none" points="297.364,214.614 471.848,214.614 "/>
  <g transform="translate(297.364,359.844)">
    <g transform="rotate(-0.0)">
      <text x="0.000" y="0.000" font-family="Helvetica" text-anchor="middle" font-size="8pt" fill="#000000" >0</text>
    </g>
  </g>
  <g transform="translate(340.985,359.844)">
    <g transform="rotate(-0.0)">
      <text x="0.000" y="0.000" font-family="Helvetica" text-anchor="middle" font-size="8pt" fill="#000000" >5</text>
    </g>
  </g>
  <g transform="translate(384.606,359.844)">
    <g transform="rotate(-0.0)">
      <text x="0.000" y="0.000" font-family="Helvetica" text-anchor="middle" font-size="8pt" fill="#000000" >10</text>
    </g>
  </g>
  <g transform="translate(428.227,359.844)">
    <g transform="rotate(-0.0)">
      <text x="0.000" y="0.000" font-family="Helvetica" text-anchor="middle" font-size="8pt" fill="#000000" >15</text>
    </g>
  </g>
  <g transform="translate(471.848,359.844)">
    <g transform="rotate(-0.0)">
      <text x="0.000" y="0.000" font-family="Helvetica" text-anchor="middle" font-size="8pt" fill="#000000" >20</text>
    </g>
  </g>
      <polyline fill="none" stroke="#000000" stroke-width="0.5pt" stroke-dasharray="none" points="297.364,303.552 299.109,303.552 "/>
      <polyline fill="none" stroke="#000000" stroke-width="0.5pt" stroke-dasharray="none" points="297.364,259.083 299.109,259.083 "/>
      <polyline fill="none" stroke="#000000" stroke-width="0.5pt" stroke-dasharray="none" points="297.364,348.021 297.364,214.614 "/>
      <polyline fill="none" stroke="#000000" stroke-width="0.5pt" stroke-dasharray="none" points="471.848,303.552 470.103,303.552 "/>
      <polyline fill="none" stroke="#000000" stroke-width="0.5pt" stroke-dasharray="none" points="471.848,259.083 470.103,259.083 "/>
      <polyline fill="none" stroke="#000000" stroke-width="0.5pt" stroke-dasharray="none" points="471.848,348.021 471.848,214.614 "/>
  <g transform="translate(293.874,351.512)">
    <g transform="rotate(-0.0)">
      <text x="0.000" y="0.000" font-family="Helvetica" text-anchor="end" font-size="8pt" fill="#000000" >0</text>
    </g>
  </g>
  <g transform="translate(293.874,307.043)">
    <g transform="rotate(-0.0)">
      <text x="0.000" y="0.000" font-family="Helvetica" text-anchor="end" font-size="8pt" fill="#000000" >0.5</text>
    </g>
  </g>
  <g transform="translate(293.874,262.574)">
    <g transform="rotate(-0.0)">
      <text x="0.000" y="0.000" font-family="Helvetica" text-anchor="end" font-size="8pt" fill="#000000" >1</text>
    </g>
  </g>
  <g transform="translate(293.874,218.106)">
    <g transform="rotate(-0.0)">
      <text x="0.000" y="0.000" font-family="Helvetica" text-anchor="end" font-size="8pt" fill="#000000" >1.5</text>
    </g>
  </g>
      <polyline fill="none" stroke="#000000" stroke-width="0.5pt" stroke-dasharray="none" points="297.364,348.021 297.364,346.687 "/>
      <polyline fill="none" stroke="#000000" stroke-width="0.5pt" stroke-dasharray="none" points="297.364,348.021 297.364,348.021 "/>
    </g>
  </g>
  </g>
</svg>
