<?xml version="1.0" standalone="no"?><!DOCTYPE svg PUBLIC "-//W3C//DTD SVG 1.1//EN" "http://www.w3.org/Graphics/SVG/1.1/DTD/svg11.dtd"><svg xmlns="http://www.w3.org/2000/svg" viewBox="0 0 650 400" version="1.1"><clipPath id="box"><rect x="0" y="0" width="650" height="400" style="fill:none;stroke:none;" /></clipPath><g clip-path="url(#box)"><rect x="0.00" y="0.00" width="650.00" height="400.00" style="fill:#FFFFFF;stroke:none;" /><path d="M0.00 368.00 L650.00 368.00 M0.00 309.00 L650.00 309.00 M0.00 250.00 L650.00 250.00 M0.00 191.00 L650.00 191.00 M0.00 132.00 L650.00 132.00 M0.00 73.00 L650.00 73.00 M0.00 14.00 L650.00 14.00 M47.00 0.00 L47.00 400.00 M96.00 0.00 L96.00 400.00 M145.00 0.00 L145.00 400.00 M194.00 0.00 L194.00 400.00 M243.00 0.00 L243.00 400.00 M292.00 0.00 L292.00 400.00 M341.00 0.00 L341.00 400.00 M390.00 0.00 L390.00 400.00 M439.00 0.00 L439.00 400.00 M488.00 0.00 L488.00 400.00 M538.00 0.00 L538.00 400.00 M587.00 0.00 L587.00 400.00 M636.00 0.00 L636.00 400.00 " style="fill:none;stroke:#D0D0D0;stroke-width:1;" /><path d="M292.66 0.00 L292.66 400.00 " style="fill:none;stroke:#000000;stroke-width:1;" /><path d="M286.16 427.40 L299.16 427.40 M286.16 368.36 L299.16 368.36 M286.16 309.32 L299.16 309.32 M286.16 250.28 L299.16 250.28 M286.16 191.23 L299.16 191.23 M286.16 132.19 L299.16 132.19 M286.16 73.15 L299.16 73.15 M286.16 14.11 L299.16 14.11 " style="fill:none;stroke:#000000;stroke-width:1;" /><path d="M0.00 191.23 L650.00 191.23 " style="fill:none;stroke:#000000;stroke-width:1;" /><path d="M-1.80 184.73 L-1.80 197.73 M47.28 184.73 L47.28 197.73 M96.35 184.73 L96.35 197.73 M145.43 184.73 L145.43 197.73 M194.51 184.73 L194.51 197.73 M243.58 184.73 L243.58 197.73 M292.66 184.73 L292.66 197.73 M341.73 184.73 L341.73 197.73 M390.81 184.73 L390.81 197.73 M439.89 184.73 L439.89 197.73 M488.96 184.73 L488.96 197.73 M538.04 184.73 L538.04 197.73 M587.12 184.73 L587.12 197.73 M636.19 184.73 L636.19 197.73 " style="fill:none;stroke:#000000;stroke-width:1;" /><text x="300.78339410138227" y="370.8590009369381" text-anchor="start" style="font:10px Droid Sans,Trebuchet MS,Arial,Helvetica,sans-serif;stroke:none;fill:#000000">-0.6</text><text x="300.78339410138227" y="311.81755949549637" text-anchor="start" style="font:10px Droid Sans,Trebuchet MS,Arial,Helvetica,sans-serif;stroke:none;fill:#000000">-0.4</text><text x="300.78339410138227" y="252.7761180540545" text-anchor="start" style="font:10px Droid Sans,Trebuchet MS,Arial,Helvetica,sans-serif;stroke:none;fill:#000000">-0.2</text><text x="300.78339410138227" y="193.7346766126127" text-anchor="start" style="font:10px Droid Sans,Trebuchet MS,Arial,Helvetica,sans-serif;stroke:none;fill:#000000">0</text><text x="300.78339410138227" y="134.69323517117093" text-anchor="start" style="font:10px Droid Sans,Trebuchet MS,Arial,Helvetica,sans-serif;stroke:none;fill:#000000">0.2</text><text x="300.78339410138227" y="75.65179372972912" text-anchor="start" style="font:10px Droid Sans,Trebuchet MS,Arial,Helvetica,sans-serif;stroke:none;fill:#000000">0.4</text><text x="300.78339410138227" y="16.61035228828731" text-anchor="start" style="font:10px Droid Sans,Trebuchet MS,Arial,Helvetica,sans-serif;stroke:none;fill:#000000">0.6</text><text x="47.275905622118145" y="207.3596766126127" text-anchor="middle" style="font:10px Droid Sans,Trebuchet MS,Arial,Helvetica,sans-serif;stroke:none;fill:#000000">-1</text><text x="96.35240331797094" y="207.3596766126127" text-anchor="middle" style="font:10px Droid Sans,Trebuchet MS,Arial,Helvetica,sans-serif;stroke:none;fill:#000000">-0.8</text><text x="145.42890101382375" y="207.3596766126127" text-anchor="middle" style="font:10px Droid Sans,Trebuchet MS,Arial,Helvetica,sans-serif;stroke:none;fill:#000000">-0.6</text><text x="194.50539870967654" y="207.3596766126127" text-anchor="middle" style="font:10px Droid Sans,Trebuchet MS,Arial,Helvetica,sans-serif;stroke:none;fill:#000000">-0.4</text><text x="243.58189640552933" y="207.3596766126127" text-anchor="middle" style="font:10px Droid Sans,Trebuchet MS,Arial,Helvetica,sans-serif;stroke:none;fill:#000000">-0.2</text><text x="292.65839410138216" y="207.3596766126127" text-anchor="middle" style="font:10px Droid Sans,Trebuchet MS,Arial,Helvetica,sans-serif;stroke:none;fill:#000000">0</text><text x="341.734891797235" y="207.3596766126127" text-anchor="middle" style="font:10px Droid Sans,Trebuchet MS,Arial,Helvetica,sans-serif;stroke:none;fill:#000000">0.2</text><text x="390.81138949308774" y="207.3596766126127" text-anchor="middle" style="font:10px Droid Sans,Trebuchet MS,Arial,Helvetica,sans-serif;stroke:none;fill:#000000">0.4</text><text x="439.8878871889406" y="207.3596766126127" text-anchor="middle" style="font:10px Droid Sans,Trebuchet MS,Arial,Helvetica,sans-serif;stroke:none;fill:#000000">0.6</text><text x="488.96438488479345" y="207.3596766126127" text-anchor="middle" style="font:10px Droid Sans,Trebuchet MS,Arial,Helvetica,sans-serif;stroke:none;fill:#000000">0.8</text><text x="538.0408825806462" y="207.3596766126127" text-anchor="middle" style="font:10px Droid Sans,Trebuchet MS,Arial,Helvetica,sans-serif;stroke:none;fill:#000000">1</text><text x="587.117380276499" y="207.3596766126127" text-anchor="middle" style="font:10px Droid Sans,Trebuchet MS,Arial,Helvetica,sans-serif;stroke:none;fill:#000000">1.2</text><text x="636.1938779723519" y="207.3596766126127" text-anchor="middle" style="font:10px Droid Sans,Trebuchet MS,Arial,Helvetica,sans-serif;stroke:none;fill:#000000">1.4</text><path d="M169.98 400.63 L169.99 398.89 L169.99 397.23 L169.99 395.66 L169.99 394.16 L169.99 392.72 L169.99 391.35 L169.99 390.03 L169.99 388.77 L169.99 387.55 L169.99 386.38 L170.00 385.25 L170.00 384.16 L170.00 383.11 L170.00 382.08 L170.00 381.09 L170.00 380.12 L170.00 379.15 L170.00 378.18 L170.00 377.21 L170.01 376.24 L170.01 375.27 L170.01 374.30 L170.01 373.33 L170.01 372.36 L170.01 371.39 L170.01 370.42 L170.01 369.45 L170.02 368.48 L170.02 367.51 L170.02 366.54 L170.02 365.57 L170.02 364.60 L170.02 363.63 L170.03 362.66 L170.03 361.69 L170.03 360.72 L170.03 359.75 L170.03 358.78 L170.04 357.81 L170.04 356.84 L170.04 355.87 L170.04 354.90 L170.04 353.93 L170.05 352.96 L170.05 351.99 L170.05 351.02 L170.05 350.05 L170.06 349.08 L170.06 348.11 L170.06 347.14 L170.06 346.17 L170.07 345.20 L170.07 344.23 L170.07 343.26 L170.08 342.29 L170.08 341.32 L170.08 340.35 L170.09 339.38 L170.09 338.41 L170.10 337.44 L170.10 336.47 L170.10 335.50 L170.11 334.53 L170.11 333.56 L170.12 332.59 L170.12 331.62 L170.13 330.65 L170.13 329.68 L170.14 328.71 L170.14 327.74 L170.15 326.77 L170.15 325.80 L170.16 324.83 L170.16 323.86 L170.17 322.89 L170.18 321.92 L170.18 320.95 L170.19 319.98 L170.20 319.01 L170.20 318.04 L170.21 317.07 L170.22 316.10 L170.23 315.13 L170.23 314.16 L170.24 313.19 L170.25 312.22 L170.26 311.25 L170.27 310.28 L170.28 309.31 L170.29 308.34 L170.30 307.37 L170.31 306.40 L170.32 305.43 L170.33 304.46 L170.34 303.49 L170.35 302.52 L170.36 301.55 L170.38 300.58 L170.39 299.61 L170.40 298.64 L170.41 297.67 L170.43 296.70 L170.44 295.73 L170.46 294.76 L170.47 293.79 L170.49 292.82 L170.50 291.85 L170.52 290.88 L170.54 289.91 L170.56 288.95 L170.57 287.98 L170.59 287.01 L170.61 286.04 L170.63 285.07 L170.65 284.10 L170.67 283.13 L170.70 282.16 L170.72 281.19 L170.74 280.22 L170.77 279.25 L170.79 278.28 L170.82 277.31 L170.84 276.34 L170.87 275.37 L170.90 274.40 L170.93 273.44 L170.96 272.47 L170.99 271.50 L171.02 270.53 L171.05 269.56 L171.09 268.59 L171.12 267.62 L171.16 266.65 L171.20 265.68 L171.24 264.71 L171.28 263.75 L171.32 262.78 L171.36 261.81 L171.40 260.84 L171.45 259.87 L171.50 258.90 L171.54 257.93 L171.59 256.97 L171.65 256.00 L171.70 255.03 L171.75 254.06 L171.81 253.09 L171.87 252.12 L171.93 251.16 L171.99 250.19 L172.06 249.22 L172.12 248.25 L172.19 247.29 L172.26 246.32 L172.34 245.35 L172.41 244.38 L172.49 243.41 L172.57 242.45 L172.66 241.48 L172.75 240.51 L172.84 239.55 L172.93 238.58 L173.02 237.61 L173.12 236.65 L173.23 235.68 L173.33 234.71 L173.44 233.75 L173.56 232.78 L173.68 231.82 L173.80 230.85 L173.92 229.88 L174.06 228.92 L174.19 227.95 L174.33 226.99 L174.48 226.02 L174.63 225.06 L174.78 224.09 L174.95 223.13 L175.12 222.17 L175.29 221.20 L175.47 220.24 L175.66 219.27 L175.85 218.31 L176.06 217.35 L176.27 216.39 L176.49 215.42 L176.71 214.46 L176.95 213.50 L177.20 212.54 L177.45 211.58 L177.72 210.62 L177.99 209.66 L178.28 208.70 L178.58 207.74 L178.90 206.78 L179.23 205.83 L179.57 204.87 L179.93 203.91 L180.30 202.96 L180.69 202.00 L181.10 201.05 L181.53 200.09 L181.98 199.14 L182.45 198.19 L182.95 197.24 L183.47 196.29 L184.02 195.34 L184.60 194.39 L185.21 193.45 L185.86 192.50 L186.54 191.56 L187.27 190.62 L188.05 189.68 L188.87 188.75 L189.76 187.82 L190.70 186.89 L191.72 185.96 L192.83 185.04 L194.02 184.13 L195.33 183.22 L196.77 182.31 L198.36 181.42 L200.14 180.54 L202.14 179.69 L204.14 178.96 L206.14 178.34 L208.14 177.82 L210.14 177.38 L212.14 177.03 L214.14 176.75 L216.14 176.53 L218.14 176.37 L220.14 176.27 L222.14 176.22 L224.14 176.22 L226.14 176.26 L228.14 176.34 L230.14 176.46 L232.14 176.62 L234.14 176.81 L236.14 177.03 L238.14 177.28 L240.14 177.55 L242.14 177.85 L244.14 178.18 L246.14 178.53 L248.14 178.90 L250.14 179.30 L252.14 179.71 L254.14 180.14 L256.14 180.59 L258.14 181.06 L260.14 181.55 L262.14 182.05 L264.14 182.56 L266.14 183.09 L268.14 183.63 L270.14 184.19 L272.14 184.76 L274.14 185.34 L276.14 185.93 L278.14 186.54 L280.14 187.16 L282.14 187.78 L284.14 188.42 L286.14 189.06 L288.14 189.72 L290.14 190.39 L292.14 191.06 L294.14 191.74 L296.14 192.43 L298.14 193.13 L300.14 193.84 L302.14 194.55 L304.14 195.28 L306.14 196.00 L308.14 196.74 L310.14 197.48 L312.14 198.23 L314.14 198.99 L316.14 199.75 L318.14 200.52 L320.14 201.29 L322.14 202.07 L324.14 202.85 L326.14 203.64 L328.14 204.44 L330.14 205.24 L332.14 206.04 L334.14 206.85 L336.14 207.67 L338.14 208.49 L340.14 209.31 L342.14 210.14 L344.14 210.97 L346.14 211.81 L348.14 212.65 L350.14 213.50 L352.14 214.35 L354.14 215.20 L356.14 216.06 L358.14 216.92 L360.14 217.78 L362.14 218.65 L364.14 219.52 L366.14 220.39 L368.14 221.27 L370.14 222.15 L372.14 223.04 L374.14 223.93 L376.14 224.82 L378.14 225.71 L380.14 226.61 L382.14 227.51 L384.14 228.41 L386.14 229.31 L388.14 230.22 L390.14 231.13 L392.14 232.05 L394.14 232.96 L396.14 233.88 L398.14 234.80 L400.14 235.72 L402.14 236.65 L404.14 237.58 L406.14 238.51 L408.14 239.44 L410.14 240.38 L412.14 241.31 L414.14 242.25 L416.14 243.19 L418.14 244.14 L420.14 245.08 L422.14 246.03 L424.14 246.98 L426.14 247.93 L428.14 248.89 L430.14 249.84 L432.14 250.80 L434.14 251.76 L436.14 252.72 L438.14 253.68 L440.14 254.65 L442.14 255.62 L444.14 256.58 L446.14 257.55 L448.14 258.53 L450.14 259.50 L452.14 260.47 L454.14 261.45 L456.14 262.43 L458.14 263.41 L460.14 264.39 L462.14 265.37 L464.14 266.36 L466.14 267.34 L468.14 268.33 L470.14 269.32 L472.14 270.31 L474.14 271.30 L476.14 272.29 L478.14 273.29 L480.14 274.28 L482.14 275.28 L484.14 276.28 L486.14 277.28 L488.14 278.28 L490.14 279.28 L492.14 280.28 L494.13 281.28 L496.12 282.29 L498.11 283.29 L500.10 284.29 L502.08 285.29 L504.06 286.29 L506.04 287.29 L508.02 288.29 L509.99 289.29 L511.96 290.29 L513.93 291.30 L515.90 292.30 L517.87 293.30 L519.83 294.30 L521.79 295.30 L523.75 296.30 L525.71 297.30 L527.67 298.30 L529.62 299.30 L531.58 300.30 L533.53 301.31 L535.48 302.31 L537.42 303.31 L539.37 304.31 L541.31 305.31 L543.25 306.31 L545.19 307.31 L547.13 308.31 L549.07 309.31 L551.00 310.31 L552.94 311.31 L554.87 312.32 L556.80 313.32 L558.73 314.32 L560.65 315.32 L562.58 316.32 L564.50 317.32 L566.43 318.32 L568.35 319.32 L570.27 320.32 L572.19 321.32 L574.10 322.32 L576.02 323.32 L577.93 324.32 L579.85 325.33 L581.76 326.33 L583.67 327.33 L585.58 328.33 L587.49 329.33 L589.39 330.33 L591.30 331.33 L593.20 332.33 L595.10 333.33 L597.00 334.33 L598.90 335.33 L600.80 336.33 L602.70 337.33 L604.60 338.33 L606.49 339.33 L608.39 340.33 L610.28 341.34 L612.17 342.34 L614.06 343.34 L615.95 344.34 L617.84 345.34 L619.73 346.34 L621.61 347.34 L623.50 348.34 L625.38 349.34 L627.27 350.34 L629.15 351.34 L631.03 352.34 L632.91 353.34 L634.79 354.34 L636.67 355.34 L638.55 356.34 L640.42 357.34 L642.30 358.34 L644.17 359.35 L646.04 360.35 L647.92 361.35 L649.79 362.35 " style="fill:none;stroke:#F70000;stroke-width:1;" /><path d="M-10.00 200.00 L-0.25 54.15 L0.75 54.67 L2.66 55.67 L4.57 56.67 L6.48 57.67 L8.39 58.67 L10.30 59.67 L12.21 60.67 L14.13 61.67 L16.04 62.67 L17.96 63.67 L19.88 64.67 L21.80 65.66 L23.72 66.66 L25.65 67.66 L27.57 68.66 L29.50 69.66 L31.43 70.66 L33.36 71.66 L35.29 72.66 L37.22 73.66 L39.15 74.66 L41.09 75.66 L43.03 76.66 L44.97 77.65 L46.91 78.65 L48.85 79.65 L50.79 80.65 L52.74 81.65 L54.69 82.65 L56.64 83.65 L58.59 84.65 L60.54 85.65 L62.50 86.65 L64.46 87.65 L66.41 88.64 L68.38 89.64 L70.34 90.64 L72.30 91.64 L74.27 92.64 L76.24 93.64 L78.21 94.64 L80.18 95.64 L82.16 96.64 L84.14 97.63 L86.12 98.63 L88.10 99.63 L90.09 100.63 L92.07 101.63 L94.06 102.63 L96.05 103.63 L98.05 104.63 L100.04 105.63 L102.04 106.62 L104.04 107.62 L106.04 108.62 L108.04 109.61 L110.04 110.61 L112.04 111.60 L114.04 112.59 L116.04 113.58 L118.04 114.57 L120.04 115.55 L122.04 116.54 L124.04 117.52 L126.04 118.51 L128.04 119.49 L130.04 120.47 L132.04 121.44 L134.04 122.42 L136.04 123.39 L138.04 124.37 L140.04 125.34 L142.04 126.31 L144.04 127.27 L146.04 128.24 L148.04 129.20 L150.04 130.17 L152.04 131.13 L154.04 132.09 L156.04 133.04 L158.04 134.00 L160.04 134.95 L162.04 135.90 L164.04 136.85 L166.04 137.80 L168.04 138.74 L170.04 139.69 L172.04 140.63 L174.04 141.56 L176.04 142.50 L178.04 143.43 L180.04 144.37 L182.04 145.30 L184.04 146.22 L186.04 147.15 L188.04 148.07 L190.04 148.99 L192.04 149.91 L194.04 150.82 L196.04 151.73 L198.04 152.64 L200.04 153.55 L202.04 154.45 L204.04 155.36 L206.04 156.25 L208.04 157.15 L210.04 158.04 L212.04 158.93 L214.04 159.82 L216.04 160.70 L218.04 161.58 L220.04 162.46 L222.04 163.33 L224.04 164.20 L226.04 165.06 L228.04 165.93 L230.04 166.79 L232.04 167.64 L234.04 168.49 L236.04 169.34 L238.04 170.18 L240.04 171.02 L242.04 171.86 L244.04 172.69 L246.04 173.52 L248.04 174.34 L250.04 175.16 L252.04 175.97 L254.04 176.78 L256.04 177.58 L258.04 178.38 L260.04 179.17 L262.04 179.96 L264.04 180.74 L266.04 181.52 L268.04 182.29 L270.04 183.05 L272.04 183.81 L274.04 184.56 L276.04 185.31 L278.04 186.05 L280.04 186.78 L282.04 187.51 L284.04 188.23 L286.04 188.94 L288.04 189.64 L290.04 190.34 L292.04 191.03 L294.04 191.70 L296.04 192.37 L298.04 193.04 L300.04 193.69 L302.04 194.33 L304.04 194.96 L306.04 195.58 L308.04 196.19 L310.04 196.79 L312.04 197.38 L314.04 197.96 L316.04 198.52 L318.04 199.07 L320.04 199.61 L322.04 200.14 L324.04 200.64 L326.04 201.14 L328.04 201.61 L330.04 202.07 L332.04 202.52 L334.04 202.94 L336.04 203.35 L338.04 203.73 L340.04 204.09 L342.04 204.43 L344.04 204.75 L346.04 205.04 L348.04 205.31 L350.04 205.54 L352.04 205.75 L354.04 205.92 L356.04 206.06 L358.04 206.17 L360.04 206.23 L362.04 206.25 L364.04 206.23 L366.04 206.16 L368.04 206.03 L370.04 205.85 L372.04 205.61 L374.04 205.30 L376.04 204.91 L378.04 204.44 L380.04 203.87 L382.04 203.21 L384.04 202.43 L386.04 201.51 L388.04 200.45 L389.93 199.29 L391.55 198.15 L392.98 197.03 L394.25 195.92 L395.39 194.82 L396.43 193.73 L397.39 192.65 L398.27 191.57 L399.08 190.49 L399.84 189.42 L400.55 188.35 L401.21 187.28 L401.83 186.22 L402.41 185.16 L402.96 184.10 L403.48 183.04 L403.97 181.99 L404.43 180.93 L404.87 179.88 L405.29 178.82 L405.68 177.77 L406.06 176.72 L406.42 175.67 L406.76 174.63 L407.09 173.58 L407.40 172.53 L407.70 171.49 L407.99 170.44 L408.26 169.40 L408.52 168.35 L408.77 167.31 L409.01 166.26 L409.24 165.22 L409.46 164.18 L409.67 163.14 L409.87 162.09 L410.07 161.05 L410.25 160.01 L410.43 158.97 L410.60 157.93 L410.77 156.89 L410.93 155.85 L411.08 154.81 L411.23 153.77 L411.37 152.74 L411.51 151.70 L411.64 150.66 L411.77 149.62 L411.89 148.58 L412.01 147.54 L412.12 146.51 L412.23 145.47 L412.34 144.43 L412.44 143.40 L412.53 142.36 L412.63 141.32 L412.72 140.29 L412.81 139.25 L412.89 138.21 L412.97 137.18 L413.05 136.14 L413.13 135.10 L413.20 134.07 L413.27 133.03 L413.34 132.00 L413.41 130.96 L413.47 129.93 L413.53 128.89 L413.59 127.86 L413.65 126.82 L413.71 125.79 L413.76 124.75 L413.81 123.72 L413.86 122.68 L413.91 121.65 L413.96 120.61 L414.00 119.58 L414.05 118.54 L414.09 117.51 L414.13 116.47 L414.17 115.44 L414.21 114.41 L414.25 113.37 L414.28 112.34 L414.32 111.30 L414.35 110.27 L414.38 109.23 L414.41 108.20 L414.44 107.17 L414.47 106.13 L414.50 105.10 L414.53 104.06 L414.56 103.03 L414.58 102.00 L414.61 100.96 L414.63 99.93 L414.65 98.90 L414.67 97.86 L414.70 96.83 L414.72 95.79 L414.74 94.76 L414.76 93.73 L414.78 92.69 L414.79 91.66 L414.81 90.63 L414.83 89.59 L414.85 88.56 L414.86 87.53 L414.88 86.49 L414.89 85.46 L414.91 84.43 L414.92 83.39 L414.94 82.36 L414.95 81.33 L414.96 80.29 L414.97 79.26 L414.99 78.23 L415.00 77.19 L415.01 76.16 L415.02 75.13 L415.03 74.09 L415.04 73.06 L415.05 72.03 L415.06 70.99 L415.07 69.96 L415.08 68.93 L415.09 67.90 L415.10 66.86 L415.10 65.83 L415.11 64.80 L415.12 63.76 L415.13 62.73 L415.13 61.70 L415.14 60.66 L415.15 59.63 L415.15 58.60 L415.16 57.57 L415.17 56.53 L415.17 55.50 L415.18 54.47 L415.18 53.43 L415.19 52.40 L415.19 51.37 L415.20 50.33 L415.20 49.30 L415.21 48.27 L415.21 47.24 L415.22 46.20 L415.22 45.17 L415.22 44.14 L415.23 43.10 L415.23 42.07 L415.24 41.04 L415.24 40.01 L415.24 38.97 L415.25 37.94 L415.25 36.91 L415.25 35.87 L415.26 34.84 L415.26 33.81 L415.26 32.77 L415.26 31.74 L415.27 30.71 L415.27 29.68 L415.27 28.64 L415.28 27.61 L415.28 26.58 L415.28 25.54 L415.28 24.51 L415.28 23.48 L415.29 22.45 L415.29 21.41 L415.29 20.38 L415.29 19.35 L415.29 18.32 L415.30 17.28 L415.30 16.25 L415.30 15.22 L415.30 14.18 L415.30 13.15 L415.30 12.12 L415.31 11.09 L415.31 10.05 L415.31 9.02 L415.31 7.99 L415.31 6.95 L415.31 5.92 L415.31 4.89 L415.31 3.86 L415.32 2.82 L415.32 1.79 L415.32 0.76 L415.32 -0.28 " style="fill:none;stroke:#F70A0A;stroke-width:1;" /></g></svg>