<?xml version="1.0" encoding="utf-8" standalone="no"?><!DOCTYPE svg PUBLIC "-//W3C//DTD SVG 1.1//EN" "http://www.w3.org/Graphics/SVG/1.1/DTD/svg11.dtd">
<svg preserveAspectRatio="xMinYMin meet" width="100%" height="100%" viewBox="0 0 521.379 391.034"  version="1.1" xmlns="http://www.w3.org/2000/svg" xmlns:xlink="http://www.w3.org/1999/xlink">
  <desc>Matlab Figure Converted by PLOT2SVG written by Juerg Schwizer</desc>
  <g id="topgroup">
  <rect x="0" y="0" width="521.379" height="391.034" fill="#ffffff" stroke="none" />
  <g id ="ID000000">
  <clipPath id="ID000001">
    <rect x="67.779" y="29.328" width="404.069" height="318.693"/>
  </clipPath>
      <polygon fill="#ffffff" fill-opacity="1.00" stroke="none" stroke-width="0.5pt" stroke-opacity="1.00" stroke-dasharray="none" points="67.779,348.021 471.848,348.021 471.848,29.328 67.779,29.328 "/>
      <polygon fill="#ffffff" fill-opacity="1.00" stroke="none" stroke-width="0.5pt" stroke-opacity="1.00" stroke-dasharray="none" points="67.779,29.328 471.848,29.328 471.848,29.328 67.779,29.328 "/>
      <polygon fill="#ffffff" fill-opacity="1.00" stroke="none" stroke-width="0.5pt" stroke-opacity="1.00" stroke-dasharray="none" points="67.779,348.021 67.779,348.021 67.779,29.328 67.779,29.328 "/>
    <g>
<g id="ID000002" clip-path="url(#ID000001)" >
      <polyline fill="none" stroke="#0000ff" stroke-width="0.5pt" stroke-dasharray="none" points="72.269,34.435 76.759,68.691 81.248,287.771 85.738,296.565 90.228,262.121 94.717,290.852 99.207,319.158 103.697,276.687 108.186,272.819 112.676,259.222 117.166,268.868 121.655,264.623 126.145,252.780 130.634,254.206 135.124,248.335 139.614,247.855 144.103,245.663 148.593,245.946 153.083,248.103 157.572,245.141 162.062,244.676 166.552,244.404 171.041,243.918 175.531,244.148 180.021,245.154 184.510,243.817 189.000,242.669 193.490,241.652 197.979,241.479 202.469,243.228 206.959,243.018 211.448,241.796 215.938,236.685 220.428,236.400 224.917,235.500 229.407,235.410 233.897,235.284 238.386,234.394 242.876,234.174 247.366,234.221 251.855,233.963 256.345,234.002 260.834,234.267 265.324,233.254 269.814,233.320 274.303,233.466 278.793,233.810 283.283,234.001 287.772,233.895 292.262,233.659 296.752,233.353 301.241,233.099 305.731,232.586 310.221,232.541 314.710,232.365 319.200,232.337 323.690,231.992 328.179,232.240 332.669,232.716 337.159,230.934 341.648,230.529 346.138,230.593 350.628,231.071 355.117,231.537 359.607,231.246 364.097,230.214 368.586,230.534 373.076,231.923 377.566,229.794 382.055,229.063 386.545,229.153 391.034,228.684 395.524,228.847 400.014,228.747 404.503,228.677 408.993,229.144 413.483,228.265 417.972,228.633 422.462,229.287 426.952,228.863 431.441,229.388 "/>
<g>
</g>
</g>
<g id="ID000003" clip-path="url(#ID000001)" >
      <polyline fill="none" stroke="#ff0000" stroke-width="0.5pt" stroke-dasharray="none" points="72.269,170.969 76.759,170.848 81.248,170.591 85.738,170.063 90.228,169.809 94.717,169.917 99.207,170.295 103.697,170.563 108.186,170.450 112.676,170.227 117.166,170.657 121.655,170.526 126.145,170.330 130.634,170.593 135.124,170.661 139.614,170.488 144.103,170.418 148.593,170.504 153.083,170.249 157.572,170.933 162.062,170.898 166.552,170.636 171.041,170.156 175.531,170.851 180.021,170.362 184.510,170.461 189.000,171.019 193.490,170.620 197.979,171.240 202.469,171.429 206.959,171.441 211.448,170.962 215.938,171.359 220.428,171.665 224.917,172.179 229.407,172.114 233.897,172.414 238.386,171.968 242.876,172.075 247.366,171.910 251.855,171.574 256.345,171.907 260.834,172.217 265.324,172.314 269.814,171.877 274.303,171.779 278.793,172.115 283.283,173.187 287.772,173.063 292.262,172.495 296.752,172.413 301.241,173.213 305.731,173.422 310.221,173.851 314.710,173.495 319.200,173.167 323.690,173.043 328.179,173.274 332.669,172.913 337.159,172.707 341.648,172.561 346.138,172.526 350.628,172.578 355.117,172.713 359.607,172.665 364.097,172.727 368.586,172.817 373.076,172.414 377.566,172.356 382.055,172.240 386.545,172.518 391.034,172.318 395.524,171.795 400.014,172.169 404.503,172.460 408.993,172.336 413.483,172.448 417.972,172.169 422.462,172.371 426.952,172.156 431.441,172.681 "/>
<g>
</g>
</g>
<g id="ID000004" >
  <g transform="translate(269.038,376.715)">
    <g transform="rotate(-0.0)">
      <text x="0.000" y="0.000" font-family="Helvetica" text-anchor="middle" font-size="8pt" fill="#000000" >time(sec)</text>
    </g>
  </g>
</g>
<g id="ID000005" >
  <g transform="translate(39.083,189.450)">
    <g transform="rotate(-90.0)">
      <text x="0.000" y="0.000" font-family="Helvetica" text-anchor="middle" font-size="8pt" fill="#000000" >Radius(m)</text>
    </g>
  </g>
</g>
<g id="ID000006" >
</g>
<g id="ID000007" >
</g>
<g id="ID000008" >
</g>
    </g>
    <g>
      <polyline fill="none" stroke="#000000" stroke-width="0.5pt" stroke-dasharray="none" points="67.779,348.021 67.779,343.980 "/>
      <polyline fill="none" stroke="#000000" stroke-width="0.5pt" stroke-dasharray="none" points="112.676,348.021 112.676,343.980 "/>
      <polyline fill="none" stroke="#000000" stroke-width="0.5pt" stroke-dasharray="none" points="157.572,348.021 157.572,343.980 "/>
      <polyline fill="none" stroke="#000000" stroke-width="0.5pt" stroke-dasharray="none" points="202.469,348.021 202.469,343.980 "/>
      <polyline fill="none" stroke="#000000" stroke-width="0.5pt" stroke-dasharray="none" points="247.366,348.021 247.366,343.980 "/>
      <polyline fill="none" stroke="#000000" stroke-width="0.5pt" stroke-dasharray="none" points="292.262,348.021 292.262,343.980 "/>
      <polyline fill="none" stroke="#000000" stroke-width="0.5pt" stroke-dasharray="none" points="337.159,348.021 337.159,343.980 "/>
      <polyline fill="none" stroke="#000000" stroke-width="0.5pt" stroke-dasharray="none" points="382.055,348.021 382.055,343.980 "/>
      <polyline fill="none" stroke="#000000" stroke-width="0.5pt" stroke-dasharray="none" points="426.952,348.021 426.952,343.980 "/>
      <polyline fill="none" stroke="#000000" stroke-width="0.5pt" stroke-dasharray="none" points="471.848,348.021 471.848,343.980 "/>
      <polyline fill="none" stroke="#000000" stroke-width="0.5pt" stroke-dasharray="none" points="67.779,348.021 471.848,348.021 "/>
  <g transform="translate(67.779,363.550)">
    <g transform="rotate(-0.0)">
      <text x="0.000" y="0.000" font-family="Helvetica" text-anchor="middle" font-size="8pt" fill="#000000" >0</text>
    </g>
  </g>
  <g transform="translate(112.676,363.550)">
    <g transform="rotate(-0.0)">
      <text x="0.000" y="0.000" font-family="Helvetica" text-anchor="middle" font-size="8pt" fill="#000000" >1</text>
    </g>
  </g>
  <g transform="translate(157.572,363.550)">
    <g transform="rotate(-0.0)">
      <text x="0.000" y="0.000" font-family="Helvetica" text-anchor="middle" font-size="8pt" fill="#000000" >2</text>
    </g>
  </g>
  <g transform="translate(202.469,363.550)">
    <g transform="rotate(-0.0)">
      <text x="0.000" y="0.000" font-family="Helvetica" text-anchor="middle" font-size="8pt" fill="#000000" >3</text>
    </g>
  </g>
  <g transform="translate(247.366,363.550)">
    <g transform="rotate(-0.0)">
      <text x="0.000" y="0.000" font-family="Helvetica" text-anchor="middle" font-size="8pt" fill="#000000" >4</text>
    </g>
  </g>
  <g transform="translate(292.262,363.550)">
    <g transform="rotate(-0.0)">
      <text x="0.000" y="0.000" font-family="Helvetica" text-anchor="middle" font-size="8pt" fill="#000000" >5</text>
    </g>
  </g>
  <g transform="translate(337.159,363.550)">
    <g transform="rotate(-0.0)">
      <text x="0.000" y="0.000" font-family="Helvetica" text-anchor="middle" font-size="8pt" fill="#000000" >6</text>
    </g>
  </g>
  <g transform="translate(382.055,363.550)">
    <g transform="rotate(-0.0)">
      <text x="0.000" y="0.000" font-family="Helvetica" text-anchor="middle" font-size="8pt" fill="#000000" >7</text>
    </g>
  </g>
  <g transform="translate(426.952,363.550)">
    <g transform="rotate(-0.0)">
      <text x="0.000" y="0.000" font-family="Helvetica" text-anchor="middle" font-size="8pt" fill="#000000" >8</text>
    </g>
  </g>
  <g transform="translate(471.848,363.550)">
    <g transform="rotate(-0.0)">
      <text x="0.000" y="0.000" font-family="Helvetica" text-anchor="middle" font-size="8pt" fill="#000000" >9</text>
    </g>
  </g>
      <polyline fill="none" stroke="#000000" stroke-width="0.5pt" stroke-dasharray="none" points="67.779,348.021 71.820,348.021 "/>
      <polyline fill="none" stroke="#000000" stroke-width="0.5pt" stroke-dasharray="none" points="67.779,312.610 71.820,312.610 "/>
      <polyline fill="none" stroke="#000000" stroke-width="0.5pt" stroke-dasharray="none" points="67.779,277.200 71.820,277.200 "/>
      <polyline fill="none" stroke="#000000" stroke-width="0.5pt" stroke-dasharray="none" points="67.779,241.790 71.820,241.790 "/>
      <polyline fill="none" stroke="#000000" stroke-width="0.5pt" stroke-dasharray="none" points="67.779,206.379 71.820,206.379 "/>
      <polyline fill="none" stroke="#000000" stroke-width="0.5pt" stroke-dasharray="none" points="67.779,170.969 71.820,170.969 "/>
      <polyline fill="none" stroke="#000000" stroke-width="0.5pt" stroke-dasharray="none" points="67.779,135.559 71.820,135.559 "/>
      <polyline fill="none" stroke="#000000" stroke-width="0.5pt" stroke-dasharray="none" points="67.779,100.148 71.820,100.148 "/>
      <polyline fill="none" stroke="#000000" stroke-width="0.5pt" stroke-dasharray="none" points="67.779,64.738 71.820,64.738 "/>
      <polyline fill="none" stroke="#000000" stroke-width="0.5pt" stroke-dasharray="none" points="67.779,29.328 71.820,29.328 "/>
      <polyline fill="none" stroke="#000000" stroke-width="0.5pt" stroke-dasharray="none" points="67.779,348.021 67.779,29.328 "/>
  <g transform="translate(59.698,351.512)">
    <g transform="rotate(-0.0)">
      <text x="0.000" y="0.000" font-family="Helvetica" text-anchor="end" font-size="8pt" fill="#000000" >0.5</text>
    </g>
  </g>
  <g transform="translate(59.698,316.102)">
    <g transform="rotate(-0.0)">
      <text x="0.000" y="0.000" font-family="Helvetica" text-anchor="end" font-size="8pt" fill="#000000" >0.6</text>
    </g>
  </g>
  <g transform="translate(59.698,280.691)">
    <g transform="rotate(-0.0)">
      <text x="0.000" y="0.000" font-family="Helvetica" text-anchor="end" font-size="8pt" fill="#000000" >0.7</text>
    </g>
  </g>
  <g transform="translate(59.698,245.281)">
    <g transform="rotate(-0.0)">
      <text x="0.000" y="0.000" font-family="Helvetica" text-anchor="end" font-size="8pt" fill="#000000" >0.8</text>
    </g>
  </g>
  <g transform="translate(59.698,209.871)">
    <g transform="rotate(-0.0)">
      <text x="0.000" y="0.000" font-family="Helvetica" text-anchor="end" font-size="8pt" fill="#000000" >0.9</text>
    </g>
  </g>
  <g transform="translate(59.698,174.460)">
    <g transform="rotate(-0.0)">
      <text x="0.000" y="0.000" font-family="Helvetica" text-anchor="end" font-size="8pt" fill="#000000" >1</text>
    </g>
  </g>
  <g transform="translate(59.698,139.050)">
    <g transform="rotate(-0.0)">
      <text x="0.000" y="0.000" font-family="Helvetica" text-anchor="end" font-size="8pt" fill="#000000" >1.1</text>
    </g>
  </g>
  <g transform="translate(59.698,103.640)">
    <g transform="rotate(-0.0)">
      <text x="0.000" y="0.000" font-family="Helvetica" text-anchor="end" font-size="8pt" fill="#000000" >1.2</text>
    </g>
  </g>
  <g transform="translate(59.698,68.229)">
    <g transform="rotate(-0.0)">
      <text x="0.000" y="0.000" font-family="Helvetica" text-anchor="end" font-size="8pt" fill="#000000" >1.3</text>
    </g>
  </g>
  <g transform="translate(59.698,32.819)">
    <g transform="rotate(-0.0)">
      <text x="0.000" y="0.000" font-family="Helvetica" text-anchor="end" font-size="8pt" fill="#000000" >1.4</text>
    </g>
  </g>
      <polyline fill="none" stroke="#000000" stroke-width="0.5pt" stroke-dasharray="none" points="67.779,348.021 67.779,344.834 "/>
      <polyline fill="none" stroke="#000000" stroke-width="0.5pt" stroke-dasharray="none" points="67.779,348.021 67.779,344.834 "/>
      <polyline fill="none" stroke="#000000" stroke-width="0.5pt" stroke-dasharray="none" points="67.779,348.021 67.779,344.834 "/>
      <polyline fill="none" stroke="#000000" stroke-width="0.5pt" stroke-dasharray="none" points="67.779,348.021 67.779,348.021 "/>
    </g>
  </g>
  <g id ="ID000009">
  <clipPath id="ID000010">
    <rect x="383.879" y="36.121" width="82.759" height="36.659"/>
  </clipPath>
      <polygon fill="#ffffff" fill-opacity="1.00" stroke="none" stroke-width="0.5pt" stroke-opacity="1.00" stroke-dasharray="none" points="383.879,72.780 466.638,72.780 466.638,36.121 383.879,36.121 "/>
      <polygon fill="#ffffff" fill-opacity="1.00" stroke="none" stroke-width="0.5pt" stroke-opacity="1.00" stroke-dasharray="none" points="383.879,36.121 466.638,36.121 466.638,36.121 383.879,36.121 "/>
      <polygon fill="#ffffff" fill-opacity="1.00" stroke="none" stroke-width="0.5pt" stroke-opacity="1.00" stroke-dasharray="none" points="383.879,72.780 383.879,72.780 383.879,36.121 383.879,36.121 "/>
    <g>
<g id="ID000011" >
  <g transform="translate(433.456,50.142)">
    <g transform="rotate(-0.0)">
      <text x="0.000" y="0.000" font-family="Helvetica" text-anchor="start" font-size="8pt" fill="#000000" >Rest</text>
    </g>
  </g>
</g>
<g id="ID000012" clip-path="url(#ID000010)" >
      <polyline fill="none" stroke="#0000ff" stroke-width="0.5pt" stroke-dasharray="none" points="391.379,46.379 428.879,46.379 "/>
<g>
</g>
</g>
<g id="ID000013" clip-path="url(#ID000010)" >
<g>
</g>
</g>
<g id="ID000014" >
  <g transform="translate(433.456,67.302)">
    <g transform="rotate(-0.0)">
      <text x="0.000" y="0.000" font-family="Helvetica" text-anchor="start" font-size="8pt" fill="#000000" >Rtrue</text>
    </g>
  </g>
</g>
<g id="ID000015" clip-path="url(#ID000010)" >
      <polyline fill="none" stroke="#ff0000" stroke-width="0.5pt" stroke-dasharray="none" points="391.379,62.522 428.879,62.522 "/>
<g>
</g>
</g>
<g id="ID000016" clip-path="url(#ID000010)" >
<g>
</g>
</g>
<g id="ID000017" >
</g>
<g id="ID000018" >
</g>
<g id="ID000019" >
</g>
    </g>
    <g>
      <polyline fill="none" stroke="#000000" stroke-width="0.5pt" stroke-dasharray="none" points="383.879,72.780 466.638,72.780 "/>
      <polyline fill="none" stroke="#000000" stroke-width="0.5pt" stroke-dasharray="none" points="383.879,36.121 466.638,36.121 "/>
      <polyline fill="none" stroke="#000000" stroke-width="0.5pt" stroke-dasharray="none" points="383.879,72.780 383.879,36.121 "/>
      <polyline fill="none" stroke="#000000" stroke-width="0.5pt" stroke-dasharray="none" points="466.638,72.780 466.638,36.121 "/>
      <polyline fill="none" stroke="#000000" stroke-width="0.5pt" stroke-dasharray="none" points="383.879,72.780 383.879,72.414 "/>
      <polyline fill="none" stroke="#000000" stroke-width="0.5pt" stroke-dasharray="none" points="383.879,72.780 383.879,72.780 "/>
    </g>
  </g>
  </g>
</svg>
